<svg width="171" height="177" viewBox="0 0 171 177" fill="none" xmlns="http://www.w3.org/2000/svg">
<path fill-rule="evenodd" clip-rule="evenodd" d="M12.8622 129.969C16.6082 108.975 54.5136 120.935 79.364 114.445C104.214 107.955 133.615 77.7288 153.072 92.5349C172.529 107.341 151.827 143.132 107.2 151.209C62.5727 159.285 9.11612 150.962 12.8622 129.969Z" fill="#F2F2F2"/>
<g opacity="0.5">
<path fill-rule="evenodd" clip-rule="evenodd" d="M19.8394 33.7493C19.4605 34.1276 19.6077 35.4718 19.5998 35.9693C19.5876 36.7438 19.6358 37.5113 19.7005 38.283C19.7439 38.7996 19.9885 43.7303 20.669 43.3516C21.0527 43.1383 20.8121 41.7119 20.8115 41.2608C20.8099 40.2578 20.7682 39.2573 20.7013 38.2565C20.6391 37.3274 20.6001 36.4092 20.6359 35.4783C20.6446 35.2511 20.8572 32.7297 19.8394 33.7493Z" fill="#89C5CC"/>
<path fill-rule="evenodd" clip-rule="evenodd" d="M36.3382 33.1416C33.0836 33.1675 29.8303 33.328 26.5772 33.4264C25.0118 33.4737 23.4474 33.5339 21.8837 33.6206C21.3509 33.6502 20.2081 33.4796 19.7641 33.7635C18.7787 34.3939 20.368 34.5412 20.7917 34.5258C27.2295 34.2924 33.6696 33.9849 40.113 33.9704C43.2737 33.9634 46.4329 34.0533 49.5939 34.0331C50.8023 34.0254 52.1403 33.5048 52.4455 34.9113C52.7899 36.4984 52.3942 38.2655 52.2865 39.8603C52.2146 40.9249 52.2402 41.9674 52.2882 43.0311C52.3189 43.7126 52.2388 44.4805 52.3593 45.1492C52.4752 45.7931 52.9382 46.1793 53.3625 45.458C53.616 45.0269 53.4899 43.9627 53.5068 43.4633C53.5295 42.7908 53.5081 42.1185 53.5081 41.4458C53.5079 39.804 53.7397 38.1687 53.7091 36.5272C53.6894 35.4687 53.6331 33.5498 52.2981 33.2955C50.828 33.0154 49.021 33.2971 47.5165 33.2799C43.7888 33.2374 40.0672 33.1124 36.3382 33.1416Z" fill="#89C5CC"/>
<path fill-rule="evenodd" clip-rule="evenodd" d="M27.3698 43.4106C26.1426 43.4106 24.9152 43.4179 23.6881 43.4383C22.6357 43.4557 20.9809 43.2363 20.0014 43.6129C19.3308 43.8706 19.1527 44.6193 20.0014 44.8187C20.927 45.0363 22.3221 44.6806 23.2906 44.6635C28.147 44.5778 33.0501 44.466 37.8997 44.7732C42.4438 45.0609 47.0756 45.3399 51.6265 45.0362C52.0093 45.0106 53.9622 44.9329 53.0711 44.2009C52.5512 43.7736 50.4442 44.0546 49.7686 44.0342C47.3855 43.9623 45.0002 43.9463 42.6179 43.856C40.2668 43.7668 37.926 43.5025 35.5741 43.437C32.8417 43.361 30.1032 43.4106 27.3698 43.4106Z" fill="#89C5CC"/>
<path fill-rule="evenodd" clip-rule="evenodd" d="M26.1422 36.4304C28.055 36.5139 29.9474 39.288 28.012 40.6287C26.1964 41.8867 22.7936 40.508 23.8032 38.0686C23.6581 38.4213 23.9867 37.6855 23.9908 37.6805C24.1828 37.4544 24.5276 37.204 24.7642 37.0257C25.035 36.8216 25.317 36.597 25.6435 36.4947C25.8579 36.4276 25.8242 36.6801 26.1422 36.4304ZM25.2108 35.4298C24.3156 35.7793 23.907 36.1736 23.2917 36.8871C22.866 37.3809 22.3233 37.6407 22.3282 38.308C22.3292 38.4557 22.5189 38.618 22.5517 38.7603C22.597 38.9569 22.5445 39.2087 22.5804 39.4176C22.9508 41.573 25.5224 42.2996 27.4048 41.8927C29.0446 41.5382 30.2709 39.9642 29.8911 38.2526C29.5086 36.5297 26.9536 34.7481 25.2108 35.4298Z" fill="#89C5CC"/>
<path fill-rule="evenodd" clip-rule="evenodd" d="M24.4131 38.4386C24.4131 39.214 25.6379 39.214 25.6379 38.4386C25.6379 37.6721 24.4131 37.6392 24.4131 38.4386Z" fill="#89C5CC"/>
<path fill-rule="evenodd" clip-rule="evenodd" d="M25.9453 38.2816C25.9453 38.8977 26.9185 38.8977 26.9185 38.2816C26.9185 37.6725 25.9453 37.6465 25.9453 38.2816Z" fill="#89C5CC"/>
<path fill-rule="evenodd" clip-rule="evenodd" d="M26.2467 39.5523C25.9351 39.6721 25.5398 39.4237 25.284 39.5874C24.8309 39.8774 25.2851 40.1399 25.5279 40.2564C26.6214 40.7811 26.816 39.3343 26.2467 39.5523Z" fill="#89C5CC"/>
<path fill-rule="evenodd" clip-rule="evenodd" d="M42.9465 37.8338C42.9139 37.8477 42.7979 37.8968 42.9465 37.8338V37.8338ZM38.1844 37.138C37.366 37.3228 36.6749 38.0871 35.7857 37.9848C35.1043 37.9065 34.6429 37.2489 33.9702 37.1533C33.1096 37.031 30.7675 38.9941 31.9989 39.3309C32.7173 39.5275 33.1159 38.2146 33.7506 38.1448C34.2526 38.0897 34.9354 38.7054 35.4557 38.793C36.4263 38.9566 37.0929 38.4219 37.945 38.0772C38.8708 37.7025 39.3976 38.0399 40.2029 38.4563C40.8384 38.785 41.437 38.999 42.1643 38.8633C42.8469 38.7362 43.7043 38.0343 44.3913 38.1063C45.0643 38.1769 45.5445 38.8791 46.2367 38.9443C46.5221 38.9711 46.9469 39.0683 46.8989 38.628C46.8606 38.2754 46.4672 38.3352 46.2211 38.207C45.5882 37.8774 44.9962 37.2937 44.2323 37.3435C43.6578 37.381 43.1347 37.7847 42.6052 37.9778C40.8711 38.6103 39.8962 36.7541 38.1844 37.138Z" fill="#89C5CC"/>
<path fill-rule="evenodd" clip-rule="evenodd" d="M39.6333 48.3059C36.2883 48.3366 32.932 48.3862 29.5964 48.6544C28.8056 48.7179 20.7308 49.4803 20.7461 49.5353C20.7744 49.6369 21.813 49.792 21.8065 49.816C21.7365 49.6424 21.5765 49.5705 21.3266 49.6006C28.9849 49.6006 36.6189 48.9149 44.2872 49.0382C46.214 49.0692 48.1481 49.0562 50.0735 49.1169C50.5542 49.1321 51.7452 49.4766 52.1227 49.2596C53.1135 48.6899 51.3136 48.6242 51.0155 48.6003C47.2418 48.2984 43.4177 48.2681 39.6333 48.3059Z" fill="#69A1AC"/>
<path fill-rule="evenodd" clip-rule="evenodd" d="M19.7546 49.931C19.2545 50.4323 19.715 52.236 19.7347 52.9139C19.7632 53.894 19.7397 54.881 19.8257 55.8586C19.9239 56.9752 20.0762 58.1649 20.3692 59.2482C20.5305 59.8451 21.0969 60.7936 21.3213 59.7091C21.4816 58.9345 21.2383 57.907 21.1536 57.1179C21.0403 56.0623 21.0129 55.0206 21.0087 53.9599C21.0049 53.0356 20.9871 52.1075 20.9113 51.1862C20.8719 50.7078 20.6313 49.0589 19.7546 49.931Z" fill="#69A1AC"/>
<path fill-rule="evenodd" clip-rule="evenodd" d="M32.3358 59.1165C29.9621 59.1573 27.5832 59.2132 25.2135 59.3614C24.2422 59.4223 23.2717 59.5128 22.304 59.6155C22.1065 59.6364 19.9209 59.7252 20.8975 60.5318C21.3383 60.896 23.1516 60.3925 23.7505 60.34C24.7578 60.2517 25.7649 60.1943 26.7751 60.1515C29.1157 60.0522 31.4635 59.9644 33.8065 60.0051C38.0854 60.0793 42.3368 60.1125 46.617 60.017C47.2251 60.0035 51.9892 60.1308 52.151 59.4981C52.2814 58.9882 50.5777 59.2221 50.2671 59.2314C49.1275 59.2654 47.9878 59.2575 46.8478 59.2517C42.0186 59.2269 37.1613 59.0349 32.3358 59.1165Z" fill="#69A1AC"/>
<path fill-rule="evenodd" clip-rule="evenodd" d="M51.3451 49.0849C51.4205 51.1983 51.7804 53.3094 51.8955 55.4292C51.948 56.3983 52.01 57.3664 52.0574 58.3358C52.0727 58.6485 51.9467 59.402 52.3165 59.5819C52.8237 59.8286 52.892 59.3314 52.987 58.9952C53.2613 58.0239 53.0757 56.7622 53.0508 55.7646C53.0268 54.7985 53.0251 53.8306 52.9539 52.8663C52.8808 51.881 52.6825 50.9144 52.5904 49.9327C52.5515 49.5175 52.6876 48.8265 52.2468 48.5688C51.8658 48.3461 51.3287 48.6268 51.3451 49.0849Z" fill="#69A1AC"/>
<path fill-rule="evenodd" clip-rule="evenodd" d="M28.0134 52.6008C28.0224 52.6078 28.0314 52.6148 28.0403 52.6218C28.0314 52.6148 28.0223 52.6079 28.0134 52.6008ZM25.9963 51.9747C26.7485 52.1896 27.3663 52.1094 28.0849 52.657C28.6805 53.1111 29.2915 53.7753 29.4891 54.5095C29.9456 56.2057 28.3981 57.1352 26.9473 57.1535C25.4613 57.1721 23.2618 56.8275 23.338 54.9228C23.3963 53.4594 24.4649 52.0315 25.9963 51.9747ZM26.0493 51.0161C24.0987 51.1132 22.5252 53.3037 22.5421 55.1476C22.5625 57.3823 25.0947 57.9581 26.8934 57.9736C28.9235 57.991 30.9479 56.5892 30.4039 54.3063C29.968 52.4771 27.9251 50.9186 26.0493 51.0161Z" fill="#69A1AC"/>
<path fill-rule="evenodd" clip-rule="evenodd" d="M24.0869 54.0164C24.0869 54.6396 25.0715 54.6396 25.0715 54.0164C25.0715 53.4004 24.0869 53.3739 24.0869 54.0164Z" fill="#69A1AC"/>
<path fill-rule="evenodd" clip-rule="evenodd" d="M26.1523 53.7431C26.1523 54.3712 27.1448 54.3712 27.1448 53.7431C27.1448 53.1222 26.1523 53.0955 26.1523 53.7431Z" fill="#69A1AC"/>
<path fill-rule="evenodd" clip-rule="evenodd" d="M25.0132 55.1643C24.3724 55.8042 26.6236 56.9258 27.1546 56.0357C27.5907 55.3047 26.6412 55.547 26.3046 55.5075C25.9389 55.4644 25.3118 54.8666 25.0132 55.1643Z" fill="#69A1AC"/>
<path fill-rule="evenodd" clip-rule="evenodd" d="M43.0132 53.7558C42.9515 53.7817 42.9515 53.7817 43.0132 53.7558V53.7558ZM34.5591 52.7144C33.9102 52.8361 31.7807 53.5545 31.752 54.3244C31.6994 55.7237 33.785 54.2904 34.2378 54.1063C35.4681 53.6064 36.1145 54.6262 37.3504 54.68C38.4237 54.7268 39.4107 53.8082 40.4218 53.9169C41.4812 54.0306 41.9907 55.1577 43.2137 54.5593C43.8607 54.2427 43.8444 53.7548 43.1181 53.7088C42.6791 53.681 42.3775 53.8624 41.9198 53.6735C41.2041 53.3783 40.9158 52.8976 40.0592 52.9739C39.4129 53.0315 38.8288 53.3958 38.1979 53.5368C36.7533 53.8596 35.9519 52.4535 34.5591 52.7144Z" fill="#69A1AC"/>
<path fill-rule="evenodd" clip-rule="evenodd" d="M47.9963 54.3634C47.9517 54.3822 47.9517 54.3822 47.9963 54.3634V54.3634ZM48.16 53.7807C48.1672 53.7839 48.2162 53.8517 48.16 53.7807V53.7807ZM47.4162 53.3361C47.3883 53.3576 47.3883 53.3576 47.4162 53.3361V53.3361ZM47.4323 53.3307C47.5766 53.417 48.7363 54.21 47.8939 54.3968C47.4663 54.4915 47.1125 53.6311 47.4323 53.3307ZM47.0483 52.452C45.1906 53.299 47.1896 56.3301 48.6475 55.0986C49.261 54.5803 49.3417 53.5329 48.7449 52.993C48.3873 52.6695 47.5337 52.2303 47.0483 52.452Z" fill="#69A1AC"/>
<path fill-rule="evenodd" clip-rule="evenodd" d="M29.6103 64.3965C27.2923 64.3972 24.9539 64.3485 22.6389 64.4859C22.2494 64.509 20.7653 64.4349 20.5645 64.8422C20.1973 65.5871 21.7244 65.2173 21.9462 65.195C26.5555 64.7336 31.3703 64.999 35.9947 65.1306C39.7768 65.2381 43.5387 65.3048 47.3164 65.4997C48.3093 65.551 49.3014 65.6076 50.2937 65.6674C50.6171 65.687 51.431 65.9013 51.4993 65.3848C51.5623 64.9067 50.547 65.0147 50.2934 65.0013C48.2764 64.8951 46.2607 64.7839 44.2442 64.6704C39.3906 64.3967 34.4716 64.3956 29.6103 64.3965Z" fill="#89C5CC"/>
<path fill-rule="evenodd" clip-rule="evenodd" d="M20.4902 65.225C20.0573 65.6554 20.2602 67.2989 20.2481 67.8421C20.227 68.7922 20.1822 69.7415 20.162 70.6913C20.1411 71.6841 20.1702 72.6814 20.2289 73.6726C20.2535 74.0888 20.5951 76.1004 21.133 74.9493C21.3733 74.4348 21.1272 73.002 21.1309 72.4191C21.1374 71.3583 21.1946 70.3019 21.2474 69.2426C21.2928 68.3319 21.2944 67.4204 21.3343 66.5095C21.3469 66.2191 21.3812 64.3313 20.4902 65.225Z" fill="#89C5CC"/>
<path fill-rule="evenodd" clip-rule="evenodd" d="M51.8899 73.7112C49.634 73.9424 47.3419 73.8331 45.0774 74.0039C43.1258 74.151 41.176 74.2112 39.2193 74.2526C34.7886 74.3462 30.3505 74.4374 25.9327 74.8066C24.9258 74.8907 23.9202 74.98 22.9107 75.0251C22.4058 75.0476 20.2873 74.8179 20.1295 75.3501C19.8608 76.2565 22.1264 75.8978 22.615 75.8836C23.6896 75.8526 24.7592 75.7749 25.8308 75.6933C30.3354 75.3501 34.8572 75.2475 39.3714 75.1048C41.8265 75.0273 44.2646 74.8477 46.7142 74.6842C47.9352 74.6029 49.1595 74.6002 50.3804 74.5212C50.6999 74.5006 51.8306 74.5413 52.0604 74.2842C52.2183 74.1077 52.2582 73.6768 51.8899 73.7112Z" fill="#89C5CC"/>
<path fill-rule="evenodd" clip-rule="evenodd" d="M51.1246 65.3791C51.202 67.5425 51.3242 69.704 51.3972 71.8674C51.4193 72.5179 51.2227 73.6839 51.585 74.2576C52.1675 75.1801 52.6221 74.2038 52.7288 73.629C53.0655 71.8147 52.7035 69.8105 52.6095 67.985C52.5737 67.2886 52.79 65.7386 52.4534 65.1153C52.1328 64.5216 51.0959 64.5812 51.1246 65.3791Z" fill="#89C5CC"/>
<path fill-rule="evenodd" clip-rule="evenodd" d="M47.3372 68.46C48.2014 68.6942 48.3277 70.5732 47.3525 70.7122C45.9009 70.9191 46.5357 68.8474 47.3372 68.46ZM47.0952 67.7129C46.8315 67.7046 46.223 67.632 46.0605 67.8465C45.9245 68.0262 46.0619 68.405 46.0461 68.576C45.9889 69.1874 45.4919 69.5404 45.7141 70.2621C45.8649 70.752 46.2688 71.2123 46.761 71.3824C49.3586 72.2803 49.327 67.2613 47.0952 67.7129Z" fill="#89C5CC"/>
<path fill-rule="evenodd" clip-rule="evenodd" d="M23.6433 68.05C23.6368 68.0582 23.6303 68.0665 23.624 68.0748C23.6303 68.0665 23.6368 68.0582 23.6433 68.05ZM25.6837 66.9645C25.6735 66.8776 25.6633 66.7907 25.6531 66.7037C27.0615 67.3685 28.1822 68.6052 27.7146 70.2651C27.3577 71.5314 26.0686 71.9806 24.8675 71.668C23.5379 71.3218 22.9026 70.2259 23.2611 68.8801C23.4265 68.2593 23.9343 67.425 24.5908 67.2254C24.8965 67.1325 25.5723 67.3693 25.6837 66.9645ZM24.8601 66.4389C24.5038 66.4629 24.157 66.6113 23.8663 66.8143C24.1385 66.5841 24.5012 66.447 24.8601 66.4389ZM24.87 65.621C23.9899 65.6479 23.4133 66.1806 22.8913 66.8205C22.7275 67.0213 22.1736 67.5537 22.2422 67.8243C22.2964 68.0382 22.4383 68.3511 22.7371 68.1126C21.1722 71.2315 25.2149 73.8917 27.6829 71.7229C29.9862 69.6988 27.701 65.5261 24.87 65.621Z" fill="#89C5CC"/>
<path fill-rule="evenodd" clip-rule="evenodd" d="M24.0703 68.5183C24.0703 68.9336 24.7151 68.9336 24.7151 68.5183C24.7151 68.103 24.0703 68.103 24.0703 68.5183Z" fill="#89C5CC"/>
<path fill-rule="evenodd" clip-rule="evenodd" d="M25.1709 68.589C25.1709 69.0112 25.8261 69.0112 25.8261 68.589C25.8261 68.1669 25.1709 68.1669 25.1709 68.589Z" fill="#89C5CC"/>
<path fill-rule="evenodd" clip-rule="evenodd" d="M25.6709 70.0714C25.3644 70.0963 24.2425 69.9922 24.0456 70.2607C23.7165 70.7093 24.2417 70.7249 24.4997 70.7733C24.7321 70.817 25.7421 70.7923 25.8845 70.586C26.0103 70.4037 25.9809 70.0451 25.6709 70.0714Z" fill="#89C5CC"/>
<path fill-rule="evenodd" clip-rule="evenodd" d="M39.188 68.9081C39.1353 68.9299 39.1353 68.9299 39.188 68.9081V68.9081ZM34.9488 68.598C34.2582 68.6488 33.6732 69.046 33.0129 69.2046C32.3081 69.3738 32.0031 69.0626 31.3622 68.8588C30.6955 68.6469 30.2213 68.7306 29.6855 69.1859C29.3819 69.4439 28.7158 70.0377 28.9055 70.496C29.3401 71.545 30.3236 69.8384 30.7862 69.759C31.5079 69.6352 32.15 70.2662 32.9822 70.0856C33.7363 69.9222 34.4054 69.4044 35.1931 69.3988C35.8517 69.3941 36.4724 69.7545 37.1227 69.8417C38.1153 69.9749 38.7671 69.6224 39.6847 69.3607C40.4804 69.1339 41.0384 69.4331 41.7868 69.6847C42.1289 69.7997 43.2703 70.2178 43.0601 69.4597C43.0008 69.2455 41.4967 68.8626 41.2635 68.7889C40.4412 68.5291 39.9204 68.6304 39.1371 68.929C38.4839 69.1782 37.9344 69.2996 37.2339 69.1625C36.4623 69.0114 35.7605 68.5364 34.9488 68.598Z" fill="#89C5CC"/>
</g>
<g opacity="0.5">
<path fill-rule="evenodd" clip-rule="evenodd" d="M66.7236 33.8311C66.8351 31.4331 66.9884 29.0385 67.0692 26.6391C67.1092 25.4501 67.1405 24.261 67.1708 23.0718C67.1775 22.807 67.1845 22.5423 67.1904 22.2775C67.21 21.3779 67.1033 21.3043 68.0087 21.2244C72.0474 20.8679 76.1022 20.7497 80.1458 20.4272C85.0225 20.0382 89.9247 19.7696 94.8153 19.6492C96.9885 19.5956 99.171 19.4846 101.345 19.5522C101.826 19.5671 102.772 19.4418 102.961 19.8162C103.043 19.9779 102.871 20.5344 102.849 20.721C102.781 21.304 102.718 21.889 102.678 22.4749C102.447 25.9304 102.585 29.473 103.254 32.8762C101.685 31.9911 99.7015 31.2297 97.872 31.3808C96.0068 31.5348 94.6116 32.6125 93.1187 33.6043C92.2742 34.1653 91.9897 34.3129 91.1472 33.7694C90.4212 33.301 89.7343 32.7655 89.0493 32.2399C87.9923 31.4287 86.9947 30.5492 85.9696 29.6989C84.0849 28.1353 81.4883 25.9098 78.8852 26.565C77.0254 27.0332 75.3081 28.0553 73.6939 29.0557C71.2957 30.5419 69.1248 32.3619 66.7236 33.8311ZM99.0464 18.4871C89.7804 18.4871 80.5837 19.3854 71.3438 19.8713C70.3788 19.922 69.4171 19.9967 68.4555 20.0895C67.8146 20.1514 66.2474 19.8916 65.8275 20.4392C65.5472 20.8045 65.788 20.8594 65.8275 21.2065C65.8772 21.6439 65.8477 22.1623 65.8348 22.6253C65.804 23.741 65.7716 24.8566 65.7462 25.9725C65.6506 30.1897 65.5908 34.4061 65.7615 38.6221C65.7987 39.5416 66.1338 40.8147 65.9505 41.7082C65.8178 42.3551 65.3742 42.7487 66.3973 42.8682C67.404 42.986 68.635 42.6866 69.6427 42.5908C70.6561 42.4943 71.6695 42.3897 72.6842 42.306C77.0957 41.9425 81.5501 41.9974 85.9733 41.8766C90.4364 41.7548 94.9011 41.7469 99.3656 41.7445C101.234 41.7435 103.368 41.8485 105.191 41.3344C105.832 41.1534 105.936 41.0643 105.778 40.4281C105.748 40.3073 105.554 40.2628 105.497 40.0445C105.42 39.7476 105.46 39.3866 105.442 39.0775C105.383 38.0678 105.362 37.0564 105.314 36.0461C105.235 34.3581 104.944 32.72 104.729 31.049C104.481 29.1192 104.493 27.1598 104.488 25.2174C104.485 24.14 104.513 23.0661 104.6 21.9917C104.655 21.3026 104.994 20.2738 104.822 19.6312C104.737 19.3112 104.596 19.0575 104.263 18.9197C104.052 18.8324 103.875 18.9008 103.666 18.8786C103.419 18.8524 103.265 18.8177 102.968 18.7505C101.698 18.4627 100.34 18.4871 99.0464 18.4871Z" fill="#69A1AC"/>
<path fill-rule="evenodd" clip-rule="evenodd" d="M93.918 23.0749C93.9173 23.7464 93.8125 24.7374 94.1221 25.3697C94.5148 26.1719 95.0061 25.9211 95.1363 25.1674C95.2108 24.7355 95.209 23.4574 95.0702 23.0749C94.8739 22.5334 93.918 22.1646 93.918 23.0749Z" fill="#89C5CC"/>
<path fill-rule="evenodd" clip-rule="evenodd" d="M95.0448 23.3342C94.4143 23.3564 92.5782 23.2051 92.1517 23.712C91.42 24.5815 92.6938 24.7355 93.2406 24.6868C93.8736 24.6305 95.8293 24.7679 96.2532 24.2604C96.9622 23.4113 95.5405 23.3161 95.0448 23.3342Z" fill="#89C5CC"/>
<path fill-rule="evenodd" clip-rule="evenodd" d="M70.5788 45.769C73.3505 46.2505 72.4882 50.4764 69.8656 49.4976C68.9518 49.1565 67.6053 48.171 68.1104 47.0098C68.4877 46.1423 69.7173 45.6864 70.5788 45.769ZM69.4317 44.4552C67.6292 44.7586 66.3968 46.7093 67.0149 48.4108C67.6111 50.0523 69.8725 51.2544 71.5402 50.6645C73.1323 50.1012 73.9266 47.9829 73.3898 46.4333C72.829 44.8142 71.0019 44.1908 69.4317 44.4552Z" fill="#89C5CC"/>
<path fill-rule="evenodd" clip-rule="evenodd" d="M86.2907 46.2632C85.6006 46.3205 85.0043 46.8037 84.3099 46.8892C83.6606 46.9692 83.1226 46.747 82.5147 46.5695C81.7799 46.3549 81.1059 46.2606 80.355 46.4512C79.7812 46.5969 79.2152 46.9874 78.6191 47.0345C77.4463 47.1271 76.0831 45.7889 75.1674 47.3024C74.7284 48.0281 75.3658 48.4955 76.0224 48.1571C76.707 47.8044 76.3709 47.678 77.22 47.8864C77.9285 48.0601 78.5011 48.1545 79.2107 47.911C79.8536 47.6906 80.4179 47.287 81.1165 47.2417C81.8006 47.1974 82.3958 47.509 83.0497 47.6434C83.8539 47.8087 84.5655 47.6836 85.3275 47.4316C86.0522 47.1918 86.3414 47.0607 87.0727 47.2745C87.5358 47.41 88.5475 47.8403 88.9982 47.4935C89.7776 46.894 88.7342 46.8063 88.3233 46.7211C87.6618 46.5841 86.9772 46.2071 86.2907 46.2632Z" fill="#89C5CC"/>
<path fill-rule="evenodd" clip-rule="evenodd" d="M102.082 45.8604C102.087 45.8647 102.093 45.8689 102.098 45.8732C102.093 45.8689 102.087 45.8647 102.082 45.8604ZM101.404 45.7186C102.412 45.7835 103.501 47.6187 102.166 47.6838C101.227 47.7297 100.175 46.1227 101.404 45.7186ZM101.263 44.217C98.0777 45.1066 99.5339 49.5977 102.607 49.0789C104.002 48.8433 104.475 47.2263 104.014 46.0294C103.816 45.5153 103.429 45.0819 102.968 44.786C102.627 44.5678 101.653 44.1086 101.263 44.217Z" fill="#89C5CC"/>
<path fill-rule="evenodd" clip-rule="evenodd" d="M86.4012 53.5931C89.2045 53.4969 92.0079 53.4007 94.814 53.3747C96.3348 53.3606 97.8472 53.3872 99.3658 53.4743C100.039 53.5129 100.712 53.5502 101.386 53.5787C101.502 53.5836 101.663 53.5757 101.84 53.567C102.258 53.5465 102.767 53.5214 103.007 53.6482C104.347 54.3574 101.616 54.4351 101.284 54.4295C100.541 54.417 99.7979 54.3803 99.0551 54.3436C98.406 54.3115 97.7568 54.2794 97.1071 54.2634C92.9388 54.161 88.7451 54.3483 84.5697 54.5348C83.6126 54.5775 82.6564 54.6202 81.7017 54.6594C80.688 54.701 79.6747 54.7279 78.6614 54.7548C77.2128 54.7933 75.7645 54.8317 74.3159 54.9131C73.7628 54.9442 73.2098 54.9771 72.6568 55.01C71.8646 55.0572 71.0724 55.1043 70.2799 55.1461C69.6595 55.1788 69.0388 55.2105 68.4175 55.2261C68.3057 55.229 68.1599 55.2445 68.0008 55.2615C67.6156 55.3026 67.1522 55.3521 66.9019 55.2497C66.6006 55.1265 66.3571 54.9543 66.5227 54.5893C66.6627 54.2808 67.1716 54.3178 67.5427 54.3447C67.644 54.3521 67.735 54.3587 67.8055 54.3574C68.9913 54.3344 70.1746 54.2678 71.3584 54.1953C71.7914 54.1688 72.2243 54.1416 72.6572 54.1143C74.9107 53.9726 77.1622 53.831 79.4215 53.7925C81.749 53.7528 84.075 53.6729 86.4012 53.5931ZM101.042 72.0427L101.848 72.0329C102.264 72.0692 102.45 72.506 102.183 72.8417C101.978 73.0989 101.191 73.1105 100.678 73.1181C100.536 73.1202 100.414 73.122 100.332 73.1286C98.9926 73.2363 97.6554 73.2848 96.3116 73.2976C93.4816 73.3245 90.6623 73.4458 87.837 73.607C84.9448 73.7718 82.0503 73.8338 79.1555 73.8959H79.1555C77.0258 73.9415 74.896 73.9871 72.7671 74.0737C71.548 74.1233 70.3287 74.1604 69.109 74.1923C68.9779 74.1957 68.8036 74.2146 68.6064 74.2359C67.836 74.3191 66.7165 74.44 66.4628 73.8281C66.2377 73.2851 66.5506 73.0351 67.0082 72.9214C66.9359 72.6 66.9493 72.1479 66.9569 71.889C66.9592 71.8112 66.961 71.7509 66.9598 71.7168C66.9483 71.3922 66.9403 71.0676 66.9323 70.743C66.9232 70.3751 66.9141 70.0073 66.8999 69.6397C66.8871 69.306 66.8751 68.972 66.8632 68.6378C66.816 67.3197 66.7686 65.9986 66.6672 64.6858C66.6204 64.0799 66.5462 63.4812 66.472 62.8833C66.3536 61.9289 66.2356 60.977 66.2301 60.0026C66.2292 59.8273 66.2204 59.6081 66.2105 59.3609C66.1599 58.0958 66.0798 56.0959 66.8651 55.4869C68.2496 54.6789 67.9759 57.011 67.8538 58.0517C67.8336 58.2235 67.8176 58.3602 67.8138 58.4417C67.7343 60.1723 67.8422 61.8267 68.0164 63.5464C68.134 64.7078 68.0653 65.8653 67.9965 67.0247C67.972 67.4388 67.9474 67.8531 67.9313 68.268C67.9233 68.4732 67.9162 68.6784 67.9091 68.8835C67.8873 69.5147 67.8655 70.1453 67.818 70.7758C67.8129 70.844 67.8111 70.9749 67.8089 71.142C67.8028 71.6135 67.7928 72.3741 67.6919 72.8357C67.9067 72.8264 68.1152 72.8287 68.2874 72.8306H68.2875H68.2876C68.3973 72.8318 68.4923 72.8328 68.5649 72.8307C68.8953 72.8207 69.2257 72.811 69.5562 72.8013H69.5562H69.5562L69.5569 72.8013C70.5331 72.7727 71.5093 72.7441 72.4853 72.7074C74.7898 72.6207 77.0949 72.5918 79.3999 72.5628H79.4H79.4001H79.4002C82.1228 72.5286 84.8453 72.4944 87.5667 72.3652C92.0517 72.152 96.5521 72.0973 101.042 72.0427ZM101.874 55.1237C101.872 58.0882 102.101 60.9714 102.369 63.924C102.534 65.7504 102.667 67.5838 102.773 69.4147C102.778 69.4995 102.777 69.641 102.776 69.8183C102.771 70.8307 102.759 73.0124 103.76 72.4905C104.515 72.0964 104.225 69.8115 104.064 68.5472V68.5472C104.029 68.2699 104 68.0417 103.99 67.8933C103.968 67.5809 103.946 67.2685 103.925 66.9562L103.924 66.9449L103.924 66.9443C103.824 65.4766 103.723 64.0102 103.591 62.5443L103.563 62.2352C103.409 60.5419 103.256 58.8498 103.229 57.1485C103.227 57.0078 103.24 56.8118 103.256 56.5905C103.3 55.95 103.359 55.0972 103.093 54.757C102.719 54.2784 101.875 54.42 101.874 55.1237Z" fill="#69A1AC"/>
<path fill-rule="evenodd" clip-rule="evenodd" d="M86.5295 62.391C90.11 60.7711 93.7323 59.1322 97.4556 57.9654C97.7247 57.8812 97.8949 58.1587 97.8338 58.3916C97.7708 58.6315 97.1884 58.8362 96.8021 58.972C96.6866 59.0126 96.5885 59.047 96.5273 59.0744C96.0072 59.3066 95.4858 59.536 94.9644 59.7655C94.4304 60.0004 93.8965 60.2353 93.3639 60.4733C92.2566 60.9681 91.1482 61.4607 90.0399 61.9532C88.8529 62.4807 87.6658 63.0082 86.48 63.5385C86.4352 63.5586 86.3904 63.5786 86.3455 63.5987C87.9577 64.1717 89.5609 64.7702 91.1569 65.3869C91.7024 65.5976 92.2459 65.8126 92.7895 66.0277C93.0971 66.1494 93.4046 66.2711 93.7125 66.392C93.8127 66.4314 93.9873 66.4847 94.1971 66.5487C94.8806 66.7574 95.9381 67.0803 96.0162 67.4065C96.1433 67.9377 94.6835 67.4238 94.1327 67.2299C94.0597 67.2042 94.0026 67.1841 93.9674 67.1728C93.1546 66.9131 92.3516 66.6236 91.549 66.3343C91.512 66.321 91.4749 66.3076 91.4379 66.2943C90.8018 66.0651 90.1666 65.8335 89.5314 65.6019C88.2907 65.1495 87.05 64.697 85.8026 64.263C85.6262 64.2016 85.4496 64.1404 85.273 64.0794C83.271 64.9787 81.273 65.8865 79.2815 66.8088C78.2137 67.3034 77.1516 67.8094 76.0925 68.3223C75.8613 68.4342 75.5751 68.6072 75.2641 68.7952C74.5187 69.2457 73.6315 69.7819 73.0212 69.7686C72.6939 69.7613 72.4734 69.6912 72.4392 69.2945C72.404 68.8852 72.9292 68.6705 73.3068 68.5161C73.3972 68.4791 73.4791 68.4456 73.5429 68.4137C74.6749 67.8476 75.814 67.2958 76.9562 66.7509C79.2249 65.6688 81.5149 64.6299 83.8129 63.6117C83.8262 63.6058 83.8396 63.5999 83.8529 63.594C82.5784 63.1626 81.3003 62.7416 80.0195 62.3294C79.8916 62.2883 79.6294 62.2156 79.2847 62.1202C77.6564 61.6692 74.1877 60.7085 74.3421 60.1473C74.5191 59.5055 77.7712 60.6787 79.2109 61.1981C79.4807 61.2955 79.6869 61.3698 79.7972 61.405C81.5185 61.9536 83.235 62.5176 84.9426 63.1073C85.4708 62.87 85.9997 62.6307 86.5295 62.391Z" fill="#89C5CC"/>
<path fill-rule="evenodd" clip-rule="evenodd" d="M71.1873 76.49C72.2354 76.6737 72.9747 77.6791 72.8597 78.732C72.7043 80.1547 71.2864 80.8067 69.9765 80.621C68.4902 80.4104 68.1776 79.154 68.8977 77.9452C69.0571 77.6776 69.2405 77.3574 69.5303 77.2165C69.7295 77.1196 69.9833 77.2053 70.1438 77.1272C70.7063 76.8535 70.3681 76.4173 71.1873 76.49ZM70.7103 75.5606C69.4314 75.724 67.0683 77.2039 67.188 78.6846C67.2918 78.8563 67.4478 78.9265 67.6562 78.8954C67.606 79.2161 67.6224 79.5334 67.7053 79.8474C67.8267 80.2549 68.069 80.589 68.3938 80.8543C69.0626 81.4009 69.9769 81.535 70.8097 81.4392C72.3648 81.2604 73.5904 80.1976 73.6778 78.5802C73.763 77.0014 72.3849 75.3491 70.7103 75.5606Z" fill="#89C5CC"/>
<path fill-rule="evenodd" clip-rule="evenodd" d="M76.9049 77.4873C76.3311 77.7914 75.4233 78.2586 75.0868 78.8362C74.7313 79.4462 75.0994 80.1137 75.8484 79.8251C76.443 79.596 76.8212 78.8681 77.4555 78.6347C78.0152 78.4289 78.2408 78.5338 78.8324 78.7388C79.4419 78.95 79.9748 79.1542 80.6337 79.1024C81.4619 79.0373 82.1792 78.557 82.9899 78.4478C83.6724 78.3558 84.2353 78.6213 84.889 78.727C85.6474 78.8495 86.1432 78.5625 86.8528 78.4131C87.3354 78.3113 88.1861 78.7251 88.5382 78.5703C89.3297 78.2223 88.4924 77.7968 88.0542 77.6562C87.316 77.4194 86.8617 77.6284 86.1596 77.8247C85.3973 78.0379 85.0681 77.8776 84.3394 77.6819C82.8652 77.2857 81.7263 78.2435 80.3289 78.0694C79.0351 77.9081 78.261 76.7693 76.9049 77.4873Z" fill="#89C5CC"/>
<path fill-rule="evenodd" clip-rule="evenodd" d="M101.01 76.7793C102.429 78.1097 100.835 80.0025 99.2707 78.9393C98.7201 78.5651 98.7113 77.964 99.1399 77.4262C99.5318 76.9344 100.393 76.7426 101.01 76.7793ZM100.485 75.7043C99.1591 75.9622 97.9086 76.5706 97.7886 78.1006C97.6714 79.5935 99.2027 80.2869 100.489 80.1889C103.377 79.969 103.168 75.1856 100.485 75.7043Z" fill="#89C5CC"/>
</g>
<path opacity="0.5" fill-rule="evenodd" clip-rule="evenodd" d="M129.64 24.0014C128.628 24.0227 126.13 24.4231 125.759 25.7252C125.477 26.7136 126.314 26.4966 126.763 26.1369C127.37 25.6506 127.903 25.3595 128.655 25.2115C131.52 24.6475 134.274 26.6702 137.112 26.926C138.187 27.0229 139.484 27.086 140.511 26.7071C141.242 26.4373 141.337 25.8491 140.503 25.7594C139.794 25.6833 139.01 25.9232 138.283 25.9164C135.276 25.8884 132.603 23.9399 129.64 24.0014Z" fill="#C1DEE2"/>
<g opacity="0.5">
<path fill-rule="evenodd" clip-rule="evenodd" d="M20.4667 85.6969C18.4377 85.7197 16.4098 85.7945 14.3849 85.9227C12.4593 86.0447 10.3699 85.9521 8.47564 86.3253C7.93775 86.4312 7.21115 86.9215 7.92636 87.4607C8.42907 87.8398 10.2683 87.4037 10.8686 87.3668C13.0793 87.231 15.2912 87.0682 17.505 86.99C19.6008 86.9159 21.6965 86.8898 23.7934 86.8689C24.1135 86.8658 24.6449 86.7631 24.9637 86.856C25.4218 86.9897 25.3131 87.026 25.3474 87.6074C25.4096 88.6609 25.3924 89.7181 25.3715 90.7726C25.3513 91.793 25.3136 92.8133 25.3173 93.8341C25.3198 94.5625 25.087 96.0098 25.4525 96.6423C25.9785 97.5527 26.5242 96.5638 26.5635 95.9588C26.6388 94.8017 26.6051 93.6304 26.6054 92.4717C26.6056 91.3842 26.6135 90.2967 26.5751 89.2097C26.5473 88.4244 26.6596 87.0538 26.2366 86.34C25.8058 85.613 24.7685 85.7697 24.0117 85.7351C22.8311 85.6808 21.6483 85.6846 20.4667 85.6969Z" fill="#89C5CC"/>
<path fill-rule="evenodd" clip-rule="evenodd" d="M7.5573 87.0089C7.55953 89.0523 7.32314 91.082 7.25693 93.123C7.22655 94.0614 7.16491 95.0919 7.40231 96.0131C7.64194 96.9432 8.40304 97.1448 8.4907 96.1064C8.66825 94.0037 8.6247 91.8233 8.76294 89.7038C8.81174 88.9554 9.12931 87.584 8.83284 86.8832C8.57177 86.2659 7.55618 86.1476 7.5573 87.0089Z" fill="#89C5CC"/>
<path fill-rule="evenodd" clip-rule="evenodd" d="M26.5829 96.0162C23.0593 96.4827 19.3758 96.3126 15.8271 96.3859C14.1245 96.4211 12.4223 96.4233 10.7196 96.4411C10.1253 96.4472 8.61616 96.2212 8.10205 96.5553C7.28367 97.0871 8.17162 97.4975 8.71341 97.5092C12.0737 97.5828 15.4714 97.4283 18.8311 97.318C20.3405 97.2685 21.8549 97.2443 23.3604 97.116C24.2872 97.037 25.3 96.9605 26.2 96.7115C26.3917 96.6583 26.8092 96.6694 26.8522 96.4078C26.8787 96.246 26.8307 95.982 26.5829 96.0162Z" fill="#89C5CC"/>
<path fill-rule="evenodd" clip-rule="evenodd" d="M11.9316 98.9864C10.9523 98.9921 8.00121 98.5372 7.59565 99.4922C7.05497 100.766 9.16419 100.468 9.73145 100.454C11.0198 100.421 12.3073 100.417 13.596 100.418C14.8605 100.418 16.1249 100.41 17.3891 100.38C17.7554 100.371 18.608 100.523 18.8187 100.082C18.9788 99.7471 18.8523 99.4827 18.5569 99.3053C17.8463 98.8781 16.0002 99.1258 15.1681 99.0874C14.0909 99.0378 13.0101 98.9864 11.9316 98.9864Z" fill="#89C5CC"/>
<path fill-rule="evenodd" clip-rule="evenodd" d="M23.8455 99.2221C23.2858 99.2554 22.1538 99.0247 21.6524 99.2808C21.0826 99.572 21.2834 100.028 21.7753 100.228C22.116 100.367 23.5136 100.294 23.8455 100.133C24.1914 99.9658 24.5826 99.1768 23.8455 99.2221Z" fill="#89C5CC"/>
<path fill-rule="evenodd" clip-rule="evenodd" d="M29.9802 87.2096C29.3825 87.3736 29.5638 90.767 29.5484 91.305C29.5062 92.7789 29.3405 94.6327 29.8302 96.0522C30.1426 96.957 30.7424 96.8344 30.6402 95.8817C30.5505 95.0455 30.3965 94.2189 30.3298 93.3773C30.1791 91.4729 29.9739 89.4416 30.1163 87.5357C30.177 87.6464 30.744 88.6736 30.8774 88.597C30.8371 88.6209 30.2234 87.1454 29.9802 87.2096Z" fill="#89C5CC"/>
<path fill-rule="evenodd" clip-rule="evenodd" d="M36.7046 85.9599C35.4949 85.9777 34.2853 85.9992 33.076 86.0327C32.1144 86.0595 30.6035 85.9015 29.7217 86.306C28.6717 86.7875 29.1698 87.8606 30.1561 87.8832C31.0285 87.9034 31.9589 87.7066 32.8392 87.6764C35.2171 87.595 37.5992 87.5777 39.9782 87.5573C42.1298 87.5388 44.3728 87.7683 46.5055 87.4452C46.8218 90.2541 45.9662 93.0748 46.2572 95.916C46.3023 96.357 46.2821 96.9801 46.8437 97.0806C47.5524 97.2074 47.5816 96.5054 47.6085 96.0027C47.6852 94.5675 47.6436 93.1312 47.7487 91.694C47.8461 90.3622 48.0378 89.0011 47.8758 87.6672C47.6766 86.0257 46.89 86.1573 45.4996 86.089C42.5629 85.945 39.6445 85.9167 36.7046 85.9599Z" fill="#89C5CC"/>
<path fill-rule="evenodd" clip-rule="evenodd" d="M32.6511 95.934C32.0347 95.9495 31.011 95.7596 30.616 96.3506C30.2051 96.9655 30.6927 97.5019 31.2902 97.6282C31.9974 97.7776 32.9197 97.5728 33.6538 97.5705C34.4182 97.5683 35.1829 97.5768 35.9473 97.5798C39.2248 97.5927 42.5163 97.6423 45.7914 97.5068C46.2488 97.4879 47.5469 97.6413 47.8635 97.2025C48.1444 96.8134 47.9479 96.4643 47.5779 96.2661C46.9709 95.9409 45.7242 96.0646 45.0491 96.0388C44.2153 96.007 43.3805 95.9967 42.5462 95.9837C39.2535 95.9329 35.9435 95.8525 32.6511 95.934Z" fill="#89C5CC"/>
<path fill-rule="evenodd" clip-rule="evenodd" d="M35.4226 98.7769C34.1961 98.7977 32.8875 98.7439 31.6731 98.9299C30.6054 99.0935 30.474 100.126 31.6233 100.246C32.6796 100.357 33.9601 100.15 35.0215 100.082C35.3985 100.058 35.8369 100.092 36.0175 99.6752C36.2061 99.2399 35.8456 98.8223 35.4226 98.7769Z" fill="#89C5CC"/>
<path fill-rule="evenodd" clip-rule="evenodd" d="M44.6952 98.885C44.0405 98.9014 42.1284 98.6199 41.8041 99.3676C41.2643 100.612 43.8529 100.14 44.3495 100.121C44.9754 100.098 47.4147 100.464 47.4152 99.4672C47.4158 98.4902 45.2946 98.8702 44.6952 98.885Z" fill="#89C5CC"/>
<path fill-rule="evenodd" clip-rule="evenodd" d="M7.45173 105.071C7.45329 107.336 7.31237 109.621 7.51895 111.88C7.60437 112.814 7.58975 114.604 8.13087 115.396C8.51499 115.958 9.04774 115.919 9.25756 115.244C9.39781 114.793 9.17348 113.89 9.14846 113.407C9.12434 112.944 9.09621 112.481 9.07477 112.017C9.01972 110.823 9.02407 109.631 9.04049 108.437C9.05455 107.412 9.30122 106.056 9.06862 105.071C8.85177 104.153 7.45173 103.938 7.45173 105.071Z" fill="#69A1AC"/>
<path fill-rule="evenodd" clip-rule="evenodd" d="M30.2107 103.079C26.2818 103.177 22.344 103.089 18.4186 103.284C16.4827 103.38 14.5544 103.59 12.6282 103.8C11.6818 103.903 10.736 104.01 9.79133 104.126C9.50625 104.161 7.13741 104.253 8.02837 105.154C8.41741 105.547 9.65543 105.136 10.1453 105.078C11.0938 104.966 12.0441 104.869 12.994 104.768C14.8014 104.577 16.611 104.396 18.4261 104.296C22.7009 104.059 26.9934 104.13 31.2725 103.972C32.43 103.929 33.584 103.899 34.742 103.944C35.046 103.956 37.2804 104.07 36.3103 103.245C35.8516 102.854 34.122 103.056 33.5487 103.044C32.4361 103.021 31.3228 103.051 30.2107 103.079Z" fill="#69A1AC"/>
<path fill-rule="evenodd" clip-rule="evenodd" d="M35.566 106.894C35.5465 105.848 35.5271 104.801 35.4794 103.756C35.4293 102.655 36.929 102.488 37.3737 103.379C37.6939 104.021 37.6376 105.113 37.5893 106.048C37.5699 106.425 37.5517 106.777 37.5601 107.064C37.5792 107.721 37.6275 108.4 37.6765 109.089C37.7997 110.821 37.9271 112.611 37.6032 114.247C37.4458 115.041 36.7753 115.459 36.3291 115.026C36.3285 115.027 36.3279 115.028 36.3272 115.029C36.1594 115.276 35.6369 115.276 35.2521 115.275C35.1461 115.275 35.0506 115.275 34.9758 115.28C33.9215 115.352 32.8869 115.473 31.842 115.629C29.7602 115.941 27.6964 116.133 25.592 116.185C24.1641 116.22 22.7342 116.232 21.3039 116.244C18.5651 116.267 15.8249 116.29 13.0949 116.477C12.1744 116.54 11.2679 116.649 10.3626 116.822C10.2855 116.837 10.1999 116.856 10.1088 116.876C9.43561 117.026 8.46106 117.242 8.39447 116.302C8.31533 115.185 10.7354 115.039 11.9807 114.964C12.1709 114.952 12.3336 114.942 12.4559 114.931C16.2373 114.579 20.0781 114.634 23.8755 114.687C24.0595 114.69 24.2434 114.693 24.4272 114.695C24.7235 114.699 25.0198 114.704 25.316 114.709C26.9419 114.736 28.5659 114.763 30.1913 114.663C30.931 114.618 31.6803 114.595 32.431 114.571C33.6287 114.534 34.8299 114.497 36.0013 114.37C35.8246 113.685 35.7937 112.877 35.7646 112.115C35.7532 111.818 35.7422 111.529 35.7229 111.256C35.62 109.804 35.593 108.349 35.566 106.894Z" fill="#69A1AC"/>
<path fill-rule="evenodd" clip-rule="evenodd" d="M38.7464 104.562C38.2156 104.635 37.7729 105.089 38.0098 105.665C38.3083 106.391 39.1973 106.107 39.7845 106.061C41.6511 105.915 43.6 106.207 45.444 105.987C45.9476 105.926 46.6782 105.652 46.2261 104.975C45.8862 104.467 44.6478 104.556 44.1214 104.507C42.3211 104.341 40.5444 104.385 38.7464 104.562Z" fill="#C1DEE2"/>
<path fill-rule="evenodd" clip-rule="evenodd" d="M41.8963 107.727C41.1724 107.776 39.4873 107.738 39.1822 108.561C38.6351 110.039 40.7784 109.518 41.4309 109.434C42.189 109.337 43.9761 109.598 44.3797 108.863C45.1015 107.548 42.5311 107.684 41.8963 107.727Z" fill="#C1DEE2"/>
<path fill-rule="evenodd" clip-rule="evenodd" d="M40.0351 110.97C39.6917 111.314 39.6912 111.927 40.0351 112.271C40.4562 112.691 41.3736 112.604 41.9269 112.635C42.6986 112.678 44.915 113.086 45.2983 112.177C45.8153 110.951 43.8082 110.977 43.148 110.907C42.385 110.827 40.6674 110.337 40.0351 110.97Z" fill="#C1DEE2"/>
<path fill-rule="evenodd" clip-rule="evenodd" d="M12.9824 89.9832C12.9824 91.3013 15.0412 91.3013 15.0412 89.9832C15.0412 88.6722 12.9824 88.6522 12.9824 89.9832Z" fill="#89C5CC"/>
<path fill-rule="evenodd" clip-rule="evenodd" d="M16.8877 89.9982C16.8877 91.5052 19.2326 91.5022 19.2326 89.9982C19.2326 88.4965 16.8877 88.4812 16.8877 89.9982Z" fill="#89C5CC"/>
<path fill-rule="evenodd" clip-rule="evenodd" d="M14.5261 92.002C13.3862 92.3167 14.4363 93.2827 14.9656 93.5033C15.8068 93.8542 16.9548 94.1127 17.7962 93.5868C18.131 93.3775 18.4028 93.0995 18.1574 92.6933C17.896 92.2609 17.5381 92.4532 17.1402 92.4931C16.636 92.5438 16.2285 92.536 15.7417 92.3743C15.3783 92.2537 14.9224 91.8929 14.5261 92.002Z" fill="#89C5CC"/>
<path fill-rule="evenodd" clip-rule="evenodd" d="M35.2012 90.0666C35.2012 90.9582 36.5856 90.9582 36.5856 90.0666C36.5856 89.1751 35.2012 89.1751 35.2012 90.0666Z" fill="#89C5CC"/>
<path fill-rule="evenodd" clip-rule="evenodd" d="M38.2637 90.2007C38.2637 91.1913 39.8016 91.1914 39.8016 90.2007C39.8016 89.2101 38.2637 89.2102 38.2637 90.2007Z" fill="#89C5CC"/>
<path fill-rule="evenodd" clip-rule="evenodd" d="M38.1498 92.3506C37.3419 92.4547 35.0053 92.6916 34.8746 93.6874C34.6729 95.2237 37.2331 93.9803 37.8175 93.8597C38.5617 93.706 39.2263 93.7461 39.9694 93.776C40.3773 93.7923 40.9198 93.8584 40.8771 93.237C40.8069 92.2166 38.8559 92.2601 38.1498 92.3506Z" fill="#89C5CC"/>
<path fill-rule="evenodd" clip-rule="evenodd" d="M17.8374 106.519C17.2519 106.675 16.4858 107.687 16.8887 108.307C17.5493 109.323 17.8407 107.763 18.1171 107.613C18.6202 107.339 19.0285 108.338 19.5543 107.814C20.3838 106.988 18.3597 106.379 17.8374 106.519Z" fill="#69A1AC"/>
<path fill-rule="evenodd" clip-rule="evenodd" d="M24.5471 105.768C23.8526 105.774 22.3866 106.757 22.2827 107.483C22.2211 107.914 22.5071 108.329 22.972 108.335C23.6052 108.342 23.8064 107.519 24.3552 107.347C24.9473 107.161 24.8594 107.589 25.3707 107.81C25.7449 107.973 26.2129 107.905 26.3428 107.445C26.5881 106.577 25.2606 105.754 24.5471 105.768Z" fill="#69A1AC"/>
<path fill-rule="evenodd" clip-rule="evenodd" d="M19.2314 109.924C18.1207 110.575 19.9483 111.97 20.5819 112.145C21.5384 112.408 23.4635 111.916 23.6902 110.748C23.7804 110.283 23.4895 109.862 22.9763 109.945C22.5538 110.014 22.2827 110.544 21.8914 110.734C21.3631 110.99 20.8934 110.972 20.4445 110.587C20.0788 110.272 19.883 109.544 19.2314 109.924Z" fill="#69A1AC"/>
<path fill-rule="evenodd" clip-rule="evenodd" d="M20.0358 119.541C19.0435 119.753 18.0347 119.611 17.0375 119.81C16.0207 120.013 15.413 120.397 14.4684 120.01C14.4239 119.991 14.3796 119.972 14.3353 119.954C13.6041 119.639 12.8377 119.546 12.0724 120.048C11.6195 120.344 10.2446 121.372 10.4103 121.999C10.7694 123.358 12.3165 121.227 12.711 121.019C13.4633 120.623 13.979 121.129 14.7535 121.272C15.6813 121.443 16.4277 120.953 17.3016 120.757C18.3237 120.529 19.4735 120.449 20.5133 120.327C20.9241 120.279 22.4801 120.604 22.6206 120.093C22.8619 119.214 20.4259 119.459 20.0358 119.541Z" fill="#C1DEE2"/>
<path fill-rule="evenodd" clip-rule="evenodd" d="M27.195 122.278C27.2599 122.328 27.2079 122.288 27.195 122.278V122.278ZM29.9744 119.488C30.824 119.402 33.5421 118.795 34.1002 119.673C34.4637 120.245 33.8868 122.355 33.3365 122.628C32.8967 122.846 31.8722 122.605 31.3895 122.588C30.4915 122.556 29.5916 122.542 28.6946 122.486C28.3938 122.468 27.4258 122.523 27.19 122.257C26.9115 121.942 26.9239 120.266 26.8583 119.851C27.6394 120.104 29.1577 119.571 29.9744 119.488ZM31.7887 118.628C30.7006 118.675 29.6128 118.756 28.5329 118.902C27.9309 118.984 27.321 119.2 26.765 119.302C26.5858 119.336 26.2949 119.244 26.0752 119.35C25.433 119.66 25.9953 121.758 26.1502 122.318C26.3881 123.179 26.9867 123.319 27.8254 123.4C28.9302 123.507 30.0577 123.473 31.1659 123.459C32.2342 123.446 33.6747 123.683 34.2741 122.611C34.6616 121.918 35.0772 120.304 34.746 119.532C34.3103 118.516 32.6834 118.59 31.7887 118.628Z" fill="#C1DEE2"/>
<path fill-rule="evenodd" clip-rule="evenodd" d="M43.973 122.855C43.9148 122.929 43.9148 122.929 43.973 122.855V122.855ZM44.2116 122.567C44.1936 122.595 44.1101 122.683 44.2116 122.567V122.567ZM41.6167 122.488C42.0963 122.398 42.5762 122.309 43.0563 122.221C42.6016 122.858 42.1228 122.595 41.3461 122.539C41.4363 122.522 41.5265 122.505 41.6167 122.488ZM39.3285 122.263C39.4501 122.222 39.5716 122.182 39.6932 122.141C39.6895 122.234 39.7094 122.32 39.7528 122.401C39.5447 122.378 39.3368 122.354 39.1291 122.329C39.1955 122.307 39.2621 122.285 39.3285 122.263ZM38.268 121.48C38.2612 121.313 38.5123 121.428 38.6562 121.417C38.3788 121.661 38.2493 121.682 38.268 121.48ZM42.0602 119.586C42.0967 119.54 42.145 119.542 42.2052 119.593C42.1396 119.615 41.8866 119.722 42.0602 119.586ZM44.5197 119.297C44.5262 119.297 44.6626 119.481 44.5197 119.297V119.297ZM44.4505 119.237C44.4862 119.264 44.4862 119.264 44.4505 119.237V119.237ZM44.1436 119.201C44.6464 119.285 44.6082 119.876 44.1436 119.201V119.201ZM38.2362 119.16C38.134 119.245 38.169 119.163 38.2362 119.16V119.16ZM40.1589 117.904C39.3053 117.954 37.7383 117.904 37.0253 118.359C36.0949 118.952 36.5845 120.996 36.6678 121.892C36.7908 123.216 37.4139 123.593 38.6611 123.732C40.1494 123.898 41.6787 123.929 43.1748 123.89C44.5221 123.854 45.2894 123.391 45.5362 121.972C45.6118 121.538 45.8037 120.867 45.7976 120.451C45.7935 120.163 45.6498 120.031 45.5954 119.786C45.286 118.39 44.7685 118.224 43.3376 118.163C42.2843 118.119 41.1924 117.85 40.1589 117.904Z" fill="#89C5CC"/>
</g>
<g opacity="0.5">
<path fill-rule="evenodd" clip-rule="evenodd" d="M85.3792 85.8298C87.5497 85.876 90.0122 87.0773 89.669 89.622C89.4176 91.4863 87.8035 92.9996 85.9342 93.1301C83.925 93.2703 81.8008 91.7284 81.5279 89.6827C81.2208 87.3818 83.2568 85.7839 85.3792 85.8298ZM84.3146 84.7939C83.4347 84.9253 82.5939 85.3873 81.8191 85.8012C81.5234 85.9593 80.024 86.9229 81.2 87.1623C78.3665 91.7321 85.0349 95.9766 88.7841 93.0067C90.4677 91.673 91.3541 89.1444 90.2658 87.1651C89.1402 85.118 86.471 84.4701 84.3146 84.7939Z" fill="#89C5CC"/>
<path fill-rule="evenodd" clip-rule="evenodd" d="M83.7959 88.6836C83.7959 89.537 85.1206 89.537 85.1206 88.6836C85.1206 87.8301 83.7959 87.8301 83.7959 88.6836Z" fill="#89C5CC"/>
<path fill-rule="evenodd" clip-rule="evenodd" d="M86.252 88.8202C86.252 89.7455 87.6882 89.7455 87.6882 88.8202C87.6882 87.8949 86.252 87.8949 86.252 88.8202Z" fill="#89C5CC"/>
<path fill-rule="evenodd" clip-rule="evenodd" d="M84.594 90.6503C84.4007 91.3523 86.6046 91.7124 86.6779 90.8999C86.7129 90.5117 84.7284 90.1606 84.594 90.6503Z" fill="#89C5CC"/>
<path fill-rule="evenodd" clip-rule="evenodd" d="M91.0552 90.2162C93.5911 89.9119 96.2058 90.0526 98.754 90.1255C99.3917 90.144 100.029 90.1618 100.667 90.1724C101.073 90.1793 101.948 90.3739 102.302 90.1841C103.751 89.4069 100.909 89.0311 100.506 88.9953C97.9715 88.7868 94.0598 88.7124 91.5177 88.8108C90.7659 88.84 90.6033 90.2704 91.0552 90.2162Z" fill="#89C5CC"/>
<path fill-rule="evenodd" clip-rule="evenodd" d="M102.466 102.823C102.488 100.166 102.583 97.4906 102.788 94.8415C102.871 93.7617 102.971 92.6834 103.053 91.6036C103.092 91.095 103.273 90.3826 102.974 89.9363C102.666 89.4765 101.99 89.3809 101.583 89.7884C101.095 90.4194 101.237 91.4786 101.176 92.2419C101.083 93.4157 100.971 94.5885 100.915 95.7647C100.806 98.0414 100.781 100.358 100.964 102.631C101.05 103.704 101.238 104.751 101.487 105.797C101.6 106.273 102.503 108.395 102.313 108.687C102.019 109.141 99.8455 108.969 99.3741 108.982C98.1642 109.014 96.9538 109.036 95.7436 109.059C94.7075 109.078 93.6713 109.093 92.635 109.102C92.2236 109.105 89.806 109.032 90.3423 109.642C84.3454 110.06 78.2339 109.363 72.2735 109.123C71.9725 109.111 71.4799 109.026 71.0252 109.001C70.9707 108.781 70.926 108.585 70.9149 108.449C70.8365 107.491 70.8161 106.53 70.7312 105.572C70.5758 103.82 70.2745 102.085 70.0952 100.336C69.9164 98.5887 69.9343 96.836 69.8302 95.0844C69.8123 94.7842 69.7701 92.3257 69.1497 91.7284C69.4438 91.8399 69.9182 91.8544 70.1913 91.8324C72.4024 91.654 74.5972 91.2698 76.7893 90.94C77.4164 90.8457 78.8396 90.9125 79.3598 90.5991C79.81 90.3276 79.9882 89.3762 79.205 89.4531C77.0192 89.6873 74.8452 90.0507 72.6765 90.4085C72.0965 90.5041 71.5179 90.6065 70.9395 90.711C70.5531 90.7808 69.5334 90.7755 69.2338 91.0084C68.8698 91.2911 68.8312 91.4835 68.9546 91.6114C68.7831 91.5643 68.5776 91.6383 68.3308 91.8853C67.8642 92.4927 68.3029 93.9885 68.3585 94.7007C68.4253 95.5549 68.4582 96.4106 68.4971 97.2664C68.5722 98.9226 68.7456 100.556 69.0121 102.192C69.3107 104.025 69.5646 105.865 69.864 107.698C69.9419 108.175 70.0435 108.64 70.1732 109.101C69.3667 109.514 69.915 110.17 70.5547 110.286C70.5593 110.287 70.5641 110.287 70.5686 110.288C70.768 110.774 71.0468 111.225 71.2646 110.573C71.2813 110.523 71.2891 110.462 71.2911 110.393C72.9431 110.58 74.759 110.464 76.3854 110.53C79.9085 110.674 83.4533 110.89 86.9799 110.781C88.376 110.737 89.7764 110.613 91.1609 110.427C91.972 110.318 92.7862 110.188 93.5843 110.007C93.6415 109.994 93.7285 109.98 93.8288 109.964C93.8452 109.963 93.8619 109.963 93.8774 109.963C95.0995 109.944 96.3206 109.911 97.5417 109.861C98.5667 109.818 99.5963 109.796 100.618 109.699C101.253 109.639 102.594 109.651 102.983 109.012C103.338 108.432 102.745 106.937 102.661 106.285C102.513 105.138 102.457 103.979 102.466 102.823Z" fill="#C1DEE2"/>
<path fill-rule="evenodd" clip-rule="evenodd" d="M90.0806 95.1506C89.104 95.2343 88.2011 95.6928 87.2155 95.6985C86.3883 95.7032 85.5739 95.456 84.7421 95.4925C83.7665 95.5351 83.2296 96.166 82.375 96.3772C81.6946 96.5452 81.266 96.0243 80.6675 95.7939C79.9119 95.5029 79.3537 95.6532 78.7061 96.0932C78.2302 96.4166 77.1204 97.1423 77.129 97.7963C77.1544 99.7774 79.4658 97.0407 79.9318 97.0076C80.5509 96.9635 81.2425 97.6692 81.9012 97.7094C82.7722 97.7627 83.3305 97.2013 84.1325 96.9967C84.9435 96.7898 85.8201 97.0433 86.6331 97.1219C87.5608 97.2116 88.3725 97.0049 89.2699 96.7835C90.1396 96.5689 90.8807 96.5803 91.7644 96.7604C92.3608 96.8821 93.8466 97.5892 94.1075 96.68C94.4628 95.4418 90.7633 95.0925 90.0806 95.1506Z" fill="#89C5CC"/>
<path fill-rule="evenodd" clip-rule="evenodd" d="M90.3785 98.9294C88.3775 99.1235 86.3644 99.2939 84.3543 99.3484C83.4837 99.3721 80.1368 98.999 80.4336 100.105C80.688 101.054 85.2425 100.457 86.1702 100.384C87.1942 100.305 88.2168 100.194 89.2358 100.065C89.597 100.019 90.4691 100.066 90.724 99.7633C90.9669 99.4743 90.8471 98.8825 90.3785 98.9294Z" fill="#89C5CC"/>
<path fill-rule="evenodd" clip-rule="evenodd" d="M76.5736 103.967C76.5281 103.987 76.5281 103.987 76.5736 103.967V103.967ZM76.9957 103.962C77.4945 103.946 77.3876 103.683 77.8852 103.82C78.1148 103.883 78.1383 103.789 78.3163 104.009C78.6634 104.437 78.3365 105.369 77.9942 105.714C76.7271 106.991 75.2065 104.019 76.9957 103.962ZM76.996 102.709C73.5271 102.825 74.9785 108.184 77.9976 107.09C79.2445 106.638 80.0283 104.603 79.2949 103.459C78.9381 102.903 78.4832 102.804 77.8856 102.766C77.7468 102.757 77.5722 102.958 77.4856 102.949C77.2798 102.927 77.299 102.698 76.996 102.709Z" fill="#89C5CC"/>
<path fill-rule="evenodd" clip-rule="evenodd" d="M85.2923 104.151C85.2305 104.132 86.3876 104.468 86.261 104.336C86.5312 104.617 86.1679 105.282 85.8623 105.398C85.1222 105.679 84.7068 104.528 85.2923 104.151ZM85.8057 102.698C84.7195 102.852 83.8813 103.304 83.7328 104.512C83.5958 105.627 84.3491 106.756 85.5373 106.778C88.1271 106.825 88.206 102.363 85.8057 102.698Z" fill="#89C5CC"/>
<path fill-rule="evenodd" clip-rule="evenodd" d="M97.6287 104.2C97.7804 106.179 95.7275 104.367 97.6287 104.2V104.2ZM96.7475 102.082C96.568 102.389 96.721 102.714 96.9919 102.893C94.5705 103.404 95.1189 107.048 97.583 106.51C98.8361 106.236 99.0665 104.919 98.8797 103.831C98.7908 103.313 97.5016 100.792 96.7475 102.082Z" fill="#89C5CC"/>
</g>
<path opacity="0.5" fill-rule="evenodd" clip-rule="evenodd" d="M101.585 104.822C100.897 104.955 99.2691 105.782 99.2833 106.671C99.3053 108.058 100.689 106.543 100.996 106.339C102.649 105.244 104.791 106.663 106.512 106.965C107.301 107.103 108.845 107.359 109.542 106.783C110.781 105.76 107.915 106.016 107.549 105.975C105.565 105.752 103.591 104.432 101.585 104.822Z" fill="#C1DEE2"/>
<g opacity="0.5">
<path fill-rule="evenodd" clip-rule="evenodd" d="M136.573 94.586C136.572 95.9536 136.503 97.3495 136.755 98.7007C136.831 99.1097 136.891 99.8932 137.323 100.106C137.756 100.319 138.177 100.079 138.284 99.6348C138.41 99.1179 138.134 98.3442 138.107 97.8014C138.068 97.06 138.066 96.3176 138.065 95.5753C138.065 95.0393 138.241 94.1768 137.609 93.901C137.138 93.6959 136.573 94.0773 136.573 94.586Z" fill="#C1DEE2"/>
<path fill-rule="evenodd" clip-rule="evenodd" d="M158.193 92.4229C153.662 92.8777 149.066 92.9722 144.518 93.2094C142.416 93.319 139.876 93.1792 137.896 93.9928C137.528 94.1439 136.211 94.9849 137.28 95.3273C137.614 95.4342 137.952 95.0751 138.226 94.9548C138.682 94.7547 139.209 94.6927 139.695 94.6146C143.827 93.9511 148.149 94.0666 152.324 93.7565C153.393 93.6771 154.463 93.5953 155.531 93.4902C156.293 93.4152 157.896 92.8655 158.6 93.1467C159.803 93.6271 159.775 96.7484 159.798 97.8219C159.811 98.377 159.272 100.37 160.343 100.168C161.2 100.006 160.89 97.9358 160.823 97.3695C160.648 95.8851 160.349 92.2045 158.193 92.4229Z" fill="#C1DEE2"/>
<path fill-rule="evenodd" clip-rule="evenodd" d="M159.863 100.096C155.928 100.451 151.901 100.102 147.95 100.242C145.878 100.316 143.809 100.432 141.737 100.501C140.841 100.53 139.944 100.532 139.048 100.538C138.619 100.541 136.668 100.801 137.875 101.651C138.409 102.027 140.113 101.724 140.726 101.717C141.647 101.706 142.568 101.668 143.488 101.631C145.62 101.548 147.751 101.433 149.884 101.375C151.924 101.32 153.966 101.308 156.006 101.253C157.022 101.225 158.051 101.194 159.057 101.046C159.284 101.012 160.022 100.986 160.179 100.732C160.328 100.493 160.224 100.061 159.863 100.096Z" fill="#89C5CC"/>
<path fill-rule="evenodd" clip-rule="evenodd" d="M140.521 97.141C140.5 97.1911 140.5 97.1911 140.521 97.141V97.141ZM142.225 96.6231C142.287 96.6494 142.287 96.6494 142.225 96.6231V96.6231ZM142.145 96.6086C143.064 97.5448 141.651 98.6622 140.791 97.7486C139.878 96.7789 141.554 96.6117 142.145 96.6086ZM141.171 95.1922C138.008 95.7552 139.128 99.9715 142.082 99.3621C143.38 99.0947 144.121 97.7879 143.675 96.5326C143.5 96.0421 143.12 95.5038 142.591 95.3493C142.327 95.2723 142.093 95.3935 141.842 95.3651C141.602 95.3381 141.469 95.1385 141.171 95.1922Z" fill="#C1DEE2"/>
<path fill-rule="evenodd" clip-rule="evenodd" d="M153.278 96.3792C151.371 96.3852 149.462 96.4662 147.555 96.5024C146.97 96.5134 145.466 96.2516 145.464 97.1739C145.461 98.1595 147.136 97.7955 147.694 97.7822C149.586 97.737 151.483 97.6541 153.367 97.4739C153.843 97.4284 155.491 97.507 155.489 96.8596C155.488 96.1738 153.663 96.3792 153.278 96.3792Z" fill="#C1DEE2"/>
<path fill-rule="evenodd" clip-rule="evenodd" d="M157.835 102.812C153.117 102.938 148.406 102.982 143.691 103.224C141.928 103.314 140.167 103.381 138.401 103.381C138.061 103.381 137.376 103.25 137.056 103.464C136.187 104.045 137.176 104.543 137.742 104.575C141.615 104.79 145.544 104.255 149.415 104.134C151.681 104.063 153.947 104.042 156.212 103.927C156.83 103.896 157.448 103.859 158.065 103.811C158.419 103.784 159.357 103.859 159.644 103.652C160.896 102.746 158.257 102.8 157.835 102.812Z" fill="#89C5CC"/>
<path fill-rule="evenodd" clip-rule="evenodd" d="M136.187 105.119C136.142 106.342 136.138 107.544 136.298 108.76C136.361 109.239 136.39 109.782 136.951 109.904C137.46 110.014 137.719 109.629 137.824 109.202C138.082 108.158 137.855 106.656 137.852 105.572C137.851 105.036 137.85 104.436 137.188 104.315C136.683 104.222 136.206 104.588 136.187 105.119Z" fill="#89C5CC"/>
<path fill-rule="evenodd" clip-rule="evenodd" d="M162.836 108.068C155.198 108.47 147.571 108.822 139.928 109.145C139.332 109.17 134.701 109.119 136.32 110.734C136.82 111.233 138.108 110.895 138.755 110.863C139.727 110.816 140.699 110.779 141.67 110.73C145.523 110.534 149.386 110.481 153.236 110.261C155.354 110.14 157.468 109.95 159.576 109.703C160.578 109.586 161.823 109.598 162.761 109.205C163.244 109.003 163.766 108.018 162.836 108.068Z" fill="#89C5CC"/>
<path fill-rule="evenodd" clip-rule="evenodd" d="M158.445 101.862C157.864 102.441 158.163 103.582 158.206 104.297C158.267 105.281 158.34 106.265 158.463 107.244C158.543 107.879 158.5 108.869 158.839 109.418C159.236 110.061 160.111 109.99 160.47 109.368C160.787 108.819 160.627 107.663 160.618 107.054C160.607 106.212 160.555 105.369 160.505 104.529C160.463 103.827 160.622 102.701 160.236 102.1C159.843 101.49 158.989 101.321 158.445 101.862Z" fill="#89C5CC"/>
<path fill-rule="evenodd" clip-rule="evenodd" d="M140.986 106.351C140.918 106.404 140.918 106.404 140.986 106.351V106.351ZM142.343 106.181C143.609 106.436 141.562 107.914 140.915 106.899C140.814 106.741 140.762 106.546 140.924 106.408C141.072 106.282 141.165 106.505 141.305 106.445C141.546 106.342 142.086 106.172 142.343 106.181ZM142.169 104.968C141.305 105.036 140.116 105.09 139.689 105.956C139.114 107.12 140.097 108.259 141.234 108.436C142.328 108.607 143.961 108.001 144.049 106.725C144.12 105.696 143.141 104.889 142.169 104.968Z" fill="#89C5CC"/>
<path fill-rule="evenodd" clip-rule="evenodd" d="M149.384 105.583C148.489 105.598 146.731 105.333 145.951 105.769C145.18 106.201 145.524 106.969 146.228 107.153C146.693 107.274 147.453 107.078 147.937 107.059C148.574 107.033 149.211 107.027 149.848 107.018C150.92 107.004 151.992 107.016 153.064 107.016C154.158 107.016 155.272 107.046 156.365 106.965C157.748 106.864 157.71 105.828 156.358 105.699C154.061 105.479 151.689 105.547 149.384 105.583Z" fill="#89C5CC"/>
<path fill-rule="evenodd" clip-rule="evenodd" d="M147.1 117.18C147.1 117.672 147.536 117.18 147.533 117.18C147.536 117.18 147.1 116.688 147.1 117.18Z" fill="#89C5CC"/>
<path fill-rule="evenodd" clip-rule="evenodd" d="M137.225 113.22C137.253 114.65 137.271 116.081 137.332 117.51C137.352 117.962 137.222 118.844 137.77 119.074C138.38 119.331 138.569 118.692 138.639 118.259C138.862 116.887 138.644 115.32 138.622 113.932C138.615 113.466 138.716 112.817 138.187 112.585C137.755 112.395 137.216 112.747 137.225 113.22Z" fill="#89C5CC"/>
<path fill-rule="evenodd" clip-rule="evenodd" d="M160.741 113.242C160.777 113.328 160.777 113.328 160.741 113.242V113.242ZM160.792 113.228C160.821 113.24 160.94 113.29 160.792 113.228V113.228ZM149.24 112.072C147.045 112.106 144.848 112.132 142.654 112.226C141.718 112.267 140.771 112.299 139.838 112.387C139.177 112.45 137.535 112.476 137.106 113.016C136.222 114.131 138.098 113.827 138.502 113.736C139.237 113.571 139.987 113.518 140.739 113.479C142.368 113.393 143.999 113.347 145.631 113.314C150.056 113.225 154.485 113.239 158.911 113.219C159.34 113.217 160.114 113.044 160.51 113.218C160.907 113.391 160.884 113.819 160.926 114.315C160.98 114.974 160.545 116.232 160.877 116.787C161.391 117.648 162.139 116.917 162.254 116.289C162.412 115.422 162.161 114.38 161.916 113.551C161.57 112.382 161.09 112.335 159.958 112.244C158.637 112.137 157.32 112.072 155.993 112.06C153.743 112.039 151.49 112.037 149.24 112.072Z" fill="#89C5CC"/>
<path fill-rule="evenodd" clip-rule="evenodd" d="M157.923 117.983C153.162 118.536 148.265 118.21 143.478 118.23C142.314 118.235 141.149 118.244 139.986 118.3C139.372 118.33 137.916 118.161 137.495 118.635C136.608 119.633 138.206 119.779 138.789 119.737C139.968 119.654 141.151 119.615 142.333 119.606C146.498 119.574 150.686 119.768 154.848 119.563C156.591 119.477 158.296 119.178 160.007 118.845C160.386 118.771 162.981 118.278 161.501 117.687C160.627 117.337 158.842 117.876 157.923 117.983Z" fill="#89C5CC"/>
<path fill-rule="evenodd" clip-rule="evenodd" d="M144.02 116.155C143.987 116.197 143.987 116.197 144.02 116.155V116.155ZM143.988 116.147C143.977 116.178 143.942 116.253 143.988 116.147V116.147ZM143.688 115.76C143.695 115.769 143.723 115.805 143.688 115.76V115.76ZM143.677 115.757C143.791 115.894 143.869 116.046 143.908 116.215C142.922 116.482 142.542 115.684 143.677 115.757ZM143.614 115.719C143.615 115.72 143.753 115.778 143.614 115.719V115.719ZM141.994 114.53C141.356 115.326 140.828 116.252 141.624 117.16C142.336 117.972 143.768 118.077 144.671 117.535C145.602 116.976 145.522 115.8 144.873 115.033C144.455 114.539 144.116 114.552 143.509 114.472C143.097 114.417 142.344 114.096 141.994 114.53Z" fill="#89C5CC"/>
<path fill-rule="evenodd" clip-rule="evenodd" d="M148.594 116.002C148.594 117.061 153.165 116.605 153.979 116.604C154.66 116.603 158.779 116.979 158.484 115.889C158.241 114.994 154.183 115.439 153.319 115.437C152.572 115.436 148.594 114.924 148.594 116.002Z" fill="#89C5CC"/>
</g>
<g opacity="0.5">
<path fill-rule="evenodd" clip-rule="evenodd" d="M88.9132 125.922C91.2027 126.254 93.5843 127.331 93.5643 129.996C93.5475 132.236 91.6682 134.621 89.2552 134.487C87.0835 134.367 85.0387 131.992 84.7668 129.957C84.6259 128.902 84.8894 127.767 85.5097 126.9C86.3224 125.763 87.6119 125.765 88.9132 125.922ZM87.8315 124.473C86.1756 124.482 84.964 125.081 83.9392 126.345C83.5716 126.799 83.1442 127.287 82.8644 127.8C82.6031 128.28 82.6489 129.5 83.5456 128.928C83.3248 131.29 84.7051 133.582 86.6892 134.792C88.846 136.108 91.2839 135.851 93.0788 134.007C94.722 132.319 95.3002 129.469 94.0982 127.381C92.8967 125.295 90.1131 124.451 87.8315 124.473Z" fill="#89C5CC"/>
<path fill-rule="evenodd" clip-rule="evenodd" d="M92.7971 123.84C91.7369 124.617 90.7689 125.64 89.9649 126.678C89.179 127.692 88.6595 128.959 87.7155 129.843C87.2387 129.324 86.6802 127.922 85.7292 128.478C84.94 128.94 85.4482 129.734 85.8325 130.255C86.825 131.601 87.9272 132.143 89.2 130.813C90.3561 129.605 91.0126 127.994 92.0935 126.716C92.5676 126.156 93.3 125.6 93.6776 124.981C94.0199 124.42 93.5966 123.252 92.7971 123.84Z" fill="#89C5CC"/>
</g>
<g opacity="0.5">
<path fill-rule="evenodd" clip-rule="evenodd" d="M132.86 39.5793C132.862 39.6853 132.863 39.7849 132.866 39.8765C132.915 41.8766 132.886 43.9792 132.724 45.9746C132.668 46.6636 132.167 47.5368 131.595 46.5871C131.343 46.1695 131.379 45.312 131.405 44.6811C131.412 44.512 131.418 44.3592 131.418 44.2355C131.417 43.5317 131.454 42.8206 131.491 42.1076C131.564 40.7138 131.637 39.3126 131.43 37.9437C131.426 37.916 131.422 37.8893 131.418 37.8637C131.329 37.2617 131.323 37.2201 130.661 37.2338C130.385 37.2395 130.109 37.247 129.833 37.2544C129.561 37.2618 129.29 37.2691 129.018 37.2748C128.749 37.2805 128.479 37.2856 128.21 37.2908C127.364 37.3071 126.519 37.3233 125.674 37.3543C125.533 37.3595 125.27 37.3925 124.938 37.4341C124.274 37.5174 123.335 37.6352 122.544 37.6345C122.544 37.6379 122.544 37.6413 122.545 37.6447C122.545 37.6508 122.546 37.657 122.546 37.6632C122.555 38.0996 122.442 38.5867 122.329 39.0761C122.235 39.486 122.14 39.8974 122.115 40.282C122.058 41.197 122.057 42.1216 122.056 43.0463C122.055 44.1722 122.055 45.2982 121.95 46.4067C121.945 46.4607 121.942 46.5179 121.939 46.5757C121.939 46.5834 121.938 46.5911 121.938 46.5988C121.974 46.5933 122.009 46.5895 122.042 46.5874C122.612 46.5512 123.187 46.548 123.76 46.5448C124.077 46.543 124.393 46.5413 124.708 46.534C125.273 46.5209 125.845 46.5215 126.42 46.5221C127.689 46.5235 128.968 46.5248 130.209 46.3787C130.576 46.3312 130.704 46.8013 130.539 47.045C130.392 47.2631 129.987 47.2985 129.69 47.3243C129.615 47.3309 129.546 47.3369 129.491 47.3451C128.691 47.4636 127.88 47.505 127.072 47.5407C126.224 47.5783 125.375 47.6064 124.527 47.63C124.325 47.6356 124.055 47.6629 123.756 47.6931C122.967 47.7728 121.974 47.8733 121.48 47.6501C120.951 47.4104 120.963 47.1443 121.179 46.9381C121.084 46.7295 121.069 46.4245 121.057 46.186C121.053 46.095 121.049 46.0137 121.041 45.9511C120.924 45.0018 120.853 44.0647 120.851 43.1073C120.848 41.232 120.851 39.2843 121.37 37.4691C121.162 37.3781 121.037 37.244 121.038 37.0507C121.04 36.0768 124.071 36.1264 125.512 36.1499C125.77 36.1542 125.976 36.1575 126.106 36.1541C127.156 36.1267 128.205 36.1231 129.255 36.1288C129.477 36.13 129.724 36.1154 129.98 36.1004C130.524 36.0684 131.108 36.0341 131.578 36.1433C132.813 36.4299 132.842 38.396 132.86 39.5793Z" fill="#89C5CC"/>
<path fill-rule="evenodd" clip-rule="evenodd" d="M140.582 36.3567C141.728 36.2961 142.875 36.2821 144.022 36.2779C145.238 36.2717 146.454 36.2936 147.669 36.3309L147.697 36.3318C148.235 36.348 151.226 36.4378 149.852 37.1832C149.772 37.2267 149.682 37.2631 149.583 37.2932C149.642 37.6384 149.649 37.9948 149.639 38.1665C149.604 38.8175 149.58 39.4693 149.557 40.121C149.541 40.5627 149.525 41.0044 149.506 41.4459C149.452 42.6657 149.4 43.8854 149.358 45.1058C149.353 45.2556 149.361 45.4515 149.37 45.6698C149.399 46.3918 149.438 47.3592 149.046 47.7168C148.702 48.0308 148.467 47.9678 148.308 47.7545C147.324 48.0406 145.301 47.9476 144.284 47.9008C144.039 47.8896 143.853 47.881 143.753 47.881C143.575 47.8811 143.244 47.9033 142.825 47.9314C141.084 48.0484 137.834 48.2667 137.828 47.4084C137.827 47.3257 137.854 47.2516 137.904 47.1853C137.766 47.0445 137.642 46.8379 137.563 46.5801C137.277 45.6544 137.25 44.6554 137.228 43.6954C137.198 42.3399 137.198 40.9828 137.198 39.626C137.198 38.929 137.197 38.2322 137.193 37.5356C137.008 37.2858 137.118 37.0001 137.35 36.8007C137.845 36.3764 139.072 36.3712 139.96 36.3675C140.198 36.3665 140.413 36.3656 140.582 36.3567ZM138.716 46.8089C139.821 46.5731 141.682 46.649 142.68 46.6897C142.941 46.7003 143.143 46.7086 143.256 46.7081C144.275 46.7041 145.294 46.7183 146.311 46.759C146.417 46.7632 146.573 46.7593 146.757 46.7546C147.127 46.7453 147.609 46.7332 148.018 46.7786C148.012 46.7231 148.009 46.6723 148.007 46.6285C147.961 45.7225 147.994 44.8088 148.027 43.9001C148.034 43.7069 148.041 43.514 148.047 43.3214C148.069 42.642 148.098 41.9629 148.127 41.2838V41.2838C148.145 40.8562 148.163 40.4286 148.18 40.0009C148.187 39.8132 148.176 39.5584 148.164 39.2716L148.164 39.2716C148.14 38.6882 148.109 37.9728 148.214 37.4234C147.837 37.4163 147.451 37.3896 147.097 37.3651C146.755 37.3415 146.444 37.3199 146.199 37.3199C145.888 37.3199 145.578 37.3189 145.267 37.3179H145.267H145.267C144.406 37.3153 143.546 37.3127 142.685 37.3297L142.44 37.3345C141.255 37.3573 140.06 37.3804 138.885 37.5365C138.816 37.5457 138.733 37.5634 138.642 37.5848C138.771 38.1232 138.707 38.8821 138.652 39.5467C138.625 39.8695 138.6 40.17 138.6 40.4123C138.598 41.919 138.638 43.4198 138.678 44.9191C138.693 45.4862 138.708 46.0531 138.721 46.6201C138.722 46.6878 138.721 46.7507 138.716 46.8089Z" fill="#89C5CC"/>
<path fill-rule="evenodd" clip-rule="evenodd" d="M126.142 47.5863C125.389 48.0263 125.795 49.7865 126.056 50.3953C126.485 51.3962 127.356 52.1795 128.295 52.6991C130.193 53.7492 132.93 53.4703 134.365 55.291C134.38 55.3099 134.877 55.8012 134.989 55.1649C135.082 54.6428 134.156 53.8453 133.797 53.5836C132.776 52.8393 131.467 52.5993 130.286 52.2275C129.026 51.831 127.644 51.1 127.116 49.8017C126.929 49.3419 127.286 46.9151 126.142 47.5863Z" fill="#C1DEE2"/>
<path fill-rule="evenodd" clip-rule="evenodd" d="M143.362 48.4327C142.672 48.6229 143.128 49.5728 143.127 50.0483C143.126 50.6416 142.936 51.2626 142.57 51.736C141.643 52.9368 139.827 53.1167 138.466 53.461C137.478 53.7111 135.113 54.2475 135.02 55.5842C134.917 57.0771 137.005 55.2604 137.181 55.1859C139.133 54.4701 141.657 54.3319 143.163 52.7562C143.785 52.1058 144.153 51.2377 144.211 50.3418C144.244 49.8373 144.249 48.1902 143.362 48.4327Z" fill="#C1DEE2"/>
<path fill-rule="evenodd" clip-rule="evenodd" d="M129.1 61.674C129.084 58.912 131.727 57.2412 134.117 56.6127C136.99 55.8558 139.666 57.8688 140.005 60.7646C140.362 63.8207 138.059 66.2809 135.021 66.4158C132.35 66.5344 129.117 64.6213 129.1 61.674ZM135.517 57.9409C135.673 58.1521 135.813 58.4893 135.5 58.6729C135.199 58.8483 135.048 58.6374 134.897 58.4251C134.801 58.2909 134.705 58.1561 134.57 58.1181C134.221 58.0198 133.66 58.3871 133.369 58.6013C133.251 58.6883 133.083 58.8754 132.887 59.0942C132.261 59.7906 131.348 60.8074 130.844 59.9325C128.831 63.4077 133.849 66.0084 136.702 64.6933C139.835 63.2489 139.225 57.9684 135.517 57.9409Z" fill="#89C5CC"/>
<path fill-rule="evenodd" clip-rule="evenodd" d="M132.888 60.7495C132.888 61.3835 133.889 61.3835 133.889 60.7495C133.889 60.1227 132.888 60.0959 132.888 60.7495Z" fill="#89C5CC"/>
<path fill-rule="evenodd" clip-rule="evenodd" d="M134.648 60.6302C134.648 61.4067 135.875 61.4067 135.875 60.6302C135.875 59.8624 134.648 59.8296 134.648 60.6302Z" fill="#89C5CC"/>
<path fill-rule="evenodd" clip-rule="evenodd" d="M133.388 62.4399C132.385 63.0301 135.254 64.2027 135.368 63.0044C135.417 62.4874 134.916 62.6268 134.582 62.5888C134.263 62.5524 133.691 62.2635 133.388 62.4399Z" fill="#89C5CC"/>
<path fill-rule="evenodd" clip-rule="evenodd" d="M132.953 66.6271C132.996 68.1345 132.975 69.6411 133.261 71.1276C133.315 71.4098 133.353 72.4339 133.576 72.6436C134.125 73.1595 134.134 72.1707 134.156 71.7918C134.232 70.4345 134.089 69.035 134.058 67.6749C134.051 67.3822 134.129 66.7758 133.99 66.4924C133.771 66.0426 132.931 65.9091 132.953 66.6271Z" fill="#C1DEE2"/>
<path fill-rule="evenodd" clip-rule="evenodd" d="M131.881 65.405C129.681 67.8738 126.652 67.692 123.6 67.9082C121.988 68.0224 120.358 68.257 119.06 69.2999C118.457 69.785 117.937 70.3927 117.587 71.0852C117.434 71.388 116.709 73.1349 117.798 72.7204C118.184 72.5735 118.564 71.4182 118.814 71.0765C119.289 70.4257 119.898 69.8885 120.628 69.5392C122.036 68.8656 123.718 68.877 125.245 68.7915C126.841 68.7022 128.554 68.6187 130.021 67.9247C130.711 67.5981 131.359 67.1909 131.914 66.6662C132.113 66.4785 132.538 66.1599 132.57 65.8731C132.606 65.5452 132.291 64.945 131.881 65.405Z" fill="#C1DEE2"/>
<path fill-rule="evenodd" clip-rule="evenodd" d="M120.776 72.9826C118.709 73.0516 116.646 73.1352 114.582 73.2658C114.159 73.2926 112.75 73.2072 113.109 74.0736C113.397 74.7681 115.116 74.3087 115.685 74.2751C117.835 74.1474 119.994 74.1031 122.139 73.9096C122.621 73.8663 124.8 73.8836 123.9 73.0294C123.472 72.6228 121.367 72.9624 120.776 72.9826Z" fill="#89C5CC"/>
<path fill-rule="evenodd" clip-rule="evenodd" d="M111.797 73.979C111.146 74.8344 111.445 76.9134 111.494 77.9417C111.542 78.9383 111.348 80.7603 112.649 80.9148C112.236 80.8606 112.963 80.9399 113.081 80.9462C113.345 80.9604 113.61 80.965 113.875 80.9679C114.486 80.9745 115.097 80.9664 115.708 80.9541C117.091 80.9265 118.479 80.8863 119.86 80.8098C120.441 80.7776 123.593 80.8044 123.717 80.201C123.877 79.4299 120.855 79.8661 120.315 79.8907C118.997 79.9512 117.678 79.9639 116.36 79.9811C115.706 79.9897 115.052 79.9962 114.399 79.9834C114.129 79.9781 113.06 80.089 112.896 79.9089C112.756 79.7556 112.866 78.3467 112.863 78.1312C112.853 77.4287 112.854 76.7245 112.879 76.0223C112.896 75.5495 113.151 74.6499 112.943 74.2058C112.74 73.774 112.15 73.6267 111.797 73.979Z" fill="#89C5CC"/>
<path fill-rule="evenodd" clip-rule="evenodd" d="M122.437 74.019C122.475 75.5838 122.486 77.1803 122.856 78.7107C122.979 79.2201 123.151 80.2703 123.663 80.534C124.2 80.8108 124.664 80.4157 124.699 79.8836C124.743 79.2146 124.385 78.3364 124.311 77.65C124.225 76.8491 124.175 76.0475 124.146 75.2427C124.124 74.6375 124.308 73.73 123.731 73.3397C123.213 72.9891 122.42 73.3422 122.437 74.019Z" fill="#89C5CC"/>
<path fill-rule="evenodd" clip-rule="evenodd" d="M126.548 73.6369C125.906 74.277 126.193 76.3037 126.273 77.1262C126.332 77.7287 126.991 80.6922 127.979 79.1468C128.416 78.4632 127.861 76.6557 127.865 75.8586C127.868 75.3509 128.047 74.709 127.961 74.2213C127.846 73.5767 127.131 73.0548 126.548 73.6369Z" fill="#89C5CC"/>
<path fill-rule="evenodd" clip-rule="evenodd" d="M130.998 73.1087C132.928 72.9096 134.86 72.7602 136.801 72.7417C136.894 72.7409 136.992 72.7397 137.094 72.7384C138.424 72.7215 140.423 72.6962 141.319 73.695C141.806 74.2392 142.027 75.0804 142.22 75.8137C142.256 75.9505 142.291 76.0835 142.326 76.2102C142.357 76.3184 142.396 76.4418 142.439 76.5752C142.64 77.2046 142.912 78.0565 142.636 78.5839C142.485 78.8731 142.241 79.1197 141.871 79.0172C141.785 78.9932 141.717 78.9625 141.664 78.9263C141.806 79.0795 141.869 79.2979 141.777 79.5117C141.599 79.9245 141.037 79.9332 140.595 79.9401C140.488 79.9418 140.387 79.9434 140.301 79.9506C138.828 80.0734 137.347 80.1553 135.868 80.1683C135.164 80.1745 134.46 80.1687 133.756 80.163C133.031 80.157 132.306 80.1511 131.581 80.1582C131.055 80.1634 130.519 80.2134 129.983 80.2635C129.307 80.3266 128.63 80.3898 127.972 80.3628C127.479 80.3425 126.953 80.1813 127.078 79.545C127.18 79.0256 127.669 78.9803 128.107 78.9397C128.145 78.9361 128.183 78.9326 128.22 78.9288C129.615 78.7868 131.011 78.7365 132.413 78.7416C135.359 78.7518 138.302 78.7365 141.248 78.7212C141.369 78.7311 141.483 78.7775 141.577 78.8482C141.471 78.7195 141.473 78.5479 141.475 78.3652C141.476 78.2826 141.477 78.1978 141.468 78.1136C141.45 77.9443 141.434 77.7757 141.417 77.6074C141.363 77.0514 141.309 76.4993 141.203 75.9399C141.187 75.8555 141.171 75.7626 141.155 75.6643C141.059 75.0835 140.931 74.3141 140.469 74.0005C140.005 73.6852 139.094 73.7004 138.385 73.7122C138.193 73.7154 138.016 73.7183 137.867 73.7144C135.974 73.6656 134.069 73.8001 132.185 73.9714C132.04 73.9846 131.895 73.9972 131.75 74.0098C131.033 74.0723 130.312 74.1351 129.605 74.2634C129.476 74.2869 129.278 74.3558 129.052 74.4349C128.449 74.6452 127.64 74.9273 127.366 74.6167C126.456 73.5874 130.455 73.1647 130.998 73.1087Z" fill="#89C5CC"/>
<path fill-rule="evenodd" clip-rule="evenodd" d="M151.534 70.7652C151.618 70.8731 151.618 70.8731 151.534 70.7652V70.7652ZM138.471 64.3886C137.299 65.0777 139.469 67.0996 140.021 67.4123C141.265 68.1159 142.974 68.2221 144.363 68.4199C146.121 68.6706 148.034 68.7627 149.723 69.3388C150.443 69.5842 150.9 69.9672 151.371 70.5558C151.61 70.854 152.185 72.1395 152.709 71.8351C153.763 71.2223 150.922 68.6506 150.296 68.3741C148.873 67.7455 147.191 67.5695 145.67 67.3254C144.255 67.0983 142.81 66.9296 141.43 66.5293C140.671 66.3093 140.132 65.9543 139.695 65.275C139.422 64.8516 139.198 63.9632 138.471 64.3886Z" fill="#C1DEE2"/>
<path fill-rule="evenodd" clip-rule="evenodd" d="M156.443 72.2868C155.091 72.3168 153.742 72.4208 152.393 72.5247C151.637 72.583 150.88 72.6413 150.123 72.6866C149.886 72.7007 149.649 72.7135 149.412 72.7263L149.412 72.7263C148.746 72.7622 148.078 72.7982 147.414 72.8652C147.314 72.8754 147.197 72.8849 147.07 72.8954C146.506 72.9417 145.738 73.0047 145.247 73.2103C144.797 72.8698 144.102 73.1593 144.091 73.7661C144.073 74.8717 144.083 75.9575 144.218 77.0563C144.249 77.3113 144.41 78.6028 144.761 79.2749C144.636 79.9096 145.177 80.0875 145.681 80.1361C147.631 80.3244 149.677 80.1783 151.695 80.0341C152.721 79.9608 153.741 79.8879 154.737 79.8599C155.068 79.8505 155.403 79.8468 155.741 79.843C156.842 79.8306 157.964 79.8181 159.03 79.6098C159.073 79.6015 159.119 79.5932 159.167 79.5846C159.588 79.509 160.17 79.4048 160.214 78.941C160.241 78.6625 160.083 78.4076 159.82 78.3719C159.838 78.1399 159.809 77.8869 159.788 77.7009C159.783 77.6576 159.778 77.6179 159.775 77.583C159.711 76.9379 159.55 76.297 159.391 75.6643L159.391 75.6643L159.391 75.6643C159.356 75.5221 159.32 75.3803 159.286 75.2389C159.248 75.0823 159.213 74.8962 159.175 74.6954L159.175 74.6954C159.041 73.9867 158.872 73.0962 158.424 72.6827C157.955 72.2491 157.19 72.2683 156.577 72.2836C156.531 72.2848 156.486 72.2859 156.443 72.2868ZM158.821 78.4411C158.661 78.0218 158.614 77.4545 158.569 76.9153C158.541 76.5768 158.514 76.2493 158.46 75.9766C158.42 75.7718 158.387 75.5559 158.354 75.3365L158.354 75.3364C158.272 74.8036 158.188 74.2497 157.988 73.7828C157.72 73.1574 157.481 73.1813 156.917 73.2379C156.812 73.2484 156.696 73.26 156.566 73.2688C155.992 73.3079 155.417 73.3576 154.843 73.4073L154.843 73.4073C154.567 73.4311 154.292 73.455 154.016 73.4776C152.837 73.5746 151.657 73.6491 150.477 73.7236L150.477 73.7236C149.788 73.7671 149.099 73.8107 148.409 73.8587C147.868 73.8963 147.34 73.9992 146.814 74.1016L146.814 74.1016C146.398 74.1827 145.983 74.2635 145.564 74.3115C145.558 74.4548 145.546 74.5986 145.534 74.7356C145.519 74.9222 145.504 75.096 145.507 75.2385C145.521 75.8699 145.577 76.4974 145.633 77.1259L145.633 77.1259C145.641 77.2225 145.65 77.3192 145.658 77.4159C145.668 77.5318 145.693 77.6807 145.721 77.8459C145.764 78.1013 145.813 78.3956 145.824 78.6668C145.875 78.6664 145.926 78.6666 145.976 78.6667C146.04 78.667 146.104 78.6672 146.164 78.6662C147.65 78.6402 149.135 78.5951 150.619 78.5381C150.809 78.5308 150.998 78.5234 151.188 78.516C152.513 78.4645 153.837 78.4129 155.163 78.3977C155.69 78.3917 156.224 78.4082 156.759 78.4248C157.447 78.4461 158.138 78.4675 158.821 78.4411Z" fill="#89C5CC"/>
</g>
<path fill-rule="evenodd" clip-rule="evenodd" d="M64.556 32.3091C65.928 32.9769 67.2287 33.2144 67.7992 32.9702C69.23 32.3579 68.7014 26.4513 67.2962 24.2826C65.891 22.1139 59.8992 21.8875 60.1219 26.5265C60.1992 28.137 60.9756 29.4796 62.0163 30.5207L61.3201 39.0147L66.0552 38.382L64.556 32.3091Z" fill="#915B3C"/>
<path fill-rule="evenodd" clip-rule="evenodd" d="M64.2969 21.9676C63.6602 21.9395 61.9712 22.0873 61.6613 22.1288C61.4633 22.1553 61.2542 22.2332 61.1146 22.0508C61.0002 21.9014 61.0045 21.6224 60.9546 21.438C60.8966 21.2238 60.825 21.0142 60.7528 20.8053C60.5476 20.2109 60.2761 19.6555 59.9264 19.1467C59.2703 18.1923 58.3881 17.4938 57.3362 17.1594C56.1745 16.7901 54.9126 16.8386 53.7375 17.102C52.4801 17.3838 51.3819 17.9942 50.2313 18.5842C49.1347 19.1465 47.956 19.4676 46.7383 19.4273C45.5114 19.3867 44.5213 18.7973 43.4294 18.2582C42.3117 17.7063 41.0724 17.4133 39.8549 17.6814C38.7184 17.9317 37.7191 18.5891 36.848 19.4054C36.0331 20.169 35.3881 21.043 35.0978 22.1906C34.7855 23.425 34.9314 24.7146 35.7802 25.6553C37.0104 27.0188 39.023 27.145 40.6564 26.8874C41.6012 26.7385 42.5103 26.4258 43.3661 25.9637C44.5073 25.3473 45.4506 24.4349 46.4956 23.6573C46.986 23.2924 47.5 22.9779 48.0477 22.7276C48.5791 22.4847 49.1127 22.3345 49.6521 22.6302C50.2227 22.943 50.7377 23.2564 51.3681 23.4158C51.9728 23.5686 52.6003 23.6155 53.2164 23.5279C54.4149 23.3575 55.5516 22.7923 56.686 22.3638C57.6111 22.0145 58.6028 21.657 59.5956 21.7413C60.0099 21.7765 60.6211 21.8818 60.8187 22.3199C58.4162 23.1334 57.8247 26.5728 58.7916 28.9104C59.3135 30.1721 61.7339 31.4051 62.5299 30.5987C63.0342 30.0879 62.6334 29.5593 62.3732 29.2098C61.8749 28.5404 61.6273 27.6281 62.3411 27.0204C62.9568 26.4962 63.7725 27.4366 63.7856 27.4337C63.9665 27.3936 65.4357 26.2099 66.3634 24.6451C67.4444 24.571 67.5202 23.7784 67.1929 23.1823C66.8655 22.5861 65.1765 22.0065 64.2969 21.9676Z" fill="#2C2003"/>
<path fill-rule="evenodd" clip-rule="evenodd" d="M62.9297 56.7129L70.2112 84.0459L73.636 104.568H77.0735L73.6421 56.7129H62.9297Z" fill="#784931"/>
<path fill-rule="evenodd" clip-rule="evenodd" d="M59.6577 56.7129C60.1658 70.9122 59.9654 78.657 59.8517 79.947C59.738 81.2371 59.0924 89.8771 54.6934 105.001H58.2687C64.0945 90.4922 66.1282 81.8522 66.7964 79.947C67.4646 78.0419 69.438 70.2971 72.3191 56.7129H59.6577Z" fill="#915B3C"/>
<path fill-rule="evenodd" clip-rule="evenodd" d="M62.7734 56.7129C64.6675 66.1183 67.9433 81.1316 72.601 101.753H77.6288C78.0001 80.5871 76.4204 66.6565 73.6847 56.7129H62.7734Z" fill="#386B4A"/>
<path fill-rule="evenodd" clip-rule="evenodd" d="M59.6322 56.7129C60.1298 70.9122 58.8403 84.9013 54.8457 101.974H60.21C66.0466 87.6818 70.2298 73.7618 73.0888 56.7129H59.6322Z" fill="#758B6D"/>
<path fill-rule="evenodd" clip-rule="evenodd" d="M54.1836 107.816L54.3632 104.661C54.3722 104.504 54.527 104.398 54.6809 104.43C56.3985 104.796 58.7209 103.918 58.7209 103.918C61.0671 105.729 64.4298 106.578 65.7027 106.849C65.9796 106.908 66.1559 107.186 66.0846 107.46L65.8228 108.466H58.7209H54.5781L54.1836 107.816Z" fill="#191847"/>
<path fill-rule="evenodd" clip-rule="evenodd" d="M72.8691 107.816L73.0488 104.661C73.0577 104.504 73.2126 104.398 73.3665 104.43C75.0841 104.796 77.4064 103.918 77.4064 103.918C79.7526 105.729 83.1154 106.578 84.3883 106.849C84.6651 106.908 84.8414 107.186 84.7701 107.46L84.5083 108.466H77.4064H73.2637L72.8691 107.816Z" fill="#191847"/>
<path fill-rule="evenodd" clip-rule="evenodd" d="M86.4038 55.6029L79.3501 51.8061L78.572 55.7881L85.2082 57.3948C87.3196 59.2971 88.4487 60.0423 88.5954 59.6305C88.7191 59.2833 88.5351 59.0159 88.3656 58.7695C88.2335 58.5776 88.1103 58.3985 88.1482 58.2044C88.2348 57.7614 89.4166 57.5795 90.5449 57.4591C91.6732 57.3388 91.2614 56.8615 90.9498 56.6465C89.6934 56.1236 88.1781 55.7758 86.4038 55.6029ZM55.0829 70.6879C55.4511 69.31 55.4026 56.5789 55.4026 56.5789L59.4963 55.8114C59.4963 55.8114 57.8663 69.8623 57.6964 70.7355C57.4757 71.8698 58.3914 73.2807 59.0123 74.2373C59.1084 74.3853 59.1974 74.5225 59.274 74.646C58.6966 75.0719 58.3355 74.7603 57.9549 74.4318C57.525 74.0608 57.0702 73.6682 56.2502 74.2923C55.9334 74.5334 55.6404 74.8029 55.354 75.0661C54.365 75.9755 53.4564 76.8109 51.9291 76.1494C51.6869 76.0445 51.3581 75.5378 51.8663 74.995C53.1323 73.6428 54.9028 71.3615 55.0829 70.6879Z" fill="#915B3C"/>
<path fill-rule="evenodd" clip-rule="evenodd" d="M63.9977 35.649L65.6392 35.0079C72.8775 39.713 77.297 50.5724 85.9701 55.11L84.5225 57.9676C70.8751 58.729 65.3208 45.5146 63.9977 35.649Z" fill="#7C5A02"/>
<path fill-rule="evenodd" clip-rule="evenodd" d="M60.3736 60.2381C60.3736 60.2381 70.5546 58.2845 75.3515 57.3641C76.0359 57.2327 75.7325 56.1809 75.5455 55.6567C73.3878 49.6062 67.8355 43.7031 66.3894 34.7785L61.9495 34.8695C59.3904 41.8158 59.4036 49.7611 60.3736 60.2381Z" fill="#DDE3E9"/>
<path fill-rule="evenodd" clip-rule="evenodd" d="M59.4157 65.0398C59.0279 66.9301 58.6168 68.5934 58.1861 69.8931L54.9739 70.5095C52.656 58.4033 55.3688 48.2252 57.9943 41.8982C57.1984 41.9878 56.4308 41.7655 55.8395 40.97C53.7575 38.1692 54.0509 36.3508 55.6474 35.4653C56.5253 34.9784 57.4322 35.0217 58.5178 35.0736C59.4061 35.1161 60.414 35.1643 61.6236 34.9324C61.6236 34.9324 61.6237 34.9323 61.6237 34.9323L61.6237 34.9324C61.6242 34.9323 61.6246 34.9322 61.6251 34.9321C61.7426 34.9096 61.8509 34.8977 61.9506 34.8955L63.3977 34.7096C63.3977 34.7096 72.7003 55.082 71.2545 62.7681L59.4157 65.0398Z" fill="#BE8652"/>
<path fill-rule="evenodd" clip-rule="evenodd" d="M59.4151 65.0393C59.9239 62.5591 60.3925 59.6882 60.8128 56.7356C61.6343 59.7408 62.6738 62.718 63.8398 64.1903L59.4151 65.0393Z" fill="black" fill-opacity="0.1"/>
<path fill-rule="evenodd" clip-rule="evenodd" d="M101.019 25.2542C100.231 26.1442 99.3814 26.711 98.9181 26.7159C97.7564 26.7281 96.5918 22.4329 97.0128 20.4829C97.4339 18.533 101.573 16.5295 102.623 19.8437C102.987 20.994 102.792 22.1721 102.334 23.2207L105.029 28.9493L101.547 29.9647L101.019 25.2542Z" fill="#D4A181"/>
<path fill-rule="evenodd" clip-rule="evenodd" d="M96.2047 19.0043C96.4123 19.8475 97.1898 20.359 97.9658 20.18C98.4393 20.1992 99.0278 20.1432 99.6622 20.0069C99.6626 20.2722 99.6989 20.563 99.7772 20.8809C99.8463 21.1615 99.9481 21.4509 100.075 21.7378C100.167 21.5236 100.32 21.3568 100.503 21.3033C101.017 21.1536 101.487 21.5087 101.607 21.9964C101.759 22.6153 101.541 23.1589 101.07 23.3345C101.724 24.1103 102.489 24.6151 103.085 24.4411C104.219 24.1107 104.619 22.2275 104.182 20.4554C104.167 20.3931 104.151 20.3316 104.133 20.2709C104.588 20.4454 105.036 20.7172 105.487 20.9909C106.445 21.5724 107.419 22.1628 108.497 21.8483C110.655 21.219 110.347 16.2341 107.331 17.1133C105.281 17.7112 104.352 18.3306 103.601 19.065C103.301 18.5898 102.931 18.2242 102.536 18.0086C102.435 17.9358 102.293 17.8795 102.118 17.8401C102.013 17.8127 101.908 17.796 101.802 17.7909C101.226 17.7338 100.43 17.8074 99.5729 18.0227C99.4128 18.0629 99.2567 18.1066 99.1054 18.1531C98.8888 17.2844 98.0668 16.7696 97.267 17.0029C96.4657 17.2365 95.99 18.1326 96.2047 19.0043Z" fill="#191847"/>
<path fill-rule="evenodd" clip-rule="evenodd" d="M109.465 43.3936L103.962 64.0192L101.374 79.5052H98.7765L101.37 43.3936H109.465Z" fill="#BA8B72"/>
<path fill-rule="evenodd" clip-rule="evenodd" d="M111.938 43.3936C111.554 54.1085 111.705 59.9526 111.791 60.9261C111.877 61.8996 112.365 68.4195 115.689 79.832H112.988C108.585 68.8836 107.048 62.3638 106.543 60.9261C106.038 59.4885 104.547 53.6443 102.37 43.3936H111.938Z" fill="#D4A181"/>
<path fill-rule="evenodd" clip-rule="evenodd" d="M109.583 43.3936C108.152 50.4909 105.676 61.82 102.156 77.381H98.357C98.0764 61.4091 99.2701 50.897 101.337 43.3936H109.583Z" fill="#386B4A"/>
<path fill-rule="evenodd" clip-rule="evenodd" d="M111.957 43.3936C111.581 54.1085 112.556 64.6647 115.574 77.5478H111.52C107.11 66.7628 103.949 56.2587 101.788 43.3936H111.957Z" fill="#1E5944"/>
<path fill-rule="evenodd" clip-rule="evenodd" d="M116.074 81.9561L115.943 79.6516C115.934 79.4946 115.779 79.3877 115.624 79.416C114.335 79.6521 112.645 79.0149 112.645 79.0149C110.945 80.325 108.539 80.9681 107.496 81.199C107.219 81.2603 107.042 81.5387 107.113 81.8127L107.279 82.4463H112.645H115.776L116.074 81.9561Z" fill="#191847"/>
<path fill-rule="evenodd" clip-rule="evenodd" d="M101.954 81.9561L101.823 79.6516C101.814 79.4946 101.659 79.3877 101.504 79.416C100.214 79.6521 98.5253 79.0149 98.5253 79.0149C96.8251 80.325 94.4184 80.9681 93.3755 81.199C93.099 81.2603 92.9219 81.5387 92.9933 81.8127L93.1585 82.4463H98.5253H101.656L101.954 81.9561Z" fill="#191847"/>
<path fill-rule="evenodd" clip-rule="evenodd" d="M93.0888 32.1354L98.7192 34.2092L97.1817 36.7869L92.8486 33.7868C90.7877 33.5747 89.819 33.3162 89.9426 33.0111C90.0468 32.7539 90.2763 32.7181 90.4877 32.6851C90.6523 32.6594 90.806 32.6355 90.8809 32.5099C91.052 32.223 90.5099 31.439 89.9662 30.7189C89.4225 29.9988 89.8766 29.9834 90.1485 30.0498C91.0761 30.501 92.0562 31.1962 93.0888 32.1354ZM88.622 37.4184L91.0958 38.3334L91.3663 40.8202C91.3663 40.8202 89.7197 39.9536 88.4012 39.8136C86.72 39.6351 86.0115 39.3883 85.0526 38.4533C84.5395 37.953 83.9948 36.8538 84.332 36.3971C84.4613 36.222 85.0871 36.4571 85.7257 36.6971C86.2123 36.8799 86.7063 37.0656 86.9936 37.0744C87.3803 37.0864 87.2514 36.5686 87.1484 36.1549C87.0744 35.858 87.0138 35.6146 87.1667 35.659C87.8289 35.5446 88.622 37.4184 88.622 37.4184Z" fill="#D4A181"/>
<path fill-rule="evenodd" clip-rule="evenodd" d="M101.11 33.048C99.3079 33.3724 96.8426 33.4194 93.9972 32.1435L93.3873 34.7742C95.4612 36.3411 98.1969 37.4304 100.356 36.9477C102.058 36.5673 102.568 34.1493 101.11 33.048Z" fill="#825F3F"/>
<path fill-rule="evenodd" clip-rule="evenodd" d="M100.396 26.8039C100.395 26.8031 100.395 26.8028 100.395 26.8028L103.962 26.1183C103.963 26.1186 103.963 26.119 103.963 26.1193L104.092 26.0946C104.542 26.0082 108.635 31.8003 109.31 35.9442C109.541 37.3671 110.198 38.5071 110.891 39.7072C112.039 41.6985 113.283 43.8556 112.836 47.7463C111.873 47.7256 110.338 48.2499 108.667 48.8205C105.541 49.8883 101.94 51.1183 100.723 49.2411C99.8146 47.8397 99.3471 46.205 99.1489 44.4308C96.4159 44.8888 92.953 44.5462 88.7423 43.0952C88.3564 41.5169 89.4189 37.4329 89.4189 37.4329C89.4189 37.4329 96.4595 38.7261 99.3227 37.4165C99.3941 36.7309 99.4725 36.0424 99.5508 35.3549C99.8863 32.4091 100.22 29.482 99.9875 26.8822L100.396 26.8039Z" fill="#E9B58F"/>
<path fill-rule="evenodd" clip-rule="evenodd" d="M127.326 88.5611C125.838 89.5369 124.376 90.0083 123.69 89.8159C121.97 89.3333 121.811 82.4838 123.143 79.7835C124.474 77.0832 131.318 75.9062 131.663 81.2564C131.782 83.1132 131.066 84.7704 130.007 86.1226L131.905 95.75H126.392L127.326 88.5611Z" fill="#B28B67"/>
<path fill-rule="evenodd" clip-rule="evenodd" d="M120.7 76.0401C120.814 75.6034 121.121 75.2294 121.535 75.1185C121.636 75.0916 121.739 75.0807 121.843 75.0853C121.88 75.0869 121.89 75.0985 121.907 75.0703C121.92 75.0494 121.92 74.9983 121.926 74.9738C121.942 74.8974 121.963 74.822 121.988 74.7485C122.075 74.4979 122.22 74.2761 122.396 74.0893C122.724 73.7398 123.167 73.4986 123.628 73.455C123.88 73.4311 124.13 73.4757 124.369 73.5649C124.492 73.6111 124.612 73.6686 124.728 73.7323C124.763 73.7514 124.877 73.8452 124.912 73.8391C124.951 73.8324 125.029 73.7272 125.061 73.7008C125.452 73.3745 125.935 73.2462 126.421 73.2501C126.971 73.2545 127.5 73.2844 127.958 73.6489C128.055 73.7261 128.148 73.8106 128.236 73.8996C128.282 73.9464 128.327 73.995 128.37 74.0456C128.396 74.0762 128.421 74.1074 128.445 74.1395C128.486 74.1939 128.479 74.2118 128.537 74.1738C128.757 74.028 129.013 73.9598 129.27 73.9942C129.423 74.0147 129.572 74.0646 129.713 74.1303C129.761 74.1527 129.873 74.242 129.924 74.2428C129.975 74.2437 130.084 74.161 130.137 74.1399C130.42 74.0263 130.725 73.9983 131.022 74.0508C131.329 74.105 131.63 74.2381 131.89 74.4221C132.015 74.5106 132.124 74.6087 132.211 74.7403C132.249 74.7971 132.283 74.8572 132.326 74.9099C132.351 74.9408 132.401 74.9724 132.414 75.0115C132.406 74.9881 132.75 74.844 132.782 74.8348C132.955 74.7857 133.131 74.7957 133.3 74.8562C133.618 74.9701 133.891 75.2254 134.116 75.4872C134.231 75.6216 134.332 75.7703 134.418 75.9286C134.459 76.0045 134.496 76.0825 134.531 76.1622C134.548 76.2008 134.559 76.2491 134.581 76.2838C134.609 76.3286 134.628 76.3295 134.679 76.349C134.939 76.4482 135.176 76.6161 135.357 76.843C135.54 77.0726 135.658 77.3552 135.708 77.6529C135.711 77.6704 135.713 77.7431 135.722 77.7526C135.735 77.7657 135.787 77.7599 135.807 77.7624C135.876 77.7712 135.944 77.7842 136.011 77.8015C136.135 77.8334 136.255 77.8803 136.369 77.9417C136.813 78.1809 137.131 78.6294 137.287 79.134C137.45 79.6636 137.447 80.2704 137.252 80.7901C137.22 80.8741 137.183 80.9556 137.139 81.0326C137.112 81.08 137.103 81.0801 137.121 81.1297C137.14 81.1849 137.176 81.2386 137.199 81.2926C137.275 81.4687 137.328 81.6555 137.362 81.8463C137.416 82.1592 137.444 82.4881 137.39 82.8034C137.364 82.9498 137.321 83.0929 137.254 83.2234C137.22 83.2898 137.18 83.3529 137.135 83.4112C137.111 83.4415 137.086 83.4705 137.06 83.4982C137.046 83.514 137.026 83.5279 137.013 83.5455C136.983 83.5887 136.976 83.5532 136.992 83.6165C137.014 83.705 137.065 83.7924 137.096 83.8785C137.127 83.9672 137.156 84.0572 137.182 84.1481C137.236 84.332 137.281 84.5194 137.309 84.7099C137.363 85.0757 137.353 85.4655 137.194 85.8012C137.126 85.9448 137.029 86.0708 136.911 86.1688C136.853 86.2167 136.79 86.2581 136.724 86.292C136.69 86.3095 136.647 86.3169 136.632 86.3525C136.615 86.3908 136.64 86.4667 136.645 86.5095C136.694 86.8816 136.719 87.2722 136.617 87.6368C136.524 87.9727 136.318 88.2692 136.05 88.4655C135.531 88.8463 134.831 88.8248 134.286 88.52C134.144 88.4405 134.01 88.3418 133.892 88.2254C133.59 88.6681 132.968 88.654 132.526 88.5279C131.976 88.3708 131.535 87.9545 131.28 87.4075C130.933 87.8682 130.203 87.7188 129.962 87.2189C129.902 87.0966 129.867 86.9618 129.85 86.8253C129.841 86.7536 129.847 86.6812 129.84 86.6101C129.831 86.5194 129.776 86.4312 129.744 86.3435C129.681 86.1727 129.643 85.9964 129.641 85.8122C129.64 85.716 129.651 85.6223 129.66 85.5269C129.667 85.4411 129.645 85.3611 129.633 85.2763C129.774 85.3016 129.946 85.2602 130.079 85.2157C130.209 85.172 130.332 85.0569 130.424 84.9518C130.638 84.7078 130.768 84.3879 130.857 84.0695C131.054 83.3707 130.973 82.5322 130.327 82.1487C130.026 81.9701 129.125 81.9706 128.767 82.0589C128.39 82.1518 127.963 83.0566 127.942 83.1416C127.929 83.1943 127.935 83.2594 127.891 83.2945C127.793 83.3716 127.632 83.2378 127.56 83.1717C127.436 83.0577 127.347 82.9061 127.27 82.7523C127.103 82.4174 126.968 82.0582 126.873 81.6916C126.799 81.4089 126.752 81.1174 126.656 80.8419C126.561 80.5678 126.41 80.3228 126.176 80.1675C125.921 79.9986 125.629 79.9096 125.35 79.8035C125.073 79.6982 124.8 79.5697 124.585 79.3464C124.538 79.2973 124.492 79.2452 124.454 79.1874C124.424 79.1418 124.395 79.0544 124.349 79.0255C124.278 78.9805 124.174 79.0975 124.112 79.14C123.809 79.3497 123.556 79.6421 123.352 79.9615C123.149 80.2792 122.982 80.5849 122.847 80.9396C122.747 81.2027 122.684 81.5397 122.507 81.7553C122.429 81.8516 121.843 81.9098 121.653 81.8257C121.463 81.7417 121.25 81.5234 121.187 81.3867C121.121 81.2467 121.106 81.0929 121.134 80.9396C121.15 80.8494 121.184 80.7652 121.202 80.6767C121.217 80.6023 121.231 80.532 121.265 80.4638C121.328 80.3347 121.435 80.2418 121.565 80.203C121.43 80.0674 121.318 79.9051 121.241 79.7236C121.16 79.5352 121.092 79.306 121.072 79.0991C121.057 78.9311 121.081 78.757 121.165 78.6126C121.254 78.4611 121.411 78.3623 121.547 78.2678C121.339 78.0911 121.162 77.8761 121.016 77.6381C120.732 77.1753 120.556 76.5919 120.7 76.0401Z" fill="#2C2003"/>
<path fill-rule="evenodd" clip-rule="evenodd" d="M147.12 127C149.248 127 150.974 128.725 150.974 130.853V154.146C150.974 156.274 149.248 158 147.12 158H121.057C118.929 158 117.203 156.274 117.203 154.146V130.853C117.203 128.725 118.929 127 121.057 127H147.12ZM143.578 134C144.11 134 144.541 134.431 144.541 134.963V150.036C144.541 150.568 144.11 151 143.578 151H124.599C124.067 151 123.636 150.568 123.636 150.036V134.963C123.636 134.431 124.067 134 124.599 134H143.578Z" fill="#C5CFD6"/>
<path fill-rule="evenodd" clip-rule="evenodd" d="M106.702 140.645C105.848 143.902 103.719 150.075 100.775 157.165L97.9784 156.277C100.425 139.963 102.462 129.163 103.628 125.875C104.399 123.703 110.23 123.958 109.559 128.328C109.278 130.161 108.165 135.068 106.702 140.645ZM118.198 129.09C122.76 130.119 132.217 133.754 134.918 134.916C136.615 135.646 135.521 138.122 134.073 137.905C133.828 137.869 132.96 137.763 131.666 137.605C127.508 137.099 118.946 136.057 112.453 135.04C109.033 134.504 110.873 127.534 114.423 128.272C115.617 128.52 116.888 128.795 118.198 129.09Z" fill="#B28B67"/>
<path fill-rule="evenodd" clip-rule="evenodd" d="M103.449 124.034C103.916 122.378 125.114 116.5 125.114 116.5H126.852V118.261L112.244 126.354C112.263 126.615 112.251 126.891 112.204 127.182C112.31 133.181 109.95 137.663 107.614 142.1C106.087 145.002 104.569 147.884 103.757 151.16L98.3905 150.289C98.5468 149.854 98.794 147.892 99.132 145.209C99.9843 138.446 101.414 127.102 103.419 124.1C103.426 124.09 103.433 124.08 103.441 124.069C103.443 124.058 103.446 124.046 103.449 124.034Z" fill="#054426"/>
<path fill-rule="evenodd" clip-rule="evenodd" d="M125.638 131.16C126.974 130.869 128.205 130.609 129.259 130.408C136.062 129.109 138.045 125.146 136.873 116.5H124.338C122.29 117.14 111.649 121.996 106.128 124.579C102.474 126.288 103.626 132.451 105.696 134.055C105.707 134.153 105.744 134.22 105.81 134.25C113.656 137.788 120.346 137.524 124.642 137.355C126.442 137.284 127.821 137.229 128.689 137.478L130.05 132.807L125.638 131.16Z" fill="#306854"/>
<path fill-rule="evenodd" clip-rule="evenodd" d="M133.486 134.646C133.495 134.365 133.715 134.147 133.981 134.177C134.469 134.233 135.195 134.344 135.548 134.531C136.106 134.827 137.087 135.599 137.087 135.599C136.771 136.304 131.407 148.272 131.407 148.272C131.407 148.272 129.685 147.97 130.042 146.842C130.4 145.714 130.619 144.959 130.619 144.959L130.846 137.774C130.85 137.639 130.957 137.537 131.086 137.546L132.103 137.616C132.103 137.616 132.967 136.855 133.244 136.239C133.415 135.857 133.469 135.137 133.486 134.646Z" fill="#E4E4E4"/>
<path fill-rule="evenodd" clip-rule="evenodd" d="M101.432 155.593C101.698 155.467 102.022 155.588 102.115 155.867C102.281 156.369 102.5 157.108 102.5 157.526C102.5 158.203 102.293 159.5 102.293 159.5C101.572 159.5 89.3358 159.5 89.3358 159.5C89.3358 159.5 88.8307 157.683 89.9189 157.538C91.0071 157.393 91.7268 157.276 91.7268 157.276L97.728 154.365C97.8554 154.303 98.0082 154.364 98.0584 154.496L98.4422 155.51C98.4422 155.51 99.4496 156.021 100.079 156.021C100.449 156.021 101.021 155.787 101.432 155.593Z" fill="#E4E4E4"/>
<path fill-rule="evenodd" clip-rule="evenodd" d="M107.008 119.439L113.516 112.531L115.678 116.601L108.91 120.942C107.214 123.851 106.217 125.108 105.921 124.713C105.671 124.38 105.785 124.014 105.891 123.678C105.973 123.416 106.05 123.172 105.944 122.973C105.704 122.52 104.345 122.78 103.066 123.086C101.786 123.392 102.082 122.708 102.354 122.351C103.563 121.289 105.115 120.318 107.008 119.439ZM145.368 129.477C144.695 127.991 142.402 113.505 142.402 113.505L137.601 113.525C137.601 113.525 142.048 129.146 142.402 130.101C142.862 131.343 142.08 133.147 141.55 134.37C141.468 134.559 141.392 134.735 141.328 134.892C142.063 135.25 142.417 134.817 142.789 134.36C143.21 133.845 143.656 133.299 144.704 133.83C145.109 134.035 145.492 134.277 145.867 134.514C147.16 135.332 148.348 136.084 149.964 134.999C150.221 134.826 150.501 134.179 149.823 133.672C148.133 132.411 145.697 130.204 145.368 129.477Z" fill="#B28B67"/>
<path fill-rule="evenodd" clip-rule="evenodd" d="M128.76 91.583L126.773 91.2122C123.353 100.51 117.382 108.958 108.86 116.556L115.299 125.07C123.821 114.251 129.073 103.089 128.76 91.583Z" fill="#87551A"/>
<path fill-rule="evenodd" clip-rule="evenodd" d="M137.419 118.75H119.73C119.73 118.75 125.877 102.484 125.877 91.1152L131.213 90.25C135.407 97.5896 136.591 106.626 137.419 118.75Z" fill="#DDE3E9"/>
<path fill-rule="evenodd" clip-rule="evenodd" d="M145.46 127C143.525 103.249 131.331 90.2502 131.331 90.2502L131.327 90.2542C131.326 90.2529 131.325 90.2516 131.325 90.2503H130.976C130.351 90.2737 129.072 90.3347 129.072 90.3347L127.783 94.3445C127.578 101.678 125.393 123.902 125.393 123.902H136.971C136.952 124.921 136.908 125.954 136.838 127H145.46Z" fill="#AD7301"/>
<path fill-rule="evenodd" clip-rule="evenodd" d="M136.969 124C137.061 119.563 136.7 115.397 136.096 111.627C135.781 116.101 135.121 121.483 133.744 124H136.969Z" fill="black" fill-opacity="0.1"/>
<path fill-rule="evenodd" clip-rule="evenodd" d="M134.407 116.25L128.689 113.357V116.25H134.407Z" fill="white" fill-opacity="0.2"/>
<path fill-rule="evenodd" clip-rule="evenodd" d="M36.3229 79.0608C37.8106 80.0366 39.2723 80.5081 39.9584 80.3156C41.6789 79.833 41.8371 72.9835 40.5059 70.2832C39.1746 67.583 32.3309 66.406 31.986 71.7561C31.8663 73.613 32.5827 75.2701 33.6413 76.6222L31.7432 86.2497H37.2567L36.3229 79.0608Z" fill="#B28B67"/>
<path fill-rule="evenodd" clip-rule="evenodd" d="M33.2176 77.8269C32.5256 74.4766 30.5542 72.1929 30.8553 70.6954C31.1563 69.198 32.4602 68.833 32.4602 68.833C32.4602 68.833 33.1345 65.8643 36.81 66.3076C40.4854 66.7509 42.7287 68.4119 41.7599 72.067C40.8694 72.067 39.7944 71.7165 38.3078 72.317C37.6003 72.6028 37.2957 74.0895 37.2957 74.0895H36.6239C36.6239 74.0895 35.646 72.3251 34.6953 72.7928C33.7447 73.2604 34.2632 75.0646 34.2632 75.0646L33.9322 77.8269H33.2176Z" fill="#2C2003"/>
<path fill-rule="evenodd" clip-rule="evenodd" d="M21.7784 117.5H39.526L41.8515 148.5H15.4326L21.7784 117.5Z" fill="#C5CFD6"/>
<path fill-rule="evenodd" clip-rule="evenodd" d="M21.7784 117.5H27.2368L30.5038 148.5H15.4326L21.7784 117.5Z" fill="black" fill-opacity="0.1"/>
<path fill-rule="evenodd" clip-rule="evenodd" d="M49.2768 123.642C47.2824 128.244 44.166 139.418 44.166 139.418L46.8117 140.733C46.8117 140.733 53.5243 128.989 57.6269 120.96C57.4357 122.767 57.2411 124.802 57.0607 126.941C56.6332 132.008 57.0605 142.957 57.2904 146.119C57.4349 148.107 59.9167 147.69 60.1484 146.114C60.1876 145.847 60.3476 144.91 60.5862 143.511C61.7562 136.653 64.8184 118.704 64.8238 114.309C64.826 112.541 61.6515 110.953 59.7592 112.189C58.4594 110.68 55.9996 109.81 54.5864 112.303C53.688 113.888 51.5534 118.387 49.2768 123.642Z" fill="#B28B67"/>
<path fill-rule="evenodd" clip-rule="evenodd" d="M44.355 135.281L53.4357 111.872C55.611 108.063 61.7102 112.647 60.9684 114.855C59.2841 119.87 50.7185 136.103 50.2167 137.597L44.355 135.281Z" fill="#054426"/>
<path fill-rule="evenodd" clip-rule="evenodd" d="M44.5462 138.068C44.3802 137.823 44.058 137.759 43.8504 137.949C43.4753 138.293 42.9411 138.818 42.7475 139.183C42.4368 139.769 42.0201 141.005 42.0201 141.005C42.6444 141.397 53.2413 148.055 53.2413 148.055C53.2413 148.055 54.5136 146.756 53.6378 146.039C52.7619 145.321 52.1923 144.828 52.1923 144.828L48.326 139.031C48.247 138.913 48.093 138.886 47.9895 138.973L47.1883 139.644C47.1883 139.644 46.0809 139.539 45.5354 139.196C45.2096 138.992 44.8128 138.462 44.5462 138.068Z" fill="#E4E4E4"/>
<path fill-rule="evenodd" clip-rule="evenodd" d="M57.3924 144.592C57.1263 144.467 56.8023 144.587 56.7095 144.866C56.543 145.368 56.3242 146.107 56.3242 146.526C56.3242 147.202 56.5313 148.5 56.5313 148.5C57.2521 148.5 69.4884 148.5 69.4884 148.5C69.4884 148.5 69.9935 146.682 68.9053 146.538C67.8172 146.393 67.0974 146.276 67.0974 146.276L61.0962 143.365C60.9689 143.303 60.816 143.364 60.7658 143.496L60.382 144.509C60.382 144.509 59.3746 145.021 58.7448 145.021C58.3754 145.021 57.8028 144.786 57.3924 144.592Z" fill="#E4E4E4"/>
<path fill-rule="evenodd" clip-rule="evenodd" d="M65.4605 116.108C65.4605 122.75 62.5621 138.242 62.5602 139.705L56.3241 139.71C56.3241 139.71 57.6933 118.974 57.2951 118.751C56.8969 118.527 40.9726 120.481 36.1966 120.481C29.3097 120.481 26.4607 115.755 26.2295 107H39.8723C42.6501 107.323 57.1394 110.504 62.5204 111.597C64.8241 112.065 65.4605 114.278 65.4605 116.108Z" fill="#306854"/>
<path fill-rule="evenodd" clip-rule="evenodd" d="M58.2448 78.4907L49.5372 81.3353L51.7604 85.3657L58.5307 81.0297C61.6912 80.8249 63.1844 80.4857 63.0105 80.0121C62.8639 79.6128 62.5149 79.5447 62.1934 79.4821C61.943 79.4332 61.7093 79.3877 61.601 79.1913C61.3536 78.7428 62.2207 77.5754 63.0872 76.5058C63.9536 75.4363 63.2602 75.3865 62.8414 75.4723C61.4015 76.1084 59.8693 77.1146 58.2448 78.4907ZM56.0954 103.898L48.7674 98.0422L47.1475 102.4L54.4041 105.675C56.4564 108.298 57.604 109.392 57.8469 108.956C58.0517 108.588 57.8916 108.244 57.7441 107.926C57.6293 107.679 57.522 107.449 57.601 107.237C57.7812 106.752 59.1598 106.803 60.4662 106.912C61.7725 107.021 61.3918 106.389 61.0768 106.076C59.7433 105.208 58.0829 104.482 56.0954 103.898Z" fill="#B28B67"/>
<path fill-rule="evenodd" clip-rule="evenodd" d="M37.3852 82.2718C41.3758 90.3692 47.1463 96.5765 55.512 103.029L52.3444 106.916C43.0038 103.138 38.074 100.859 35.6531 93.2088C35.0455 91.2887 34.6209 85.1679 34.2566 81.9474L37.3852 82.2718Z" fill="#825F3F"/>
<path fill-rule="evenodd" clip-rule="evenodd" d="M26.2295 109.25H43.9187C43.9187 109.25 37.9083 89.302 37.7781 81.8679C37.7736 81.6152 37.3448 81.17 37.1551 81.2283C35.0741 81.8679 32.7014 80.75 32.7014 80.75C28.5078 88.0896 27.0576 97.1261 26.2295 109.25Z" fill="#F2F2F2"/>
<path fill-rule="evenodd" clip-rule="evenodd" d="M37.1385 91.9474C39.9012 104.844 39.7739 115.401 33.6744 115.401H24.2426C22.7446 104.446 26.6816 89.2558 30.3315 81.594C30.4709 81.3014 30.7676 80.7499 31.4666 80.7499H34.2072C34.2084 80.7538 34.2096 80.7577 34.2108 80.7616C35.0355 80.769 35.9438 80.8018 36.9273 80.8373C41.9908 81.0202 49.0511 81.2753 56.9954 78.4998L57.9321 83.5931C50.7615 88.6118 43.5007 92.4995 37.1385 91.9474Z" fill="#A36633"/>
</svg>
