<svg width="171" height="170" viewBox="0 0 171 170" fill="none" xmlns="http://www.w3.org/2000/svg">
<g clip-path="url(#clip0)">
<g clip-path="url(#clip1)">
<rect x="22.5078" width="126.138" height="118.737" rx="2.14421" fill="#F2F2F2"/>
<path d="M22.5078 2.1442C22.5078 0.959993 23.4678 0 24.652 0H146.502C147.686 0 148.646 0.959993 148.646 2.14421V7.23669H22.5078V2.1442Z" fill="#C5CFD6"/>
<path fill-rule="evenodd" clip-rule="evenodd" d="M25.992 4.82438C26.5841 4.82438 27.0641 4.34438 27.0641 3.75228C27.0641 3.16017 26.5841 2.68018 25.992 2.68018C25.3999 2.68018 24.9199 3.16017 24.9199 3.75228C24.9199 4.34438 25.3999 4.82438 25.992 4.82438Z" fill="#F2F2F2"/>
<path fill-rule="evenodd" clip-rule="evenodd" d="M29.2088 4.82438C29.8009 4.82438 30.2809 4.34438 30.2809 3.75228C30.2809 3.16017 29.8009 2.68018 29.2088 2.68018C28.6167 2.68018 28.1367 3.16017 28.1367 3.75228C28.1367 4.34438 28.6167 4.82438 29.2088 4.82438Z" fill="#F2F2F2"/>
<path fill-rule="evenodd" clip-rule="evenodd" d="M32.4246 4.82438C33.0167 4.82438 33.4967 4.34438 33.4967 3.75228C33.4967 3.16017 33.0167 2.68018 32.4246 2.68018C31.8325 2.68018 31.3525 3.16017 31.3525 3.75228C31.3525 4.34438 31.8325 4.82438 32.4246 4.82438Z" fill="#F2F2F2"/>
<g clip-path="url(#clip2)">
<g clip-path="url(#clip3)">
<rect x="125.596" y="35.3794" width="18.7618" height="51.997" rx="2.14421" fill="white"/>
<g clip-path="url(#clip4)">
<rect x="130.42" y="40.2039" width="9.11287" height="6.96867" rx="1.0721" fill="#DDE3E9"/>
<rect x="130.42" y="49.3167" width="9.11287" height="6.70064" rx="1.0721" fill="#AFB9C5"/>
<rect x="130.42" y="58.1616" width="9.11287" height="6.70064" rx="1.0721" fill="#DDE3E9"/>
<rect x="130.42" y="75.8513" width="9.11287" height="6.70064" rx="1.0721" fill="#DDE3E9"/>
<rect x="130.42" y="67.0063" width="9.11287" height="6.70064" rx="1.0721" fill="#C5CFD6"/>
</g>
</g>
<rect x="125.596" y="11.5251" width="18.7618" height="21.7101" rx="2.14421" fill="white"/>
<g clip-path="url(#clip5)">
<path fill-rule="evenodd" clip-rule="evenodd" d="M134.976 24.1222C137.344 24.1222 139.264 22.2022 139.264 19.8338C139.264 17.4654 137.344 15.5454 134.976 15.5454C132.607 15.5454 130.688 17.4654 130.688 19.8338C130.688 22.2022 132.607 24.1222 134.976 24.1222Z" fill="#DDE3E9"/>
<rect x="128.275" y="25.1943" width="13.4013" height="1.60815" rx="0.804077" fill="#DDE3E9"/>
<rect x="130.42" y="27.8745" width="9.11287" height="1.60815" rx="0.804077" fill="#DDE3E9"/>
</g>
<g clip-path="url(#clip6)">
<g clip-path="url(#clip7)">
<rect x="26.7959" y="11.5251" width="96.6553" height="12.5972" rx="1.0721" fill="white"/>
<g clip-path="url(#clip8)">
<rect x="29.208" y="15.3042" width="81.1098" height="1.88958" rx="0.804077" fill="#DDE3E9"/>
<rect x="29.208" y="18.4536" width="54.4436" height="1.88958" rx="0.804077" fill="#DDE3E9"/>
</g>
<path fill-rule="evenodd" clip-rule="evenodd" d="M105.259 19.6999C106.295 19.6999 107.135 18.8599 107.135 17.8237C107.135 16.7875 106.295 15.9475 105.259 15.9475C104.223 15.9475 103.383 16.7875 103.383 17.8237C103.383 18.8599 104.223 19.6999 105.259 19.6999Z" fill="#DDE3E9"/>
<path fill-rule="evenodd" clip-rule="evenodd" d="M105.259 18.6277C105.703 18.6277 106.063 18.2677 106.063 17.8236C106.063 17.3795 105.703 17.0195 105.259 17.0195C104.815 17.0195 104.455 17.3795 104.455 17.8236C104.455 18.2677 104.815 18.6277 105.259 18.6277Z" fill="#F2F2F2"/>
</g>
<g clip-path="url(#clip9)">
<rect x="26.7959" y="26.2666" width="96.6553" height="10.453" rx="1.0721" fill="white"/>
<g clip-path="url(#clip10)">
<rect x="29.208" y="29.4026" width="81.1098" height="1.56795" rx="0.783975" fill="#DDE3E9"/>
<rect x="29.208" y="32.0159" width="54.4436" height="1.56795" rx="0.783975" fill="#DDE3E9"/>
</g>
<path fill-rule="evenodd" clip-rule="evenodd" d="M105.259 33.3693C106.295 33.3693 107.135 32.5293 107.135 31.4931C107.135 30.4569 106.295 29.6169 105.259 29.6169C104.223 29.6169 103.383 30.4569 103.383 31.4931C103.383 32.5293 104.223 33.3693 105.259 33.3693Z" fill="#DDE3E9"/>
<path fill-rule="evenodd" clip-rule="evenodd" d="M105.259 32.2971C105.703 32.2971 106.063 31.9371 106.063 31.493C106.063 31.049 105.703 30.689 105.259 30.689C104.815 30.689 104.455 31.049 104.455 31.493C104.455 31.9371 104.815 32.2971 105.259 32.2971Z" fill="#F2F2F2"/>
</g>
<g clip-path="url(#clip11)">
<rect x="26.7959" y="38.8638" width="96.6553" height="10.453" rx="1.0721" fill="white"/>
<g clip-path="url(#clip12)">
<rect x="29.208" y="41.9998" width="81.1098" height="1.56795" rx="0.783975" fill="#DDE3E9"/>
<rect x="29.208" y="44.613" width="54.4436" height="1.56795" rx="0.783975" fill="#DDE3E9"/>
</g>
<path fill-rule="evenodd" clip-rule="evenodd" d="M105.259 45.9665C106.295 45.9665 107.135 45.1265 107.135 44.0903C107.135 43.0541 106.295 42.2141 105.259 42.2141C104.223 42.2141 103.383 43.0541 103.383 44.0903C103.383 45.1265 104.223 45.9665 105.259 45.9665Z" fill="#DDE3E9"/>
<path fill-rule="evenodd" clip-rule="evenodd" d="M105.259 44.8943C105.703 44.8943 106.063 44.5343 106.063 44.0902C106.063 43.6461 105.703 43.2861 105.259 43.2861C104.815 43.2861 104.455 43.6461 104.455 44.0902C104.455 44.5343 104.815 44.8943 105.259 44.8943Z" fill="#AFB9C5"/>
</g>
<g clip-path="url(#clip13)">
<rect x="26.7959" y="76.6553" width="96.6553" height="10.453" rx="1.0721" fill="white"/>
<g clip-path="url(#clip14)">
<rect x="29.208" y="79.7913" width="81.1098" height="1.56795" rx="0.783975" fill="#DDE3E9"/>
<rect x="29.208" y="82.4045" width="54.4436" height="1.56795" rx="0.783975" fill="#DDE3E9"/>
</g>
<path fill-rule="evenodd" clip-rule="evenodd" d="M105.259 83.758C106.295 83.758 107.135 82.918 107.135 81.8818C107.135 80.8456 106.295 80.0056 105.259 80.0056C104.223 80.0056 103.383 80.8456 103.383 81.8818C103.383 82.918 104.223 83.758 105.259 83.758Z" fill="#DDE3E9"/>
<path fill-rule="evenodd" clip-rule="evenodd" d="M105.259 82.6858C105.703 82.6858 106.063 82.3258 106.063 81.8817C106.063 81.4376 105.703 81.0776 105.259 81.0776C104.815 81.0776 104.455 81.4376 104.455 81.8817C104.455 82.3258 104.815 82.6858 105.259 82.6858Z" fill="#F2F2F2"/>
</g>
<g clip-path="url(#clip15)">
<rect x="26.7959" y="64.0581" width="96.6553" height="10.453" rx="1.0721" fill="white"/>
<g clip-path="url(#clip16)">
<rect x="29.208" y="67.1941" width="81.1098" height="1.56795" rx="0.783975" fill="#DDE3E9"/>
<rect x="29.208" y="69.8074" width="54.4436" height="1.56795" rx="0.783975" fill="#DDE3E9"/>
</g>
<path fill-rule="evenodd" clip-rule="evenodd" d="M105.259 71.1608C106.295 71.1608 107.135 70.3208 107.135 69.2846C107.135 68.2484 106.295 67.4084 105.259 67.4084C104.223 67.4084 103.383 68.2484 103.383 69.2846C103.383 70.3208 104.223 71.1608 105.259 71.1608Z" fill="#DDE3E9"/>
<path fill-rule="evenodd" clip-rule="evenodd" d="M105.259 70.0886C105.703 70.0886 106.063 69.7286 106.063 69.2845C106.063 68.8405 105.703 68.4805 105.259 68.4805C104.815 68.4805 104.455 68.8405 104.455 69.2845C104.455 69.7286 104.815 70.0886 105.259 70.0886Z" fill="#F2F2F2"/>
</g>
<g clip-path="url(#clip17)">
<rect x="26.7959" y="51.4609" width="96.6553" height="10.453" rx="1.0721" fill="white"/>
<g clip-path="url(#clip18)">
<rect x="29.208" y="54.5969" width="81.1098" height="1.56795" rx="0.783975" fill="#DDE3E9"/>
<rect x="29.208" y="57.2102" width="54.4436" height="1.56795" rx="0.783975" fill="#DDE3E9"/>
</g>
<path fill-rule="evenodd" clip-rule="evenodd" d="M105.259 58.5636C106.295 58.5636 107.135 57.7236 107.135 56.6875C107.135 55.6513 106.295 54.8113 105.259 54.8113C104.223 54.8113 103.383 55.6513 103.383 56.6875C103.383 57.7236 104.223 58.5636 105.259 58.5636Z" fill="#DDE3E9"/>
<path fill-rule="evenodd" clip-rule="evenodd" d="M105.259 57.4915C105.703 57.4915 106.063 57.1315 106.063 56.6874C106.063 56.2433 105.703 55.8833 105.259 55.8833C104.815 55.8833 104.455 56.2433 104.455 56.6874C104.455 57.1315 104.815 57.4915 105.259 57.4915Z" fill="#F2F2F2"/>
</g>
</g>
</g>
</g>
<path fill-rule="evenodd" clip-rule="evenodd" d="M39.4578 62.8652C41.432 63.7714 43.2951 64.0711 44.1044 63.7102C46.1336 62.8054 45.248 54.4745 43.1936 51.4494C41.1393 48.4242 32.5798 48.2701 33.0006 54.8185C33.1466 57.0911 34.2842 58.9661 35.7924 60.4081L34.9866 72.4297L41.7331 71.4046L39.4578 62.8652Z" fill="#B28B67"/>
<path fill-rule="evenodd" clip-rule="evenodd" d="M40.0653 48.29C39.104 48.1271 37.7525 48.2276 37.1986 48.3827C37.4113 47.507 37.4186 46.5663 37.1984 45.685C36.9844 44.8285 36.5265 44.1412 36.0912 43.4142C35.8905 43.0791 35.6696 42.7491 35.3736 42.5144C35.0721 42.2753 34.7125 42.1419 34.3491 42.1074C33.9772 42.0721 33.6016 42.1368 33.2514 42.2733C33.0965 42.3337 32.9636 42.4341 32.8127 42.5016C32.6583 42.5708 32.5665 42.4745 32.436 42.3835C32.1216 42.1642 31.6938 42.0974 31.3331 42.1051C30.9285 42.1137 30.524 42.2411 30.1628 42.4398C29.8112 42.6332 29.4853 42.91 29.2604 43.2753C29.1603 43.4379 29.0738 43.6188 29.0272 43.8111C29.0081 43.8901 29.0091 43.9349 28.9437 43.9727C28.8831 44.0077 28.8086 44.0198 28.7458 44.0539C28.1391 44.3832 27.6635 44.9964 27.4555 45.7225C27.3342 46.1461 27.3432 46.8582 27.4676 47.6389C27.5919 48.4196 28.5148 50.3658 29.2261 51.0187C29.8611 51.6015 30.7243 51.9186 31.5272 51.9928C31.0936 52.7074 30.8532 53.5546 30.7041 54.4017C30.5422 55.3218 30.49 56.2603 30.5477 57.1996C30.6026 58.092 30.7185 59.027 31.023 59.8623C31.3078 60.6435 31.7784 61.2483 32.4747 61.5715C32.7937 61.7196 33.1288 61.8164 33.464 61.9004C33.7944 61.9831 34.1253 62.0622 34.4632 62.0854C35.1026 62.1295 35.8155 61.9969 36.2249 61.391C36.3724 61.1726 36.5307 60.9023 36.6261 60.6483C36.6604 60.557 36.6805 60.4977 36.6148 60.4235C36.536 60.3346 36.4197 60.2751 36.325 60.2106C35.7851 59.843 35.4099 59.2998 35.2437 58.6118C35.0751 57.9137 35.1329 56.9708 35.7328 56.5638C36.4733 56.0613 37.4006 56.368 38.1561 56.6704C38.307 55.4894 38.7869 54.3739 39.6801 53.707C40.6683 52.9692 41.8794 52.7164 42.9076 52.056C43.1755 51.8839 43.4465 51.6936 43.622 51.3992C43.6953 51.2762 43.7795 51.1182 43.7956 50.9678C43.8168 50.7702 43.682 50.6277 43.5746 50.4925C43.005 49.7756 41.0265 48.4529 40.0653 48.29Z" fill="#184747"/>
<path fill-rule="evenodd" clip-rule="evenodd" d="M37.4023 96.5276L58.4953 134.538L74.309 166.672H77.7151L51.2191 96.5276L37.4023 96.5276Z" fill="#997659"/>
<path fill-rule="evenodd" clip-rule="evenodd" d="M73.0039 164.843C72.7094 164.703 72.3513 164.836 72.2467 165.145C72.0388 165.758 71.749 166.709 71.749 167.24C71.749 168.067 72.0049 169.655 72.0049 169.655C72.8956 169.655 88.0153 169.655 88.0153 169.655C88.0153 169.655 88.6394 167.431 87.2948 167.254C85.9502 167.077 85.0609 166.934 85.0609 166.934L77.615 163.356C77.4738 163.288 77.3046 163.355 77.2486 163.502L76.763 164.771C76.763 164.771 75.5182 165.397 74.74 165.397C74.2637 165.397 73.5139 165.085 73.0039 164.843Z" fill="#E4E4E4"/>
<path fill-rule="evenodd" clip-rule="evenodd" d="M69.9167 161.526L76.4854 159.385C76.4854 159.385 72.1685 145.474 65.9035 128.769C59.6385 112.064 52.4468 96.5276 52.4468 96.5276H33.8945C33.8945 96.5276 41.8902 116.181 50.8475 132.242C59.8048 148.304 69.9167 161.526 69.9167 161.526Z" fill="#A26638"/>
<path fill-rule="evenodd" clip-rule="evenodd" d="M36.0164 96.5276C34.0257 109.885 30.186 126.95 29.8236 127.476C29.582 127.828 20.8853 130.969 3.7334 136.9L4.46916 140.137C24.9228 136.956 35.7001 134.489 36.8011 132.734C38.4526 130.101 46.6988 109.306 49.8927 96.5276H36.0164Z" fill="#B28B67"/>
<path fill-rule="evenodd" clip-rule="evenodd" d="M9.76172 134.101L11.0577 139.316C26.3558 140.762 35.7293 139.717 39.1781 136.181C42.627 132.644 46.5577 119.427 50.9702 96.5276H33.2795C30.4839 115.279 28.9209 125.048 28.5907 125.835C28.2604 126.622 21.9841 129.378 9.76172 134.101Z" fill="#C9844F"/>
<path fill-rule="evenodd" clip-rule="evenodd" d="M5.04594 136.225C5.11567 135.928 4.9427 135.629 4.64829 135.572C4.05274 135.457 3.10999 135.308 2.61655 135.402C1.86038 135.545 0.454096 136.093 0.454096 136.093C0.608772 137.038 3.23429 153.088 3.23429 153.088C3.23429 153.088 5.37452 153.364 5.30304 151.906C5.23156 150.448 5.20768 149.479 5.20768 149.479L7.19363 140.911C7.22682 140.768 7.14119 140.627 7.00081 140.594L5.74236 140.295C5.74236 140.295 4.95427 139.083 4.81913 138.257C4.73193 137.724 4.90919 136.808 5.04594 136.225Z" fill="#E4E4E4"/>
<path fill-rule="evenodd" clip-rule="evenodd" d="M57.3581 69.5528L48.3499 76.7954L52.4948 80.4164L58.6749 72.3422C62.2655 70.6653 63.868 69.5942 63.4823 69.1289C63.1571 68.7365 62.7255 68.8174 62.3279 68.892C62.0182 68.95 61.7291 69.0042 61.5271 68.8278C61.0659 68.4249 61.62 66.6869 62.2113 65.0618C62.8025 63.4367 61.9781 63.6956 61.525 63.9852C60.0996 65.3736 58.7107 67.2294 57.3581 69.5528ZM68.2186 76.1444L64.2627 79.3334L65.1094 83.9323C65.1094 83.9323 67.6045 81.351 69.8993 80.2705C72.8253 78.8927 73.9664 78.0067 75.1886 75.737C75.8426 74.5226 76.2326 72.2219 75.3817 71.6212C75.0554 71.3908 74.0566 72.2041 73.0376 73.0339C72.2609 73.6664 71.4725 74.3084 70.9609 74.5053C70.2723 74.7704 70.2265 73.7671 70.1899 72.9653C70.1637 72.39 70.1422 71.9185 69.8912 72.0939C68.6397 72.3077 68.2186 76.1444 68.2186 76.1444Z" fill="#997659"/>
<path fill-rule="evenodd" clip-rule="evenodd" d="M43.4311 76.2341C46.8436 75.6759 51.2997 74.2055 55.7299 70.1396L58.2363 74.4398C55.3485 78.5374 51.0155 82.202 46.8755 82.7037C43.6129 83.0991 41.4012 79.1144 43.4311 76.2341Z" fill="#458E94"/>
<path fill-rule="evenodd" clip-rule="evenodd" d="M41.3671 64.6629C41.3671 64.6629 41.3671 64.6628 41.3671 64.6628L34.5889 65.6927C34.5889 65.6928 34.5889 65.6928 34.5889 65.6928L34.3441 65.73C33.4889 65.86 29.2372 78.7547 30.2462 86.559C30.5926 89.2389 30.0221 91.6833 29.4215 94.2568C28.4249 98.5267 27.3454 103.152 30.2336 109.799C31.954 109.155 34.9939 109.121 38.3022 109.084C44.4939 109.014 51.6256 108.934 52.8063 104.824C53.6875 101.757 53.6519 98.5519 53.0573 95.2682C58.2146 94.3606 64.2545 91.5674 71.0442 86.3295C70.8917 83.2757 66.7931 76.6729 66.7931 76.6729C66.7931 76.6729 54.835 83.4124 48.986 82.8875C48.49 81.7107 47.9797 80.5333 47.4701 79.3576C45.2882 74.3232 43.1203 69.3209 42.1438 64.5449L41.3671 64.6629Z" fill="#51B0B7"/>
<path fill-rule="evenodd" clip-rule="evenodd" d="M122.79 62.7844C121.1 64.2116 119.373 65.022 118.505 64.8999C116.329 64.5938 115.19 56.299 116.45 52.802C117.71 49.305 125.941 46.7611 127.102 53.2041C127.505 55.4406 126.855 57.5706 125.743 59.3857L129.399 70.771L122.637 71.6687L122.79 62.7844Z" fill="#B28B67"/>
<path fill-rule="evenodd" clip-rule="evenodd" d="M119.875 48.5097C120.748 48.2339 123.136 47.807 123.578 47.7483C123.861 47.7108 124.175 47.7398 124.311 47.4376C124.422 47.1902 124.328 46.8093 124.339 46.5378C124.351 46.2226 124.384 45.9086 124.418 45.5953C124.514 44.7038 124.714 43.8412 125.037 43.0134C125.644 41.4603 126.645 40.1739 127.997 39.3232C129.49 38.3839 131.254 37.9801 132.966 37.9032C134.797 37.8209 136.512 38.2483 138.294 38.6283C139.991 38.9904 141.727 38.9913 143.401 38.4821C145.088 37.9691 146.274 36.792 147.616 35.646C148.99 34.4727 150.614 33.609 152.386 33.5227C154.041 33.4423 155.634 33.971 157.099 34.7654C158.47 35.5086 159.641 36.4664 160.407 37.9314C161.231 39.5073 161.437 41.3298 160.559 42.9358C159.286 45.2637 156.537 46.1868 154.192 46.4426C152.836 46.5907 151.477 46.5009 150.145 46.1862C148.368 45.7665 146.772 44.8674 145.078 44.1909C144.282 43.8734 143.471 43.6338 142.632 43.4948C141.819 43.3598 141.032 43.3528 140.378 43.9593C139.687 44.6009 139.072 45.2225 138.249 45.6759C137.46 46.1109 136.605 46.409 135.724 46.5186C134.009 46.7317 132.255 46.3805 130.547 46.216C129.154 46.0819 127.667 45.9615 126.318 46.4472C125.755 46.6499 124.941 47.022 124.806 47.6963C128.393 47.916 130.303 52.4108 129.703 55.976C129.38 57.9002 126.417 60.4929 125.058 59.6842C124.197 59.1718 124.585 58.2977 124.835 57.7215C125.314 56.6181 125.368 55.2751 124.186 54.7079C123.167 54.2188 122.334 55.8122 122.315 55.8131C122.052 55.8255 119.641 54.7504 117.86 52.9509C116.338 53.2522 115.982 52.1939 116.247 51.2546C116.512 50.3152 118.668 48.891 119.875 48.5097Z" fill="#184747"/>
<path fill-rule="evenodd" clip-rule="evenodd" d="M137.389 96.5274C136.877 104.057 103.903 126.226 103.711 126.848C103.583 127.263 113.974 153.065 113.974 153.065L111.092 154.272C111.092 154.272 95.1529 126.946 95.9716 124.034C97.1437 119.866 121.555 96.6074 121.555 96.6074L137.389 96.5274Z" fill="#B28B67"/>
<path fill-rule="evenodd" clip-rule="evenodd" d="M113.216 149.18L108.51 151.026C98.5866 138.958 94.6969 129 95.4061 123.927C96.1154 118.853 120.902 96.5457 120.902 96.5457L137.726 96.5457C137.152 113.984 106.59 126.915 106.181 127.658C105.772 128.401 109.795 135.679 113.216 149.18Z" fill="#0C4347"/>
<path fill-rule="evenodd" clip-rule="evenodd" d="M114.201 152.425C114.43 152.188 114.802 152.184 114.998 152.435C115.388 152.935 115.964 153.724 116.133 154.223C116.395 155.001 116.659 156.588 116.659 156.588C115.822 156.916 101.614 162.49 101.614 162.49C101.614 162.49 100.322 160.63 101.529 159.968C102.736 159.306 103.527 158.843 103.527 158.843L109.392 152.732C109.502 152.618 109.679 152.62 109.777 152.737L110.638 153.752C110.638 153.752 112.006 153.882 112.738 153.595C113.188 153.418 113.799 152.841 114.201 152.425Z" fill="#E4E4E4"/>
<path fill-rule="evenodd" clip-rule="evenodd" d="M133.598 96.5273L148.287 134.538L162.724 166.672H159.318L122.052 96.5273H133.598Z" fill="#997659"/>
<path fill-rule="evenodd" clip-rule="evenodd" d="M162.149 164.843C162.444 164.703 162.802 164.836 162.907 165.145C163.114 165.758 163.404 166.709 163.404 167.24C163.404 168.067 163.148 169.655 163.148 169.655C162.258 169.655 147.138 169.655 147.138 169.655C147.138 169.655 146.514 167.431 147.858 167.254C149.203 167.077 150.092 166.934 150.092 166.934L157.538 163.356C157.68 163.288 157.849 163.355 157.905 163.502L158.39 164.771C158.39 164.771 159.635 165.397 160.413 165.397C160.89 165.397 161.639 165.085 162.149 164.843Z" fill="#E4E4E4"/>
<path fill-rule="evenodd" clip-rule="evenodd" d="M161.419 159.996L153.85 161.526C147.999 152.253 123.508 114.228 120.823 96.5273H137.672C146.639 109.323 155.841 150.57 161.419 159.996Z" fill="#18676C"/>
<path fill-rule="evenodd" clip-rule="evenodd" d="M96.8916 87.3258L107.65 90.8032L104.901 95.7373L96.5373 90.4335C92.6324 90.1844 90.7875 89.7699 91.0026 89.1902C91.1839 88.7014 91.6151 88.6179 92.0124 88.5411C92.3218 88.4812 92.6106 88.4253 92.7445 88.1849C93.0504 87.6359 91.9794 86.2074 90.9093 84.8988C89.8393 83.5901 90.696 83.5288 91.2134 83.6336C92.9923 84.4115 94.8851 85.6422 96.8916 87.3258ZM143.441 88.6564L149.075 86.6552C154.254 97.2596 157.28 103.046 158.155 104.013C158.796 104.723 162.431 106.288 164.859 107.059C165.834 107.368 165.731 108.237 165.49 108.543C163.971 110.471 162.312 110.087 160.505 109.668C159.983 109.546 159.447 109.422 158.9 109.35C157.482 109.165 157.15 109.983 156.836 110.756C156.558 111.441 156.295 112.09 155.305 111.976C155.325 111.767 155.353 111.532 155.383 111.278C155.578 109.636 155.865 107.216 154.889 105.961C154.388 105.317 150.572 99.5491 143.441 88.6564Z" fill="#B28B67"/>
<path fill-rule="evenodd" clip-rule="evenodd" d="M124.964 66.2212L122.477 66.0942C117.801 72.3471 117.149 85.9647 113.813 88.1987C110.659 90.3107 105.736 89.3256 99.8543 87.8937L98.6009 92.2779C104.398 97.5678 115.876 101.163 119.969 97.6975C126.514 92.1563 126.278 75.4989 124.964 66.2212Z" fill="#A26638"/>
<path fill-rule="evenodd" clip-rule="evenodd" d="M139.333 97.8132C139.333 97.8132 124.68 99.7583 117.776 100.675C116.791 100.806 116.803 99.2478 116.857 98.4552C117.487 89.3083 122.809 78.832 121.365 66.1222L127.464 64.2458C133.62 72.479 136.645 83.2202 139.333 97.8132Z" fill="#DDE3E9"/>
<path fill-rule="evenodd" clip-rule="evenodd" d="M126.743 64.3414L127.865 64.1924C142.864 71.6049 152.924 84.8466 158.044 103.917L153.634 105.471C150.214 102.11 145.822 96.4487 140.457 88.4879C142.389 93.4558 143.973 98.6039 144.847 103.555L125.443 106.131C120.524 96.3965 125.403 64.5192 125.403 64.5192L126.743 64.3414L126.743 64.3414Z" fill="#C9844F"/>
<path fill-rule="evenodd" clip-rule="evenodd" d="M74.8677 65.072C74.8675 65.0738 74.8672 65.0757 74.8668 65.0779C74.8673 65.076 74.867 65.069 74.8677 65.072Z" fill="#C5CFD6"/>
<path fill-rule="evenodd" clip-rule="evenodd" d="M74.8668 65.0749C74.8669 65.0752 74.8668 65.076 74.8669 65.0767C74.8665 65.075 74.8682 65.0692 74.8668 65.0749Z" fill="#C5CFD6"/>
<path fill-rule="evenodd" clip-rule="evenodd" d="M74.8711 65.0437C74.8704 65.051 74.8691 65.0581 74.8682 65.0654C74.8687 65.0618 74.8693 65.0588 74.8697 65.0551C74.8576 65.1507 74.865 65.0887 74.8711 65.0437Z" fill="#C5CFD6"/>
<path fill-rule="evenodd" clip-rule="evenodd" d="M74.8688 65.0657C74.8682 65.0691 74.8678 65.0727 74.8672 65.0761C74.8626 65.0972 74.8688 65.0657 74.8688 65.0657Z" fill="#C5CFD6"/>
<path fill-rule="evenodd" clip-rule="evenodd" d="M74.8662 65.0777C74.8652 65.0822 74.8713 65.06 74.8662 65.0777V65.0777Z" fill="#C5CFD6"/>
<rect width="32.0521" height="22.6622" rx="1.0721" transform="matrix(0.965537 -0.260268 0.224718 0.974424 55.165 51.2676)" fill="#3CA7AE"/>
<path fill-rule="evenodd" clip-rule="evenodd" d="M68.3482 54.5636L63.0494 72.695L80.9001 67.8832L68.3482 54.5636Z" fill="black" fill-opacity="0.2"/>
<path fill-rule="evenodd" clip-rule="evenodd" d="M78.5224 56.2952L73.287 69.9354L89.0681 65.6815L78.5224 56.2952Z" fill="black" fill-opacity="0.2"/>
<path fill-rule="evenodd" clip-rule="evenodd" d="M81.9354 55.539C83.5591 55.1013 84.5472 53.3234 84.1424 51.5679C83.7375 49.8124 82.093 48.7442 80.4693 49.1819C78.8456 49.6195 77.8575 51.3975 78.2623 53.1529C78.6672 54.9084 80.3116 55.9767 81.9354 55.539Z" fill="white"/>
</g>
<defs>
<clipPath id="clip0">
<rect width="170" height="170" fill="white" transform="translate(0.5)"/>
</clipPath>
<clipPath id="clip1">
<rect width="126.304" height="119.31" fill="white" transform="translate(22.5078)"/>
</clipPath>
<clipPath id="clip2">
<rect width="117.561" height="75.8513" fill="white" transform="translate(26.7959 11.5251)"/>
</clipPath>
<clipPath id="clip3">
<rect width="18.7618" height="51.997" fill="white" transform="translate(125.596 35.3794)"/>
</clipPath>
<clipPath id="clip4">
<rect width="9.11287" height="42.348" fill="white" transform="translate(130.42 40.2039)"/>
</clipPath>
<clipPath id="clip5">
<rect width="13.4013" height="13.9373" fill="white" transform="translate(128.275 15.5454)"/>
</clipPath>
<clipPath id="clip6">
<rect width="96.6553" height="75.5832" fill="white" transform="translate(26.7959 11.5251)"/>
</clipPath>
<clipPath id="clip7">
<rect width="96.6553" height="12.5972" fill="white" transform="translate(26.7959 11.5251)"/>
</clipPath>
<clipPath id="clip8">
<rect width="81.1098" height="5.09249" fill="white" transform="translate(29.208 15.3042)"/>
</clipPath>
<clipPath id="clip9">
<rect width="96.6553" height="10.453" fill="white" transform="translate(26.7959 26.2666)"/>
</clipPath>
<clipPath id="clip10">
<rect width="81.1098" height="4.28841" fill="white" transform="translate(29.208 29.4026)"/>
</clipPath>
<clipPath id="clip11">
<rect width="96.6553" height="10.453" fill="white" transform="translate(26.7959 38.8638)"/>
</clipPath>
<clipPath id="clip12">
<rect width="81.1098" height="4.28841" fill="white" transform="translate(29.208 41.9998)"/>
</clipPath>
<clipPath id="clip13">
<rect width="96.6553" height="10.453" fill="white" transform="translate(26.7959 76.6553)"/>
</clipPath>
<clipPath id="clip14">
<rect width="81.1098" height="4.28841" fill="white" transform="translate(29.208 79.7913)"/>
</clipPath>
<clipPath id="clip15">
<rect width="96.6553" height="10.453" fill="white" transform="translate(26.7959 64.0581)"/>
</clipPath>
<clipPath id="clip16">
<rect width="81.1098" height="4.28841" fill="white" transform="translate(29.208 67.1941)"/>
</clipPath>
<clipPath id="clip17">
<rect width="96.6553" height="10.453" fill="white" transform="translate(26.7959 51.4609)"/>
</clipPath>
<clipPath id="clip18">
<rect width="81.1098" height="4.28841" fill="white" transform="translate(29.208 54.5969)"/>
</clipPath>
</defs>
</svg>
