<svg width="1440" height="127" viewBox="0 0 1440 127" fill="none" xmlns="http://www.w3.org/2000/svg">
<g clip-path="url(#clip0)">
<rect width="1440" height="127" fill="white"/>
<g clip-path="url(#clip1)">
<path fill-rule="evenodd" clip-rule="evenodd" d="M219.386 53.1907C213.16 45.9492 204.184 42.0486 195.209 38.7974C177.739 32.4681 167.937 28.1238 156.142 12.9386C149.206 4.00766 141.964 -5.50335 130.554 -9.23626C122.246 -11.955 109.961 -11.9551 103.548 -4.68391C94.2085 7.72815 97.1371 23.6847 103.987 36.1521C112.477 51.6046 124.624 58.1562 142.292 57.5855C152.246 57.2625 159.806 59.237 167.739 64.9346C174.084 69.49 179.554 76.2597 186.6 79.8319C197.134 85.1714 207.421 85.1315 217.538 79.1338C199.892 65.7817 180.485 52.9913 159.935 44.201C157.967 43.275 147.693 40.9115 148.17 37.6837C148.696 34.1293 161.252 41.2228 161.168 41.1835C167.222 43.9294 173.092 47.0903 178.913 50.3267C178.905 50.3355 178.895 50.3429 178.887 50.3523C184.873 53.6678 190.859 57.0697 196.801 60.5662C199.244 62.0751 201.659 63.6291 204.035 65.2649C207.522 67.6653 214.828 75.5929 219.086 76.1586C219.996 76.2794 220.77 76.2328 221.439 76.063C225.309 78.6887 229.128 81.3704 232.856 84.1425C242.592 91.3829 251.769 99.5026 258.658 109.444C260.668 112.346 265.334 124.43 268.588 125.748C274.539 128.16 269.845 120.602 268.547 118.269C257.79 98.9567 242.803 85.0107 224.491 72.7664C226.051 67.0869 221.909 56.1251 219.386 53.1907Z" fill="#F2F2F2"/>
<path fill-rule="evenodd" clip-rule="evenodd" d="M81.6747 124.067C83.9211 117.259 94.0619 111.901 100.626 109.465C108.749 106.451 117.709 104.787 126.234 103.77C140.277 102.095 155.277 103.614 169.052 105.404C170.712 105.62 191.034 107.981 190.301 110.247C189.575 112.492 168.792 108.242 164.403 107.857C155.035 107.034 145.976 105.192 136.43 106.096C126.545 107.031 116.89 109.874 107.798 113.881C106.631 114.395 102.475 115.258 103.106 116.953C103.724 118.609 109.681 115.041 110.8 114.57C115.421 112.628 120.231 111.048 125.098 109.858C134.218 107.626 143.453 107.066 152.639 108.351C152.555 113.748 148.582 117.932 142.984 119C138.146 119.924 132.802 119.365 128.177 120.53C124.992 121.332 122.132 122.902 119.59 124.949C112.885 130.35 110.361 136.584 100.684 137.171C93.0975 137.631 78.4525 133.855 81.6747 124.067Z" fill="#F2F2F2"/>
<path fill-rule="evenodd" clip-rule="evenodd" d="M66.5358 75.3148L68.6023 74.4248C67.3764 71.9767 66.1084 69.5515 64.5962 67.26C58.9277 58.6705 47.8479 47.241 35.8053 50.6369C35.3608 50.7616 33.8108 51.4179 31.9828 52.3284C30.893 52.241 29.7765 52.3852 28.7009 52.771C18.7099 56.2709 11.0694 68.3458 9.71173 78.072C8.61766 85.9136 12.769 93.8041 17.9432 99.4061C21.4077 103.156 27.5276 107.995 33.2319 105.611C40.3685 102.629 37.1305 94.1674 35.1747 89.2479C32.5745 82.7074 31.0125 76.707 34.4924 69.9869C35.3037 68.4212 36.2846 66.9286 37.1147 65.3716C38.4147 62.9342 39.9067 60.3693 39.0336 57.6393C37.8294 53.8727 35.3945 54.1501 32.3939 56.2385C31.8823 56.5943 27.2668 61.4278 27.2861 59.1701C27.2918 58.4805 28.0268 57.6195 29.0558 56.7684C31.967 55.1428 35.4432 53.2143 36.5816 52.9818C48.8616 50.4693 59.6175 63.3646 64.8285 72.2566C65.4186 73.2634 65.9837 74.2853 66.5358 75.3148L66.5358 75.3148Z" fill="#F2F2F2"/>
</g>
<path d="M720 123C753.137 123 780 96.1371 780 63C780 29.8629 753.137 3 720 3C686.863 3 660 29.8629 660 63C660 96.1371 686.863 123 720 123Z" fill="#F7F4DD" fill-opacity="0.5"/>
<path d="M720 113C747.614 113 770 90.6142 770 63C770 35.3858 747.614 13 720 13C692.386 13 670 35.3858 670 63C670 90.6142 692.386 113 720 113Z" fill="#FFF680" fill-opacity="0.5"/>
<path d="M720 103C742.091 103 760 85.0914 760 63C760 40.9086 742.091 23 720 23C697.909 23 680 40.9086 680 63C680 85.0914 697.909 103 720 103Z" fill="#FFFAC9" fill-opacity="0.5"/>
<g clip-path="url(#clip2)">
<path fill-rule="evenodd" clip-rule="evenodd" d="M1226.1 95.6031C1231.57 105.273 1239.88 111.719 1248.24 117.42C1264.5 128.518 1273.57 135.654 1283.83 155.653C1289.87 167.416 1296.15 179.91 1306.8 186.699C1314.55 191.643 1326.28 194.346 1332.88 187.424C1342.61 175.253 1340.87 156.32 1335.15 140.523C1328.06 120.945 1316.9 110.763 1299.99 107.529C1290.47 105.709 1283.38 101.783 1276.18 93.5072C1270.43 86.8901 1265.65 77.9273 1259.16 72.2828C1249.45 63.8452 1239.63 61.6275 1229.58 66.2755C1245.54 85.4616 1263.23 104.391 1282.27 118.988C1284.09 120.482 1293.74 125.452 1293.07 129.046C1292.34 133.004 1280.81 122.111 1280.89 122.175C1275.29 117.696 1269.9 112.781 1264.55 107.791C1264.56 107.783 1264.57 107.777 1264.58 107.768C1259.08 102.65 1253.59 97.4342 1248.15 92.1194C1245.92 89.8524 1243.71 87.5399 1241.55 85.1422C1238.38 81.6239 1231.93 70.9302 1227.9 69.345C1227.04 69.0062 1226.3 68.8893 1225.65 68.9368C1222.13 65.0759 1218.66 61.162 1215.28 57.1645C1206.46 46.7238 1198.24 35.3982 1192.32 22.4879C1190.59 18.7198 1186.93 3.84346 1183.91 1.61652C1178.39 -2.45736 1182.37 7.23845 1183.46 10.1974C1192.45 34.6991 1205.84 53.9807 1222.52 72.0436C1220.66 78.2098 1223.89 91.685 1226.1 95.6031Z" fill="#F2F2F2"/>
<path fill-rule="evenodd" clip-rule="evenodd" d="M1362.23 44.6701C1359.64 51.9788 1349.61 55.8888 1343.18 57.2364C1335.23 58.9041 1326.56 58.8391 1318.36 58.1289C1304.84 56.9594 1290.62 51.9181 1277.59 46.835C1276.02 46.2226 1256.78 39.0444 1257.62 36.6085C1258.46 34.1951 1278.03 43.6402 1282.19 45.0472C1291.08 48.051 1299.61 52.1557 1308.78 53.2201C1318.28 54.323 1327.68 53.189 1336.62 50.5978C1337.77 50.265 1341.8 50.1899 1341.31 48.1092C1340.82 46.0743 1334.9 48.8536 1333.8 49.1466C1329.27 50.3557 1324.57 51.1082 1319.84 51.402C1310.99 51.9528 1302.14 50.563 1293.45 47.0695C1293.89 40.9014 1297.96 36.9811 1303.37 36.9875C1308.05 36.9939 1313.12 38.8101 1317.61 38.4929C1320.7 38.2742 1323.53 37.1037 1326.1 35.3169C1332.85 30.6028 1335.67 24.0131 1344.95 25.4693C1352.22 26.6109 1365.95 34.1618 1362.23 44.6701Z" fill="#F2F2F2"/>
<path fill-rule="evenodd" clip-rule="evenodd" d="M1373.48 103.878L1371.45 104.443C1372.46 107.519 1373.51 110.577 1374.8 113.537C1379.65 124.628 1389.47 140.166 1401.19 138.924C1401.62 138.879 1403.15 138.467 1404.95 137.826C1405.99 138.166 1407.06 138.247 1408.11 138.041C1417.88 136.228 1425.97 124.07 1427.91 113.221C1429.47 104.474 1426.02 94.517 1421.45 86.9579C1418.39 81.8972 1412.87 75.0048 1407.26 76.4818C1400.26 78.3297 1402.79 88.7403 1404.33 94.8091C1406.39 102.877 1407.48 110.098 1403.72 117.035C1402.84 118.651 1401.81 120.146 1400.91 121.748C1399.51 124.255 1397.92 126.867 1398.57 130.188C1399.47 134.77 1401.81 134.988 1404.82 133.254C1405.33 132.959 1410.05 128.435 1409.89 131.018C1409.83 131.807 1409.08 132.632 1408.04 133.381C1405.15 134.604 1401.71 136.049 1400.6 136.065C1388.72 136.243 1379.3 119.097 1374.91 107.759C1374.41 106.475 1373.94 105.179 1373.48 103.878L1373.48 103.878Z" fill="#F2F2F2"/>
<path d="M1271.92 26.8539C1274.05 25.1907 1274.42 22.1166 1272.76 19.9876C1271.1 17.8587 1268.02 17.4811 1265.89 19.1443C1263.76 20.8075 1263.39 23.8816 1265.05 26.0106C1266.71 28.1395 1269.79 28.5171 1271.92 26.8539Z" fill="#43BFBF"/>
<path d="M1223.36 20.8906C1225.49 19.2274 1225.87 16.1532 1224.21 14.0242C1222.54 11.8953 1219.47 11.5177 1217.34 13.1809C1215.21 14.8441 1214.83 17.9182 1216.5 20.0472C1218.16 22.1762 1221.23 22.5537 1223.36 20.8906Z" fill="#36D9D9"/>
<path d="M1305.99 70.4648C1308.12 68.8016 1308.49 65.7274 1306.83 63.5985C1305.17 61.4695 1302.09 61.0919 1299.96 62.7551C1297.83 64.4183 1297.46 67.4925 1299.12 69.6214C1300.78 71.7504 1303.86 72.128 1305.99 70.4648Z" fill="#43BFBF"/>
<path d="M1179.75 54.9604C1181.88 53.2972 1182.26 50.223 1180.6 48.0941C1178.93 45.9651 1175.86 45.5875 1173.73 47.2507C1171.6 48.9139 1171.22 51.9881 1172.89 54.117C1174.55 56.246 1177.62 56.6236 1179.75 54.9604Z" fill="#36D9D9"/>
</g>
<path d="M1201.71 92.367C1203.78 94.1075 1204.04 97.1935 1202.3 99.2597C1200.56 101.326 1197.48 101.59 1195.41 99.8493C1193.35 98.1088 1193.08 95.0228 1194.82 92.9566C1196.56 90.8904 1199.65 90.6264 1201.71 92.367Z" fill="#43BFBF"/>
<path d="M1152.97 96.5359C1155.04 98.2765 1155.3 101.362 1153.56 103.429C1151.82 105.495 1148.74 105.759 1146.67 104.018C1144.61 102.278 1144.34 99.1917 1146.08 97.1255C1147.82 95.0593 1150.91 94.7954 1152.97 96.5359Z" fill="#36D9D9"/>
<path d="M1237.37 50.0423C1239.44 51.7828 1239.7 54.8688 1237.96 56.935C1236.22 59.0012 1233.13 59.2652 1231.07 57.5246C1229 55.784 1228.74 52.6981 1230.48 50.6319C1232.22 48.5657 1235.3 48.3017 1237.37 50.0423Z" fill="#43BFBF"/>
<path d="M1110.65 60.8816C1112.72 62.6222 1112.98 65.7082 1111.24 67.7743C1109.5 69.8405 1106.41 70.1045 1104.35 68.364C1102.28 66.6234 1102.02 63.5374 1103.76 61.4712C1105.5 59.405 1108.58 59.1411 1110.65 60.8816Z" fill="#36D9D9"/>
<path fill-rule="evenodd" clip-rule="evenodd" d="M905.786 45.0944C910.105 40.3708 913.028 34.5819 912.539 28.0953C911.132 9.40565 883.21 13.5171 877.778 22.9501C872.347 32.383 872.992 56.3104 880.012 57.9964C882.811 58.6687 888.775 57.0217 894.844 53.613L891.035 78.7262H913.53L905.786 45.0944Z" fill="#B28B67"/>
<path fill-rule="evenodd" clip-rule="evenodd" d="M922.347 21.8741C923.073 21.2032 923.469 20.2456 923.812 19.3364C924.168 18.3918 924.514 17.4376 924.751 16.4545C925.223 14.4901 925.227 12.2311 923.724 10.7059C922.517 9.48272 920.708 8.93411 919.037 8.81489C917.925 8.73537 916.782 8.88058 915.715 9.20733C914.656 9.53147 913.744 10.1775 912.718 10.5785C912.679 8.46163 912.29 6.2467 911.137 4.43924C910.028 2.70017 908.26 1.72427 906.246 1.46609C904.179 1.20113 902.138 1.6518 900.288 2.58416C899.824 2.81766 899.365 3.06229 898.926 3.33916C898.558 3.57101 898.176 3.85022 897.744 3.94451C897.263 4.04975 897.025 3.79087 896.712 3.46386C896.346 3.08045 895.933 2.74275 895.496 2.44338C893.563 1.11987 891.028 0.575698 888.789 1.36902C887.757 1.73453 886.754 2.35526 886.055 3.21063C885.431 3.9731 884.986 5.18259 884.125 5.71382C883.759 5.93933 883.501 5.64056 883.169 5.41974C882.669 5.08796 882.192 4.72184 881.687 4.39909C880.976 3.94564 880.207 3.60646 879.384 3.42893C878.178 3.169 876.512 3.22992 876.167 4.70133C876.038 5.25402 876.137 5.84513 876.179 6.40199C876.236 7.16663 876.296 7.93101 876.367 8.69453C876.421 9.27425 876.49 9.83415 876.607 10.4034C876.67 10.7069 876.866 11.2726 876.726 11.5765C876.551 11.9564 875.746 11.7404 875.402 11.7536C874.722 11.7798 874.04 11.8908 873.411 12.1615C872.924 12.3712 872.412 12.6797 872.206 13.1999C872.08 13.5195 872.113 13.8477 872.173 14.1764C872.244 14.571 872.163 14.7802 872.109 15.1783C871.196 14.7594 868.033 13.8288 867.635 15.3532C867.502 15.8608 867.804 16.4344 868.034 16.8625C868.438 17.6133 868.967 18.2995 869.509 18.954C870.638 20.3193 871.986 21.4969 873.436 22.504C871.737 23.2078 871.293 25.2838 872.764 26.5207C873.414 27.0667 874.287 27.1883 875.106 27.1534C875.406 27.1406 875.839 27.0332 876.075 27.0819C876.202 27.108 876.337 27.2083 876.513 27.2195C877.67 27.2933 878.975 27.0337 880.105 26.7947C882.119 26.3687 884.026 25.4796 885.583 24.1255C885.983 23.7781 886.313 23.5782 886.85 23.5833C887.321 23.5877 887.784 23.7081 888.254 23.7192C889.5 23.7489 890.623 23.1816 891.779 22.804C891.85 24.2597 892.295 25.8629 892.934 27.1725C893.455 28.2404 894.543 28.3956 895.613 28.4893C899.033 28.7891 902.464 28.4546 905.889 28.459C902.574 29.1571 899.149 29.4448 895.864 30.2663C894.379 30.6375 895.513 31.5701 896.148 32.2165C897.193 33.281 897.97 34.6 898.51 35.9896C900.131 34.0202 902.997 32.7226 905.536 33.3276C908.342 33.996 910.317 37.531 908.523 40.0725C907.482 41.5478 905.601 42.1173 904.036 42.7512C905.257 43.9339 905.552 45.6807 906.287 47.1521C906.649 47.8778 907.158 48.6982 907.969 48.9511C908.268 49.0447 908.62 49.0527 908.857 49.2804C909.15 49.5624 909.219 49.8777 909.594 50.1201C911.087 51.0874 913.42 51.0129 914.743 49.7505C915.94 48.6088 915.629 46.8021 914.629 45.6446C916.221 45.0265 919.12 44.2316 918.487 41.9216C921.936 41.7083 930.308 36.4975 925.68 32.6899C928.22 31.3524 930.553 28.0837 928.922 25.2023C927.665 22.9835 924.744 21.9917 922.347 21.8741Z" fill="#191847"/>
<path fill-rule="evenodd" clip-rule="evenodd" d="M871.691 96.8043L839.157 80.202C833.747 74.2159 828.417 69.5669 823.166 66.2549C821.561 65.6308 818.756 65.253 821.38 69.5925C824.004 73.932 826.554 78.6064 825.217 79.9433C823.88 81.2802 820.547 79.4126 818.952 81.6338C817.889 83.1147 823.584 85.454 836.037 88.6518L859.677 108.819L871.691 96.8043ZM820.737 110.812L806.447 103.497C804.442 96.3883 802.045 92.8115 799.256 92.7669C797.114 91.8382 800.845 100.821 796.783 100.042C792.722 99.2632 782.81 92.3944 781.102 93.789C778.576 95.8523 780.829 102.188 783.483 105.339C788.444 111.229 792.552 113.244 802.705 115.881C808.014 117.261 813.753 120.025 819.924 124.174L820.737 110.812Z" fill="#997659"/>
<path fill-rule="evenodd" clip-rule="evenodd" d="M887.535 93.1062C876.139 92.994 860.944 90.7515 844.73 81.162L838.362 94.3928C849.546 104.734 865.272 113.231 879.022 112.872C889.858 112.588 895.396 100.376 887.535 93.1062Z" fill="#2026A2"/>
<path fill-rule="evenodd" clip-rule="evenodd" d="M872.191 114.324C860.093 117.136 839.807 113.82 811.331 104.379C804.267 117.994 801.002 127.701 801.535 133.499C825.963 145.389 846.901 150.689 864.15 151.039C863.602 160.576 864.848 169.65 869.033 177.942C877.636 194.988 928.016 179.201 944.955 182.308C955.563 150.21 935.052 137.165 935.036 116.626C935.018 94.1338 915.635 59.5132 912.783 59.5132H886.776C885.341 76.6907 878.118 95.6218 872.191 114.324Z" fill="#1F28CF"/>
<g clip-path="url(#clip3)">
<path fill-rule="evenodd" clip-rule="evenodd" d="M559.132 31.6197C564.397 40.9701 573.845 63.2035 571.148 67.936L548.43 74.8097C548.417 74.7685 548.405 74.7274 548.392 74.6864C539.728 76.2646 531.31 70.8181 529.041 61.7986L524.851 45.1434C522.416 35.465 527.983 25.3376 537.285 22.5231L538.852 22.049C547.195 19.5247 555.709 23.7406 559.132 31.6197Z" fill="#191847"/>
<path fill-rule="evenodd" clip-rule="evenodd" d="M537.087 56.27C532.368 53.0562 528.573 48.492 527.479 42.3837C524.327 24.7841 548.706 21.2013 555.45 28.4624C562.194 35.7235 567.199 57.95 561.701 61.3576C559.508 62.7165 554.123 62.773 548.241 61.2335L557.259 83.3767L538.387 89.3164L537.087 56.27Z" fill="#B28B67"/>
<path fill-rule="evenodd" clip-rule="evenodd" d="M541.489 51.4059C544.768 60.7272 547.176 71.7758 545.25 75.1537L522.543 82.0187C515.574 59.7515 530.01 64.8259 524.64 43.5006C525.209 42.5027 525.738 41.5253 526.286 40.6547L526.103 40.0352C527.947 30.5522 531.891 24.8969 537.936 23.0694C547.003 20.3282 550.96 23.8102 554.326 26.7644C554.126 33.7576 547.295 36.8507 542.023 42.766C541.126 42.3699 540.088 42.2838 539.059 42.5948C536.681 43.3139 535.253 45.8835 535.87 48.3342C536.487 50.7849 538.916 52.1886 541.294 51.4696C541.36 51.4497 541.425 51.4285 541.489 51.4059Z" fill="#191847"/>
<path fill-rule="evenodd" clip-rule="evenodd" d="M577.025 102.576L602.024 81.3795C605.674 74.8194 609.467 69.5313 613.402 65.515C614.666 64.6528 616.988 63.8167 615.443 68.3499C613.898 72.8832 612.468 77.7191 613.813 78.7482C615.158 79.7774 617.693 77.4488 619.395 79.266C620.53 80.4775 616.065 83.6545 606 88.797L589.109 111.825L577.025 102.576ZM622.467 107.031L633.444 97.6995C634.028 90.6657 635.5 86.889 637.86 86.3694C639.532 85.1284 637.778 94.2213 641.102 92.7925C644.426 91.3637 651.758 83.2017 653.426 84.2217C655.895 85.7305 654.979 92.0786 653.221 95.4992C649.937 101.892 646.767 104.491 638.566 108.713C634.278 110.92 629.842 114.505 625.257 119.467L622.467 107.031Z" fill="#997659"/>
<path fill-rule="evenodd" clip-rule="evenodd" d="M563.08 101.383C572.723 99.3168 585.251 94.5898 597.485 82.766L604.969 94.1351C597.118 105.802 585.126 116.512 573.413 118.539C564.182 120.136 557.562 109.584 563.08 101.383Z" fill="#2026A2"/>
<path fill-rule="evenodd" clip-rule="evenodd" d="M579.491 119.046C590.203 119.619 606.903 112.992 629.591 99.163C637.731 110.816 642.031 119.429 642.491 125.001C623.625 140.447 606.686 149.063 592.097 152.365C594.064 161.285 594.435 170.077 592.187 178.635C587.567 196.229 542.313 189.984 528.422 195.839C514.363 167.325 529.721 151.462 526.502 132.045C522.976 110.782 533.981 74.719 536.402 74.2279L558.48 69.7486C562.403 85.7382 571.514 102.388 579.491 119.046Z" fill="#1F28CF"/>
</g>
<path d="M719.833 81.6667C731.339 81.6667 740.667 72.3393 740.667 60.8333C740.667 49.3274 731.339 40 719.833 40C708.327 40 699 49.3274 699 60.8333C699 72.3393 708.327 81.6667 719.833 81.6667Z" fill="#F7E762"/>
<path d="M733.375 60.8332C733.375 52.8123 726.5 46.4582 718.271 47.3957C712.021 48.1248 707.021 53.1248 706.396 59.3748C705.875 64.1665 707.854 68.4373 711.188 71.1457C712.646 72.3957 713.583 74.1665 713.583 76.1457L713.583 76.4582L726.083 76.4582L726.083 76.354C726.083 74.479 726.917 72.604 728.375 71.354C731.396 68.854 733.375 65.104 733.375 60.8332Z" fill="#FBC02D"/>
<path d="M726.708 58.9583L723.583 56.875C723.271 56.6667 722.75 56.6667 722.438 56.875L719.833 58.5417L717.333 56.875C717.021 56.6667 716.5 56.6667 716.188 56.875L713.063 58.9583C712.854 59.1667 712.646 59.375 712.646 59.6875C712.646 60 712.646 60.3125 712.854 60.5208L716.813 65.4167L716.813 76.4583L718.896 76.4583L718.896 65C718.896 64.7917 718.792 64.5833 718.688 64.375L715.25 60.1042L716.813 59.0625L719.313 60.7292C719.625 60.9375 720.146 60.9375 720.458 60.7292L722.958 59.0625L724.521 60.1042L721.083 64.375C720.979 64.5833 720.875 64.7917 720.875 65L720.875 76.4583L722.958 76.4583L722.958 65.4167L726.917 60.5208C727.125 60.3125 727.229 60 727.125 59.6875C727.021 59.375 726.917 59.0625 726.708 58.9583Z" fill="#FFF59D"/>
<path d="M719.833 86.875C721.559 86.875 722.958 85.4759 722.958 83.75C722.958 82.0241 721.559 80.625 719.833 80.625C718.107 80.625 716.708 82.0241 716.708 83.75C716.708 85.4759 718.107 86.875 719.833 86.875Z" fill="#5C6BC0"/>
<path d="M721.917 84.7915L717.75 84.7915C715.458 84.7915 713.583 82.9165 713.583 80.6248L713.583 75.4165L726.083 75.4165L726.083 80.6248C726.083 82.9165 724.208 84.7915 721.917 84.7915Z" fill="#9FA8DA"/>
<path d="M726.083 80.625L714 82.2917C714.312 83.0208 714.938 83.75 715.667 84.1667L725.458 82.8125C725.875 82.1875 726.083 81.4583 726.083 80.625Z" fill="#5C6BC0"/>
<path d="M713.583 78.2293L713.583 80.3127L726.083 78.5418L726.083 76.4585L713.583 78.2293Z" fill="#5C6BC0"/>
<path d="M329.253 60.8602C336.521 69.0702 338.49 77.5774 344.314 85.8684C350.414 94.5543 371.855 108.33 371.855 108.33C371.855 108.33 348.764 95.0572 341.803 86.2145C335.396 78.1614 332.186 69.3134 324.231 61.5523C309.432 47.6093 284.209 41.6376 267.452 42.3725C265.89 39.7927 263.876 36.2124 262.11 34.0544C281.042 34.6339 313.884 43.2559 329.253 60.8602Z" fill="#C28FEF"/>
<path d="M387.144 82.4675C385.026 93.9318 386.98 105.962 388.701 117.224C390.203 127.205 383.998 147.552 383.998 147.552C383.998 147.552 388.422 126.925 386.41 116.937C383.697 104.641 380.736 92.0855 382.635 79.3412C386.68 54.1114 408.952 34.7489 431.209 24.836C432.39 28.1724 435.264 34.852 435.264 34.852C435.264 34.852 391.393 59.0283 387.144 82.4675Z" fill="#FF8736"/>
<path d="M1093.98 39.0791C1098.56 28.3597 1099.3 16.1937 1100.09 4.82958C1100.82 -5.23777 1111.34 -23.726 1111.34 -23.726C1111.34 -23.726 1102.49 -4.57392 1102.26 5.6124C1102.21 18.2043 1102.34 31.1032 1097.69 43.1193C1088.2 66.8446 1062.22 80.8429 1038.33 85.6258C1037.91 82.1113 1036.57 74.9636 1036.57 74.9636C1036.57 74.9636 1084.68 61.0127 1093.98 39.0791Z" fill="#FF8736"/>
<path d="M1179.01 90.3588C1173.48 81.7068 1172.47 73.1198 1169.03 64.2857C1165.84 56.1521 1160.76 47.6581 1151.59 40.7712C1141.17 33.1393 1115.21 25.2236 1115.21 25.2236C1115.21 25.2236 1140.69 34.4956 1149.93 42.6254C1159.17 50.7552 1162.33 60.403 1163.88 68.8766C1167.18 85.2815 1171.89 103.403 1193.12 117.582C1195.33 115.614 1200.28 111.566 1200.28 111.566C1200.28 111.566 1188.04 104.816 1179.01 90.3588Z" fill="#42ADE2"/>
<path d="M368.892 41.7834C371.593 41.7834 373.783 39.5933 373.783 36.8917C373.783 34.1901 371.593 32 368.892 32C366.19 32 364 34.1901 364 36.8917C364 39.5933 366.19 41.7834 368.892 41.7834Z" fill="#43BFBF"/>
<path d="M323.892 32.7834C326.593 32.7834 328.783 30.5933 328.783 27.8917C328.783 25.1901 326.593 23 323.892 23C321.19 23 319 25.1901 319 27.8917C319 30.5933 321.19 32.7834 323.892 32.7834Z" fill="#36D9D9"/>
<path d="M399.892 90.7834C402.593 90.7834 404.783 88.5933 404.783 85.8917C404.783 83.1901 402.593 81 399.892 81C397.19 81 395 83.1901 395 85.8917C395 88.5933 397.19 90.7834 399.892 90.7834Z" fill="#43BFBF"/>
<path d="M283.892 67.7834C286.593 67.7834 288.783 65.5933 288.783 62.8917C288.783 60.1901 286.593 58 283.892 58C281.19 58 279 60.1901 279 62.8917C279 65.5933 281.19 67.7834 283.892 67.7834Z" fill="#36D9D9"/>
<path d="M217.803 42.2346C219.85 40.4713 220.08 37.3825 218.317 35.3357C216.553 33.2889 213.465 33.0591 211.418 34.8224C209.371 36.5857 209.141 39.6744 210.904 41.7212C212.668 43.768 215.756 43.9979 217.803 42.2346Z" fill="#43BFBF"/>
<path d="M169.02 38.6052C171.067 36.8419 171.296 33.7531 169.533 31.7063C167.77 29.6595 164.681 29.4297 162.634 31.193C160.587 32.9563 160.358 36.045 162.121 38.0918C163.884 40.1386 166.973 40.3685 169.02 38.6052Z" fill="#36D9D9"/>
<path d="M253.924 84.1628C255.971 82.3995 256.201 79.3108 254.437 77.264C252.674 75.2171 249.585 74.9873 247.538 76.7506C245.492 78.5139 245.262 81.6026 247.025 83.6495C248.788 85.6963 251.877 85.9261 253.924 84.1628Z" fill="#43BFBF"/>
<path d="M127.092 74.7253C129.138 72.962 129.368 69.8733 127.605 67.8265C125.842 65.7796 122.753 65.5498 120.706 67.3131C118.659 69.0764 118.429 72.1651 120.193 74.2119C121.956 76.2588 125.045 76.4886 127.092 74.7253Z" fill="#36D9D9"/>
</g>
<defs>
<clipPath id="clip0">
<rect width="1440" height="127" fill="white"/>
</clipPath>
<clipPath id="clip1">
<rect width="225.79" height="188.662" fill="white" transform="translate(-9 42.0332) rotate(-23.2997)"/>
</clipPath>
<clipPath id="clip2">
<rect width="211.593" height="223.189" fill="white" transform="translate(1443.4 158.644) rotate(164.448)"/>
</clipPath>
<clipPath id="clip3">
<rect width="163" height="185" fill="white" transform="translate(506 15)"/>
</clipPath>
</defs>
</svg>
