<svg width="173" height="170" viewBox="0 0 173 170" fill="none" xmlns="http://www.w3.org/2000/svg">
<path fill-rule="evenodd" clip-rule="evenodd" d="M167.305 64.633C167.176 64.5189 166.869 64.4785 166.727 64.4443C166.135 64.3025 165.524 64.2407 164.921 64.2407C163.059 64.2441 161.167 64.4661 159.336 64.8504C158.173 65.0944 156.768 65.9154 155.611 65.4695C153.597 64.6927 151.561 64.7308 149.649 65.8399C147.902 66.854 146.575 68.7801 145.801 70.8613C145.684 71.1755 145.21 72.3318 145.076 73.1112C145.019 73.2706 144.964 73.4311 144.914 73.5939C144.773 74.0563 144.647 74.5269 144.529 74.9984C144.479 75.1995 144.353 75.6435 144.503 75.7294C144.263 76.2664 144.051 76.8198 143.874 77.3912C143.36 79.0529 142.797 80.8757 142.617 82.6369C142.55 83.2891 142.547 83.945 142.609 84.5985C142.64 84.9214 142.627 85.5709 142.808 85.8164C143.19 86.3375 143.386 85.6081 143.343 85.2606C143.014 82.6125 143.65 80.1258 144.403 77.6367C144.891 76.027 145.691 74.5545 146.588 73.2209C147.314 72.1414 148.093 71.2913 149.088 70.5756C150.304 69.7004 151.605 68.9929 152.894 68.2832C153.742 67.8162 154.59 67.3617 155.462 66.9594C155.656 66.8699 155.96 66.6404 156.175 66.6395C156.63 66.6375 157.273 67.0448 157.712 67.1963C159.156 67.6948 160.618 68.3332 162.109 68.5878C163.066 68.7512 163.963 68.5672 164.858 68.18C164.949 68.1405 165.102 68.0388 165.29 67.8936C165.954 67.5831 166.583 67.1923 167.13 66.6286C167.445 66.3038 167.731 65.884 167.992 65.4998C168.07 65.385 168.105 65.2533 168.106 65.1282C168.165 65.0906 168.205 65.0468 168.213 64.9956C168.278 64.6175 167.685 64.6105 167.305 64.633Z" fill="#D0A584"/>
<path fill-rule="evenodd" clip-rule="evenodd" d="M16.0558 96.1539C15.6906 96.5132 15.3323 96.8804 14.9828 97.2622C14.7164 97.5534 14.245 97.9018 14.1494 98.3428C14.05 98.801 14.3638 99.23 14.6117 99.5071C15.9227 100.972 17.399 101.963 19.2156 102.128C22.0128 102.382 24.4471 101.514 26.8741 99.8062C28.5789 98.6068 29.7081 96.8325 29.9547 94.4368C31.985 95.4619 33.9486 96.8748 35.6173 98.609C36.4406 99.4647 37.1497 100.413 37.8057 101.464C38.2257 102.137 38.6321 102.821 39.0092 103.531C39.1731 103.84 39.3397 104.387 39.6104 104.565C39.9281 104.773 40.3121 104.446 40.2963 104.017C40.2832 103.66 39.9657 103.245 39.8174 102.954C39.5708 102.469 39.3206 101.987 39.057 101.515C38.6306 100.752 38.1899 99.9994 37.7092 99.2849C36.629 97.6798 35.2546 96.3538 33.8298 95.2231C31.0965 93.0538 28.0967 91.6872 24.7708 91.5714C22.7258 91.5002 21.0054 92.349 19.2566 93.6167C18.1678 94.4059 17.0439 95.1819 16.0558 96.1539Z" fill="#259CA5" fill-opacity="0.8"/>
<path fill-rule="evenodd" clip-rule="evenodd" d="M42.5827 85.6617C40.4516 82.9954 38.3131 80.3623 35.9321 78.0145C34.529 76.631 33.0501 75.373 31.6018 74.0612C31.769 74.239 31.9328 74.422 32.0928 74.6095C31.6407 74.2366 31.0489 74.0259 30.5696 73.6808C30.035 73.2959 29.524 72.8556 29.0227 72.4117C28.0442 71.5456 27.0805 70.663 26.0747 69.842C24.9542 68.9274 23.7929 68.0823 22.6532 67.2021C21.686 66.4551 20.707 65.6375 19.6722 65.027C19.1083 64.6941 18.543 64.2996 17.9768 63.9525C17.7873 63.8363 15.8643 62.3611 15.8691 62.3567C15.9754 62.2594 16.9431 62.8118 17.0927 62.8861C17.5299 63.103 17.9479 63.3625 18.3682 63.6211C18.1375 63.0683 17.9549 62.4875 17.8555 61.8762C17.8248 61.6875 17.5788 60.3137 17.7047 60.1985C17.7676 60.1409 18.3811 62.5987 18.4125 62.835C18.438 63.027 18.4343 63.3034 18.486 63.4851C18.5695 63.7787 18.5653 63.69 18.7492 63.8554C19.0864 64.1585 19.5339 64.3479 19.8988 64.6012C20.0955 64.7347 20.7047 65.2638 21.0717 65.4147C22.1819 66.0698 23.3073 67.0777 24.3622 67.9145C24.0853 67.2823 23.8746 66.6214 23.721 65.9287C23.6844 65.7643 23.2902 64.289 23.3858 64.2014C23.4935 64.1029 24.2447 66.356 24.2892 66.5693C24.3719 66.9655 24.3891 67.4065 24.4926 67.792C24.6062 68.2151 24.9607 68.3651 25.2802 68.6117C26.4557 69.5191 27.5909 70.4833 28.7072 71.4917C29.9252 68.8601 28.5208 65.6821 27.3372 63.474C26.4841 61.8827 25.3355 60.5183 24.1228 59.3272C22.5043 57.7375 20.6525 56.4676 18.8031 55.306C16.6481 53.9524 14.3189 53.1138 11.8974 52.7264C10.6309 52.5237 9.33525 52.5294 8.05598 52.5943C7.43105 52.626 6.83122 52.7266 6.23234 52.9742C5.96242 53.0859 5.70156 53.2268 5.44734 53.3844C5.25419 53.5042 4.78694 53.6307 4.6759 53.8092C3.76172 55.2547 3.29403 56.6951 3.36545 58.5116C3.43299 60.2311 3.88 61.9514 4.48663 63.4852C5.16221 65.1931 6.03112 66.7432 7.1675 68.0442C8.0345 69.0368 9.00381 69.9006 9.96674 70.7532C13.3915 73.7855 17.7336 76.4227 22.1693 75.7452C23.6052 75.526 24.9709 74.9159 26.2471 74.0869C26.5478 73.8916 26.8467 73.694 27.1306 73.4633C27.322 73.3079 27.8337 72.6073 28.0261 72.5818C28.29 72.5469 28.8585 73.199 29.106 73.3975C30.9874 74.9063 32.8195 76.4968 34.6132 78.1516C36.5215 79.9123 38.3363 81.7928 40.0976 83.7616C40.8467 84.5991 41.5911 85.4384 42.3185 86.304C42.4878 86.5053 42.9019 87.2469 43.209 87.2805C43.4032 87.3018 43.5341 87.1003 43.5064 86.8821C43.4582 86.5025 42.8009 85.9347 42.5827 85.6617Z" fill="#A26638"/>
<path fill-rule="evenodd" clip-rule="evenodd" d="M165.067 75.3134C164.241 75.0943 163.33 75.111 162.489 75.1291C157.979 75.2036 153.551 77.7975 150.669 81.942C148.215 85.4704 147.54 89.8571 147.056 94.2916C147.008 94.7319 146.987 95.1694 146.96 95.6106C146.954 95.7052 146.945 95.7897 146.936 95.8692C146.745 96.0762 146.645 96.3176 146.758 96.5828C146.338 97.6993 145.983 98.844 145.678 100.025C144.781 103.5 143.869 107.041 144.431 110.696C144.562 108.685 144.838 106.628 145.169 104.65C145.188 104.537 145.208 104.424 145.23 104.312C145.232 104.3 145.234 104.288 145.236 104.276C145.353 103.671 145.505 103.083 145.69 102.505C145.692 102.498 145.694 102.492 145.696 102.486C145.72 102.41 145.746 102.334 145.772 102.258C145.825 102.102 145.879 101.945 145.937 101.79C145.956 101.737 145.975 101.683 145.993 101.629C146.262 100.828 146.376 99.9246 146.617 99.0953C146.675 98.9068 146.735 98.7189 146.798 98.532C146.802 98.5211 146.806 98.5102 146.809 98.4992C146.98 97.9964 147.169 97.4996 147.368 97.0081C147.477 96.9091 147.535 96.6635 147.628 96.4403C147.648 96.3964 147.799 96.1031 147.844 95.9341C147.961 95.6579 148.078 95.3817 148.197 95.1061C148.193 95.1077 148.19 95.1093 148.186 95.1109C148.304 94.8462 148.423 94.5827 148.541 94.3202C148.567 94.2626 148.593 94.2048 148.619 94.147C148.662 94.0549 148.704 93.9629 148.746 93.8712C149.141 93.0124 149.56 92.1708 149.995 91.3396C150.15 91.043 150.521 90.6176 150.592 90.2846C150.595 90.2721 150.595 90.2607 150.597 90.2487C151.541 88.6383 152.627 87.1528 153.93 85.9759C153.773 86.1827 153.438 86.8847 153.35 87.0236C153.079 87.4491 152.785 87.8453 152.489 88.2462C151.961 88.9644 151.445 89.7054 150.986 90.489C150.147 91.922 149.424 93.4302 148.74 94.9686C148.733 94.9777 148.726 94.9862 148.72 94.9955C148.376 95.5102 148.16 96.2883 147.912 96.8772C148.892 96.3262 149.975 95.9672 150.98 95.4779C151.982 94.9901 152.957 94.4469 153.898 93.809C155.149 92.9613 156.447 92.0041 157.629 90.9209C158.984 89.9 160.122 88.4949 161.127 87.0204C162.316 85.2758 163.405 83.5159 164.079 81.3976C164.41 80.3567 164.671 79.2713 164.825 78.1732C164.832 78.1253 164.84 78.0734 164.85 78.0195C165.008 77.6402 165.149 77.2525 165.267 76.8557C165.456 76.2266 165.9 75.5345 165.067 75.3134Z" fill="#B9B9B9"/>
<path fill-rule="evenodd" clip-rule="evenodd" d="M37.7272 89.8462C37.5193 89.6076 37.2857 89.3923 37.0115 89.2387C36.9422 89.1999 36.4258 88.9399 36.3922 88.997C36.3139 89.1299 37.6647 89.7701 37.7272 89.8462ZM40.1753 88.2522C40.1736 88.2622 40.3527 88.5843 40.4014 88.6833C40.5052 88.8938 40.601 89.1084 40.6911 89.3234C40.5577 88.9436 40.4206 88.5914 40.1753 88.2522ZM27.6541 90.8733C27.4817 90.9322 27.2744 90.7002 27.4981 90.6431C27.679 90.5972 27.6702 90.5864 27.7514 90.4319C27.8174 90.3064 27.8581 90.1534 27.916 90.0217C28.0388 89.7424 28.1781 89.4761 28.3492 89.2265C28.7157 88.6915 29.1623 88.2305 29.6632 87.842C30.5373 87.1641 31.5174 86.5445 32.5571 86.2333C34.2102 85.7383 36.0917 85.7077 37.7474 86.0509C38.7728 86.2634 39.7099 86.6328 40.3908 87.5079C40.7312 87.9452 40.9983 88.4576 41.1151 89.0217C41.1455 89.1692 41.1398 89.3332 41.178 89.4775C41.2366 89.6995 41.2108 89.6404 41.4557 89.6836C41.7232 89.7307 41.9904 89.7789 42.2576 89.8278C42.9571 89.9561 43.6608 90.0922 44.3424 90.3004C44.5667 90.3688 44.7861 90.4525 45.0005 90.5498C45.1626 90.6232 45.808 90.854 45.8865 91.0772C46.017 91.4485 45.5796 91.2802 45.4436 91.1993C45.3246 91.1284 45.2023 91.0623 45.0783 91.0015C44.766 90.8483 44.4406 90.7298 44.1079 90.6355C43.7483 90.5336 43.3814 90.4575 43.0159 90.3813C42.6751 90.3103 42.333 90.2457 41.9904 90.184C41.8001 90.1496 41.6096 90.1163 41.4191 90.0829C41.3541 90.0715 41.2393 90.0118 41.248 90.1015C40.8476 90.0197 40.4145 90.0315 40.0066 90.0089C39.507 89.9813 39.0056 89.9587 38.5043 89.9752C38.1428 89.9872 37.781 90.0123 37.4213 90.0638C37.2111 90.0939 37.0043 90.1379 36.798 90.1937C36.6848 90.2243 36.2381 90.2892 36.1764 90.3939C36.2029 90.3489 36.6959 90.3925 36.7586 90.39C37.0096 90.38 37.2586 90.3537 37.5087 90.324C37.9727 90.2691 38.4369 90.2404 38.9023 90.2446C38.9006 90.3312 38.5826 90.4854 38.505 90.5428C38.331 90.6716 38.1643 90.812 38.0088 90.966C37.7349 91.2372 37.4069 91.5732 37.2174 91.8946C37.2733 91.7999 37.5487 91.6766 37.6465 91.6043C37.8031 91.4883 37.9565 91.3646 38.1017 91.2324C38.2357 91.1103 38.3607 90.9784 38.4837 90.8437C38.6067 90.7089 38.7736 90.4286 38.9351 90.3389C38.9449 90.3335 39.0153 90.3924 39.0553 90.3724C39.0957 90.3522 39.1459 90.2512 39.1562 90.2471C39.3066 90.1855 39.5922 90.2621 39.7504 90.2698C40.1604 90.2898 40.5701 90.316 40.9799 90.3399C41.1068 90.3473 41.2147 90.3167 41.2627 90.416C41.3137 90.5218 41.2201 90.8001 41.1935 90.9154C41.0947 91.3436 40.9192 91.7275 40.643 92.0592C40.1256 92.6806 39.4877 93.0949 38.7671 93.372C36.0069 94.4333 33.0704 94.8584 30.311 93.7543C29.1686 93.2972 27.4482 92.4804 27.6541 90.8733Z" fill="#D0A584"/>
<g clip-path="url(#clip0)">
<path fill-rule="evenodd" clip-rule="evenodd" d="M154.96 140.877C156.851 154.35 110.985 163.137 71.5075 157.005C32.0298 150.872 13.9193 126.922 32.7574 114.161C51.5955 101.4 153.068 127.404 154.96 140.877Z" fill="#EFEFEF"/>
</g>
<g clip-path="url(#clip1)">
<rect x="33.6562" y="29.5461" width="38.4808" height="88.7944" rx="1.71246" fill="#F2F2F2"/>
<path fill-rule="evenodd" clip-rule="evenodd" d="M51.8554 101.413C53.6287 101.413 55.0662 99.9751 55.0662 98.2018C55.0662 96.4285 53.6287 94.991 51.8554 94.991C50.0821 94.991 48.6445 96.4285 48.6445 98.2018C48.6445 99.9751 50.0821 101.413 51.8554 101.413Z" fill="white"/>
<path fill-rule="evenodd" clip-rule="evenodd" d="M49.0726 45.1158C49.3091 45.1158 49.5008 44.9241 49.5008 44.6876C49.5008 44.4512 49.3091 44.2595 49.0726 44.2595C48.8362 44.2595 48.6445 44.4512 48.6445 44.6876C48.6445 44.9241 48.8362 45.1158 49.0726 45.1158Z" fill="white"/>
<rect x="50.5703" y="44.2595" width="4.4952" height="0.856229" rx="0.428114" fill="white"/>
<g clip-path="url(#clip2)">
<g clip-path="url(#clip3)">
<rect x="37.1211" y="37.9668" width="32.33" height="15.5591" rx="0.856229" fill="white"/>
<g clip-path="url(#clip4)">
<rect x="45.4697" y="42.8389" width="19.9146" height="2.43601" rx="0.642172" fill="#259CA5" fill-opacity="0.8"/>
<rect x="45.4697" y="46.8989" width="13.3674" height="2.43601" rx="0.642172" fill="#259CA5" fill-opacity="0.8"/>
</g>
<path fill-rule="evenodd" clip-rule="evenodd" d="M41.6165 48.3151C43.0352 48.3151 44.1852 47.1651 44.1852 45.7464C44.1852 44.3278 43.0352 43.1777 41.6165 43.1777C40.1979 43.1777 39.0479 44.3278 39.0479 45.7464C39.0479 47.1651 40.1979 48.3151 41.6165 48.3151Z" fill="#3C6F74" fill-opacity="0.5"/>
</g>
<g clip-path="url(#clip5)">
<rect x="37.1211" y="56.6128" width="32.33" height="12.9904" rx="0.856229" fill="white"/>
<g clip-path="url(#clip6)">
<rect x="45.4697" y="60.4021" width="19.9146" height="1.89467" rx="0.642172" fill="#259CA5" fill-opacity="0.8"/>
<rect x="45.4697" y="63.5598" width="13.3674" height="1.89467" rx="0.642172" fill="#259CA5" fill-opacity="0.8"/>
</g>
<path fill-rule="evenodd" clip-rule="evenodd" d="M41.6165 65.6767C43.0352 65.6767 44.1852 64.5266 44.1852 63.108C44.1852 61.6893 43.0352 60.5393 41.6165 60.5393C40.1979 60.5393 39.0479 61.6893 39.0479 63.108C39.0479 64.5266 40.1979 65.6767 41.6165 65.6767Z" fill="#3C6F74" fill-opacity="0.5"/>
</g>
<g clip-path="url(#clip7)">
<rect x="37.1211" y="71.6499" width="32.33" height="12.9904" rx="0.856229" fill="white"/>
<g clip-path="url(#clip8)">
<rect x="45.4697" y="75.4392" width="19.9146" height="1.89467" rx="0.642172" fill="#259CA5" fill-opacity="0.8"/>
<rect x="45.4697" y="78.5969" width="13.3674" height="1.89467" rx="0.642172" fill="#259CA5" fill-opacity="0.8"/>
</g>
<path fill-rule="evenodd" clip-rule="evenodd" d="M41.6165 80.7138C43.0352 80.7138 44.1852 79.5637 44.1852 78.1451C44.1852 76.7265 43.0352 75.5764 41.6165 75.5764C40.1979 75.5764 39.0479 76.7265 39.0479 78.1451C39.0479 79.5637 40.1979 80.7138 41.6165 80.7138Z" fill="#AFB9C5"/>
</g>
<g clip-path="url(#clip9)">
<rect x="37.1211" y="86.687" width="32.33" height="12.9904" rx="0.856229" fill="white"/>
<g clip-path="url(#clip10)">
<rect x="45.4697" y="90.4763" width="19.9146" height="1.89467" rx="0.642172" fill="#259CA5" fill-opacity="0.8"/>
<rect x="45.4697" y="93.634" width="13.3674" height="1.89467" rx="0.642172" fill="#259CA5" fill-opacity="0.8"/>
</g>
<path fill-rule="evenodd" clip-rule="evenodd" d="M41.6165 95.7509C43.0352 95.7509 44.1852 94.6009 44.1852 93.1822C44.1852 91.7636 43.0352 90.6135 41.6165 90.6135C40.1979 90.6135 39.0479 91.7636 39.0479 93.1822C39.0479 94.6009 40.1979 95.7509 41.6165 95.7509Z" fill="#3C6F74" fill-opacity="0.5"/>
</g>
</g>
</g>
<g clip-path="url(#clip11)">
<path fill-rule="evenodd" clip-rule="evenodd" d="M45.8254 95.1121C45.5418 95.1121 45.2591 95.1178 44.9759 95.1325C44.76 95.1438 44.43 95.099 44.2474 95.2336C44.0576 95.3734 44.0706 95.6595 44.1003 95.8615C44.257 96.93 44.6396 97.8775 45.4399 98.6345C46.6722 99.8002 48.0848 100.392 49.7564 100.656C50.9307 100.841 52.0147 100.584 52.8791 99.7492C53.5106 100.921 53.9898 102.219 54.2302 103.528C54.3488 104.174 54.385 104.812 54.3641 105.47C54.3507 105.891 54.3275 106.311 54.2823 106.731C54.2627 106.913 54.1698 107.189 54.2412 107.361C54.3249 107.563 54.6072 107.583 54.7339 107.41C54.8394 107.267 54.82 106.985 54.8417 106.815C54.8776 106.533 54.9109 106.251 54.9347 105.967C54.9733 105.509 55.0019 105.049 54.9998 104.588C54.995 103.553 54.765 102.515 54.4503 101.533C53.8466 99.6484 52.8672 97.9738 51.3439 96.66C50.4073 95.8521 49.3354 95.5249 48.1192 95.3493C47.362 95.2399 46.5925 95.1121 45.8254 95.1121Z" fill="#D0A584"/>
<path fill-rule="evenodd" clip-rule="evenodd" d="M50.1987 102.604C47.1379 102.604 45.0765 105.071 44.1018 107.635C43.7344 108.601 43.6482 109.662 43.5066 110.677C43.4612 111.003 43.478 111.499 43.3458 111.789C43.2979 111.894 43.1879 111.932 43.2405 112.075C43.2723 112.162 43.3348 112.215 43.4285 112.233C43.6211 112.268 43.8933 112.058 44.0584 111.976C45.4275 111.289 46.327 110.227 47.0609 108.928C47.5157 108.123 47.9773 107.287 48.2475 106.403C48.4126 105.864 48.5087 105.295 48.5651 104.735C48.5873 104.514 48.6088 104.288 48.6075 104.066C48.6062 103.846 48.5038 103.73 48.4301 103.538C49.4514 103.151 50.6042 103.046 51.6387 103.447C52.5956 103.817 53.3904 104.533 53.8354 105.433C53.9511 105.667 54.0403 105.913 54.1052 106.165C54.1477 106.33 54.1498 106.544 54.2286 106.693C54.4197 107.054 54.8217 106.812 54.7831 106.476C54.6754 105.538 54.1389 104.597 53.4531 103.945C52.5882 103.122 51.4159 102.604 50.1987 102.604Z" fill="#D0A584"/>
<rect x="53.9824" y="43.1592" width="33.2745" height="76.781" rx="1.71246" fill="#5D999D" fill-opacity="0.8"/>
<path fill-rule="evenodd" clip-rule="evenodd" d="M70.4111 109.026C72.1844 109.026 73.6219 107.588 73.6219 105.815C73.6219 104.042 72.1844 102.604 70.4111 102.604C68.6377 102.604 67.2002 104.042 67.2002 105.815C67.2002 107.588 68.6377 109.026 70.4111 109.026Z" fill="white"/>
<path fill-rule="evenodd" clip-rule="evenodd" d="M67.6283 52.7288C67.8648 52.7288 68.0564 52.5371 68.0564 52.3007C68.0564 52.0642 67.8648 51.8726 67.6283 51.8726C67.3919 51.8726 67.2002 52.0642 67.2002 52.3007C67.2002 52.5371 67.3919 52.7288 67.6283 52.7288Z" fill="white"/>
<rect x="69.127" y="51.8726" width="4.4952" height="0.856229" rx="0.428114" fill="white"/>
<g clip-path="url(#clip12)">
<g clip-path="url(#clip13)">
<rect x="57.208" y="50.4407" width="27.33" height="13.5591" rx="0.856229" fill="white"/>
<g clip-path="url(#clip14)">
<rect x="59.1348" y="54.6536" width="14.9146" height="2.10643" rx="0.642172" fill="#5D999D" fill-opacity="0.8"/>
<rect x="59.1348" y="58.1643" width="10.0112" height="2.10643" rx="0.642172" fill="#5D999D" fill-opacity="0.8"/>
</g>
<path fill-rule="evenodd" clip-rule="evenodd" d="M81.5414 58.7187C82.3689 58.7187 83.0398 58.0479 83.0398 57.2203C83.0398 56.3928 82.3689 55.7219 81.5414 55.7219C80.7138 55.7219 80.043 56.3928 80.043 57.2203C80.043 58.0479 80.7138 58.7187 81.5414 58.7187Z" fill="#5D999D" fill-opacity="0.8"/>
<path fill-rule="evenodd" clip-rule="evenodd" d="M81.5416 57.8625C81.8962 57.8625 82.1838 57.575 82.1838 57.2203C82.1838 56.8656 81.8962 56.5781 81.5416 56.5781C81.1869 56.5781 80.8994 56.8656 80.8994 57.2203C80.8994 57.575 81.1869 57.8625 81.5416 57.8625Z" fill="#F2F2F2"/>
</g>
<g clip-path="url(#clip15)">
<rect x="57.208" y="66.564" width="27.33" height="10.9904" rx="0.856229" fill="white"/>
<g clip-path="url(#clip16)">
<rect x="65.5566" y="69.8406" width="14.9146" height="1.63833" rx="0.642172" fill="#5D999D" fill-opacity="0.8"/>
<rect x="65.5566" y="72.571" width="10.0112" height="1.63833" rx="0.642172" fill="#5D999D" fill-opacity="0.8"/>
</g>
<path fill-rule="evenodd" clip-rule="evenodd" d="M61.7035 74.6279C63.1221 74.6279 64.2721 73.4778 64.2721 72.0592C64.2721 70.6405 63.1221 69.4905 61.7035 69.4905C60.2848 69.4905 59.1348 70.6405 59.1348 72.0592C59.1348 73.4778 60.2848 74.6279 61.7035 74.6279Z" fill="#3C6F74" fill-opacity="0.5"/>
</g>
<g clip-path="url(#clip17)">
<rect x="57.208" y="79.5667" width="27.33" height="10.9904" rx="0.856229" fill="white"/>
<g clip-path="url(#clip18)">
<rect x="59.1348" y="82.8433" width="14.9146" height="1.63833" rx="0.642172" fill="#5D999D" fill-opacity="0.8"/>
<rect x="59.1348" y="85.5737" width="10.0112" height="1.63833" rx="0.642172" fill="#AFB9C5"/>
</g>
<path fill-rule="evenodd" clip-rule="evenodd" d="M81.5414 86.5603C82.3689 86.5603 83.0398 85.8894 83.0398 85.0619C83.0398 84.2343 82.3689 83.5635 81.5414 83.5635C80.7138 83.5635 80.043 84.2343 80.043 85.0619C80.043 85.8894 80.7138 86.5603 81.5414 86.5603Z" fill="#5D999D" fill-opacity="0.8"/>
<path fill-rule="evenodd" clip-rule="evenodd" d="M81.5416 85.704C81.8962 85.704 82.1838 85.4165 82.1838 85.0618C82.1838 84.7072 81.8962 84.4197 81.5416 84.4197C81.1869 84.4197 80.8994 84.7072 80.8994 85.0618C80.8994 85.4165 81.1869 85.704 81.5416 85.704Z" fill="#F2F2F2"/>
</g>
<g clip-path="url(#clip19)">
<rect x="57.208" y="92.5693" width="27.33" height="10.9904" rx="0.856229" fill="white"/>
<g clip-path="url(#clip20)">
<rect x="65.5566" y="95.8459" width="14.9146" height="1.63833" rx="0.642172" fill="#5D999D" fill-opacity="0.8"/>
<rect x="65.5566" y="98.5767" width="10.0112" height="1.63833" rx="0.642172" fill="#5D999D" fill-opacity="0.8"/>
</g>
<path fill-rule="evenodd" clip-rule="evenodd" d="M61.7035 100.633C63.1221 100.633 64.2721 99.4832 64.2721 98.0645C64.2721 96.6459 63.1221 95.4958 61.7035 95.4958C60.2848 95.4958 59.1348 96.6459 59.1348 98.0645C59.1348 99.4832 60.2848 100.633 61.7035 100.633Z" fill="#3C6F74" fill-opacity="0.5"/>
</g>
</g>
</g>
<g clip-path="url(#clip21)">
<rect x="67.5" y="48" width="83.2861" height="89.6407" rx="1.71246" fill="#F2F2F2"/>
<rect x="129.192" y="59.0608" width="17.3433" height="20.8353" rx="1.71246" fill="white"/>
<path fill-rule="evenodd" clip-rule="evenodd" d="M134.205 71.7461C136.414 71.7461 138.205 69.9552 138.205 67.7461C138.205 65.537 136.414 63.7461 134.205 63.7461C131.996 63.7461 130.205 65.537 130.205 67.7461C130.205 69.9552 131.996 71.7461 134.205 71.7461Z" fill="#259CA5" fill-opacity="0.8"/>
<rect x="131.67" y="72.1792" width="12.3881" height="1.54335" rx="0.7492" fill="#259CA5" fill-opacity="0.8"/>
<rect x="133.652" y="74.7515" width="8.42389" height="1.54335" rx="0.7492" fill="#259CA5" fill-opacity="0.8"/>
<path d="M67.5 49.7125C67.5 48.7667 68.2667 48 69.2125 48H149.074C150.019 48 150.786 48.7667 150.786 49.7125V53.7795H67.5V49.7125Z" fill="#A36633"/>
<path fill-rule="evenodd" clip-rule="evenodd" d="M70.283 51.8531C70.7559 51.8531 71.1392 51.4697 71.1392 50.9969C71.1392 50.524 70.7559 50.1406 70.283 50.1406C69.8101 50.1406 69.4268 50.524 69.4268 50.9969C69.4268 51.4697 69.8101 51.8531 70.283 51.8531Z" fill="#F2F2F2"/>
<path fill-rule="evenodd" clip-rule="evenodd" d="M72.8513 51.8531C73.3242 51.8531 73.7076 51.4697 73.7076 50.9969C73.7076 50.524 73.3242 50.1406 72.8513 50.1406C72.3785 50.1406 71.9951 50.524 71.9951 50.9969C71.9951 51.4697 72.3785 51.8531 72.8513 51.8531Z" fill="#F2F2F2"/>
<path fill-rule="evenodd" clip-rule="evenodd" d="M75.4207 51.8531C75.8936 51.8531 76.2769 51.4697 76.2769 50.9969C76.2769 50.524 75.8936 50.1406 75.4207 50.1406C74.9478 50.1406 74.5645 50.524 74.5645 50.9969C74.5645 51.4697 74.9478 51.8531 75.4207 51.8531Z" fill="#F2F2F2"/>
<g clip-path="url(#clip22)">
<rect x="129.192" y="81.9539" width="17.3433" height="49.9017" rx="1.71246" fill="white"/>
<g clip-path="url(#clip23)">
<rect x="133.046" y="85.8069" width="9.27795" height="5.56549" rx="0.856229" fill="#259CA5" fill-opacity="0.8"/>
<rect x="133.046" y="93.085" width="9.27795" height="5.35143" rx="0.856229" fill="#AFB9C5"/>
<rect x="133.046" y="100.149" width="9.27795" height="5.35143" rx="0.856229" fill="#259CA5" fill-opacity="0.8"/>
<rect x="133.046" y="114.277" width="9.27795" height="5.35143" rx="0.856229" fill="#259CA5" fill-opacity="0.8"/>
<rect x="133.046" y="107.213" width="9.27795" height="5.35143" rx="0.856229" fill="#3C6F74" fill-opacity="0.5"/>
</g>
</g>
<g clip-path="url(#clip24)">
<g clip-path="url(#clip25)">
<rect x="71.5547" y="59.5767" width="54.7398" height="12.0607" rx="0.856229" fill="white"/>
<g clip-path="url(#clip26)">
<rect x="73.4814" y="63.2866" width="42.3245" height="1.85489" rx="0.642172" fill="#259CA5" fill-opacity="0.8"/>
<rect x="73.4814" y="66.3782" width="28.4096" height="1.85489" rx="0.642172" fill="#259CA5" fill-opacity="0.8"/>
</g>
<path fill-rule="evenodd" clip-rule="evenodd" d="M118.86 67.1054C119.687 67.1054 120.358 66.4346 120.358 65.607C120.358 64.7795 119.687 64.1086 118.86 64.1086C118.032 64.1086 117.361 64.7795 117.361 65.607C117.361 66.4346 118.032 67.1054 118.86 67.1054Z" fill="#259CA5" fill-opacity="0.8"/>
<path fill-rule="evenodd" clip-rule="evenodd" d="M118.859 66.2492C119.214 66.2492 119.501 65.9617 119.501 65.607C119.501 65.2524 119.214 64.9648 118.859 64.9648C118.504 64.9648 118.217 65.2524 118.217 65.607C118.217 65.9617 118.504 66.2492 118.859 66.2492Z" fill="#F2F2F2"/>
</g>
<g clip-path="url(#clip27)">
<rect x="71.5547" y="74.0474" width="54.7398" height="10.3482" rx="0.856229" fill="white"/>
<g clip-path="url(#clip28)">
<rect x="73.4814" y="77.1257" width="42.3245" height="1.53916" rx="0.642172" fill="#259CA5" fill-opacity="0.8"/>
<rect x="73.4814" y="79.6909" width="28.4096" height="1.53916" rx="0.642172" fill="#259CA5" fill-opacity="0.8"/>
</g>
<path fill-rule="evenodd" clip-rule="evenodd" d="M118.86 80.7199C119.687 80.7199 120.358 80.0491 120.358 79.2215C120.358 78.394 119.687 77.7231 118.86 77.7231C118.032 77.7231 117.361 78.394 117.361 79.2215C117.361 80.0491 118.032 80.7199 118.86 80.7199Z" fill="#259CA5" fill-opacity="0.8"/>
<path fill-rule="evenodd" clip-rule="evenodd" d="M118.859 79.8637C119.214 79.8637 119.501 79.5762 119.501 79.2215C119.501 78.8669 119.214 78.5793 118.859 78.5793C118.504 78.5793 118.217 78.8669 118.217 79.2215C118.217 79.5762 118.504 79.8637 118.859 79.8637Z" fill="#F2F2F2"/>
</g>
<g clip-path="url(#clip29)">
<rect x="71.5547" y="86.4136" width="54.7398" height="10.3482" rx="0.856229" fill="white"/>
<g clip-path="url(#clip30)">
<rect x="73.4814" y="89.4919" width="42.3245" height="1.53916" rx="0.642172" fill="#259CA5" fill-opacity="0.8"/>
<rect x="73.4814" y="92.0571" width="28.4096" height="1.53916" rx="0.642172" fill="#259CA5" fill-opacity="0.8"/>
</g>
<path fill-rule="evenodd" clip-rule="evenodd" d="M118.86 93.0862C119.687 93.0862 120.358 92.4153 120.358 91.5878C120.358 90.7602 119.687 90.0894 118.86 90.0894C118.032 90.0894 117.361 90.7602 117.361 91.5878C117.361 92.4153 118.032 93.0862 118.86 93.0862Z" fill="#259CA5" fill-opacity="0.8"/>
<path fill-rule="evenodd" clip-rule="evenodd" d="M118.859 92.2299C119.214 92.2299 119.501 91.9424 119.501 91.5877C119.501 91.2331 119.214 90.9456 118.859 90.9456C118.504 90.9456 118.217 91.2331 118.217 91.5877C118.217 91.9424 118.504 92.2299 118.859 92.2299Z" fill="#AFB9C5"/>
</g>
<g clip-path="url(#clip31)">
<rect x="71.5547" y="123.511" width="54.7398" height="10.3482" rx="0.856229" fill="white"/>
<g clip-path="url(#clip32)">
<rect x="73.4814" y="126.59" width="42.3245" height="1.53916" rx="0.642172" fill="#259CA5" fill-opacity="0.8"/>
<rect x="73.4814" y="129.155" width="28.4096" height="1.53916" rx="0.642172" fill="#259CA5" fill-opacity="0.8"/>
</g>
<path fill-rule="evenodd" clip-rule="evenodd" d="M118.86 130.184C119.687 130.184 120.358 129.513 120.358 128.685C120.358 127.858 119.687 127.187 118.86 127.187C118.032 127.187 117.361 127.858 117.361 128.685C117.361 129.513 118.032 130.184 118.86 130.184Z" fill="#259CA5" fill-opacity="0.8"/>
<path fill-rule="evenodd" clip-rule="evenodd" d="M118.859 129.328C119.214 129.328 119.501 129.04 119.501 128.685C119.501 128.331 119.214 128.043 118.859 128.043C118.504 128.043 118.217 128.331 118.217 128.685C118.217 129.04 118.504 129.328 118.859 129.328Z" fill="#F2F2F2"/>
</g>
<g clip-path="url(#clip33)">
<rect x="71.5547" y="111.145" width="54.7398" height="10.3482" rx="0.856229" fill="white"/>
<g clip-path="url(#clip34)">
<rect x="73.4814" y="114.224" width="42.3245" height="1.53916" rx="0.642172" fill="#259CA5" fill-opacity="0.8"/>
<rect x="73.4814" y="116.789" width="28.4096" height="1.53916" rx="0.642172" fill="#259CA5" fill-opacity="0.8"/>
</g>
<path fill-rule="evenodd" clip-rule="evenodd" d="M118.86 117.818C119.687 117.818 120.358 117.147 120.358 116.319C120.358 115.492 119.687 114.821 118.86 114.821C118.032 114.821 117.361 115.492 117.361 116.319C117.361 117.147 118.032 117.818 118.86 117.818Z" fill="#259CA5" fill-opacity="0.8"/>
<path fill-rule="evenodd" clip-rule="evenodd" d="M118.859 116.962C119.214 116.962 119.501 116.674 119.501 116.319C119.501 115.965 119.214 115.677 118.859 115.677C118.504 115.677 118.217 115.965 118.217 116.319C118.217 116.674 118.504 116.962 118.859 116.962Z" fill="#F2F2F2"/>
</g>
<g clip-path="url(#clip35)">
<rect x="71.5547" y="98.7793" width="54.7398" height="10.3482" rx="0.856229" fill="white"/>
<g clip-path="url(#clip36)">
<rect x="73.4814" y="101.858" width="42.3245" height="1.53916" rx="0.642172" fill="#259CA5" fill-opacity="0.8"/>
<rect x="73.4814" y="104.423" width="28.4096" height="1.53916" rx="0.642172" fill="#259CA5" fill-opacity="0.8"/>
</g>
<path fill-rule="evenodd" clip-rule="evenodd" d="M118.86 105.452C119.687 105.452 120.358 104.781 120.358 103.953C120.358 103.126 119.687 102.455 118.86 102.455C118.032 102.455 117.361 103.126 117.361 103.953C117.361 104.781 118.032 105.452 118.86 105.452Z" fill="#259CA5" fill-opacity="0.8"/>
<path fill-rule="evenodd" clip-rule="evenodd" d="M118.859 104.596C119.214 104.596 119.501 104.308 119.501 103.953C119.501 103.599 119.214 103.311 118.859 103.311C118.504 103.311 118.217 103.599 118.217 103.953C118.217 104.308 118.504 104.596 118.859 104.596Z" fill="#F2F2F2"/>
</g>
</g>
</g>
<path fill-rule="evenodd" clip-rule="evenodd" d="M166.762 94.6353C165.807 93.8489 164.538 93.6428 163.395 93.6428C158.934 93.6428 154.74 95.6539 151.117 98.6506C149.132 100.293 147.356 102.383 145.788 104.561C144.883 105.817 144.076 107.177 143.504 108.689C143.119 109.709 142.854 110.773 142.675 111.869C142.456 113.206 142.283 114.57 142.204 115.929C142.173 116.464 141.917 119.303 142.65 119.351C142.645 119.421 142.644 119.488 142.649 119.548C141.059 122.569 140.076 126.109 139.165 129.465C138.373 132.386 137.666 135.331 137.208 138.353C136.604 142.331 136.208 146.368 136.019 150.403C135.978 151.271 135.951 152.138 135.927 153.007C135.906 153.747 135.886 154.488 135.866 155.229C135.844 156.059 135.723 157.014 135.832 157.839C135.926 158.558 136.438 158.449 136.461 157.734C136.488 156.871 136.484 156.005 136.515 155.141C136.556 153.994 136.599 152.847 136.645 151.7C136.967 143.735 138.173 135.886 140.4 128.362C141.301 125.317 142.334 122.435 143.661 119.618C144.828 117.141 146.232 114.744 147.666 112.511C149.061 110.341 150.51 108.221 152.219 106.383C153.605 104.891 155.131 103.591 156.698 102.382C158.69 100.846 160.677 99.3472 162.834 98.1681C163.955 97.5552 165.097 97.0066 166.227 96.4185C166.431 96.3127 166.649 96.2101 166.844 96.0876C167.496 95.6789 167.282 95.0635 166.762 94.6353Z" fill="#A26638"/>
<path fill-rule="evenodd" clip-rule="evenodd" d="M148.812 122.457C150.622 122.457 152.232 122.742 153.9 123.616C155.339 124.37 156.651 125.368 157.924 126.455C159.715 127.984 161.126 129.763 162.114 132.12C162.704 133.528 163.137 135.52 162.741 137.056C162.274 138.865 160.992 140.374 159.304 140.055C158.26 139.858 157.304 139.019 156.51 138.229C155.561 137.284 154.802 136.147 154.174 134.885C153.151 132.826 152.55 130.499 151.68 128.347C151.268 127.326 150.869 126.297 150.375 125.327C150.131 124.846 149.87 124.37 149.499 124.013C149.301 123.822 148.464 123.492 148.784 123.063C144.091 123.138 139.934 127.516 139.033 132.936C138.949 133.441 138.883 133.95 138.814 134.459C138.77 134.78 138.788 135.963 138.552 136.168C138.031 136.62 138.25 135.246 138.272 135.049C138.33 134.537 138.392 134.026 138.456 133.517C138.808 130.743 139.825 128.164 141.52 126.186C143.458 123.924 146.074 122.457 148.812 122.457Z" fill="#D0A584"/>
<path fill-rule="evenodd" clip-rule="evenodd" d="M35.8202 85.6266C40.3378 94.834 45.5994 103.749 48.7591 113.816C48.6318 112.63 48.4968 111.444 48.3457 110.261C47.5439 103.986 46.5475 97.7572 45.5004 91.536C44.9672 88.3684 44.4032 85.2124 43.8248 82.0566C43.5137 80.3616 43.2064 78.6656 42.8889 76.9723C42.812 76.5618 42.7459 75.8454 42.6496 75.1194C45.7204 87.3614 48.6817 99.6127 50.8477 112.149C51.1319 113.794 51.3739 115.437 51.5721 117.076C51.6399 116.702 51.7066 116.328 51.7796 115.955C52.656 111.484 53.9707 107.048 55.5361 102.867C56.2844 100.868 57.144 98.9126 58.156 97.0904C58.7871 95.9546 60.2755 94.6044 60.8512 93.4412C57.7026 100.457 56.5657 109.235 54.7477 116.863C54.304 118.724 53.8575 120.582 53.42 122.444C56.1616 115.764 60.4153 110.276 66.3294 107.898C59.1706 113.644 54.8766 123.708 51.9831 134C51.9736 134.122 51.9623 134.244 51.9525 134.366C52.8039 132.403 53.8764 130.627 55.3301 129.384C58.4412 126.721 61.8925 127.497 64.9105 129.781C62.5419 127.952 58.2612 129.617 56.2683 131.476C54.8415 132.807 53.6222 134.593 52.5634 136.334C52.3097 136.752 51.9636 137.239 51.5979 137.759C51.0852 141.802 50.2497 145.817 49.0669 149.801C49.2621 148.657 49.121 146.829 49.1751 145.976C49.181 145.884 49.1858 145.792 49.1916 145.7C49.0118 146.572 48.8381 147.434 48.6708 148.283C49.0033 146.664 49.184 144.974 49.3251 143.266C49.3614 142.533 49.3968 141.799 49.4343 141.065C49.4224 139.673 49.3752 138.275 49.2954 136.874C49.0122 135.514 48.6952 134.23 48.4338 133.162C47.4904 129.311 46.1074 125.62 44.4053 122.178C42.8522 119.036 40.9932 116.19 38.8471 113.617C37.6901 112.23 36.4793 110.909 35.2856 109.57C34.8539 109.086 34.0823 107.895 33.415 107.274C38.2749 110.529 43.277 114.051 46.8222 119.295C46.4066 117.356 45.9551 115.445 45.4776 113.571C43.0549 104.067 39.9958 94.2168 35.8202 85.6266Z" fill="#259CA5" fill-opacity="0.8"/>
<path fill-rule="evenodd" clip-rule="evenodd" d="M40.6748 137.746C40.6748 148.301 41.3628 156.857 50.5975 156.857C59.8322 156.857 60.5202 148.301 60.5202 137.746" fill="#A36633"/>
<rect x="126.107" y="31.8984" width="1.45212" height="7.35053" rx="0.726059" fill="#259CA5" fill-opacity="0.8"/>
<rect x="129.496" y="27.1941" width="1.4521" height="12.0549" rx="0.726051" fill="#259CA5" fill-opacity="0.8"/>
<rect x="132.884" y="24.842" width="1.45212" height="14.407" rx="0.726059" fill="#259CA5" fill-opacity="0.8"/>
<rect x="136.272" y="27.1941" width="1.45209" height="12.0549" rx="0.726044" fill="#259CA5" fill-opacity="0.8"/>
<rect x="139.66" y="22.4897" width="1.45212" height="16.7592" rx="0.726059" fill="#3C6F74" fill-opacity="0.5"/>
<path fill-rule="evenodd" clip-rule="evenodd" d="M9.84929 114.407C9.84929 110.856 12.7188 107.95 16.2246 107.95V114.407L11.8677 119.106C10.6284 117.957 9.84929 116.272 9.84929 114.407Z" fill="#F2F2F2"/>
<path fill-rule="evenodd" clip-rule="evenodd" d="M16.056 114.325H22.4941C22.4941 115.989 21.8152 117.548 20.742 118.682C19.5615 119.921 17.8805 120.7 16.056 120.7C14.3753 120.7 12.8369 120.028 11.6561 118.965L16.056 114.325Z" fill="#AFB9C5"/>
<path fill-rule="evenodd" clip-rule="evenodd" d="M22.5996 114.325C22.5996 110.819 19.7301 107.95 16.2243 107.95V114.325H22.5996ZM13.0375 107.95L15.5877 113.687L9.84989 111.137C10.4173 109.65 11.6914 108.517 13.0375 107.95Z" fill="#3C6F74" fill-opacity="0.5"/>
<path fill-rule="evenodd" clip-rule="evenodd" d="M166.092 114.762C165.548 115.34 164.776 115.702 163.919 115.702C162.27 115.702 160.934 114.371 160.934 112.727C160.934 111.084 162.27 109.753 163.919 109.753V104.228C159.23 104.228 155.392 108.053 155.392 112.727C155.392 117.402 159.23 121.227 163.919 121.227C166.382 121.227 168.607 120.189 170.125 118.536L166.092 114.762Z" fill="#F2F2F2"/>
<path fill-rule="evenodd" clip-rule="evenodd" d="M163.892 104.228V109.753C165.535 109.753 166.867 111.084 166.867 112.728H172.392C172.392 108.053 168.566 104.228 163.892 104.228Z" fill="#AFB9C5"/>
<path fill-rule="evenodd" clip-rule="evenodd" d="M166.752 112.728C166.752 113.693 166.297 114.551 165.591 115.105L169.065 119.528C171.087 117.944 172.391 115.49 172.391 112.728H166.752Z" fill="#3C6F74" fill-opacity="0.5"/>
<path fill-rule="evenodd" clip-rule="evenodd" d="M119.186 34.5001C118.64 35.0781 117.866 35.441 117.005 35.441C115.352 35.441 114.011 34.1091 114.011 32.466C114.011 30.823 115.352 29.491 117.005 29.491V23.9661C112.301 23.9661 108.45 27.7919 108.45 32.466C108.45 37.1402 112.301 40.966 117.005 40.966C119.477 40.966 121.71 39.9273 123.232 38.2749L119.186 34.5001Z" fill="#F2F2F2"/>
<path fill-rule="evenodd" clip-rule="evenodd" d="M116.949 23.9661V29.491C118.592 29.491 119.924 30.823 119.924 32.466H125.449C125.449 27.7919 121.623 23.9661 116.949 23.9661Z" fill="#AFB9C5"/>
<path fill-rule="evenodd" clip-rule="evenodd" d="M119.934 32.4661C119.934 33.4104 119.49 34.2498 118.799 34.7918L122.197 39.1182C124.176 37.5693 125.451 35.1683 125.451 32.4661H119.934Z" fill="#3C6F74" fill-opacity="0.5"/>
<path fill-rule="evenodd" clip-rule="evenodd" d="M30.7182 35.0878C30.7167 35.0915 30.7152 35.0951 30.7129 35.0995C30.7152 35.0958 30.7182 35.0813 30.7182 35.0878Z" fill="#3C6F74" fill-opacity="0.5"/>
<path fill-rule="evenodd" clip-rule="evenodd" d="M30.7147 35.0933C30.7147 35.0941 30.7139 35.0955 30.7139 35.097C30.7139 35.0933 30.7208 35.0824 30.7147 35.0933Z" fill="#3C6F74" fill-opacity="0.5"/>
<path fill-rule="evenodd" clip-rule="evenodd" d="M30.7412 35.0317C30.7358 35.0463 30.729 35.0601 30.7229 35.0747C30.7259 35.0674 30.729 35.0616 30.732 35.0543C30.6526 35.2437 30.703 35.1206 30.7412 35.0317Z" fill="#3C6F74" fill-opacity="0.5"/>
<path fill-rule="evenodd" clip-rule="evenodd" d="M30.7241 35.0756C30.721 35.0821 30.718 35.0894 30.7149 35.096C30.6928 35.1368 30.7241 35.0756 30.7241 35.0756Z" fill="#3C6F74" fill-opacity="0.5"/>
<path fill-rule="evenodd" clip-rule="evenodd" d="M30.7152 35.0935C30.7152 35.0928 30.7152 35.0928 30.7159 35.0921C30.7152 35.0928 30.7152 35.0928 30.7152 35.0935Z" fill="#3C6F74" fill-opacity="0.5"/>
<path fill-rule="evenodd" clip-rule="evenodd" d="M30.7115 35.0988C30.707 35.1075 30.7329 35.0652 30.7115 35.0988V35.0988Z" fill="#3C6F74" fill-opacity="0.5"/>
<path fill-rule="evenodd" clip-rule="evenodd" d="M30.7148 35.0935L30.7163 35.0921C30.7156 35.0928 30.7156 35.0935 30.7148 35.0935Z" fill="#3C6F74" fill-opacity="0.5"/>
<rect x="12.4004" y="16.1499" width="36.2491" height="22.95" rx="0.856229" fill="#259CA5" fill-opacity="0.8"/>
<path fill-rule="evenodd" clip-rule="evenodd" d="M26.1371 22.707L15.4531 39.0999H36.821L26.1371 22.707Z" fill="#AFB9C5"/>
<path fill-rule="evenodd" clip-rule="evenodd" d="M36.6297 27.0784L27.2812 39.0998H45.9782L36.6297 27.0784Z" fill="#3C6F74" fill-opacity="0.5"/>
<path fill-rule="evenodd" clip-rule="evenodd" d="M40.6363 27.0784C42.5329 27.0784 44.0704 25.6105 44.0704 23.7998C44.0704 21.9891 42.5329 20.5212 40.6363 20.5212C38.7397 20.5212 37.2021 21.9891 37.2021 23.7998C37.2021 25.6105 38.7397 27.0784 40.6363 27.0784Z" fill="white"/>
<defs>
<clipPath id="clip0">
<rect width="128.822" height="48.2618" fill="white" transform="translate(25.2725 110.733)"/>
</clipPath>
<clipPath id="clip1">
<rect width="38.4808" height="88.7944" fill="white" transform="translate(33.6562 29.5461)"/>
</clipPath>
<clipPath id="clip2">
<rect width="31.6061" height="61.3513" fill="white" transform="translate(37.1211 37.9668)"/>
</clipPath>
<clipPath id="clip3">
<rect width="31.6061" height="16.24" fill="white" transform="translate(37.1211 37.9668)"/>
</clipPath>
<clipPath id="clip4">
<rect width="19.9146" height="6.49602" fill="white" transform="translate(45.4697 42.8389)"/>
</clipPath>
<clipPath id="clip5">
<rect width="31.6061" height="12.6311" fill="white" transform="translate(37.1211 56.6128)"/>
</clipPath>
<clipPath id="clip6">
<rect width="19.9146" height="5.05246" fill="white" transform="translate(45.4697 60.4021)"/>
</clipPath>
<clipPath id="clip7">
<rect width="31.6061" height="12.6311" fill="white" transform="translate(37.1211 71.6499)"/>
</clipPath>
<clipPath id="clip8">
<rect width="19.9146" height="5.05246" fill="white" transform="translate(45.4697 75.4392)"/>
</clipPath>
<clipPath id="clip9">
<rect width="31.6061" height="12.6311" fill="white" transform="translate(37.1211 86.687)"/>
</clipPath>
<clipPath id="clip10">
<rect width="19.9146" height="5.05246" fill="white" transform="translate(45.4697 90.4763)"/>
</clipPath>
<clipPath id="clip11">
<rect width="43.3197" height="76.781" fill="white" transform="translate(43.9375 43.1592)"/>
</clipPath>
<clipPath id="clip12">
<rect width="27.33" height="53.0508" fill="white" transform="translate(57.208 50.4407)"/>
</clipPath>
<clipPath id="clip13">
<rect width="27.33" height="14.0429" fill="white" transform="translate(57.208 50.4407)"/>
</clipPath>
<clipPath id="clip14">
<rect width="14.9146" height="5.61714" fill="white" transform="translate(59.1348 54.6536)"/>
</clipPath>
<clipPath id="clip15">
<rect width="27.33" height="10.9222" fill="white" transform="translate(57.208 66.564)"/>
</clipPath>
<clipPath id="clip16">
<rect width="14.9146" height="4.36889" fill="white" transform="translate(65.5566 69.8406)"/>
</clipPath>
<clipPath id="clip17">
<rect width="27.33" height="10.9222" fill="white" transform="translate(57.208 79.5667)"/>
</clipPath>
<clipPath id="clip18">
<rect width="14.9146" height="4.36889" fill="white" transform="translate(59.1348 82.8433)"/>
</clipPath>
<clipPath id="clip19">
<rect width="27.33" height="10.9222" fill="white" transform="translate(57.208 92.5693)"/>
</clipPath>
<clipPath id="clip20">
<rect width="14.9146" height="4.36889" fill="white" transform="translate(65.5566 95.8459)"/>
</clipPath>
<clipPath id="clip21">
<rect width="83" height="89" fill="white" transform="translate(67.5 48)"/>
</clipPath>
<clipPath id="clip22">
<rect width="17.3433" height="49.9017" fill="white" transform="translate(129.192 81.9539)"/>
</clipPath>
<clipPath id="clip23">
<rect width="9.27795" height="33.821" fill="white" transform="translate(133.046 85.8069)"/>
</clipPath>
<clipPath id="clip24">
<rect width="55.3357" height="74.1956" fill="white" transform="translate(71.5547 59.5767)"/>
</clipPath>
<clipPath id="clip25">
<rect width="55.3357" height="12.3659" fill="white" transform="translate(71.5547 59.5767)"/>
</clipPath>
<clipPath id="clip26">
<rect width="42.3245" height="4.94637" fill="white" transform="translate(73.4814 63.2866)"/>
</clipPath>
<clipPath id="clip27">
<rect width="55.3357" height="10.2611" fill="white" transform="translate(71.5547 74.0474)"/>
</clipPath>
<clipPath id="clip28">
<rect width="42.3245" height="4.10444" fill="white" transform="translate(73.4814 77.1257)"/>
</clipPath>
<clipPath id="clip29">
<rect width="55.3357" height="10.2611" fill="white" transform="translate(71.5547 86.4136)"/>
</clipPath>
<clipPath id="clip30">
<rect width="42.3245" height="4.10443" fill="white" transform="translate(73.4814 89.4919)"/>
</clipPath>
<clipPath id="clip31">
<rect width="55.3357" height="10.2611" fill="white" transform="translate(71.5547 123.511)"/>
</clipPath>
<clipPath id="clip32">
<rect width="42.3245" height="4.10444" fill="white" transform="translate(73.4814 126.59)"/>
</clipPath>
<clipPath id="clip33">
<rect width="55.3357" height="10.2611" fill="white" transform="translate(71.5547 111.145)"/>
</clipPath>
<clipPath id="clip34">
<rect width="42.3245" height="4.10444" fill="white" transform="translate(73.4814 114.224)"/>
</clipPath>
<clipPath id="clip35">
<rect width="55.3357" height="10.2611" fill="white" transform="translate(71.5547 98.7793)"/>
</clipPath>
<clipPath id="clip36">
<rect width="42.3245" height="4.10444" fill="white" transform="translate(73.4814 101.858)"/>
</clipPath>
</defs>
</svg>
