<svg width="1440" height="127" viewBox="0 0 1440 127" fill="none" xmlns="http://www.w3.org/2000/svg">
<g clip-path="url(#clip0)">
<rect width="1440" height="127" fill="white"/>
<path fill-rule="evenodd" clip-rule="evenodd" d="M176.086 109.022C189.912 80.6808 259.331 113.855 309.342 115.169C359.354 116.483 425.605 85.8875 458.516 115.275C491.427 144.661 440.219 186.89 351.53 179.428C262.841 171.965 162.26 137.363 176.086 109.022Z" fill="#F2F2F2"/>
<g opacity="0.7">
<path opacity="0.7" fill-rule="evenodd" clip-rule="evenodd" d="M824.498 -23.6333C789.921 -21.992 767.723 -8.34275 757.39 10.7481C751.821 21.0357 751.181 31.6044 748.086 42.1776C743.432 58.0836 733.414 70.1386 713.837 81.4712C707.773 84.9805 703.304 88.5841 700.129 92.4396C693.823 96.2887 688.334 100.645 684.301 105.97C679.15 112.771 677.692 120.932 683.639 127.712C685.239 129.535 689.228 133.194 693.362 134.856C677.883 154.578 669.371 176.178 670.33 197.75C670.911 210.771 671.973 223.799 673.214 236.804C673.547 240.296 675.448 246.063 678.303 240.207C680.916 234.849 677.639 226.44 677.336 220.844C675.86 193.581 674.6 168.792 693.359 143.321C695.327 140.651 697.414 138.002 699.585 135.376C699.713 135.331 699.832 135.278 699.951 135.226C700.033 135.264 700.109 135.305 700.192 135.343C700.33 135.195 700.521 135.019 700.742 134.822C701.365 134.437 701.909 133.951 702.427 133.409C704.09 132.03 705.974 130.408 705.984 129.521C705.984 129.515 705.978 129.504 705.978 129.496C717.591 118.156 730.893 107.44 744.48 96.9331C744.379 97.0102 759.219 84.9225 756.925 91.6067C755.819 94.8287 744.903 100.963 740.494 104.375C730.742 111.965 719.289 121.584 709.773 130.885C708.493 131.325 706.684 133.486 705.375 135.097C704.653 135.912 703.978 136.734 703.316 137.451C737.037 144.115 763.267 130.691 781.153 115.077C781.175 115.058 781.194 115.039 781.214 115.021C786.658 110.707 792.233 106.422 799.199 103.012C810.82 97.3201 823.266 96.3159 836.968 93.5154C874.335 85.8778 890.222 56.908 895.267 35.4128C900.961 11.1622 873.114 -26.0242 824.498 -23.6333Z" fill="#89C5CC"/>
</g>
<g opacity="0.7">
<path opacity="0.7" fill-rule="evenodd" clip-rule="evenodd" d="M608.075 44.6058C603.333 52.7059 593.227 59.9904 585.571 56.2438C580.008 53.5218 574.975 50.0094 569.204 47.6263C564.592 45.7224 559.602 44.7678 554.438 44.5255C549.473 44.2925 543.593 46.658 539.004 45.3C536.079 44.435 532.879 41.8007 531.115 39.2555C528.969 36.1604 528.786 36.952 524.778 37.7784C516.924 39.3977 509.25 40.4685 501.568 39.7705C490.501 38.7651 478.999 35.368 470.978 27.9208C469.959 26.9749 465.988 24.071 466.929 21.9775C467.98 19.6392 469.698 22.1577 470.388 22.7632C474.786 26.6249 478.623 30.0112 484.129 32.3229C505.37 41.2433 528.552 32.8718 551.649 32.5804C552.864 32.5291 555.654 32.5657 557.522 32.5454C560.473 32.5137 565.297 33.6793 568.024 32.8194C573.161 31.1999 565.284 30.6551 563.737 30.6181C561.78 30.5715 559.679 30.5535 557.883 30.6404C549.587 30.9883 540.468 31.4675 531.912 31.8336C540.1 11.6679 566.205 10.5796 581.112 13.3625C593.393 15.6549 619.183 25.5519 608.075 44.6058Z" fill="#69A1AC"/>
<path opacity="0.7" fill-rule="evenodd" clip-rule="evenodd" d="M558.012 161.88C565.639 148.145 563.873 135.031 556.314 124.583C552.24 118.952 546.807 115.104 541.975 110.318C534.705 103.12 530.79 95.1916 529.605 83.8666C529.238 80.3594 528.43 77.4273 527.171 74.9024C526.684 71.1868 525.729 67.6097 523.903 64.2566C521.571 59.9742 517.613 56.6356 512.565 56.5891C511.208 56.5768 508.292 56.849 506.397 57.8575C499.768 45.2331 490.434 34.6231 478.788 27.6311C471.758 23.4113 464.606 19.3729 457.422 15.41C455.493 14.346 451.975 13.1037 454.372 16.1887C456.563 19.0117 461.817 20.6312 464.851 22.4242C479.635 31.1602 493.056 39.1343 501.921 54.9696C502.849 56.6302 503.738 58.3283 504.594 60.0514C504.585 60.1156 504.585 60.1789 504.583 60.2421C504.542 60.2603 504.502 60.2753 504.462 60.294C504.506 60.3973 504.552 60.53 504.602 60.6813C504.653 61.05 504.776 61.4229 504.936 61.8052C505.257 62.9095 505.652 64.1801 506.118 64.4868C506.122 64.4889 506.129 64.4904 506.133 64.4928C509.278 72.7857 511.678 81.509 513.898 90.2697C513.882 90.2048 516.63 99.982 513.658 96.8283C512.225 95.308 511.662 89.0565 510.941 86.2128C509.322 79.9079 507.048 72.2635 504.466 65.4654C504.547 64.8273 503.849 63.4012 503.319 62.3531C503.065 61.7995 502.796 61.2622 502.579 60.7654C490.769 71.3416 491.426 85.9149 495.29 98.0558C495.295 98.0704 495.3 98.0844 495.305 98.0981C496.25 101.644 497.146 105.229 497.238 109.047C497.394 115.416 494.867 120.501 492.982 126.677C487.842 143.521 499.262 159.455 509.393 168.708C520.821 179.149 547.333 181.22 558.012 161.88Z" fill="#89C5CC"/>
<path opacity="0.7" fill-rule="evenodd" clip-rule="evenodd" d="M610.715 159.015C607.748 137.957 595.75 120.971 583.845 105.973C570.549 89.2203 555.727 74.2598 538.125 62.7028C526.56 55.1102 515.106 47.1857 502.966 40.5153C498.655 38.1458 494.203 35.9769 489.616 34.1333C489.238 33.9822 478.993 29.8695 480.029 32.9234C480.618 34.6601 490.644 37.2111 492.151 37.888C500.642 41.6994 508.608 46.449 516.36 51.5282C529.124 59.8913 542.175 67.6626 553.943 77.466C555.701 78.9295 557.585 80.406 559.1 82.1549C560.71 84.014 560.32 82.717 559.889 85.1109C559.47 87.4371 557.9 89.6328 557.631 92.1532C556.565 102.15 563.838 112.304 568.305 119.439C573.413 127.598 579.877 134.723 586.509 141.361C591.382 146.237 596.446 150.742 601.862 154.936C603.569 156.258 605.454 157.486 606.955 159.06C607.36 159.485 607.836 160.609 608.274 160.862C609.202 161.397 610.151 161.085 610.941 161.518C610.883 160.679 610.808 159.845 610.715 159.015Z" fill="#89C5CC"/>
<path opacity="0.7" fill-rule="evenodd" clip-rule="evenodd" d="M502.543 -15.1206C483.215 -27.5829 455.381 -18.8175 440.374 4.45753C425.366 27.7326 428.869 56.7031 448.197 69.1654" fill="#89C5CC"/>
<path opacity="0.7" fill-rule="evenodd" clip-rule="evenodd" d="M487.389 75.6604C481.302 86.5022 466.805 93.6443 456.289 93.987C447.811 94.263 440.553 88.6155 435.939 82.0943C432.851 77.7281 429.266 70.2332 433.145 64.0903C437.998 56.4048 446.076 61.0916 450.754 63.8989C456.974 67.6317 462.88 70.127 470.762 67.0229C471.734 66.6398 472.697 66.1998 473.66 65.7605C474.515 65.3702 475.369 64.9802 476.231 64.6293C476.368 64.5735 476.507 64.5162 476.645 64.4598C479.39 63.3353 482.273 62.1546 484.794 63.4098C488.447 65.2289 487.567 67.9412 484.653 71.0706C484.558 71.1716 484.261 71.4189 483.857 71.7547C482.123 73.1951 478.423 76.2676 480.344 76.4738C481.068 76.5514 482.148 75.8281 483.289 74.7713C485.696 71.6864 488.559 68.0006 489.078 66.7449C494.685 53.2007 483.786 39.4914 475.735 32.5264C474.866 31.775 473.977 31.0473 473.078 30.332L474.514 28.1054C476.734 29.7559 478.919 31.453 480.912 33.3994C488.535 40.8437 497.821 54.7386 491.346 67.9073C491.107 68.3933 490.045 70.0618 488.648 72.0121C488.476 73.252 488.054 74.4939 487.389 75.6604Z" fill="#69A1AC"/>
</g>
<path fill-rule="evenodd" clip-rule="evenodd" d="M953.782 53.7253C957.575 49.8513 960.222 45.0312 960.008 39.515C959.394 23.6214 935.682 26.2545 930.804 34.0884C925.927 41.9223 925.737 62.2347 931.615 63.8792C933.959 64.535 939.047 63.3206 944.278 60.6153L940.289 81.7971L959.291 82.485L953.782 53.7253Z" fill="#BD9C7D"/>
<path fill-rule="evenodd" clip-rule="evenodd" d="M968.484 34.5388C969.118 33.9921 969.482 33.1921 969.8 32.4314C970.129 31.6413 970.451 30.8426 970.681 30.016C971.14 28.3645 971.213 26.4488 969.99 25.1093C969.008 24.035 967.496 23.5144 966.089 23.3622C965.152 23.2608 964.182 23.349 963.271 23.5935C962.367 23.836 961.576 24.356 960.697 24.6647C960.729 22.8682 960.469 20.9778 959.551 19.4097C958.667 17.9009 957.203 17.0192 955.51 16.7386C953.772 16.4507 952.035 16.7705 950.443 17.5046C950.044 17.6885 949.649 17.8819 949.27 18.1033C948.952 18.2887 948.62 18.5138 948.253 18.5806C947.843 18.6551 947.65 18.4283 947.396 18.1414C947.098 17.805 946.76 17.506 946.4 17.2387C944.808 16.0572 942.683 15.5181 940.768 16.1225C939.885 16.4009 939.019 16.8967 938.401 17.6007C937.851 18.2283 937.438 19.2404 936.694 19.6646C936.379 19.8447 936.17 19.5834 935.896 19.386C935.484 19.0893 935.093 18.7643 934.675 18.4751C934.089 18.0688 933.45 17.7576 932.76 17.5818C931.749 17.3245 930.34 17.3253 930.004 18.5626C929.877 19.0274 929.943 19.5317 929.961 20.0053C929.986 20.6555 930.013 21.3056 930.05 21.9553C930.078 22.4486 930.119 22.9256 930.2 23.412C930.244 23.6713 930.392 24.157 930.265 24.4105C930.106 24.7273 929.432 24.5195 929.141 24.5202C928.566 24.5216 927.986 24.5949 927.447 24.8052C927.029 24.9682 926.587 25.2142 926.397 25.6491C926.281 25.9162 926.299 26.1956 926.339 26.4762C926.387 26.813 926.312 26.988 926.254 27.324C925.496 26.9408 922.852 26.0548 922.469 27.3355C922.342 27.7619 922.579 28.2576 922.761 28.6277C923.079 29.2768 923.505 29.875 923.942 30.4466C924.854 31.639 925.956 32.6789 927.15 33.5774C925.693 34.1223 925.255 35.8694 926.459 36.9634C926.991 37.4464 927.725 37.5762 928.418 37.5716C928.672 37.5699 929.041 37.4921 929.238 37.5406C929.345 37.5666 929.457 37.6558 929.605 37.6707C930.579 37.7686 931.69 37.5884 932.652 37.4202C934.366 37.1205 936.004 36.4248 937.361 35.324C937.709 35.0417 937.994 34.8822 938.448 34.903C938.846 34.9211 939.232 35.0373 939.63 35.0612C940.681 35.1244 941.647 34.6776 942.635 34.3927C942.65 35.6295 942.977 37.0028 943.476 38.133C943.884 39.0546 944.798 39.2195 945.699 39.3317C948.578 39.6905 951.487 39.5117 954.38 39.6202C951.558 40.1109 948.656 40.2501 945.856 40.8464C944.59 41.1158 945.52 41.9414 946.036 42.509C946.887 43.4438 947.503 44.5862 947.915 45.7812C949.346 44.1606 951.806 43.1477 953.932 43.7385C956.282 44.3911 957.842 47.4496 956.248 49.5501C955.323 50.7694 953.717 51.1949 952.376 51.6846C953.371 52.725 953.566 54.2155 954.142 55.4859C954.426 56.1124 954.83 56.8237 955.507 57.063C955.758 57.1515 956.054 57.1691 956.247 57.3695C956.486 57.6176 956.535 57.8871 956.844 58.1041C958.076 58.9702 960.049 58.9783 961.205 57.9481C962.251 57.0164 962.044 55.4747 961.235 54.4624C962.598 53.9869 965.071 53.4015 964.608 51.423C967.527 51.3475 974.759 47.1843 970.967 43.8136C973.153 42.7569 975.225 40.0561 973.935 37.5625C972.942 35.6424 970.505 34.7119 968.484 34.5388Z" fill="#191847"/>
<path fill-rule="evenodd" clip-rule="evenodd" d="M923.395 96.538L896.424 81.4628C892.038 76.2207 887.678 72.1149 883.345 69.1454C882.008 68.5671 879.65 68.1609 881.733 71.9214C883.816 75.6819 885.827 79.7242 884.657 80.8172C883.487 81.9101 880.728 80.2243 879.313 82.0593C878.37 83.2827 883.108 85.4408 893.529 88.5336L912.878 106.36L923.395 96.538ZM879.925 106.86L868.079 100.219C866.603 94.1288 864.688 91.022 862.334 90.8989C860.553 90.0457 863.429 97.7783 860.022 96.9934C856.616 96.2086 848.454 90.0801 846.969 91.2106C844.771 92.8832 846.48 98.3251 848.625 101.079C852.635 106.226 856.043 108.06 864.538 110.608C868.98 111.94 873.743 114.46 878.827 118.167L879.925 106.86Z" fill="#BD9C7D"/>
<path fill-rule="evenodd" clip-rule="evenodd" d="M936.892 93.8857C927.27 93.4421 914.503 91.0756 901.102 82.447L895.317 93.4733C904.446 102.586 917.469 110.273 929.094 110.388C938.256 110.479 943.309 100.291 936.892 93.8857Z" fill="#3F7578"/>
<path fill-rule="evenodd" clip-rule="evenodd" d="M923.279 111.411C912.974 113.426 895.94 109.994 872.177 101.116C865.793 112.447 862.737 120.579 863.009 125.513C883.278 136.343 900.8 141.479 915.36 142.303C914.604 150.374 915.378 158.108 918.658 165.268C925.402 179.988 968.442 168.14 982.655 171.293C992.6 144.395 975.676 132.704 976.293 115.285C976.968 96.2092 961.658 66.2549 959.249 66.1677L937.282 65.3724C935.542 79.8967 928.86 95.7312 923.279 111.411Z" fill="#1C9FA8"/>
<g clip-path="url(#clip1)">
<path fill-rule="evenodd" clip-rule="evenodd" d="M219.386 53.1907C213.16 45.9492 204.184 42.0486 195.209 38.7974C177.739 32.4681 167.937 28.1238 156.142 12.9386C149.206 4.00766 141.964 -5.50335 130.554 -9.23626C122.246 -11.955 109.961 -11.9551 103.548 -4.68391C94.2085 7.72815 97.1371 23.6847 103.987 36.1521C112.477 51.6046 124.624 58.1562 142.292 57.5855C152.246 57.2625 159.806 59.237 167.739 64.9346C174.084 69.49 179.554 76.2597 186.6 79.8319C197.134 85.1714 207.421 85.1315 217.538 79.1338C199.892 65.7817 180.485 52.9913 159.935 44.201C157.967 43.275 147.693 40.9115 148.17 37.6837C148.696 34.1293 161.252 41.2228 161.168 41.1835C167.222 43.9294 173.092 47.0903 178.913 50.3267C178.905 50.3355 178.895 50.3429 178.887 50.3523C184.873 53.6678 190.859 57.0697 196.801 60.5662C199.244 62.0751 201.659 63.6291 204.035 65.2649C207.522 67.6653 214.828 75.5929 219.086 76.1586C219.996 76.2794 220.77 76.2328 221.439 76.063C225.309 78.6887 229.128 81.3704 232.856 84.1425C242.592 91.3829 251.769 99.5026 258.658 109.444C260.668 112.346 265.334 124.43 268.588 125.748C274.539 128.16 269.845 120.602 268.547 118.269C257.79 98.9567 242.803 85.0107 224.491 72.7664C226.051 67.0869 221.909 56.1251 219.386 53.1907Z" fill="#F2F2F2"/>
<path fill-rule="evenodd" clip-rule="evenodd" d="M81.6747 124.067C83.9211 117.259 94.0619 111.901 100.626 109.465C108.749 106.451 117.709 104.787 126.234 103.77C140.277 102.095 155.277 103.614 169.052 105.404C170.712 105.62 191.034 107.981 190.301 110.247C189.575 112.492 168.792 108.242 164.403 107.857C155.035 107.034 145.976 105.192 136.43 106.096C126.545 107.031 116.89 109.874 107.798 113.881C106.631 114.395 102.475 115.258 103.106 116.953C103.724 118.609 109.681 115.041 110.8 114.57C115.421 112.628 120.231 111.048 125.098 109.858C134.218 107.626 143.453 107.066 152.639 108.351C152.555 113.748 148.582 117.932 142.984 119C138.146 119.924 132.802 119.365 128.177 120.53C124.992 121.332 122.132 122.902 119.59 124.949C112.885 130.35 110.361 136.584 100.684 137.171C93.0975 137.631 78.4525 133.855 81.6747 124.067Z" fill="#F2F2F2"/>
<path fill-rule="evenodd" clip-rule="evenodd" d="M66.5358 75.3148L68.6023 74.4248C67.3764 71.9767 66.1084 69.5515 64.5962 67.26C58.9277 58.6705 47.8479 47.241 35.8053 50.6369C35.3608 50.7616 33.8108 51.4179 31.9828 52.3284C30.893 52.241 29.7765 52.3852 28.7009 52.771C18.7099 56.2709 11.0694 68.3458 9.71173 78.072C8.61766 85.9136 12.769 93.8041 17.9432 99.4061C21.4077 103.156 27.5276 107.995 33.2319 105.611C40.3685 102.629 37.1305 94.1674 35.1747 89.2479C32.5745 82.7074 31.0125 76.707 34.4924 69.9869C35.3037 68.4212 36.2846 66.9286 37.1147 65.3716C38.4147 62.9342 39.9067 60.3693 39.0336 57.6393C37.8294 53.8727 35.3945 54.1501 32.3939 56.2385C31.8823 56.5943 27.2668 61.4278 27.2861 59.1701C27.2918 58.4805 28.0268 57.6195 29.0558 56.7684C31.967 55.1428 35.4432 53.2143 36.5816 52.9818C48.8616 50.4693 59.6175 63.3646 64.8285 72.2566C65.4186 73.2634 65.9837 74.2853 66.5358 75.3148L66.5358 75.3148Z" fill="#F2F2F2"/>
</g>
<path opacity="0.1" d="M401.296 -48.3445C401.296 -48.3445 237.253 -29.9038 287.187 69.4138C287.187 69.4138 288.862 88.2138 309.469 93.3397C309.469 93.3397 307.465 85.6892 324.595 85.5477C330.652 85.4459 336.614 84.7055 342.359 83.3417C350.133 81.522 356.813 77.4363 361.382 71.7063V71.7063C361.382 71.7063 401.638 47.0537 398.984 -23.154C398.984 -23.154 407.621 -40.0184 405.963 -43.7044L381.887 -28.5738C381.887 -28.5738 396.562 -12.321 393.715 3.71161C393.715 3.71161 383.194 -28.1048 378.18 -26.4607C377.166 -26.1244 365.889 -17.8978 365.889 -17.8978C365.889 -17.8978 391.27 10.4266 385.984 35.0211C385.984 35.0211 379.031 -3.99446 361.537 -14.747L345.42 -1.36819C345.42 -1.36819 373.806 27.5251 369.012 55.8201C369.012 55.8201 360.175 15.1656 342.14 1.79369L328.478 17.0103C328.478 17.0103 355.56 45.6912 351.419 69.1327C351.419 69.1327 335.926 22.6597 325.603 20.7573C325.603 20.7573 314.079 35.4826 313.258 40.8674C313.258 40.8674 332.218 61.767 328.407 75.119C328.407 75.119 314.441 44.7866 310.636 45.2793C310.636 45.2793 301.71 68.446 304.404 82.837C304.404 82.837 298.721 61.7071 306.362 43.9243C306.362 43.9243 292.422 48.6396 286.465 58.7169C286.465 58.7169 284.419 43.7457 308.618 38.3369C308.618 38.3369 316.361 20.5678 319.472 19.0697C319.472 19.0697 294.475 21.3391 281.457 29.7995C281.457 29.7995 290.35 13.8568 322.918 14.9191L336.295 -0.661989C336.295 -0.661989 302.913 0.776328 290.598 7.48643C290.598 7.48643 302.63 -7.31494 340.026 -4.24735L355.658 -17.5606C355.658 -17.5606 326.613 -18.2916 310.848 -13.6069C310.848 -13.6069 325.539 -24.9528 360.313 -21.2001L372.016 -28.908C372.016 -28.908 350.837 -29.1002 344.791 -28.6601C338.746 -28.2199 337.976 -29.6514 337.976 -29.6514C350.075 -33.7771 363.506 -34.7361 376.779 -32.4219C376.779 -32.4219 402.265 -46.813 401.296 -48.3445Z" fill="#259CA4"/>
<path opacity="0.1" d="M1229.55 183.239C1229.55 183.239 1214.14 -49.0103 1068.37 12.2832C1068.37 12.2832 1041.3 12.9543 1032.56 41.4624C1032.56 41.4624 1043.67 39.3306 1042.72 63.4233C1042.45 71.9462 1043.12 80.3941 1044.68 88.5914C1046.77 99.6828 1052.18 109.439 1060.09 116.375V116.375C1060.09 116.375 1092.73 175.172 1193.58 177.732C1193.58 177.732 1217.18 191.384 1222.58 189.384L1202.5 154.185C1202.5 154.185 1178.21 173.357 1155.41 167.919C1155.41 167.919 1201.74 155.98 1199.72 148.784C1199.31 147.329 1188.27 130.74 1188.27 130.74C1188.27 130.74 1145.95 163.88 1111.04 154.245C1111.04 154.245 1167.45 147.967 1184.05 124.339L1165.95 100.485C1165.95 100.485 1122.61 137.798 1082.36 128.525C1082.36 128.525 1141.25 119.744 1161.63 95.59L1140.73 75.0222C1140.73 75.0222 1097.78 110.522 1064.45 102.601C1064.45 102.601 1132.13 84.9853 1135.55 70.6445C1135.55 70.6445 1115.21 53.1268 1107.55 51.4901C1107.55 51.4901 1076.3 76.27 1057.41 69.7166C1057.41 69.7166 1101.85 52.8022 1101.4 47.4089C1101.4 47.4089 1068.78 32.7856 1047.96 35.2829C1047.96 35.2829 1078.64 29.1874 1103.63 41.5221C1103.63 41.5221 1097.8 21.5044 1083.76 12.2265C1083.76 12.2265 1105.36 10.6921 1111.49 45.1946C1111.49 45.1946 1136.45 57.6701 1138.39 62.1783C1138.39 62.1783 1136.81 26.8357 1125.56 7.77871C1125.56 7.77871 1147.82 21.7083 1144.11 67.3946L1165.55 87.5942C1165.55 87.5942 1165.73 40.5399 1156.94 22.6272C1156.94 22.6272 1177.35 40.8677 1170.44 93.1602L1188.48 116.327C1188.48 116.327 1191.48 75.5631 1185.82 52.9823C1185.82 52.9823 1201.1 74.6511 1193.38 123.197L1203.65 140.339C1203.65 140.339 1205.35 110.584 1205.12 102.046C1204.9 93.5082 1207 92.5546 1207 92.5546C1212.11 109.933 1212.58 128.899 1208.37 147.349C1208.37 147.349 1227.29 184.465 1229.55 183.239Z" fill="#259CA4"/>
<g clip-path="url(#clip2)">
<path fill-rule="evenodd" clip-rule="evenodd" d="M369.389 76.6552L398.237 77.0792C400.454 77.1117 402.227 78.7556 402.198 80.7509L401.892 101.524C401.863 103.52 400.042 105.111 397.826 105.078L368.977 104.654C366.76 104.622 364.987 102.978 365.017 100.983L365.322 80.209C365.351 78.2137 367.172 76.6226 369.389 76.6552ZM373.309 83.0365C372.755 83.0284 372.3 83.4262 372.293 83.925L372.094 97.473C372.086 97.9718 372.53 98.3828 373.084 98.3909L393.905 98.6969C394.459 98.705 394.914 98.3073 394.922 97.8085L395.121 84.2605C395.128 83.7617 394.685 83.3507 394.131 83.3426L373.309 83.0365Z" fill="#C5CFD6"/>
<g clip-path="url(#clip3)">
<path fill-rule="evenodd" clip-rule="evenodd" d="M411.808 101.369C408.682 95.3652 406.433 90.1439 405.54 87.3935C404.012 82.684 402.857 78.5428 402.573 76.9985C401.894 73.3157 408.264 73.1955 409.079 75.0327C410.312 77.8135 412.403 86.9213 414.873 100.668L411.808 101.369ZM374.8 82.1268C377.764 81.194 388.136 78.2911 393.129 77.5002C394.564 77.2729 395.955 77.0626 397.262 76.8732C401.148 76.3105 403.071 82.1964 399.33 82.5915C390.015 83.5755 376.816 84.539 375.686 84.6522C374.102 84.811 372.938 82.713 374.8 82.1268Z" fill="#E2AE7D"/>
<path fill-rule="evenodd" clip-rule="evenodd" d="M399.665 75.2965L383.814 68.2625L383.836 66.7822L385.733 66.8101C401.117 70.3298 408.971 72.5559 409.297 73.4886C409.301 73.4986 409.304 73.5087 409.307 73.5187C409.315 73.5274 409.322 73.5361 409.329 73.5448C412.336 77.1118 413.915 94.3337 414.497 95.6301L408.626 96.276C406.486 89.2821 399.385 84.3273 399.698 75.993C399.651 75.7477 399.641 75.5156 399.665 75.2965Z" fill="#0D9A8A"/>
<path fill-rule="evenodd" clip-rule="evenodd" d="M384.98 79.1197C383.524 78.8536 382.183 78.6155 381.036 78.4297C373.623 77.2294 371.506 73.8677 372.893 66.6213L386.581 66.8225C388.809 67.3931 400.368 71.6442 406.365 73.9031C410.334 75.3981 409 80.5577 406.721 81.872C406.707 81.9545 406.666 82.0101 406.593 82.0341C394.376 86.0741 384.793 83.7193 381.57 84.3793L380.142 80.4328L384.98 79.1197Z" fill="#1FA898"/>
<path fill-rule="evenodd" clip-rule="evenodd" d="M375.611 81.4723C374.852 81.4987 374.316 81.5722 374.002 81.6927C373.62 81.8392 373.096 82.1111 372.43 82.5083C372.666 82.9125 374.779 86.5458 378.772 93.4081C379.963 93.2976 380.423 92.9216 380.149 92.2799C379.876 91.6383 379.655 91.103 379.486 90.674L379.015 84.6583C379.006 84.5426 378.891 84.4467 378.759 84.4442C378.757 84.4442 378.755 84.4442 378.753 84.4442L377.697 84.4507C377.079 83.9966 376.668 83.5929 376.462 83.2397C376.295 82.9527 376.192 82.5077 376.152 81.9046L376.152 81.9046C376.136 81.6731 375.909 81.4795 375.645 81.4722C375.634 81.4718 375.622 81.4719 375.611 81.4723Z" fill="#E4E4E4"/>
<path fill-rule="evenodd" clip-rule="evenodd" d="M410.362 100.243C410.072 100.866 409.925 101.334 409.92 101.645C409.914 102.024 409.982 102.578 410.122 103.307C410.647 103.314 415.363 103.384 424.27 103.515C424.653 102.502 424.449 101.95 423.658 101.857C422.867 101.764 422.21 101.681 421.687 101.608L415.147 99.0564C415.021 99.0073 414.872 99.0527 414.814 99.1579C414.813 99.1597 414.812 99.1615 414.811 99.1633L414.376 100.016C413.638 100.291 413.04 100.426 412.582 100.419C412.209 100.414 411.697 100.28 411.044 100.019L411.044 100.019C410.794 99.9182 410.494 100.006 410.376 100.216C410.371 100.225 410.366 100.234 410.362 100.243Z" fill="#E4E4E4"/>
</g>
<g clip-path="url(#clip4)">
<path fill-rule="evenodd" clip-rule="evenodd" d="M385.036 40.8497C383.896 39.6966 383.134 38.2927 383.288 36.7344C383.731 32.2445 391.189 33.3433 392.61 35.6335C394.03 37.9238 393.773 43.6765 391.888 44.0544C391.136 44.2051 389.546 43.7855 387.934 42.9417L388.865 48.9972L382.844 48.9087L385.036 40.8497Z" fill="#E2AE7D"/>
<path fill-rule="evenodd" clip-rule="evenodd" d="M390.268 33.1273C389.448 32.9052 388.255 32.8164 387.752 32.8572C388.046 32.2881 388.169 31.651 388.086 31.0276C388.005 30.422 387.69 29.9026 387.399 29.359C387.266 29.1085 387.113 28.859 386.884 28.6655C386.65 28.4683 386.352 28.336 386.039 28.2704C385.719 28.2033 385.383 28.2035 385.06 28.2555C384.917 28.2784 384.788 28.3311 384.648 28.3593C384.505 28.3883 384.437 28.3123 384.334 28.2354C384.086 28.0502 383.721 27.9552 383.405 27.9185C383.05 27.8773 382.681 27.9168 382.341 28.0095C382.01 28.0999 381.691 28.2497 381.449 28.4714C381.342 28.57 381.244 28.6827 381.179 28.8077C381.153 28.859 381.148 28.8895 381.086 28.9076C381.029 28.9243 380.962 28.9238 380.903 28.9396C380.333 29.0925 379.841 29.4531 379.57 29.9214C379.411 30.1946 379.331 30.6785 379.343 31.2224C379.355 31.7663 379.92 33.1934 380.461 33.7188C380.944 34.1878 381.658 34.5031 382.351 34.6467C381.883 35.081 381.569 35.6276 381.334 36.1848C381.078 36.79 380.917 37.4203 380.851 38.0641C380.788 38.6757 380.774 39.3233 380.936 39.9251C381.089 40.488 381.425 40.9528 381.993 41.2529C382.253 41.3904 382.534 41.4949 382.817 41.5908C383.095 41.6853 383.374 41.7774 383.667 41.8324C384.22 41.9365 384.859 41.9294 385.292 41.5661C385.447 41.4351 385.619 41.2702 385.734 41.109C385.775 41.0511 385.8 41.0132 385.752 40.9552C385.694 40.8858 385.6 40.8319 385.525 40.7772C385.099 40.4652 384.838 40.0532 384.778 39.5673C384.717 39.0743 384.885 38.4415 385.459 38.2352C386.168 37.9805 386.94 38.2961 387.563 38.589C387.841 37.8056 388.398 37.1048 389.261 36.7563C390.216 36.3707 391.305 36.34 392.285 36.0115C392.54 35.9259 392.8 35.8283 392.99 35.6491C393.069 35.5742 393.163 35.4768 393.195 35.3767C393.238 35.2452 393.138 35.1329 393.061 35.0287C392.652 34.4763 391.087 33.3495 390.268 33.1273Z" fill="#191847"/>
</g>
<g clip-path="url(#clip5)">
<path fill-rule="evenodd" clip-rule="evenodd" d="M403.243 60.8943L412.381 57.6852C413.993 56.3799 415.546 55.3927 417.039 54.7234C417.484 54.6118 418.242 54.5872 417.419 55.5638C416.596 56.5405 415.783 57.599 416.101 57.9502C416.419 58.3014 417.36 57.9328 417.722 58.5016C417.963 58.8808 416.379 59.3069 412.971 59.78L406.099 64.0505L403.243 60.8943ZM366.481 61.2749L371.609 62.2045C366.32 70.196 363.485 74.431 363.103 74.9096C362.243 75.9863 363.001 77.9939 363.276 79.0493C361.446 79.3782 362.2 77.0887 359.883 77.535C357.769 77.9424 355.965 79.041 354.022 77.495C353.783 77.3049 353.615 76.7193 354.443 76.4324C356.507 75.7175 359.56 74.3671 360.059 73.8328C360.741 73.1041 362.881 68.9181 366.481 61.2749Z" fill="#E2AE7D"/>
<path fill-rule="evenodd" clip-rule="evenodd" d="M385.829 45.4506L388.003 45.1709C392.671 49.0782 394.464 58.3268 397.594 59.5936C400.554 60.7912 404.791 59.7366 409.829 58.3026L411.323 61.1993C406.705 65.2613 396.944 68.6069 393.037 66.5576C386.792 63.2813 385.506 51.888 385.829 45.4506Z" fill="#115256"/>
<path fill-rule="evenodd" clip-rule="evenodd" d="M376.038 68.1384C384.735 68.2662 391.133 68.3603 395.231 68.4205C396.108 68.4334 395.958 67.3705 395.84 66.8335C394.467 60.6361 388.853 53.8948 388.982 45.1036L383.457 44.2953C378.787 50.395 377.092 57.9647 376.038 68.1384Z" fill="#DDE3E9"/>
<path fill-rule="evenodd" clip-rule="evenodd" d="M374.215 61.8577C370.216 67.7102 366.864 71.9168 364.161 74.4775L360.148 73.7585C362.937 60.3384 370.588 50.5156 383.1 44.2904L383.163 44.2913L385.292 44.3226C390.053 58.5825 391.284 68.0554 388.985 72.7413L371.708 72.4873C372.032 69.0387 372.962 65.4002 374.215 61.8577L374.215 61.8577Z" fill="#3F7578"/>
</g>
</g>
<path fill-rule="evenodd" clip-rule="evenodd" d="M1226.1 95.6031C1231.57 105.273 1239.88 111.719 1248.24 117.42C1264.5 128.518 1273.57 135.654 1283.83 155.653C1289.87 167.416 1296.15 179.91 1306.8 186.699C1314.55 191.643 1326.28 194.346 1332.88 187.424C1342.61 175.253 1340.87 156.32 1335.15 140.523C1328.06 120.945 1316.9 110.763 1299.99 107.529C1290.47 105.709 1283.38 101.783 1276.18 93.5072C1270.43 86.8901 1265.65 77.9273 1259.16 72.2828C1249.45 63.8452 1239.63 61.6275 1229.58 66.2755C1245.54 85.4616 1263.23 104.391 1282.27 118.988C1284.09 120.482 1293.74 125.452 1293.07 129.046C1292.34 133.004 1280.81 122.111 1280.89 122.175C1275.29 117.696 1269.9 112.781 1264.55 107.791C1264.56 107.783 1264.57 107.777 1264.58 107.768C1259.08 102.65 1253.59 97.4342 1248.15 92.1194C1245.92 89.8524 1243.71 87.5399 1241.55 85.1422C1238.38 81.6239 1231.93 70.9302 1227.9 69.345C1227.04 69.0062 1226.3 68.8893 1225.65 68.9368C1222.13 65.0759 1218.66 61.162 1215.28 57.1645C1206.46 46.7238 1198.24 35.3982 1192.32 22.4879C1190.59 18.7198 1186.93 3.84346 1183.91 1.61652C1178.39 -2.45736 1182.37 7.23845 1183.46 10.1974C1192.45 34.6991 1205.84 53.9807 1222.52 72.0436C1220.66 78.2098 1223.89 91.685 1226.1 95.6031Z" fill="#F2F2F2"/>
<path fill-rule="evenodd" clip-rule="evenodd" d="M1362.23 44.6701C1359.64 51.9788 1349.61 55.8888 1343.18 57.2364C1335.23 58.9041 1326.56 58.8391 1318.36 58.1289C1304.84 56.9594 1290.62 51.9181 1277.59 46.835C1276.02 46.2226 1256.78 39.0444 1257.62 36.6085C1258.46 34.1951 1278.03 43.6402 1282.19 45.0472C1291.08 48.051 1299.61 52.1557 1308.78 53.2201C1318.28 54.323 1327.68 53.189 1336.62 50.5978C1337.77 50.265 1341.8 50.1899 1341.31 48.1092C1340.82 46.0743 1334.9 48.8536 1333.8 49.1466C1329.27 50.3557 1324.57 51.1082 1319.84 51.402C1310.99 51.9528 1302.14 50.563 1293.45 47.0695C1293.89 40.9014 1297.96 36.9811 1303.37 36.9875C1308.05 36.9939 1313.12 38.8101 1317.61 38.4929C1320.7 38.2742 1323.53 37.1037 1326.1 35.3169C1332.85 30.6028 1335.67 24.0131 1344.95 25.4693C1352.22 26.6109 1365.95 34.1618 1362.23 44.6701Z" fill="#F2F2F2"/>
<path fill-rule="evenodd" clip-rule="evenodd" d="M1373.48 103.878L1371.45 104.443C1372.46 107.519 1373.51 110.577 1374.8 113.537C1379.65 124.628 1389.47 140.166 1401.19 138.924C1401.62 138.879 1403.15 138.467 1404.95 137.826C1405.99 138.166 1407.06 138.247 1408.11 138.041C1417.88 136.228 1425.97 124.07 1427.91 113.221C1429.47 104.474 1426.02 94.517 1421.45 86.9579C1418.39 81.8972 1412.87 75.0048 1407.26 76.4818C1400.26 78.3297 1402.79 88.7403 1404.33 94.8091C1406.39 102.877 1407.48 110.098 1403.72 117.035C1402.84 118.651 1401.81 120.146 1400.91 121.748C1399.51 124.255 1397.92 126.867 1398.57 130.188C1399.47 134.77 1401.81 134.988 1404.82 133.254C1405.33 132.959 1410.05 128.435 1409.89 131.018C1409.83 131.807 1409.08 132.632 1408.04 133.381C1405.15 134.604 1401.71 136.049 1400.6 136.065C1388.72 136.243 1379.3 119.097 1374.91 107.759C1374.41 106.475 1373.94 105.179 1373.48 103.878L1373.48 103.878Z" fill="#F2F2F2"/>
<g clip-path="url(#clip6)">
<path fill-rule="evenodd" clip-rule="evenodd" d="M264.54 52.0896C266.761 52.5276 268.084 50.0732 269.628 48.8877C270.733 48.0395 272.213 48.6493 272.953 47.3026C274.812 43.916 272.244 40.7681 268.241 39.9784C264.238 39.1888 261.098 40.8864 259.854 44.1238C258.61 47.3611 260.537 51.3 264.54 52.0896Z" fill="#191847"/>
<path fill-rule="evenodd" clip-rule="evenodd" d="M267.146 52.1148C268.257 53.1086 269.422 53.7126 270.032 53.68C271.56 53.5982 272.726 48.3911 272.007 46.1058C271.288 43.8205 265.677 41.7797 264.579 45.8101C264.198 47.2089 264.555 48.5946 265.246 49.8043L262.19 56.8438L266.853 57.7635L267.146 52.1148Z" fill="#915B3C"/>
<path fill-rule="evenodd" clip-rule="evenodd" d="M265.449 42.9995C261.199 45.7334 264.063 50.0951 265.046 50.2888C265.207 49.8052 265.495 49.3608 265.869 48.9574C265.757 48.7361 265.715 48.4801 265.765 48.2217C265.89 47.5887 266.527 47.1812 267.188 47.3115C267.394 47.3522 267.578 47.4405 267.73 47.5621C269.399 46.6439 271.36 46.1611 272.284 46.1724C273.891 46.192 269.698 40.2656 265.449 42.9995Z" fill="#191847"/>
<path fill-rule="evenodd" clip-rule="evenodd" d="M285.945 94.804C284.817 98.6182 283.532 107.041 283.251 109.489C283.074 111.027 285.251 111.045 285.686 109.872C285.76 109.673 286.037 108.978 286.452 107.942C288.482 102.86 293.795 89.5602 294.462 86.2029C294.768 84.6635 291.524 82.7444 289.763 84.3294C288.772 83.3111 287.186 82.7777 285.867 84.1794C284.868 85.2405 282.385 88.3224 279.668 91.9573C277.287 95.1416 272.968 103.159 272.968 103.159L275.007 104.606C275.007 104.606 282.257 96.9588 286.945 91.5196C286.622 92.5508 286.285 93.6567 285.945 94.804Z" fill="#915B3C"/>
<path fill-rule="evenodd" clip-rule="evenodd" d="M273.751 100.03L284.959 83.6585C287.372 81.1117 291.84 85.6308 290.88 87.1947C288.699 90.7451 279.009 101.72 278.359 102.778L273.751 100.03Z" fill="#030BA0"/>
<path fill-rule="evenodd" clip-rule="evenodd" d="M294.381 87.6378C293.381 92.7077 288.771 104.179 288.549 105.295L283.109 104.034C283.109 104.034 287.611 88.7749 287.407 88.6252C287.1 88.4008 273.222 87.734 269.148 87.0868C263.273 86.1535 261.554 82.1597 262.675 75.4453L273.972 77.6735C273.972 77.6735 288.127 82.2321 292.553 83.7959C294.447 84.4653 294.657 86.2412 294.381 87.6378Z" fill="#2330B0"/>
<path fill-rule="evenodd" clip-rule="evenodd" d="M273.366 102.573C273.213 102.401 272.945 102.379 272.781 102.539C272.483 102.832 272.056 103.281 271.914 103.58C271.688 104.056 271.416 105.045 271.416 105.045C271.979 105.306 281.535 109.748 281.535 109.748C281.535 109.748 282.537 108.652 281.735 108.155C280.934 107.658 280.411 107.314 280.411 107.314L276.684 103.07C276.611 102.987 276.483 102.979 276.401 103.053L275.757 103.632C275.757 103.632 274.799 103.627 274.308 103.398C274.008 103.259 273.622 102.862 273.366 102.573Z" fill="#E4E4E4"/>
<path fill-rule="evenodd" clip-rule="evenodd" d="M284.097 106.469C283.907 106.337 283.641 106.38 283.522 106.575C283.305 106.93 283.002 107.468 282.938 107.792C282.836 108.309 282.816 109.335 282.816 109.335C283.425 109.455 293.774 111.496 293.774 111.496C293.774 111.496 294.475 110.192 293.576 109.9C292.678 109.607 292.087 109.398 292.087 109.398L287.434 106.161C287.343 106.098 287.216 106.12 287.155 106.212L286.674 106.928C286.674 106.928 285.745 107.151 285.212 107.046C284.888 106.982 284.417 106.688 284.097 106.469Z" fill="#E4E4E4"/>
<path d="M292.452 111.235L283.515 109.472C283.139 109.398 282.776 109.637 282.703 110.006C282.63 110.376 282.876 110.735 283.251 110.809L292.188 112.572C292.564 112.646 292.927 112.407 293 112.037C293.073 111.668 292.828 111.309 292.452 111.235Z" fill="#2F3676"/>
<path d="M259.556 77.9556C259.764 76.9006 260.802 76.217 261.875 76.4286L282.664 80.5288C283.737 80.7405 284.438 81.7673 284.23 82.8222L282.384 92.1822L258.487 87.4688C258.058 87.3842 257.777 86.9734 257.86 86.5515L259.556 77.9556Z" fill="#2F3676"/>
<path fill-rule="evenodd" clip-rule="evenodd" d="M282.664 80.5288L283.09 80.6129C284.041 80.8005 284.719 81.6381 284.692 82.5917L283.919 108.956L281.843 108.547" fill="#2F3676"/>
<path fill-rule="evenodd" clip-rule="evenodd" d="M282.194 112.585C284.126 112.966 285.995 111.736 286.37 109.837C286.744 107.938 285.482 106.09 283.551 105.709C281.619 105.328 279.75 106.558 279.376 108.457C279.001 110.356 280.263 112.205 282.194 112.585Z" fill="#191847"/>
<path fill-rule="evenodd" clip-rule="evenodd" d="M274.059 95.5017C272.478 103.52 264.585 108.715 256.43 107.107C248.275 105.498 242.947 97.695 244.528 89.6771C246.109 81.6594 254.002 76.4636 262.157 78.072C270.312 79.6804 275.64 87.484 274.059 95.5017ZM271.339 94.9653C270.049 101.506 263.61 105.745 256.958 104.433C250.305 103.12 245.958 96.7545 247.248 90.2136C248.538 83.6728 254.977 79.4341 261.629 80.7462C268.282 82.0584 272.629 88.4244 271.339 94.9653Z" fill="#191847"/>
<path d="M262.557 80.1357L261.003 79.8291L256.03 105.044L257.584 105.35L262.557 80.1357Z" fill="#191847"/>
<path d="M270.34 85.7875L269.898 85.1388C269.775 84.9597 269.529 84.9111 269.348 85.0304L248.353 98.8512C248.172 98.9704 248.125 99.2123 248.247 99.3915L248.69 100.04C248.812 100.219 249.058 100.268 249.239 100.149L270.234 86.3277C270.415 86.2085 270.463 85.9666 270.34 85.7875Z" fill="#191847"/>
<path d="M272.041 95.5006L272.191 94.7365C272.233 94.5255 272.093 94.3202 271.878 94.2779L247.01 89.3729C246.795 89.3306 246.588 89.4673 246.546 89.6783L246.395 90.4424C246.354 90.6534 246.494 90.8587 246.709 90.9011L271.577 95.806C271.791 95.8483 271.999 95.7116 272.041 95.5006Z" fill="#191847"/>
<path d="M266.274 103.509L266.93 103.077C267.111 102.958 267.159 102.716 267.037 102.537L252.862 81.7791C252.74 81.6 252.494 81.5515 252.313 81.6707L251.657 82.1026C251.475 82.2219 251.428 82.4638 251.55 82.6429L265.724 103.4C265.847 103.579 266.093 103.628 266.274 103.509Z" fill="#191847"/>
<path fill-rule="evenodd" clip-rule="evenodd" d="M239.742 76.4684C240.704 75.5973 247.454 65.5217 247.454 65.5217L250.755 66.8057C250.755 66.8057 242.506 77.2526 241.95 77.8369C241.228 78.5961 241.346 80.1468 241.426 81.1983C241.438 81.361 241.45 81.5117 241.457 81.6458C240.764 81.6787 240.602 81.2553 240.432 80.8089C240.239 80.3046 240.036 79.7711 239.042 79.8329C238.658 79.8566 238.281 79.9144 237.913 79.9708C236.641 80.1654 235.472 80.3441 234.48 79.0574C234.322 78.8535 234.28 78.2964 234.969 78.1385C236.686 77.7447 239.271 76.8943 239.742 76.4684ZM280.446 78.6135L275.131 72.9169L273.104 75.9764L278.748 79.6888C280.088 82.0356 280.894 83.0628 281.165 82.77C281.394 82.5232 281.31 82.2334 281.233 81.9666C281.173 81.7587 281.117 81.5645 281.216 81.4155C281.441 81.0752 282.6 81.3441 283.688 81.6455C284.776 81.9469 284.55 81.4001 284.33 81.109C283.334 80.2227 282.039 79.391 280.446 78.6135Z" fill="#915B3C"/>
<path fill-rule="evenodd" clip-rule="evenodd" d="M267.066 54.8371L264.823 55.2651C264.739 55.803 264.587 56.5616 264.414 57.4307C263.867 60.1586 263.103 63.9751 263.553 65.4719C265.112 70.6571 269.732 74.1091 274.877 77.9539C275.566 78.4691 276.266 78.9916 276.968 79.5263L279.15 76.6966C278.994 76.5346 278.84 76.3723 278.687 76.2095C278.949 76.1734 279.192 76.0227 279.333 75.7791C279.576 75.3596 279.426 74.8234 278.998 74.5816C278.129 74.0902 277.287 73.7892 276.479 73.6882C271.607 67.7156 268.801 61.295 267.066 54.8371Z" fill="#54BAC6"/>
<path fill-rule="evenodd" clip-rule="evenodd" d="M253.474 74.3566C253.474 74.3566 262.441 77.1531 267.897 77.2013C268.348 77.2053 268.692 75.3597 268.589 74.817C266.996 66.3653 266.063 60.2241 267.136 54.7837C266.185 55.0569 264.087 54.3204 264.087 54.3204C259.112 59.1638 256.065 65.246 253.474 74.3566Z" fill="#191847"/>
<path fill-rule="evenodd" clip-rule="evenodd" d="M241.836 72.1593C250.227 58.0523 262.618 53.5545 262.618 53.5545L262.921 53.6141L263.668 53.7614L264.828 53.9902C263.936 57.195 264.178 62.1624 264.459 67.9248C264.907 77.1407 265.455 88.3901 261.622 97.7151C259.159 97.7678 256.455 96.867 253.528 95.8918C249.304 94.4841 244.615 92.9218 239.514 93.8472C240.464 89.996 243.621 86.1484 246.763 82.318C248.756 79.89 250.742 77.469 252.157 75.0586C251.987 74.8257 251.936 74.5167 252.047 74.2309L252.26 73.6864C252.404 73.3175 252.775 73.1013 253.156 73.1314C253.278 72.8577 253.391 72.5842 253.493 72.3106C254.015 70.9136 254.145 69.4568 254.273 68.0165L254.273 68.0164C254.344 67.2256 254.414 66.4398 254.548 65.6714C251.497 67.4373 247.563 70.7898 243.547 77.1534L240.087 75.3679C240.328 74.8831 240.575 74.408 240.826 73.9425C240.446 73.6286 240.161 72.437 240.555 72.3253C240.971 72.2073 241.398 72.1525 241.836 72.1593Z" fill="#89C5CC"/>
<path fill-rule="evenodd" clip-rule="evenodd" d="M263.383 53.9042L261.783 56.7371L263.353 59.4071L261.177 60.8327L264.125 69.1327L260.19 60.6535L262.337 59.2067L260.941 56.8456L263.383 53.9042Z" fill="black" fill-opacity="0.1"/>
<path fill-rule="evenodd" clip-rule="evenodd" d="M262.265 71.7425C262.694 71.8271 263.11 71.5537 263.193 71.1317C263.276 70.7097 262.996 70.299 262.567 70.2143C262.138 70.1297 261.722 70.4031 261.639 70.8251C261.556 71.2471 261.836 71.6578 262.265 71.7425ZM262.37 76.3275C262.799 76.4122 263.215 76.1387 263.298 75.7167C263.381 75.2948 263.101 74.884 262.672 74.7994C262.242 74.7147 261.827 74.9882 261.744 75.4102C261.66 75.8321 261.941 76.2429 262.37 76.3275ZM262.626 80.1485C262.542 80.5704 262.127 80.8439 261.698 80.7593C261.269 80.6746 260.988 80.2639 261.071 79.8419C261.155 79.42 261.57 79.1465 261.999 79.2311C262.428 79.3158 262.709 79.7265 262.626 80.1485Z" fill="black" fill-opacity="0.4"/>
</g>
</g>
<defs>
<clipPath id="clip0">
<rect width="1440" height="127" fill="white"/>
</clipPath>
<clipPath id="clip1">
<rect width="225.79" height="188.662" fill="white" transform="translate(-9 42.0332) rotate(-23.2997)"/>
</clipPath>
<clipPath id="clip2">
<rect width="73.1531" height="80.0495" fill="white" transform="translate(353.016 25.9419) rotate(0.842001)"/>
</clipPath>
<clipPath id="clip3">
<rect width="52.4346" height="36.1344" fill="white" transform="translate(372.547 66.6162) rotate(0.842001)"/>
</clipPath>
<clipPath id="clip4">
<rect width="14.3008" height="21.0084" fill="white" transform="translate(379.389 27.8472) rotate(0.842001)"/>
</clipPath>
<clipPath id="clip5">
<rect width="63.6406" height="35.084" fill="white" transform="translate(354.314 43.8672) rotate(0.842001)"/>
</clipPath>
<clipPath id="clip6">
<rect width="64.7175" height="68.5342" fill="white" transform="translate(243 35) rotate(11.1576)"/>
</clipPath>
</defs>
</svg>
