<svg alt="The Law Foundation logo" id="svg" version="1.1" width="400" height="356" viewBox="0, 0, 400,356" fill="none" xmlns="http://www.w3.org/2000/svg">
<g id="svgg">
<path id="path0" d="M0.000 178.035 L 0.000 356.189 0.729 356.189 C 1.357 356.189,1.427 356.030,1.241 355.031 C 1.121 354.394,0.909 274.340,0.768 177.133 C 0.627 79.926,0.396 0.278,0.256 0.137 C 0.115 -0.004,0.000 80.050,0.000 178.035 M78.670 39.821 C 76.041 39.959,76.224 38.214,76.224 63.067 C 76.224 87.091,76.071 85.841,79.021 85.841 C 81.910 85.841,81.801 86.236,82.033 74.946 C 82.266 63.648,82.429 62.819,84.830 60.764 C 88.395 57.713,93.716 58.319,95.793 62.014 C 96.733 63.688,97.185 69.502,97.221 80.410 L 97.240 85.841 99.911 85.841 L 102.582 85.841 102.580 75.423 C 102.576 61.371,102.170 59.234,98.983 56.506 C 94.814 52.938,89.183 53.057,84.257 56.816 C 82.127 58.443,82.363 59.298,82.069 48.906 C 81.784 38.811,82.094 39.640,78.670 39.821 M39.982 42.622 C 39.705 42.734,39.537 43.510,39.537 44.676 L 39.537 46.549 45.671 46.790 C 49.044 46.923,51.942 47.170,52.111 47.338 C 52.279 47.507,52.525 56.199,52.656 66.654 L 52.894 85.663 54.834 85.773 C 55.901 85.834,57.143 85.791,57.594 85.678 L 58.415 85.472 58.415 66.644 C 58.415 49.577,58.470 47.771,59.003 47.328 C 59.436 46.968,61.172 46.807,65.593 46.720 L 71.594 46.601 71.594 44.710 C 71.594 43.314,71.446 42.762,71.031 42.603 C 70.358 42.344,40.624 42.363,39.982 42.622 M119.858 54.636 C 107.815 58.423,106.281 80.462,117.761 84.758 C 123.164 86.779,134.160 86.437,135.002 84.221 C 135.999 81.600,134.822 80.676,131.400 81.396 C 122.706 83.225,116.869 80.254,115.640 73.375 C 115.261 71.255,115.050 71.299,126.131 71.174 C 137.575 71.045,137.493 71.064,137.483 68.612 C 137.438 58.092,129.326 51.659,119.858 54.636 M399.751 58.059 C 399.751 59.136,399.817 59.577,399.899 59.038 C 399.981 58.500,399.981 57.618,399.899 57.079 C 399.817 56.541,399.751 56.981,399.751 58.059 M127.352 58.728 C 129.658 59.776,131.790 63.158,131.790 65.769 C 131.790 66.876,125.995 67.462,119.538 67.008 C 115.705 66.739,115.334 66.404,116.242 64.028 C 118.108 59.141,123.060 56.779,127.352 58.728 M41.460 100.946 C 40.741 102.818,41.426 103.819,43.633 104.123 C 54.006 105.551,53.091 102.652,53.317 134.817 C 53.603 175.379,53.077 180.498,48.530 181.407 C 47.332 181.647,46.549 183.046,46.878 184.358 L 47.099 185.238 76.711 185.139 C 98.397 185.067,106.510 184.929,107.023 184.626 C 108.372 183.830,110.417 165.056,109.279 163.918 C 107.363 162.002,106.053 163.780,104.243 170.750 C 102.485 177.523,102.411 177.637,99.328 178.290 C 93.530 179.518,66.929 179.985,65.823 178.878 C 64.927 177.981,65.169 108.786,66.073 107.248 C 67.132 105.446,68.938 104.671,72.583 104.455 C 76.613 104.215,76.937 104.035,76.937 102.036 L 76.937 100.445 59.294 100.445 C 44.472 100.445,41.621 100.525,41.460 100.946 M145.325 128.028 C 140.447 129.065,135.452 131.284,131.048 134.371 L 129.060 135.764 129.214 139.565 C 129.332 142.482,129.500 143.469,129.935 143.811 C 131.231 144.830,132.826 144.049,133.391 142.119 C 134.836 137.189,137.040 135.284,142.007 134.670 C 152.123 133.418,158.637 137.893,159.132 146.433 L 159.310 149.501 157.597 150.084 C 156.655 150.405,155.419 150.668,154.851 150.668 C 151.629 150.668,135.361 154.816,132.858 156.276 C 121.700 162.785,120.920 179.930,131.558 184.884 C 138.396 188.069,144.743 186.609,153.645 179.805 C 158.814 175.853,158.431 176.098,158.831 176.500 C 159.022 176.691,159.290 178.731,159.428 181.033 L 159.677 185.218 168.283 185.218 C 177.733 185.218,178.407 185.088,177.969 183.342 C 177.715 182.331,176.825 181.942,173.354 181.327 C 170.824 180.879,170.755 180.838,170.471 179.613 C 170.345 179.072,170.103 169.999,169.933 159.452 L 169.623 140.276 168.307 137.613 C 164.614 130.140,154.744 126.024,145.325 128.028 M228.566 128.317 C 228.236 128.562,226.787 131.567,225.345 134.996 C 223.904 138.424,221.600 143.713,220.227 146.750 C 218.853 149.786,216.011 156.145,213.910 160.880 C 209.966 169.771,209.086 171.238,208.429 170.012 C 208.102 169.400,204.057 155.856,200.327 142.879 C 197.857 134.287,198.169 133.410,203.856 132.972 C 207.470 132.693,208.556 131.836,207.798 129.860 C 207.606 129.359,205.988 129.297,193.223 129.297 L 178.863 129.297 178.623 130.389 C 178.295 131.885,179.164 132.767,181.252 133.055 C 184.009 133.437,185.772 134.469,186.571 136.170 C 187.902 139.004,191.902 150.913,194.612 160.109 C 202.489 186.837,202.263 186.271,205.053 186.281 C 208.202 186.293,208.843 185.636,210.672 180.529 C 211.326 178.700,213.095 174.479,214.602 171.149 C 216.109 167.818,219.189 161.006,221.446 156.011 C 226.472 144.885,226.362 145.047,227.470 147.190 C 228.245 148.689,235.049 165.482,235.445 166.874 C 235.612 167.462,236.813 170.508,238.114 173.642 C 239.415 176.776,241.009 180.784,241.657 182.547 L 242.834 185.752 244.457 186.075 C 247.005 186.581,249.062 186.008,249.450 184.684 C 250.467 181.216,255.594 167.626,258.790 159.929 C 259.889 157.284,261.402 153.598,262.153 151.736 C 268.070 137.078,270.098 133.895,274.146 132.914 C 276.561 132.329,276.581 132.314,276.688 131.035 C 276.835 129.278,277.051 129.307,263.847 129.301 L 252.538 129.297 252.538 130.700 C 252.538 132.440,252.521 132.430,256.537 133.030 C 260.058 133.556,261.443 134.433,261.443 136.136 C 261.443 138.061,254.707 158.180,251.987 164.381 C 251.729 164.969,251.007 166.774,250.383 168.393 C 248.585 173.057,248.954 173.613,242.034 155.833 C 241.196 153.678,239.517 149.510,238.303 146.572 C 237.090 143.633,235.371 139.159,234.485 136.629 C 231.559 128.283,230.540 126.852,228.566 128.317 M159.216 162.508 L 159.216 170.431 156.626 172.927 C 145.666 183.490,131.735 178.808,135.508 165.830 C 136.650 161.900,138.019 160.418,142.299 158.477 C 145.514 157.020,154.655 154.643,157.168 154.612 L 159.216 154.586 159.216 162.508 M209.074 199.311 C 208.883 199.813,208.727 203.329,208.727 207.124 C 208.727 210.918,208.567 214.442,208.372 214.955 L 208.018 215.887 206.680 214.826 C 197.917 207.878,185.231 216.384,185.231 229.207 C 185.231 242.282,198.420 249.837,207.168 241.773 C 208.878 240.197,209.439 240.260,209.439 242.031 C 209.439 244.285,213.310 245.453,214.078 243.432 C 214.475 242.389,214.555 214.915,214.191 204.866 L 213.957 198.397 211.689 198.397 C 209.583 198.397,209.397 198.462,209.074 199.311 M44.634 201.336 C 44.282 201.879,44.024 237.927,44.349 241.054 C 44.648 243.930,45.176 244.476,47.445 244.258 C 50.081 244.005,50.170 243.635,50.201 232.902 C 50.217 227.479,50.339 225.459,50.668 225.188 C 50.918 224.982,54.438 224.707,58.698 224.561 L 66.284 224.300 66.178 222.316 C 66.050 219.902,65.945 219.855,60.518 219.804 C 58.442 219.784,55.276 219.664,53.483 219.537 L 50.223 219.306 50.223 212.841 C 50.223 205.198,50.057 205.521,53.977 205.521 C 55.572 205.521,59.307 205.416,62.276 205.287 L 67.676 205.054 67.676 202.972 L 67.676 200.890 56.299 200.890 C 47.588 200.890,44.854 200.995,44.634 201.336 M282.814 201.142 C 279.456 202.369,280.238 207.658,283.776 207.658 C 286.106 207.658,287.415 206.469,287.433 204.336 C 287.453 201.943,285.091 200.310,282.814 201.142 M261.799 206.687 L 259.840 207.484 259.629 209.939 C 259.388 212.740,258.881 213.357,256.815 213.357 C 255.271 213.357,254.675 213.873,254.675 215.209 C 254.675 216.656,255.814 217.631,257.503 217.631 C 259.496 217.631,259.465 217.470,259.665 228.851 C 259.918 243.227,260.831 244.927,268.244 244.824 C 272.108 244.771,272.844 244.474,272.836 242.966 C 272.825 240.855,272.504 240.428,270.929 240.425 C 265.847 240.419,265.587 239.834,265.428 228.076 C 265.281 217.141,265.035 217.804,269.355 217.466 C 272.899 217.189,273.183 217.023,273.191 215.218 C 273.198 213.766,272.311 213.357,269.157 213.357 C 266.030 213.357,265.373 212.819,265.318 210.220 C 265.226 205.780,264.881 205.433,261.799 206.687 M348.867 212.676 C 346.584 212.968,344.222 214.009,342.588 215.443 C 340.635 217.158,339.804 216.845,339.804 214.397 C 339.804 212.822,335.738 212.770,335.135 214.337 C 334.702 215.460,334.869 242.355,335.315 243.338 C 335.691 244.167,336.130 244.272,338.423 244.078 L 340.426 243.909 340.581 233.860 C 340.749 222.950,340.870 222.284,343.132 219.823 C 346.423 216.242,352.455 216.804,354.760 220.905 C 355.576 222.359,356.019 228.984,356.166 241.941 L 356.189 243.989 358.890 243.989 L 361.592 243.989 361.457 232.680 C 361.330 222.064,361.274 221.251,360.543 219.412 C 358.621 214.572,354.160 211.999,348.867 212.676 M84.895 213.016 C 71.833 215.600,69.619 237.838,81.853 243.573 C 85.147 245.116,92.532 245.007,95.866 243.366 C 104.212 239.257,106.801 226.930,101.097 218.465 C 97.903 213.725,91.758 211.658,84.895 213.016 M160.407 213.680 C 159.397 214.221,158.054 215.097,157.424 215.628 C 156.069 216.767,155.638 216.703,155.184 215.294 C 154.629 213.573,154.280 213.357,152.049 213.357 L 149.955 213.357 149.974 226.091 C 149.999 243.997,150.055 244.335,152.983 244.335 C 155.568 244.335,155.457 244.782,155.654 233.584 L 155.833 223.508 156.929 221.728 C 160.424 216.051,167.151 215.845,169.978 221.327 C 170.678 222.683,170.758 223.602,171.021 233.263 C 171.178 239.021,171.351 243.773,171.405 243.825 C 172.109 244.487,175.797 244.066,176.202 243.277 C 177.275 241.186,176.628 221.050,175.410 218.655 C 172.600 213.123,165.715 210.840,160.407 213.680 M230.933 213.016 C 226.759 213.841,224.868 215.417,225.993 217.134 C 226.845 218.433,227.408 218.518,229.612 217.674 C 235.779 215.314,240.766 217.220,241.651 222.274 C 241.994 224.233,241.607 224.476,237.654 224.783 C 228.473 225.494,223.504 229.365,223.513 235.797 C 223.525 244.532,233.598 248.313,240.564 242.197 C 241.953 240.978,242.545 241.106,242.559 242.628 C 242.568 243.630,243.601 244.347,244.994 244.320 C 247.905 244.265,247.710 245.162,247.594 232.383 L 247.490 221.015 246.232 218.614 C 244.817 215.915,242.707 213.795,241.118 213.477 C 240.534 213.361,239.970 213.125,239.865 212.955 C 239.627 212.571,232.951 212.616,230.933 213.016 M306.904 212.924 C 306.784 213.118,306.134 213.380,305.459 213.507 C 298.257 214.858,293.746 226.851,297.012 235.963 C 301.048 247.224,319.016 247.987,324.278 237.121 C 328.560 228.282,325.623 217.846,317.766 213.977 C 315.304 212.765,307.472 212.006,306.904 212.924 M113.073 214.189 C 112.445 216.689,113.099 236.683,113.871 238.578 C 116.632 245.365,125.004 247.073,131.517 242.178 C 133.799 240.464,133.785 240.464,134.062 242.197 C 134.318 243.798,135.038 244.346,136.888 244.346 C 139.295 244.346,139.354 243.856,139.004 226.714 L 138.736 213.535 136.153 213.431 L 133.571 213.326 133.548 216.992 C 133.488 226.430,132.984 234.907,132.419 235.975 C 131.022 238.615,128.480 240.071,125.271 240.071 C 119.428 240.071,118.295 236.657,118.264 218.967 L 118.255 213.357 115.768 213.357 C 113.460 213.357,113.267 213.417,113.073 214.189 M281.552 213.803 C 281.458 214.048,281.423 220.900,281.474 229.030 L 281.567 243.811 284.150 243.916 L 286.732 244.021 286.732 228.689 L 286.732 213.357 284.227 213.357 C 282.552 213.357,281.666 213.504,281.552 213.803 M91.719 217.408 C 103.180 222.805,98.342 243.743,86.434 240.282 C 77.650 237.728,77.009 221.923,85.516 217.672 C 88.170 216.346,89.355 216.295,91.719 217.408 M313.566 217.250 C 323.853 221.660,321.772 240.607,311.006 240.565 C 306.041 240.546,302.783 237.270,301.694 231.200 C 300.149 222.595,307.069 214.465,313.566 217.250 M204.526 218.228 C 209.430 220.868,210.447 233.342,206.129 237.887 C 201.834 242.408,194.317 240.530,192.143 234.392 C 188.382 223.768,196.100 213.693,204.526 218.228 M241.496 229.207 C 243.179 231.236,241.246 237.941,238.526 239.506 C 232.281 243.099,225.884 237.163,230.321 231.891 C 232.490 229.313,240.072 227.492,241.496 229.207 M43.396 288.507 C 22.303 288.608,4.912 288.824,4.749 288.988 C 4.349 289.388,4.145 325.323,4.460 340.071 L 4.713 351.915 200.178 351.915 L 395.642 351.915 395.899 338.290 C 396.210 321.800,396.019 289.399,395.608 288.989 C 394.970 288.351,146.482 288.011,43.396 288.507 M49.345 308.470 C 49.632 308.708,51.063 311.023,52.526 313.614 C 56.619 320.865,56.852 320.853,57.206 313.355 L 57.454 308.103 58.424 308.103 C 58.958 308.103,59.895 308.003,60.508 307.881 L 61.621 307.658 61.621 319.991 L 61.621 332.324 59.319 332.324 C 56.428 332.324,56.665 332.578,52.009 324.498 C 49.974 320.966,48.199 318.077,48.064 318.077 C 47.592 318.077,47.373 320.338,47.373 325.200 C 47.373 332.202,47.336 332.324,45.204 332.324 C 43.864 332.324,43.398 332.171,43.111 331.635 C 42.687 330.843,42.597 309.235,43.015 308.590 C 43.599 307.689,48.297 307.600,49.345 308.470 M91.711 308.045 C 93.754 308.317,94.469 309.390,93.828 311.220 L 93.484 312.199 88.306 312.404 C 82.229 312.643,82.280 312.622,82.280 314.879 C 82.280 317.124,82.619 317.305,87.385 317.596 L 91.104 317.824 91.289 319.198 C 91.685 322.150,91.473 322.290,86.138 322.595 L 82.280 322.816 82.280 324.708 C 82.280 327.185,82.599 327.336,87.866 327.343 C 93.247 327.349,93.865 327.621,93.832 329.965 C 93.798 332.324,93.844 332.313,84.506 332.319 L 76.224 332.324 76.224 320.233 L 76.224 308.142 77.916 308.009 C 80.866 307.776,89.868 307.800,91.711 308.045 M110.519 308.417 C 110.702 308.600,111.468 311.509,112.222 314.882 C 114.120 323.374,114.361 323.415,116.097 315.536 C 117.771 307.937,117.652 308.117,121.033 308.109 C 123.744 308.102,123.573 307.809,125.569 315.850 C 127.348 323.020,127.672 322.883,129.660 314.126 C 131.049 308.007,131.826 307.032,134.608 307.915 C 135.958 308.344,135.063 313.176,130.336 330.988 L 129.981 332.324 127.156 332.324 L 124.330 332.324 123.730 330.276 C 123.399 329.150,122.611 326.230,121.977 323.788 C 120.315 317.382,120.102 317.498,118.094 325.909 C 116.506 332.557,116.670 332.324,113.562 332.324 L 111.095 332.324 110.536 330.988 C 109.761 329.135,105.076 310.410,105.076 309.167 C 105.076 308.404,105.274 308.110,105.877 307.979 C 107.024 307.731,110.125 308.024,110.519 308.417 M168.477 309.983 C 168.477 312.580,168.891 311.887,162.503 320.007 C 159.896 323.321,157.811 326.287,157.870 326.596 C 157.992 327.239,160.551 327.583,165.717 327.652 L 168.833 327.694 168.833 330.009 L 168.833 332.324 159.420 332.324 C 149.052 332.324,148.887 332.290,148.887 330.144 C 148.887 328.290,149.306 327.646,156.045 319.141 C 161.340 312.459,161.335 312.443,153.791 312.398 C 149.922 312.375,149.755 312.246,150.018 309.488 C 150.165 307.948,150.648 307.873,160.908 307.801 L 168.477 307.747 168.477 309.983 M224.194 308.437 C 224.664 308.827,226.399 313.903,230.091 325.690 C 230.697 327.625,231.289 329.916,231.408 330.781 L 231.624 332.355 228.683 332.250 L 225.743 332.146 224.950 330.017 C 224.026 327.540,223.698 327.383,219.947 327.625 C 216.708 327.833,216.464 327.989,215.659 330.357 L 214.981 332.353 212.655 332.250 C 210.639 332.160,210.317 332.051,210.236 331.434 C 210.084 330.272,217.181 308.700,217.893 308.161 C 218.672 307.572,223.400 307.778,224.194 308.437 M249.828 308.457 C 250.087 308.716,250.263 311.746,250.342 317.293 C 250.493 328.021,250.137 327.337,255.574 327.337 L 259.662 327.337 259.662 329.838 L 259.662 332.338 252.093 332.242 L 244.524 332.146 244.429 320.392 C 244.320 306.860,244.152 307.545,247.513 307.874 C 248.569 307.978,249.611 308.240,249.828 308.457 M284.703 308.229 C 285.844 308.706,285.897 308.841,289.367 319.965 C 293.420 332.956,293.405 332.324,289.658 332.324 L 286.862 332.324 286.248 330.375 C 285.463 327.884,284.673 327.332,281.933 327.358 C 278.508 327.390,277.408 327.926,276.861 329.831 C 276.274 331.879,275.639 332.324,273.307 332.324 C 270.625 332.324,270.582 332.760,274.442 320.748 C 276.079 315.654,277.593 310.818,277.807 310.001 C 278.365 307.867,281.754 306.997,284.703 308.229 M310.654 308.113 C 312.082 308.510,312.254 308.742,316.370 315.842 C 319.140 320.620,319.136 320.622,319.181 314.722 C 319.230 308.242,319.203 308.306,321.920 308.175 L 324.132 308.069 324.132 320.197 L 324.132 332.324 321.647 332.324 C 318.735 332.324,319.471 333.124,314.689 324.760 C 310.498 317.430,310.254 317.341,310.199 323.126 C 310.176 325.540,310.056 328.557,309.932 329.831 L 309.706 332.146 307.688 332.252 L 305.670 332.358 305.435 330.115 C 304.962 325.600,305.375 308.469,305.966 308.095 C 306.670 307.651,309.022 307.660,310.654 308.113 M351.371 308.457 C 357.169 309.765,360.517 319.210,357.496 325.735 C 355.110 330.888,352.039 332.324,343.405 332.324 L 338.848 332.324 338.615 326.180 C 338.065 311.692,338.282 308.237,339.756 307.977 C 341.099 307.739,349.779 308.098,351.371 308.457 M199.038 310.151 L 198.931 312.199 194.123 312.425 C 188.385 312.693,188.956 312.608,188.271 313.293 C 187.664 313.901,187.530 315.814,188.039 316.618 C 188.330 317.077,192.229 317.617,195.815 317.695 L 196.972 317.720 196.972 319.636 C 196.972 322.158,196.757 322.286,192.057 322.572 L 188.080 322.813 187.863 323.971 C 187.392 326.483,188.342 327.323,191.665 327.332 C 192.762 327.335,194.893 327.442,196.400 327.569 L 199.141 327.801 199.036 329.973 L 198.931 332.146 190.515 332.241 L 182.099 332.337 181.882 331.529 C 181.600 330.474,181.591 309.401,181.872 308.667 C 182.061 308.175,183.169 308.103,190.617 308.103 L 199.145 308.103 199.038 310.151 M345.611 312.764 C 344.442 313.196,343.967 324.065,345.000 326.755 C 345.343 327.650,347.970 327.521,349.458 326.536 C 355.176 322.747,351.753 310.492,345.611 312.764 M280.858 316.711 C 279.128 321.402,279.211 322.351,281.351 322.351 C 283.535 322.351,283.643 322.077,282.678 318.984 C 281.939 316.615,281.223 315.722,280.858 316.711 M219.420 318.166 C 219.055 318.998,218.646 320.280,218.510 321.015 L 218.264 322.351 220.309 322.351 L 222.353 322.351 222.124 320.921 C 221.489 316.951,220.428 315.870,219.420 318.166 M399.802 330.721 C 399.801 336.598,399.850 339.053,399.910 336.175 C 399.970 333.298,399.970 328.489,399.910 325.490 C 399.851 322.490,399.802 324.844,399.802 330.721 M399.373 354.759 C 398.784 355.702,398.816 356.189,399.466 356.189 C 399.822 356.189,400.000 355.833,400.000 355.120 C 400.000 353.858,399.953 353.831,399.373 354.759 " stroke="none" fill="#ffffff" fill-rule="evenodd"></path><path id="path1" d="M0.648 120.445 C 0.710 186.729,0.871 266.687,1.004 298.130 L 1.247 355.298 3.562 355.564 C 13.245 356.676,398.093 356.112,399.220 354.984 C 399.881 354.323,400.185 1.134,399.525 0.475 C 399.362 0.312,309.522 0.122,199.881 0.053 L 0.534 -0.072 0.648 120.445 M82.069 48.906 C 82.363 59.298,82.127 58.443,84.257 56.816 C 89.183 53.057,94.814 52.938,98.983 56.506 C 102.170 59.234,102.576 61.371,102.580 75.423 L 102.582 85.841 99.911 85.841 L 97.240 85.841 97.221 80.410 C 97.185 69.502,96.733 63.688,95.793 62.014 C 93.716 58.319,88.395 57.713,84.830 60.764 C 82.429 62.819,82.266 63.648,82.033 74.946 C 81.801 86.236,81.910 85.841,79.021 85.841 C 76.071 85.841,76.224 87.091,76.224 63.067 C 76.224 38.214,76.041 39.959,78.670 39.821 C 82.094 39.640,81.784 38.811,82.069 48.906 M71.031 42.603 C 71.446 42.762,71.594 43.314,71.594 44.710 L 71.594 46.601 65.593 46.720 C 61.172 46.807,59.436 46.968,59.003 47.328 C 58.470 47.771,58.415 49.577,58.415 66.644 L 58.415 85.472 57.594 85.678 C 57.143 85.791,55.901 85.834,54.834 85.773 L 52.894 85.663 52.656 66.654 C 52.525 56.199,52.279 47.507,52.111 47.338 C 51.942 47.170,49.044 46.923,45.671 46.790 L 39.537 46.549 39.537 44.676 C 39.537 43.510,39.705 42.734,39.982 42.622 C 40.624 42.363,70.358 42.344,71.031 42.603 M130.302 55.177 C 134.709 57.402,137.457 62.543,137.483 68.612 C 137.493 71.064,137.575 71.045,126.131 71.174 C 115.050 71.299,115.261 71.255,115.640 73.375 C 116.869 80.254,122.706 83.225,131.400 81.396 C 134.822 80.676,135.999 81.600,135.002 84.221 C 134.160 86.437,123.164 86.779,117.761 84.758 C 107.748 81.011,107.218 62.177,116.952 56.021 C 120.484 53.787,126.761 53.390,130.302 55.177 M120.695 58.777 C 118.063 60.167,115.129 64.809,116.002 66.200 C 116.985 67.766,131.790 67.361,131.790 65.769 C 131.790 60.280,125.433 56.274,120.695 58.777 M76.937 102.036 C 76.937 104.035,76.613 104.215,72.583 104.455 C 68.938 104.671,67.132 105.446,66.073 107.248 C 65.169 108.786,64.927 177.981,65.823 178.878 C 66.929 179.985,93.530 179.518,99.328 178.290 C 102.411 177.637,102.485 177.523,104.243 170.750 C 106.053 163.780,107.363 162.002,109.279 163.918 C 110.417 165.056,108.372 183.830,107.023 184.626 C 106.510 184.929,98.397 185.067,76.711 185.139 L 47.099 185.238 46.878 184.358 C 46.549 183.046,47.332 181.647,48.530 181.407 C 53.077 180.498,53.603 175.379,53.317 134.817 C 53.091 102.652,54.006 105.551,43.633 104.123 C 41.538 103.835,41.494 103.805,41.382 102.638 C 41.157 100.296,39.934 100.445,59.294 100.445 L 76.937 100.445 76.937 102.036 M156.545 128.420 C 162.118 129.926,166.012 132.969,168.307 137.613 L 169.623 140.276 169.933 159.452 C 170.103 169.999,170.345 179.072,170.471 179.613 C 170.755 180.838,170.824 180.879,173.354 181.327 C 176.825 181.942,177.715 182.331,177.969 183.342 C 178.407 185.088,177.733 185.218,168.283 185.218 L 159.677 185.218 159.428 181.033 C 159.290 178.731,159.022 176.691,158.831 176.500 C 158.431 176.098,158.814 175.853,153.645 179.805 C 144.743 186.609,138.396 188.069,131.558 184.884 C 120.920 179.930,121.700 162.785,132.858 156.276 C 135.361 154.816,151.629 150.668,154.851 150.668 C 155.419 150.668,156.655 150.405,157.597 150.084 L 159.310 149.501 159.132 146.433 C 158.637 137.893,152.123 133.418,142.007 134.670 C 137.040 135.284,134.836 137.189,133.391 142.119 C 132.826 144.049,131.231 144.830,129.935 143.811 C 129.500 143.469,129.332 142.482,129.214 139.565 L 129.060 135.764 131.048 134.371 C 139.466 128.472,148.733 126.309,156.545 128.420 M230.762 128.448 C 231.720 129.119,232.293 130.378,234.485 136.629 C 235.371 139.159,237.090 143.633,238.303 146.572 C 239.517 149.510,241.196 153.678,242.034 155.833 C 248.954 173.613,248.585 173.057,250.383 168.393 C 251.007 166.774,251.729 164.969,251.987 164.381 C 254.707 158.180,261.443 138.061,261.443 136.136 C 261.443 134.433,260.058 133.556,256.537 133.030 C 252.521 132.430,252.538 132.440,252.538 130.700 L 252.538 129.297 263.847 129.301 C 277.051 129.307,276.835 129.278,276.688 131.035 C 276.581 132.314,276.561 132.329,274.146 132.914 C 270.098 133.895,268.070 137.078,262.153 151.736 C 261.402 153.598,259.889 157.284,258.790 159.929 C 255.594 167.626,250.467 181.216,249.450 184.684 C 249.062 186.008,247.005 186.581,244.457 186.075 L 242.834 185.752 241.657 182.547 C 241.009 180.784,239.415 176.776,238.114 173.642 C 236.813 170.508,235.612 167.462,235.445 166.874 C 235.049 165.482,228.245 148.689,227.470 147.190 C 226.362 145.047,226.472 144.885,221.446 156.011 C 219.189 161.006,216.109 167.818,214.602 171.149 C 213.095 174.479,211.326 178.700,210.672 180.529 C 208.843 185.636,208.202 186.293,205.053 186.281 C 202.263 186.271,202.489 186.837,194.612 160.109 C 191.902 150.913,187.902 139.004,186.571 136.170 C 185.772 134.469,184.009 133.437,181.252 133.055 C 179.164 132.767,178.295 131.885,178.623 130.389 L 178.863 129.297 193.223 129.297 C 205.988 129.297,207.606 129.359,207.798 129.860 C 208.556 131.836,207.470 132.693,203.856 132.972 C 198.169 133.410,197.857 134.287,200.327 142.879 C 204.057 155.856,208.102 169.400,208.429 170.012 C 209.086 171.238,209.966 169.771,213.910 160.880 C 216.011 156.145,218.853 149.786,220.227 146.750 C 221.600 143.713,223.904 138.424,225.345 134.996 C 228.385 127.765,228.899 127.143,230.762 128.448 M149.875 156.029 C 139.764 158.711,137.036 160.573,135.508 165.830 C 131.735 178.808,145.666 183.490,156.626 172.927 L 159.216 170.431 159.216 162.508 L 159.216 154.586 157.168 154.612 C 155.997 154.626,152.874 155.233,149.875 156.029 M214.191 204.866 C 214.555 214.915,214.475 242.389,214.078 243.432 C 213.310 245.453,209.439 244.285,209.439 242.031 C 209.439 240.260,208.878 240.197,207.168 241.773 C 198.420 249.837,185.231 242.282,185.231 229.207 C 185.231 216.384,197.917 207.878,206.680 214.826 L 208.018 215.887 208.372 214.955 C 208.567 214.442,208.727 210.918,208.727 207.124 C 208.727 198.406,208.730 198.397,211.689 198.397 L 213.957 198.397 214.191 204.866 M67.676 202.972 L 67.676 205.054 62.276 205.287 C 59.307 205.416,55.572 205.521,53.977 205.521 C 50.057 205.521,50.223 205.198,50.223 212.841 L 50.223 219.306 53.483 219.537 C 55.276 219.664,58.442 219.784,60.518 219.804 C 65.945 219.855,66.050 219.902,66.178 222.316 L 66.284 224.300 58.698 224.561 C 54.438 224.707,50.918 224.982,50.668 225.188 C 50.339 225.459,50.217 227.479,50.201 232.902 C 50.170 243.635,50.081 244.005,47.445 244.258 C 45.176 244.476,44.648 243.930,44.349 241.054 C 44.024 237.927,44.282 201.879,44.634 201.336 C 44.854 200.995,47.588 200.890,56.299 200.890 L 67.676 200.890 67.676 202.972 M286.403 201.932 C 288.082 203.611,287.779 206.177,285.776 207.244 C 283.358 208.532,280.677 206.978,280.677 204.288 C 280.677 201.229,284.236 199.765,286.403 201.932 M265.049 207.128 C 265.174 207.713,265.295 209.105,265.318 210.220 C 265.373 212.819,266.030 213.357,269.157 213.357 C 272.311 213.357,273.198 213.766,273.191 215.218 C 273.183 217.023,272.899 217.189,269.355 217.466 C 265.035 217.804,265.281 217.141,265.428 228.076 C 265.587 239.834,265.847 240.419,270.929 240.425 C 272.504 240.428,272.825 240.855,272.836 242.966 C 272.844 244.474,272.108 244.771,268.244 244.824 C 260.831 244.927,259.918 243.227,259.665 228.851 C 259.465 217.470,259.496 217.631,257.503 217.631 C 255.814 217.631,254.675 216.656,254.675 215.209 C 254.675 213.873,255.271 213.357,256.815 213.357 C 258.881 213.357,259.388 212.740,259.629 209.939 L 259.840 207.484 261.799 206.687 C 264.220 205.702,264.759 205.775,265.049 207.128 M355.872 213.947 C 360.718 216.584,361.287 218.494,361.457 232.680 L 361.592 243.989 358.890 243.989 L 356.189 243.989 356.166 241.941 C 356.019 228.984,355.576 222.359,354.760 220.905 C 352.455 216.804,346.423 216.242,343.132 219.823 C 340.870 222.284,340.749 222.950,340.581 233.860 L 340.426 243.909 338.423 244.078 C 336.130 244.272,335.691 244.167,335.315 243.338 C 334.869 242.355,334.702 215.460,335.135 214.337 C 335.738 212.770,339.804 212.822,339.804 214.397 C 339.804 216.845,340.635 217.158,342.588 215.443 C 346.172 212.296,351.696 211.674,355.872 213.947 M94.778 213.547 C 106.719 218.110,107.433 237.671,95.866 243.366 C 92.532 245.007,85.147 245.116,81.853 243.573 C 71.032 238.500,71.058 219.612,81.895 214.084 C 85.232 212.382,91.088 212.137,94.778 213.547 M170.454 213.559 C 173.973 215.224,175.871 218.305,176.336 223.107 C 176.838 228.297,176.746 242.217,176.202 243.277 C 175.797 244.066,172.109 244.487,171.405 243.825 C 171.351 243.773,171.178 239.021,171.021 233.263 C 170.758 223.602,170.678 222.683,169.978 221.327 C 167.151 215.845,160.424 216.051,156.929 221.728 L 155.833 223.508 155.654 233.584 C 155.457 244.782,155.568 244.335,152.983 244.335 C 150.055 244.335,149.999 243.997,149.974 226.091 L 149.955 213.357 152.049 213.357 C 154.280 213.357,154.629 213.573,155.184 215.294 C 155.638 216.703,156.069 216.767,157.424 215.628 C 161.158 212.486,166.419 211.650,170.454 213.559 M239.865 212.955 C 239.970 213.125,240.534 213.361,241.118 213.477 C 242.707 213.795,244.817 215.915,246.232 218.614 L 247.490 221.015 247.594 232.383 C 247.710 245.162,247.905 244.265,244.994 244.320 C 243.601 244.347,242.568 243.630,242.559 242.628 C 242.545 241.106,241.953 240.978,240.564 242.197 C 233.598 248.313,223.525 244.532,223.513 235.797 C 223.504 229.365,228.473 225.494,237.654 224.783 C 241.607 224.476,241.994 224.233,241.651 222.274 C 240.766 217.220,235.779 215.314,229.612 217.674 C 227.040 218.659,224.988 217.565,225.628 215.550 C 226.233 213.644,238.867 211.341,239.865 212.955 M317.766 213.977 C 325.623 217.846,328.560 228.282,324.278 237.121 C 319.016 247.987,301.048 247.224,297.012 235.963 C 293.746 226.851,298.257 214.858,305.459 213.507 C 306.134 213.380,306.784 213.118,306.904 212.924 C 307.472 212.006,315.304 212.765,317.766 213.977 M118.264 218.967 C 118.295 236.657,119.428 240.071,125.271 240.071 C 128.480 240.071,131.022 238.615,132.419 235.975 C 132.984 234.907,133.488 226.430,133.548 216.992 L 133.571 213.326 136.153 213.431 L 138.736 213.535 139.004 226.714 C 139.354 243.856,139.295 244.346,136.888 244.346 C 135.038 244.346,134.318 243.798,134.062 242.197 C 133.785 240.464,133.799 240.464,131.517 242.178 C 126.563 245.901,118.616 245.681,115.608 241.738 C 113.263 238.664,113.113 237.755,112.983 225.854 C 112.835 212.402,112.622 213.357,115.768 213.357 L 118.255 213.357 118.264 218.967 M286.732 228.689 L 286.732 244.021 284.150 243.916 L 281.567 243.811 281.474 229.030 C 281.365 211.701,281.074 213.357,284.227 213.357 L 286.732 213.357 286.732 228.689 M85.516 217.672 C 77.009 221.923,77.650 237.728,86.434 240.282 C 98.342 243.743,103.180 222.805,91.719 217.408 C 89.355 216.295,88.170 216.346,85.516 217.672 M308.469 217.181 C 302.551 219.270,299.717 228.044,302.737 234.925 C 305.698 241.670,314.006 242.649,317.991 236.721 C 324.019 227.755,317.340 214.050,308.469 217.181 M197.685 217.364 C 189.706 220.012,188.999 235.674,196.686 239.505 C 204.385 243.341,210.399 235.611,208.403 224.444 C 207.407 218.872,202.636 215.720,197.685 217.364 M235.346 229.061 C 226.788 231.077,227.000 241.973,235.570 240.596 C 239.651 239.940,241.565 237.564,241.789 232.878 C 241.995 228.571,240.695 227.801,235.346 229.061 M329.535 288.458 C 365.713 288.587,395.445 288.826,395.608 288.989 C 396.019 289.399,396.210 321.800,395.899 338.290 L 395.642 351.915 200.178 351.915 L 4.713 351.915 4.460 340.071 C 4.145 325.323,4.349 289.388,4.749 288.988 C 5.389 288.348,206.766 288.020,329.535 288.458 M43.989 307.987 C 42.789 308.322,42.754 308.660,42.748 319.970 C 42.742 332.496,42.708 332.324,45.204 332.324 C 47.336 332.324,47.373 332.202,47.373 325.200 C 47.373 320.338,47.592 318.077,48.064 318.077 C 48.199 318.077,49.974 320.966,52.009 324.498 C 56.665 332.578,56.428 332.324,59.319 332.324 L 61.621 332.324 61.621 319.991 L 61.621 307.658 60.508 307.881 C 59.895 308.003,58.958 308.103,58.424 308.103 L 57.454 308.103 57.206 313.355 C 56.852 320.853,56.619 320.865,52.526 313.614 C 49.288 307.879,47.827 306.916,43.989 307.987 M77.916 308.009 L 76.224 308.142 76.224 320.233 L 76.224 332.324 84.506 332.319 C 93.844 332.313,93.798 332.324,93.832 329.965 C 93.865 327.621,93.247 327.349,87.866 327.343 C 82.599 327.336,82.280 327.185,82.280 324.708 L 82.280 322.816 86.138 322.595 C 91.473 322.290,91.685 322.150,91.289 319.198 L 91.104 317.824 87.385 317.596 C 82.619 317.305,82.280 317.124,82.280 314.879 C 82.280 312.622,82.229 312.643,88.306 312.404 L 93.484 312.199 93.828 311.220 C 94.469 309.390,93.754 308.317,91.711 308.045 C 89.868 307.800,80.866 307.776,77.916 308.009 M105.877 307.979 C 105.274 308.110,105.076 308.404,105.076 309.167 C 105.076 310.410,109.761 329.135,110.536 330.988 L 111.095 332.324 113.562 332.324 C 116.670 332.324,116.506 332.557,118.094 325.909 C 120.102 317.498,120.315 317.382,121.977 323.788 C 122.611 326.230,123.399 329.150,123.730 330.276 L 124.330 332.324 127.156 332.324 L 129.981 332.324 130.336 330.988 C 135.063 313.176,135.958 308.344,134.608 307.915 C 131.826 307.032,131.049 308.007,129.660 314.126 C 127.672 322.883,127.348 323.020,125.569 315.850 C 123.573 307.809,123.744 308.102,121.033 308.109 C 117.652 308.117,117.771 307.937,116.097 315.536 C 114.361 323.415,114.120 323.374,112.222 314.882 C 111.468 311.509,110.702 308.600,110.519 308.417 C 110.125 308.024,107.024 307.731,105.877 307.979 M151.736 308.068 C 150.225 308.269,150.127 308.350,150.018 309.488 C 149.755 312.246,149.922 312.375,153.791 312.398 C 161.335 312.443,161.340 312.459,156.045 319.141 C 149.306 327.646,148.887 328.290,148.887 330.144 C 148.887 332.290,149.052 332.324,159.420 332.324 L 168.833 332.324 168.833 330.009 L 168.833 327.694 165.717 327.652 C 160.551 327.583,157.992 327.239,157.870 326.596 C 157.811 326.287,159.896 323.321,162.503 320.007 C 168.891 311.887,168.477 312.580,168.477 309.983 L 168.477 307.747 160.908 307.801 C 156.745 307.830,152.618 307.950,151.736 308.068 M217.893 308.161 C 217.181 308.700,210.084 330.272,210.236 331.434 C 210.317 332.051,210.639 332.160,212.655 332.250 L 214.981 332.353 215.659 330.357 C 216.464 327.989,216.708 327.833,219.947 327.625 C 223.698 327.383,224.026 327.540,224.950 330.017 L 225.743 332.146 228.683 332.250 L 231.624 332.355 231.408 330.781 C 231.289 329.916,230.697 327.625,230.091 325.690 C 226.399 313.903,224.664 308.827,224.194 308.437 C 223.400 307.778,218.672 307.572,217.893 308.161 M244.963 308.162 C 244.381 308.602,244.342 309.511,244.429 320.392 L 244.524 332.146 252.093 332.242 L 259.662 332.338 259.662 329.838 L 259.662 327.337 255.574 327.337 C 250.137 327.337,250.493 328.021,250.342 317.293 C 250.263 311.746,250.087 308.716,249.828 308.457 C 249.193 307.821,245.694 307.609,244.963 308.162 M279.169 308.159 C 278.438 308.426,278.099 308.884,277.807 310.001 C 277.593 310.818,276.079 315.654,274.442 320.748 C 270.582 332.760,270.625 332.324,273.307 332.324 C 275.639 332.324,276.274 331.879,276.861 329.831 C 277.408 327.926,278.508 327.390,281.933 327.358 C 284.673 327.332,285.463 327.884,286.248 330.375 L 286.862 332.324 289.658 332.324 C 293.405 332.324,293.420 332.956,289.367 319.965 C 285.897 308.841,285.844 308.706,284.703 308.229 C 283.376 307.675,280.591 307.639,279.169 308.159 M305.966 308.095 C 305.375 308.469,304.962 325.600,305.435 330.115 L 305.670 332.358 307.688 332.252 L 309.706 332.146 309.932 329.831 C 310.056 328.557,310.176 325.540,310.199 323.126 C 310.254 317.341,310.498 317.430,314.689 324.760 C 319.471 333.124,318.735 332.324,321.647 332.324 L 324.132 332.324 324.132 320.197 L 324.132 308.069 321.920 308.175 C 319.203 308.306,319.230 308.242,319.181 314.722 C 319.136 320.622,319.140 320.620,316.370 315.842 C 312.254 308.742,312.082 308.510,310.654 308.113 C 309.022 307.660,306.670 307.651,305.966 308.095 M339.756 307.977 C 338.282 308.237,338.065 311.692,338.615 326.180 L 338.848 332.324 343.405 332.324 C 352.039 332.324,355.110 330.888,357.496 325.735 C 360.517 319.210,357.169 309.765,351.371 308.457 C 349.779 308.098,341.099 307.739,339.756 307.977 M181.872 308.667 C 181.591 309.401,181.600 330.474,181.882 331.529 L 182.099 332.337 190.515 332.241 L 198.931 332.146 199.036 329.973 L 199.141 327.801 196.400 327.569 C 194.893 327.442,192.762 327.335,191.665 327.332 C 188.342 327.323,187.392 326.483,187.863 323.971 L 188.080 322.813 192.057 322.572 C 196.757 322.286,196.972 322.158,196.972 319.636 L 196.972 317.720 195.815 317.695 C 192.229 317.617,188.330 317.077,188.039 316.618 C 187.530 315.814,187.664 313.901,188.271 313.293 C 188.956 312.608,188.385 312.693,194.123 312.425 L 198.931 312.199 199.038 310.151 L 199.145 308.103 190.617 308.103 C 183.169 308.103,182.061 308.175,181.872 308.667 M350.254 314.090 C 354.640 318.248,352.225 327.337,346.735 327.337 C 344.911 327.337,344.850 327.220,344.557 323.090 C 344.196 318.001,344.696 313.102,345.611 312.764 C 346.754 312.341,349.123 313.018,350.254 314.090 M282.678 318.984 C 283.643 322.077,283.535 322.351,281.351 322.351 C 279.211 322.351,279.128 321.402,280.858 316.711 C 281.223 315.722,281.939 316.615,282.678 318.984 M221.328 318.071 C 221.640 318.852,221.998 320.134,222.124 320.921 L 222.353 322.351 220.309 322.351 L 218.264 322.351 218.510 321.015 C 218.827 319.297,219.986 316.652,220.422 316.652 C 220.608 316.652,221.015 317.290,221.328 318.071 " stroke="none" fill="#000000" fill-rule="evenodd">
</path></g></svg>