<svg width="167" height="56" viewBox="0 0 167 56" fill="none" xmlns="http://www.w3.org/2000/svg">
<path d="M14.1081 11.3738C22.2448 11.3738 28.2161 16.7931 28.2161 25.3571C28.2161 33.921 22.2448 39.3404 14.1081 39.3404C5.97132 39.3404 0 33.921 0 25.3571C0 16.7931 5.97132 11.3738 14.1081 11.3738ZM14.1081 33.921C19.0295 33.921 22.2448 30.3081 22.2448 25.3571C22.2448 20.406 19.0295 16.7931 14.1081 16.7931C9.18665 16.7931 5.97132 20.406 5.97132 25.3571C5.97132 30.3081 9.18665 33.921 14.1081 33.921Z" fill="white"/>
<path d="M31.1689 19.1351H36.5497V21.6775H36.6153C37.534 20.2725 39.765 18.6667 42.3898 18.6667C47.9674 18.6667 51.642 22.748 51.642 28.5688C51.642 33.9212 48.3611 38.8054 43.046 38.8054C40.6181 38.8054 38.387 38.1363 37.0746 36.2629H37.009V47.3024H31.1689V19.1351ZM41.143 33.5867C44.0303 33.5867 45.802 31.5795 45.802 28.7026C45.802 25.8257 44.0303 23.8185 41.143 23.8185C38.2558 23.8185 36.4841 25.8257 36.4841 28.7026C36.4841 31.5795 38.2558 33.5867 41.143 33.5867Z" fill="white"/>
<path d="M73.5588 35.7945C71.6559 38.27 68.5718 39.675 65.4877 39.675C59.582 39.675 54.8574 35.6607 54.8574 29.4385C54.8574 23.2162 59.582 19.2019 65.4877 19.2019C70.9997 19.2019 74.4775 23.2162 74.4775 29.4385V31.3118H60.7631C61.2225 33.5866 62.9285 35.0586 65.2252 35.0586C67.1282 35.0586 68.4405 34.055 69.4248 32.7169L73.5588 35.7945ZM68.5718 27.2306C68.6374 25.2234 67.0625 23.5508 64.9627 23.5508C62.338 23.5508 60.96 25.3572 60.7631 27.2306H68.5718Z" fill="white"/>
<path d="M78.0205 20.0716H83.7294V22.7478H83.795C84.5824 21.209 86.551 19.6033 89.4382 19.6033C95.4751 19.6033 96.5907 23.6176 96.5907 28.9032V39.7419H90.685V30.0406C90.685 27.7658 90.6193 24.8888 87.6009 24.8888C84.5168 24.8888 84.0575 27.3643 84.0575 29.9067V39.675H78.1517V20.0716H78.0205Z" fill="white"/>
<path d="M102.3 12.0432H107.812V43.3551H102.3V12.0432Z" fill="white"/>
<path d="M126.775 36.6641H126.71C125.397 38.8051 122.969 39.6749 120.542 39.6749C116.867 39.6749 113.586 37.5339 113.586 33.5195C113.586 26.6283 121.788 26.5614 126.775 26.5614C126.775 24.4204 125.004 23.0154 122.904 23.0154C120.935 23.0154 119.295 23.8851 118.048 25.3571L114.833 22.0118C117.064 19.8708 120.213 18.8003 123.429 18.8003C130.45 18.8003 132.353 22.4132 132.353 29.0369V39.1396H126.841V36.6641H126.775ZM125.266 30.5088C123.429 30.5088 119.36 30.6426 119.36 33.3857C119.36 34.8577 120.87 35.5267 122.182 35.5267C124.544 35.5267 126.775 34.2555 126.775 31.78V30.4419H125.266V30.5088Z" fill="white"/>
<path d="M134.781 20.741H140.884L144.69 32.6502H144.755L147.905 20.741H154.204L157.617 32.6502H157.682L161.16 20.741H167L160.373 39.6753H154.729L150.858 27.097H150.792L147.38 39.6753H141.606L134.781 20.741Z" fill="white"/>
<path d="M107.811 5.28555H72.246C71.3929 2.20789 68.6369 0 65.356 0C61.3532 0 58.0723 3.34528 58.0723 7.42653C58.0723 11.5078 61.3532 14.8531 65.356 14.8531C68.7025 14.8531 71.5898 12.5114 72.3772 9.3668H107.877V5.28555H107.811ZM65.356 11.5747C63.1249 11.5747 61.2876 9.70132 61.2876 7.42653C61.2876 5.15174 63.1249 3.27838 65.356 3.27838C67.587 3.27838 69.4243 5.15174 69.4243 7.42653C69.4243 9.76823 67.587 11.5747 65.356 11.5747Z" fill="#00A8B3"/>
<path d="M144.821 41.147C141.474 41.147 138.587 43.4887 137.8 46.6332H102.3V50.7145H137.865C138.784 53.7921 141.54 56 144.821 56C148.824 56 152.105 52.6547 152.105 48.5735C152.105 44.4923 148.824 41.147 144.821 41.147ZM144.821 52.7886C142.59 52.7886 140.752 50.9152 140.752 48.6404C140.752 46.3656 142.59 44.4923 144.821 44.4923C147.052 44.4923 148.889 46.3656 148.889 48.6404C148.889 50.9152 147.052 52.7886 144.821 52.7886Z" fill="#00A8B3"/>
</svg>
