<svg width="1440" height="285" viewBox="0 0 1440 285" fill="none" xmlns="http://www.w3.org/2000/svg">
<rect width="1440" height="287" fill="white"/>
<g opacity="0.9">
<mask id="mask0" mask-type="alpha" maskUnits="userSpaceOnUse" x="0" y="0" width="1440" height="287">
<rect width="1440" height="287" fill="#C4C4C4"/>
</mask>
<g mask="url(#mask0)">
<path opacity="0.05" fill-rule="evenodd" clip-rule="evenodd" d="M769.269 384.768C759.182 460.147 466.007 422.922 235.619 317.776C5.23058 212.631 -66.5827 51.583 68.4999 18.0249C203.582 -15.5331 779.356 309.389 769.269 384.768Z" fill="#E9B58F"/>
<path opacity="0.05" fill-rule="evenodd" clip-rule="evenodd" d="M1439.73 241.531C1448.6 304.343 1233.71 345.312 1048.76 316.721C863.808 288.129 778.961 176.475 867.217 116.981C955.474 57.487 1430.87 178.72 1439.73 241.531Z" fill="#1C9FA8"/>
<g opacity="0.2">
<rect width="361.712" height="334.232" rx="3.86902" transform="matrix(0.92351 -0.366417 0.317192 0.942603 531.855 88.5378)" fill="#F2F2F2"/>
<rect width="75.8682" height="78.5516" rx="3.86902" transform="matrix(0.923496 -0.366478 0.317152 0.942623 784.521 30.5051)" fill="white"/>
<path fill-rule="evenodd" clip-rule="evenodd" d="M834.045 59.5701C842.605 56.3431 847.154 46.9972 844.207 38.6954C841.259 30.3936 831.931 26.2796 823.371 29.5066C814.812 32.7336 810.262 42.0795 813.21 50.3813C816.157 58.6831 825.486 62.7971 834.045 59.5701Z" fill="#DDE3E9"/>
<rect width="51.4144" height="5.84672" rx="1.6927" transform="matrix(0.93055 -0.344008 0.33816 0.933768 811.79 72.6521)" fill="#DDE3E9"/>
<rect width="35.012" height="5.87363" rx="1.6927" transform="matrix(0.930146 -0.345268 0.33694 0.934271 822.903 79.4038)" fill="#DDE3E9"/>
<path d="M533.149 79.8095C532.435 77.814 533.463 75.5948 535.446 74.8529L849.51 -42.6564C851.493 -43.3983 853.679 -42.3821 854.393 -40.3866L861.067 -21.7409L539.823 98.4552L533.149 79.8095Z" fill="#C5CFD6"/>
<path fill-rule="evenodd" clip-rule="evenodd" d="M550.492 85.2756C552.619 84.4823 553.736 82.1467 552.986 80.0589C552.235 77.9711 549.903 76.9217 547.775 77.715C545.648 78.5083 544.531 80.8439 545.281 82.9317C546.031 85.0195 548.364 86.0689 550.492 85.2756Z" fill="#F2F2F2"/>
<path fill-rule="evenodd" clip-rule="evenodd" d="M561.946 81.0971C564.073 80.3029 565.19 77.9664 564.44 75.8784C563.691 73.7903 561.359 72.7414 559.232 73.5355C557.104 74.3296 555.987 76.6661 556.737 78.7542C557.486 80.8422 559.819 81.8912 561.946 81.0971Z" fill="#F2F2F2"/>
<path fill-rule="evenodd" clip-rule="evenodd" d="M573.402 76.9196C575.529 76.1254 576.646 73.789 575.896 71.7009C575.147 69.6128 572.815 68.5639 570.688 69.358C568.56 70.1521 567.444 72.4886 568.193 74.5767C568.943 76.6647 571.275 77.7137 573.402 76.9196Z" fill="#F2F2F2"/>
<g clip-path="url(#clip0)">
<rect width="78.4162" height="192.835" rx="3.86902" transform="matrix(0.924333 -0.363026 0.320275 0.941058 815.447 116.299)" fill="white"/>
<g clip-path="url(#clip1)">
<rect width="60.4433" height="12.5743" rx="1.93451" transform="matrix(0.924333 -0.363026 0.320275 0.941058 826.282 121.331)" fill="#DDE3E9"/>
<rect width="60.4433" height="12.0907" rx="1.93451" transform="matrix(0.924333 -0.363026 0.320275 0.941058 831.549 136.805)" fill="#AFB9C5"/>
<rect width="60.4433" height="12.0907" rx="1.93451" transform="matrix(0.924333 -0.363026 0.320275 0.941058 836.66 151.824)" fill="#DDE3E9"/>
<rect width="60.4433" height="12.0907" rx="1.93451" transform="matrix(0.924333 -0.363026 0.320275 0.941058 846.883 181.862)" fill="#DDE3E9"/>
<rect width="60.4433" height="12.0907" rx="1.93451" transform="matrix(0.924333 -0.363026 0.320275 0.941058 841.771 166.843)" fill="#C5CFD6"/>
</g>
</g>
<g clip-path="url(#clip2)">
<g clip-path="url(#clip3)">
<rect width="244.816" height="45.7305" rx="1.93451" transform="matrix(0.923504 -0.366443 0.317191 0.942603 562.42 120.421)" fill="white"/>
<g clip-path="url(#clip4)">
<rect width="216.766" height="6.85507" rx="1.45088" transform="matrix(0.923504 -0.366443 0.317191 0.942603 570.788 131.749)" fill="#DDE3E9"/>
<rect width="145.5" height="6.85507" rx="1.45088" transform="matrix(0.923504 -0.366443 0.317191 0.942603 574.412 142.518)" fill="#DDE3E9"/>
</g>
<path fill-rule="evenodd" clip-rule="evenodd" d="M723.456 85.1043C725.182 84.4191 726.101 82.435 725.508 80.6726C724.915 78.9102 723.035 78.037 721.308 78.7221C719.581 79.4072 718.662 81.3913 719.255 83.1537C719.849 84.9161 721.729 85.7894 723.456 85.1043Z" fill="#DDE3E9"/>
<path fill-rule="evenodd" clip-rule="evenodd" d="M722.842 83.2809C723.582 82.9873 723.976 82.137 723.722 81.3817C723.468 80.6264 722.662 80.2521 721.922 80.5457C721.182 80.8394 720.788 81.6897 721.042 82.445C721.296 83.2003 722.102 83.5746 722.842 83.2809Z" fill="#F2F2F2"/>
</g>
<g clip-path="url(#clip5)">
<rect width="244.816" height="37.8615" rx="1.93451" transform="matrix(0.923504 -0.366443 0.317191 0.942603 579.384 170.831)" fill="white"/>
<g clip-path="url(#clip6)">
<rect width="216.766" height="5.68825" rx="1.45088" transform="matrix(0.923504 -0.366443 0.317191 0.942603 587.012 179.959)" fill="#DDE3E9"/>
<rect width="145.5" height="5.68825" rx="1.45088" transform="matrix(0.923504 -0.366443 0.317191 0.942603 590.019 188.896)" fill="#DDE3E9"/>
</g>
<path fill-rule="evenodd" clip-rule="evenodd" d="M739.172 131.805C740.898 131.12 741.817 129.136 741.224 127.374C740.631 125.611 738.751 124.738 737.024 125.423C735.297 126.108 734.378 128.093 734.971 129.855C735.564 131.617 737.445 132.491 739.172 131.805Z" fill="#DDE3E9"/>
<path fill-rule="evenodd" clip-rule="evenodd" d="M738.558 129.982C739.298 129.688 739.692 128.838 739.438 128.083C739.184 127.328 738.378 126.953 737.638 127.247C736.898 127.541 736.504 128.391 736.758 129.146C737.012 129.901 737.818 130.276 738.558 129.982Z" fill="#F2F2F2"/>
</g>
<g clip-path="url(#clip7)">
<rect width="244.816" height="37.8615" rx="1.93451" transform="matrix(0.923504 -0.366443 0.317191 0.942603 593.879 213.908)" fill="white"/>
<g clip-path="url(#clip8)">
<rect width="216.766" height="5.68825" rx="1.45088" transform="matrix(0.923504 -0.366443 0.317191 0.942603 601.507 223.036)" fill="#DDE3E9"/>
<rect width="145.5" height="5.68825" rx="1.45088" transform="matrix(0.923504 -0.366443 0.317191 0.942603 604.514 231.973)" fill="#DDE3E9"/>
</g>
<path fill-rule="evenodd" clip-rule="evenodd" d="M753.667 174.883C755.393 174.198 756.312 172.214 755.719 170.451C755.126 168.689 753.246 167.816 751.519 168.501C749.792 169.186 748.873 171.17 749.466 172.932C750.059 174.695 751.94 175.568 753.667 174.883Z" fill="#DDE3E9"/>
<path fill-rule="evenodd" clip-rule="evenodd" d="M753.053 173.06C753.793 172.766 754.187 171.916 753.933 171.16C753.679 170.405 752.873 170.031 752.133 170.324C751.393 170.618 750.999 171.468 751.253 172.224C751.507 172.979 752.313 173.353 753.053 173.06Z" fill="#AFB9C5"/>
</g>
<g clip-path="url(#clip9)">
<rect width="244.816" height="37.8615" rx="1.93451" transform="matrix(0.923504 -0.366443 0.317191 0.942603 637.366 343.14)" fill="white"/>
<g clip-path="url(#clip10)">
<rect width="216.766" height="5.68825" rx="1.45088" transform="matrix(0.923504 -0.366443 0.317191 0.942603 644.994 352.269)" fill="#DDE3E9"/>
</g>
</g>
<g clip-path="url(#clip11)">
<rect width="244.816" height="37.8615" rx="1.93451" transform="matrix(0.923504 -0.366443 0.317191 0.942603 622.871 300.063)" fill="white"/>
<g clip-path="url(#clip12)">
<rect width="216.766" height="5.68826" rx="1.45088" transform="matrix(0.923504 -0.366443 0.317191 0.942603 630.499 309.191)" fill="#DDE3E9"/>
<rect width="145.5" height="5.68826" rx="1.45088" transform="matrix(0.923504 -0.366443 0.317191 0.942603 633.506 318.127)" fill="#DDE3E9"/>
</g>
<path fill-rule="evenodd" clip-rule="evenodd" d="M782.659 261.038C784.385 260.352 785.304 258.368 784.711 256.606C784.118 254.844 782.238 253.97 780.511 254.655C778.785 255.341 777.866 257.325 778.459 259.087C779.052 260.849 780.932 261.723 782.659 261.038Z" fill="#DDE3E9"/>
<path fill-rule="evenodd" clip-rule="evenodd" d="M782.045 259.214C782.785 258.921 783.179 258.07 782.925 257.315C782.671 256.56 781.865 256.185 781.125 256.479C780.385 256.773 779.991 257.623 780.245 258.378C780.5 259.134 781.305 259.508 782.045 259.214Z" fill="#F2F2F2"/>
</g>
<g clip-path="url(#clip13)">
<rect width="244.816" height="37.8615" rx="1.93451" transform="matrix(0.923504 -0.366443 0.317191 0.942603 608.375 256.985)" fill="white"/>
<g clip-path="url(#clip14)">
<rect width="216.766" height="5.68825" rx="1.45088" transform="matrix(0.923504 -0.366443 0.317191 0.942603 616.003 266.114)" fill="#DDE3E9"/>
<rect width="145.5" height="5.68825" rx="1.45088" transform="matrix(0.923504 -0.366443 0.317191 0.942603 619.01 275.05)" fill="#DDE3E9"/>
</g>
<path fill-rule="evenodd" clip-rule="evenodd" d="M768.163 217.96C769.889 217.275 770.808 215.291 770.215 213.529C769.622 211.766 767.742 210.893 766.015 211.578C764.288 212.263 763.369 214.247 763.962 216.01C764.556 217.772 766.436 218.645 768.163 217.96Z" fill="#DDE3E9"/>
<path fill-rule="evenodd" clip-rule="evenodd" d="M767.549 216.137C768.289 215.843 768.683 214.993 768.429 214.238C768.175 213.482 767.369 213.108 766.629 213.402C765.889 213.695 765.495 214.546 765.749 215.301C766.003 216.056 766.809 216.431 767.549 216.137Z" fill="#F2F2F2"/>
</g>
</g>
</g>
<g opacity="0.7">
<rect opacity="0.1" width="301.589" height="365.723" rx="7.70387" transform="matrix(-0.92594 -0.37767 -0.346766 0.937952 1303.26 22.6042)" fill="#A36633"/>
<path d="M1300.59 29.8301C1302.06 25.8394 1300.07 21.3016 1296.13 19.6947L1031.14 -88.3875C1027.2 -89.9943 1022.81 -88.0618 1021.33 -84.0711L1014.11 -64.5287L1293.36 49.3725L1300.59 29.8301Z" fill="#A36633"/>
<path fill-rule="evenodd" clip-rule="evenodd" d="M1284.36 35.4306C1282.27 34.5777 1281.23 32.1107 1282.04 29.9205C1282.85 27.7303 1285.2 26.6463 1287.29 27.4993C1289.38 28.3522 1290.42 30.8192 1289.61 33.0094C1288.8 35.1996 1286.45 36.2836 1284.36 35.4306Z" fill="#F2F2F2"/>
<path fill-rule="evenodd" clip-rule="evenodd" d="M1273 30.7973C1270.91 29.9444 1269.87 27.4774 1270.68 25.2872C1271.49 23.097 1273.84 22.013 1275.93 22.866C1278.02 23.7189 1279.06 26.1859 1278.25 28.3761C1277.44 30.5662 1275.09 31.6503 1273 30.7973Z" fill="#F2F2F2"/>
<path fill-rule="evenodd" clip-rule="evenodd" d="M1261.64 26.1638C1259.55 25.3108 1258.51 22.8439 1259.32 20.6537C1260.13 18.4635 1262.48 17.3795 1264.57 18.2324C1266.66 19.0854 1267.7 21.5523 1266.89 23.7425C1266.08 25.9327 1263.73 27.0167 1261.64 26.1638Z" fill="#F2F2F2"/>
<rect width="268.485" height="297.018" rx="3.85194" transform="matrix(-0.92594 -0.37767 -0.346766 0.937952 1272.72 58.0664)" fill="white"/>
<g clip-path="url(#clip15)">
<rect width="214.037" height="6.18347" rx="2.88895" transform="matrix(-0.92594 -0.37767 -0.346766 0.937952 1237.62 74.5527)" fill="#DDE3E9"/>
<rect width="143.669" height="6.18347" rx="2.88895" transform="matrix(-0.92594 -0.37767 -0.346766 0.937952 1234.04 84.219)" fill="#DDE3E9"/>
</g>
<rect width="214.037" height="6.18336" rx="2.88895" transform="matrix(-0.92594 -0.37767 -0.346766 0.937952 1229.92 95.3726)" fill="#DDE3E9"/>
<rect width="214.037" height="6.18336" rx="2.88895" transform="matrix(-0.92594 -0.37767 -0.346766 0.937952 1229.92 95.3726)" fill="#DDE3E9"/>
<rect width="214.037" height="6.1834" rx="2.88895" transform="matrix(-0.92594 -0.37767 -0.346766 0.937952 1225.89 106.278)" fill="#DDE3E9"/>
<rect width="214.037" height="6.18341" rx="2.88895" transform="matrix(-0.92594 -0.37767 -0.346766 0.937952 1221.85 117.184)" fill="#DDE3E9"/>
<rect width="214.037" height="6.18344" rx="2.88895" transform="matrix(-0.92594 -0.37767 -0.346766 0.937952 1217.82 128.089)" fill="#DDE3E9"/>
<rect width="214.037" height="6.18346" rx="2.88895" transform="matrix(-0.92594 -0.37767 -0.346766 0.937952 1213.79 138.995)" fill="#DDE3E9"/>
<rect width="214.037" height="6.18349" rx="2.88895" transform="matrix(-0.92594 -0.37767 -0.346766 0.937952 1209.76 149.901)" fill="#DDE3E9"/>
<rect width="103.264" height="6.34198" rx="2.88895" transform="matrix(-0.92594 -0.37767 -0.346766 0.937952 1205.73 160.806)" fill="#DDE3E9"/>
<rect width="214.037" height="6.18346" rx="2.88895" transform="matrix(-0.92594 -0.37767 -0.346766 0.937952 1201.69 171.712)" fill="#DDE3E9"/>
<rect width="214.037" height="6.18346" rx="2.88895" transform="matrix(-0.92594 -0.37767 -0.346766 0.937952 1197.66 182.617)" fill="#DDE3E9"/>
<rect width="214.037" height="6.18343" rx="2.88895" transform="matrix(-0.92594 -0.37767 -0.346766 0.937952 1193.63 193.523)" fill="#DDE3E9"/>
<rect width="214.037" height="6.18343" rx="2.88895" transform="matrix(-0.92594 -0.37767 -0.346766 0.937952 1189.6 204.428)" fill="#DDE3E9"/>
<rect width="214.037" height="6.18347" rx="2.88895" transform="matrix(-0.92594 -0.37767 -0.346766 0.937952 1185.57 215.334)" fill="#DDE3E9"/>
<rect width="214.037" height="6.18338" rx="2.88895" transform="matrix(-0.92594 -0.37767 -0.346766 0.937952 1181.54 226.24)" fill="#DDE3E9"/>
<rect width="111.712" height="6.34203" rx="2.88895" transform="matrix(-0.92594 -0.37767 -0.346766 0.937952 1177.5 237.146)" fill="#DDE3E9"/>
<rect width="214.037" height="6.18341" rx="2.88895" transform="matrix(-0.92594 -0.37767 -0.346766 0.937952 1173.47 248.051)" fill="#DDE3E9"/>
<rect width="214.037" height="6.18341" rx="2.88895" transform="matrix(-0.92594 -0.37767 -0.346766 0.937952 1169.44 258.956)" fill="#DDE3E9"/>
<rect width="214.037" height="6.18341" rx="2.88895" transform="matrix(-0.92594 -0.37767 -0.346766 0.937952 1165.41 269.862)" fill="#DDE3E9"/>
<rect width="98.5698" height="6.34201" rx="2.88895" transform="matrix(-0.92594 -0.37767 -0.346766 0.937952 1161.38 280.768)" fill="#DDE3E9"/>
</g>
<path fill-rule="evenodd" clip-rule="evenodd" d="M949.175 221.879C950.755 222.551 952.247 222.774 952.895 222.506C954.519 221.835 953.81 215.655 952.166 213.41C950.521 211.166 943.669 211.052 944.006 215.91C944.123 217.595 945.033 218.986 946.241 220.056L945.596 228.974L950.996 228.214L949.175 221.879Z" fill="#B28B67"/>
<path fill-rule="evenodd" clip-rule="evenodd" d="M949.66 211.067C948.891 210.946 947.809 211.02 947.366 211.135C947.536 210.486 947.542 209.788 947.365 209.134C947.194 208.499 946.828 207.989 946.479 207.45C946.319 207.201 946.142 206.956 945.905 206.782C945.663 206.605 945.376 206.506 945.085 206.48C944.787 206.454 944.486 206.502 944.206 206.603C944.082 206.648 943.976 206.723 943.855 206.773C943.731 206.824 943.658 206.752 943.553 206.685C943.302 206.522 942.959 206.473 942.67 206.478C942.346 206.485 942.023 206.579 941.733 206.727C941.452 206.87 941.191 207.076 941.011 207.347C940.931 207.467 940.862 207.601 940.824 207.744C940.809 207.803 940.81 207.836 940.758 207.864C940.709 207.89 940.649 207.899 940.599 207.924C940.114 208.168 939.733 208.623 939.566 209.162C939.469 209.476 939.476 210.004 939.576 210.584C939.675 211.163 940.414 212.606 940.984 213.091C941.492 213.523 942.183 213.758 942.826 213.813C942.479 214.344 942.286 214.972 942.167 215.6C942.037 216.283 941.995 216.979 942.042 217.676C942.086 218.338 942.178 219.032 942.422 219.651C942.65 220.231 943.027 220.679 943.584 220.919C943.84 221.029 944.108 221.101 944.376 221.163C944.641 221.225 944.905 221.283 945.176 221.3C945.688 221.333 946.258 221.235 946.586 220.785C946.704 220.623 946.831 220.423 946.907 220.234C946.935 220.167 946.951 220.123 946.898 220.068C946.835 220.002 946.742 219.957 946.666 219.91C946.234 219.637 945.934 219.234 945.801 218.724C945.666 218.206 945.712 217.506 946.192 217.204C946.785 216.832 947.527 217.059 948.132 217.283C948.253 216.407 948.637 215.58 949.352 215.085C950.143 214.538 951.113 214.35 951.936 213.86C952.15 213.733 952.367 213.591 952.508 213.373C952.566 213.282 952.634 213.165 952.647 213.053C952.664 212.906 952.556 212.801 952.47 212.7C952.014 212.169 950.43 211.187 949.66 211.067Z" fill="#184747"/>
<path fill-rule="evenodd" clip-rule="evenodd" d="M947.528 246.851L964.413 275.048L977.072 298.886H979.799L958.589 246.851L947.528 246.851Z" fill="#997659"/>
<path fill-rule="evenodd" clip-rule="evenodd" d="M973.558 295.069L978.816 293.48C978.816 293.48 975.36 283.161 970.345 270.768C965.33 258.376 959.573 246.851 959.573 246.851H944.722C944.722 246.851 951.122 261.43 958.293 273.345C965.463 285.26 973.558 295.069 973.558 295.069Z" fill="#A26638"/>
<path fill-rule="evenodd" clip-rule="evenodd" d="M946.419 246.851C944.825 256.759 941.752 269.419 941.461 269.809C941.268 270.07 934.306 272.4 920.576 276.8L921.165 279.202C937.538 276.842 946.166 275.011 947.047 273.709C948.369 271.757 954.97 256.33 957.527 246.851H946.419Z" fill="#B28B67"/>
<path fill-rule="evenodd" clip-rule="evenodd" d="M925.403 274.724L926.441 278.592C938.687 279.665 946.19 278.89 948.951 276.266C951.712 273.643 954.859 263.838 958.391 246.851H944.229C941.991 260.761 940.74 268.008 940.476 268.592C940.212 269.176 935.187 271.22 925.403 274.724Z" fill="#C9844F"/>
<path fill-rule="evenodd" clip-rule="evenodd" d="M921.446 277.806C921.264 276.777 920.855 275.593 919.813 275.673C919.766 275.676 919.722 275.681 919.682 275.688C919.077 275.795 917.951 276.201 917.951 276.201C918.075 276.902 920.177 288.809 920.177 288.809C920.177 288.809 921.89 289.014 921.833 287.932C921.776 286.85 921.757 286.132 921.757 286.132L923.144 280.583C923.281 280.036 922.939 279.485 922.388 279.364L922.185 279.319C922.185 279.319 921.554 278.419 921.446 277.806Z" fill="#E4E4E4"/>
<path fill-rule="evenodd" clip-rule="evenodd" d="M963.503 226.84L956.292 232.213L959.61 234.899L964.558 228.909C967.432 227.665 968.715 226.871 968.406 226.526C968.146 226.234 967.8 226.295 967.482 226.35C967.234 226.393 967.002 226.433 966.841 226.302C966.472 226.003 966.915 224.714 967.388 223.508C967.862 222.303 967.202 222.495 966.839 222.71C965.698 223.74 964.586 225.116 963.503 226.84ZM972.197 231.73L969.031 234.096L969.708 237.507C969.708 237.507 971.706 235.592 973.543 234.791C975.885 233.769 976.799 233.111 977.777 231.428C978.3 230.527 978.613 228.82 977.932 228.375C977.67 228.204 976.871 228.807 976.055 229.422C975.433 229.892 974.802 230.368 974.393 230.514C973.841 230.711 973.805 229.966 973.775 229.372C973.754 228.945 973.737 228.595 973.536 228.725C972.535 228.884 972.197 231.73 972.197 231.73Z" fill="#997659"/>
<path fill-rule="evenodd" clip-rule="evenodd" d="M952.356 231.796C955.088 231.382 958.655 230.292 962.201 227.275L964.207 230.465C961.896 233.505 958.427 236.224 955.113 236.596C952.501 236.889 950.731 233.933 952.356 231.796Z" fill="#458E94"/>
<path fill-rule="evenodd" clip-rule="evenodd" d="M950.703 223.212C950.703 223.212 950.703 223.212 950.703 223.212L945.277 223.976C945.277 223.976 945.277 223.976 945.277 223.977L945.081 224.004C944.396 224.101 940.993 233.666 941.8 239.456C942.078 241.444 941.621 243.257 941.14 245.166C940.342 248.334 939.478 251.765 941.79 256.696C943.167 256.218 945.601 256.193 948.249 256.165C953.206 256.114 958.915 256.054 959.86 253.006C960.565 250.73 960.537 248.352 960.061 245.916C964.189 245.243 969.025 243.171 974.46 239.285C974.338 237.02 971.057 232.122 971.057 232.122C971.057 232.122 961.484 237.122 956.802 236.732C956.405 235.859 955.996 234.986 955.588 234.113C953.842 230.379 952.106 226.668 951.325 223.125L950.703 223.212Z" fill="#51B0B7"/>
<path fill-rule="evenodd" clip-rule="evenodd" d="M640.029 245.964C642.026 247.312 643.987 247.963 644.908 247.698C647.216 247.032 647.428 237.577 645.642 233.85C643.857 230.122 634.676 228.498 634.213 235.883C634.052 238.445 635.013 240.732 636.432 242.598L633.886 255.889H641.282L640.029 245.964Z" fill="#B28B67"/>
<path fill-rule="evenodd" clip-rule="evenodd" d="M641.425 229.554C640.45 229.375 637.826 229.252 637.342 229.252C637.032 229.252 636.697 229.331 636.514 229.013C636.364 228.752 636.419 228.312 636.374 228.01C636.322 227.659 636.248 227.312 636.173 226.966C635.961 225.983 635.639 225.047 635.19 224.168C634.346 222.52 633.109 221.229 631.549 220.477C629.825 219.648 627.875 219.458 626.021 219.626C624.037 219.806 622.241 220.539 620.368 221.229C618.583 221.887 616.714 222.146 614.847 221.825C612.966 221.501 611.545 220.36 609.958 219.276C608.334 218.167 606.478 217.442 604.558 217.608C602.766 217.764 601.114 218.593 599.632 219.7C598.245 220.735 597.101 221.981 596.455 223.735C595.76 225.622 595.76 227.693 596.903 229.36C598.56 231.776 601.635 232.401 604.193 232.339C605.673 232.303 607.126 232.001 608.523 231.451C610.386 230.717 611.996 229.473 613.739 228.464C614.557 227.991 615.403 227.602 616.289 227.322C617.149 227.05 617.996 226.925 618.775 227.507C619.598 228.122 620.336 228.727 621.279 229.112C622.183 229.482 623.14 229.688 624.103 229.68C625.977 229.664 627.825 229.01 629.645 228.572C631.129 228.215 632.717 227.859 634.23 228.202C634.861 228.346 635.784 228.641 636.012 229.376C632.174 230.155 630.666 235.47 631.748 239.372C632.332 241.478 635.843 243.94 637.208 242.833C638.072 242.131 637.547 241.21 637.208 240.603C636.557 239.438 636.334 237.943 637.538 237.133C638.577 236.434 639.669 238.094 639.689 238.092C639.975 238.067 642.441 236.505 644.14 234.226C645.817 234.337 646.071 233.099 645.671 232.087C645.27 231.075 642.772 229.801 641.425 229.554Z" fill="#184747"/>
<path fill-rule="evenodd" clip-rule="evenodd" d="M628.394 283.296C628.949 291.818 664.677 316.908 664.885 317.612C665.024 318.081 653.765 347.282 653.765 347.282L656.888 348.649C656.888 348.649 674.158 317.722 673.271 314.427C672.001 309.709 645.55 283.386 645.55 283.386L628.394 283.296Z" fill="#B28B67"/>
<path fill-rule="evenodd" clip-rule="evenodd" d="M654.586 342.886L659.685 344.976C670.437 331.317 674.652 320.048 673.883 314.306C673.115 308.564 646.258 283.317 646.258 283.317L628.028 283.317C628.651 303.053 661.766 317.687 662.209 318.528C662.652 319.369 658.293 327.606 654.586 342.886Z" fill="#653918"/>
<path fill-rule="evenodd" clip-rule="evenodd" d="M632.503 283.296L616.587 326.314L600.944 362.683H604.635L645.013 283.296H632.503Z" fill="#997659"/>
<path fill-rule="evenodd" clip-rule="evenodd" d="M602.356 355.128L610.557 356.859C616.898 346.364 643.434 303.329 646.343 283.296H628.087C618.371 297.778 608.4 344.459 602.356 355.128Z" fill="#A36633"/>
<path fill-rule="evenodd" clip-rule="evenodd" d="M670.665 269.097L659.536 274.612L663.09 279.75L671.425 272.538C675.588 271.675 677.519 270.934 677.217 270.314C676.962 269.791 676.489 269.762 676.053 269.735C675.714 269.714 675.397 269.694 675.224 269.444C674.828 268.872 675.804 267.106 676.794 265.475C677.783 263.843 676.856 263.902 676.313 264.097C674.497 265.238 672.615 266.904 670.665 269.097ZM620.836 277.541L614.543 276.132C610.274 288.828 607.73 295.786 606.909 297.005C606.306 297.899 602.593 300.2 600.08 301.43C599.071 301.923 599.288 302.885 599.584 303.193C601.45 305.135 603.185 304.454 605.074 303.713C605.62 303.499 606.18 303.279 606.76 303.117C608.259 302.697 608.716 303.567 609.147 304.39C609.529 305.118 609.891 305.809 610.94 305.533C610.893 305.301 610.834 305.04 610.771 304.759C610.362 302.943 609.758 300.264 610.653 298.708C611.113 297.909 614.507 290.853 620.836 277.541Z" fill="#B28B67"/>
<path fill-rule="evenodd" clip-rule="evenodd" d="M637.942 249.556L640.598 249.042C646.383 255.375 648.743 270.59 652.598 272.604C656.243 274.508 661.41 272.665 667.552 270.177L669.432 274.92C663.852 281.733 651.964 287.489 647.146 284.203C639.442 278.949 637.663 260.184 637.942 249.556Z" fill="#1C9FA8"/>
<path fill-rule="evenodd" clip-rule="evenodd" d="M626.365 287.224C626.365 287.224 642.339 287.224 649.865 287.224C650.938 287.224 650.736 285.474 650.581 284.591C648.789 274.4 641.796 263.414 641.796 248.908L635.018 247.708C629.411 257.885 627.472 270.414 626.365 287.224Z" fill="#DDE3E9"/>
<path fill-rule="evenodd" clip-rule="evenodd" d="M642.297 294.503H621.144C621.479 288.805 622.552 282.78 624.021 276.906C619.231 286.658 615.204 293.679 611.941 297.969L607.016 296.881C610.189 274.673 619.377 258.282 634.581 247.709H634.658C634.658 247.709 634.658 247.708 634.658 247.708H637.265C637.265 247.708 646.392 282.823 642.297 294.503Z" fill="#2F6267"/>
<path fill-rule="evenodd" clip-rule="evenodd" d="M856.68 234.219C852.71 236.616 848.809 237.775 846.978 237.302C842.387 236.116 841.965 219.287 845.517 212.652C849.07 206.018 867.334 203.126 868.254 216.271C868.574 220.833 866.662 224.905 863.837 228.227L868.902 251.882H854.188L856.68 234.219Z" fill="#B28B67"/>
<path fill-rule="evenodd" clip-rule="evenodd" d="M846.478 210.079C846.607 209.278 846.352 208.884 849.569 206.626C852.786 204.367 857.98 201.704 863.212 202.863C870.001 204.367 872.698 208.854 875.316 211.036C877.676 213.002 880.044 213.231 881.448 215.672C882.851 218.112 883.598 225.132 882.378 227.923C880.694 231.773 877.375 232.81 874.951 233.919C870.795 235.821 864.921 233.812 864.778 233.479C863.678 230.905 857.752 223.643 854.188 220.591C851.568 218.348 845.873 213.842 846.478 210.079Z" fill="#2F6267"/>
<mask id="mask1" mask-type="alpha" maskUnits="userSpaceOnUse" x="846" y="202" width="37" height="33">
<path fill-rule="evenodd" clip-rule="evenodd" d="M846.478 210.079C846.607 209.278 846.352 208.884 849.569 206.626C852.786 204.367 857.98 201.704 863.212 202.863C870.001 204.367 872.698 208.854 875.316 211.036C877.676 213.002 880.044 213.231 881.448 215.672C882.851 218.112 883.598 225.132 882.378 227.923C880.694 231.773 877.375 232.81 874.951 233.919C870.795 235.821 864.921 233.812 864.778 233.479C863.678 230.905 857.752 223.643 854.188 220.591C851.568 218.348 845.873 213.842 846.478 210.079Z" fill="white"/>
</mask>
<g mask="url(#mask1)">
<path fill-rule="evenodd" clip-rule="evenodd" d="M859.745 239.76C869.769 227.374 872.128 212.436 872.128 212.436L875.147 214.35C875.147 214.35 871.433 230.674 859.745 239.76ZM855.931 246.566C872.153 232.285 876.022 216.236 876.022 216.236L879.515 217.268C879.515 217.268 874.702 235.214 855.931 246.566Z" fill="black" fill-opacity="0.2"/>
</g>
<path fill-rule="evenodd" clip-rule="evenodd" d="M794.136 242.512L818.117 246.181L813.615 256.797L794.246 248.785C785.824 249.464 781.762 249.196 782.06 247.981C782.311 246.956 783.211 246.661 784.039 246.389C784.684 246.178 785.286 245.98 785.505 245.463C786.006 244.282 783.317 241.769 780.663 239.494C778.009 237.218 779.824 236.839 780.96 236.892C784.982 237.901 789.374 239.775 794.136 242.512ZM808.472 303.42L825.843 286.471L831.608 296.452L813.547 307.105C809.017 314.241 806.357 317.324 805.566 316.355C804.899 315.538 805.205 314.642 805.487 313.817C805.706 313.175 805.911 312.575 805.63 312.089C804.989 310.978 801.363 311.615 797.948 312.367C794.533 313.118 795.323 311.44 796.049 310.564C799.277 307.959 803.418 305.577 808.472 303.42Z" fill="#B28B67"/>
<path fill-rule="evenodd" clip-rule="evenodd" d="M850.55 243.934C842.763 265.085 829.627 282.308 809.717 301.093L819.413 309.354C842.811 296.704 855.062 289.334 858.854 269.852C859.805 264.963 858.842 249.939 858.708 241.981L850.55 243.934Z" fill="#00383D"/>
<path fill-rule="evenodd" clip-rule="evenodd" d="M889.223 305.305L842.475 311.888C842.475 311.888 851.563 261.203 849.375 243.099C849.3 242.484 850.282 241.243 850.803 241.314C856.521 242.093 862.41 238.495 862.41 238.495C875.993 254.76 882.904 276.168 889.223 305.305Z" fill="#F2F2F2"/>
<path fill-rule="evenodd" clip-rule="evenodd" d="M854.499 267.342C851.592 299.692 855.525 325.285 871.644 323.016L896.57 319.506C896.797 292.341 881.217 256.913 868.961 239.663C868.493 239.004 867.521 237.775 865.674 238.035L858.431 239.055C858.429 239.065 858.427 239.075 858.425 239.086C856.248 239.41 853.859 239.828 851.272 240.28C837.953 242.609 819.381 245.855 797.441 242.071L796.701 254.79C817.361 264.31 837.873 271.051 854.499 267.342Z" fill="#A36633"/>
<path fill-rule="evenodd" clip-rule="evenodd" d="M1221.39 187.566C1216.31 189.839 1211.5 190.647 1209.39 189.816C1204.1 187.733 1206.06 167.645 1211.25 160.269C1216.45 152.893 1238.6 152.123 1237.78 167.901C1237.49 173.377 1234.62 177.942 1230.78 181.483L1233.35 210.374L1215.84 208.222L1221.39 187.566Z" fill="#915B3C"/>
<path fill-rule="evenodd" clip-rule="evenodd" d="M1222.35 152.396C1224.7 152.3 1230.94 152.803 1232.09 152.944C1232.82 153.034 1233.6 153.299 1234.11 152.679C1234.53 152.171 1234.52 151.222 1234.7 150.595C1234.92 149.866 1235.18 149.154 1235.45 148.443C1236.21 146.421 1237.21 144.532 1238.5 142.802C1240.93 139.556 1244.19 137.18 1248.08 136.043C1252.38 134.787 1257.04 134.952 1261.39 135.848C1266.03 136.806 1270.1 138.882 1274.35 140.889C1278.4 142.801 1282.76 143.893 1287.26 143.756C1291.8 143.618 1295.46 141.614 1299.5 139.78C1303.63 137.903 1308.21 136.906 1312.71 137.818C1316.91 138.67 1320.61 140.906 1323.83 143.682C1326.84 146.279 1329.23 149.251 1330.3 153.154C1331.46 157.353 1330.92 161.739 1327.78 164.938C1323.23 169.575 1315.79 170.004 1309.75 169.129C1306.26 168.622 1302.89 167.559 1299.73 165.987C1295.51 163.89 1292.02 160.787 1288.16 158.143C1286.35 156.902 1284.45 155.832 1282.42 154.981C1280.46 154.154 1278.48 153.644 1276.49 154.65C1274.38 155.713 1272.48 156.779 1270.15 157.321C1267.91 157.841 1265.59 158 1263.31 157.703C1258.88 157.123 1254.68 155.201 1250.48 153.743C1247.06 152.555 1243.4 151.34 1239.73 151.626C1238.2 151.746 1235.94 152.104 1235.21 153.594C1244.09 156.361 1246.28 168.058 1242.7 176.009C1240.77 180.3 1231.82 184.493 1228.88 181.751C1227.01 180.014 1228.5 178.216 1229.46 177.027C1231.3 174.75 1232.22 171.648 1229.58 169.581C1227.3 167.798 1224.28 170.996 1224.24 170.987C1223.57 170.85 1218.14 166.824 1214.71 161.502C1210.71 161.25 1210.43 158.555 1211.64 156.527C1212.85 154.5 1219.09 152.528 1222.35 152.396Z" fill="#2C2003"/>
<path fill-rule="evenodd" clip-rule="evenodd" d="M1227.4 270.567L1200.48 363.528L1187.82 433.325H1175.11L1187.79 270.567H1227.4Z" fill="#784931"/>
<path fill-rule="evenodd" clip-rule="evenodd" d="M1239.5 270.567C1237.62 318.86 1238.36 345.2 1238.78 349.588C1239.2 353.975 1241.59 383.361 1257.85 434.798H1244.63C1223.09 385.453 1215.58 356.067 1213.11 349.588C1210.63 343.108 1203.34 316.768 1192.69 270.567H1239.5Z" fill="#915B3C"/>
<path fill-rule="evenodd" clip-rule="evenodd" d="M1227.98 270.567C1220.97 302.555 1208.86 353.617 1191.64 423.751H1173.05C1171.68 351.765 1177.52 304.386 1187.64 270.567H1227.98Z" fill="#386B4A"/>
<path fill-rule="evenodd" clip-rule="evenodd" d="M1239.59 270.567C1237.75 318.86 1242.52 366.438 1257.29 424.503H1237.46C1215.88 375.894 1200.41 328.551 1189.84 270.567H1239.59Z" fill="#558345"/>
<path fill-rule="evenodd" clip-rule="evenodd" d="M1140.61 266.793L1166.69 253.879L1169.57 267.422L1145.03 272.887C1137.23 279.356 1133.05 281.891 1132.51 280.491C1132.05 279.31 1132.73 278.4 1133.36 277.562C1133.85 276.909 1134.3 276.3 1134.16 275.64C1133.84 274.133 1129.47 273.515 1125.3 273.106C1121.13 272.696 1122.65 271.073 1123.8 270.342C1128.45 268.563 1134.05 267.38 1140.61 266.793ZM1256.41 318.098C1255.05 313.412 1255.23 270.112 1255.23 270.112L1240.09 267.502C1240.09 267.502 1246.12 315.29 1246.75 318.26C1247.56 322.118 1244.18 326.916 1241.88 330.17C1241.53 330.673 1241.2 331.139 1240.92 331.56C1243.05 333.008 1244.39 331.948 1245.79 330.831C1247.38 329.569 1249.06 328.234 1252.1 330.356C1253.27 331.177 1254.35 332.093 1255.41 332.988C1259.07 336.081 1262.43 338.922 1268.07 336.672C1268.97 336.316 1270.18 334.593 1268.3 332.746C1263.62 328.147 1257.08 320.389 1256.41 318.098Z" fill="#915B3C"/>
<path fill-rule="evenodd" clip-rule="evenodd" d="M1223.45 198.928L1217.38 196.747C1190.62 212.75 1174.28 249.683 1142.21 265.116L1147.57 274.835C1198.02 277.424 1218.56 232.481 1223.45 198.928Z" fill="#7C5A02"/>
<path fill-rule="evenodd" clip-rule="evenodd" d="M1236.85 282.557C1236.85 282.557 1199.21 275.913 1181.47 272.783C1178.94 272.336 1180.06 268.759 1180.76 266.976C1188.73 246.398 1209.26 226.321 1214.61 195.968L1231.02 196.277C1240.48 219.902 1240.44 246.924 1236.85 282.557Z" fill="#DDE3E9"/>
<path fill-rule="evenodd" clip-rule="evenodd" d="M1240.39 298.887C1241.83 305.315 1243.35 310.972 1244.94 315.392L1256.82 317.488C1265.39 276.316 1255.36 241.7 1245.65 220.182C1248.59 220.486 1251.43 219.73 1253.62 217.025C1261.31 207.499 1260.23 201.315 1254.33 198.303C1251.08 196.647 1247.73 196.794 1243.71 196.971C1240.43 197.115 1236.7 197.279 1232.23 196.491C1232.23 196.489 1232.23 196.489 1232.23 196.489L1232.23 196.49C1232.23 196.49 1232.23 196.49 1232.23 196.49C1231.79 196.413 1231.39 196.373 1231.03 196.365L1225.67 195.732C1225.67 195.732 1191.28 265.02 1196.62 291.161L1240.39 298.887Z" fill="#C56710"/>
<path fill-rule="evenodd" clip-rule="evenodd" d="M1240.39 298.887C1238.51 290.452 1236.78 280.687 1235.23 270.645C1232.19 280.866 1228.35 290.992 1224.04 295.999L1240.39 298.887Z" fill="black" fill-opacity="0.1"/>
<path fill-rule="evenodd" clip-rule="evenodd" d="M472.343 227.681C473.19 229.362 474.279 230.602 475.007 230.834C476.832 231.415 480.57 225.713 480.77 222.663C480.971 219.613 475.334 214.681 472.212 219.008C471.128 220.509 470.914 222.323 471.172 224.076L464.386 231.127L469.424 234.299L472.343 227.681Z" fill="#915B3C"/>
<path fill-rule="evenodd" clip-rule="evenodd" d="M470.95 216.119C470.888 215.854 470.943 215.566 471.003 215.298C471.065 215.019 471.131 214.739 471.226 214.468C471.415 213.926 471.753 213.378 472.319 213.221C472.773 213.095 473.261 213.217 473.653 213.424C473.914 213.561 474.148 213.758 474.338 213.987C474.526 214.215 474.634 214.5 474.803 214.742C475.13 214.235 475.55 213.753 476.079 213.478C476.589 213.213 477.132 213.226 477.621 213.448C478.124 213.675 478.514 214.072 478.788 214.559C478.857 214.68 478.923 214.804 478.98 214.933C479.027 215.041 479.071 215.163 479.153 215.246C479.245 215.34 479.337 215.311 479.457 215.276C479.596 215.234 479.74 215.211 479.882 215.2C480.514 215.152 481.164 215.378 481.546 215.885C481.722 216.119 481.853 216.411 481.882 216.717C481.907 216.989 481.825 217.345 481.938 217.595C481.986 217.701 482.089 217.665 482.196 217.659C482.358 217.649 482.52 217.627 482.682 217.62C482.909 217.611 483.132 217.637 483.343 217.71C483.652 217.817 484.016 218.067 483.872 218.472C483.818 218.624 483.707 218.753 483.614 218.882C483.487 219.059 483.359 219.236 483.228 219.41C483.129 219.543 483.029 219.669 482.918 219.79C482.858 219.855 482.729 219.964 482.715 220.058C482.697 220.174 482.91 220.236 482.985 220.287C483.133 220.389 483.269 220.513 483.369 220.667C483.447 220.786 483.515 220.933 483.483 221.088C483.463 221.183 483.407 221.258 483.344 221.329C483.269 221.415 483.256 221.477 483.208 221.581C483.475 221.608 484.324 221.829 484.184 222.254C484.137 222.396 483.983 222.492 483.868 222.563C483.664 222.688 483.443 222.779 483.223 222.862C482.765 223.033 482.286 223.128 481.81 223.167C482.085 223.577 481.873 224.143 481.358 224.235C481.13 224.275 480.916 224.182 480.738 224.058C480.673 224.012 480.592 223.925 480.532 223.904C480.499 223.892 480.454 223.897 480.413 223.875C480.143 223.73 479.889 223.483 479.672 223.266C479.285 222.879 478.992 222.395 478.846 221.847C478.809 221.707 478.765 221.612 478.644 221.537C478.538 221.472 478.416 221.436 478.309 221.372C478.025 221.204 477.859 220.908 477.657 220.654C477.422 220.996 477.082 221.322 476.742 221.549C476.465 221.734 476.198 221.618 475.944 221.49C475.133 221.08 474.415 220.515 473.647 220.034C474.285 220.67 475.009 221.223 475.621 221.885C475.898 222.184 475.504 222.25 475.265 222.317C474.871 222.427 474.499 222.637 474.169 222.897C474.102 222.192 473.655 221.474 472.995 221.262C472.266 221.029 471.293 221.606 471.313 222.474C471.325 222.978 471.66 223.381 471.916 223.756C471.465 223.87 471.136 224.251 470.751 224.504C470.561 224.628 470.323 224.755 470.104 224.702C470.023 224.683 469.943 224.635 469.855 224.657C469.747 224.684 469.684 224.75 469.564 224.756C469.084 224.78 468.573 224.433 468.466 223.941C468.37 223.495 468.711 223.102 469.109 222.963C468.845 222.589 468.315 221.987 468.804 221.517C468.063 220.979 466.971 218.537 468.579 218.268C468.211 217.586 468.179 216.465 468.978 215.998C469.592 215.638 470.396 215.81 470.95 216.119Z" fill="#184747"/>
<path fill-rule="evenodd" clip-rule="evenodd" d="M444.345 274.544C444.345 274.544 453.253 277.052 459.717 277.052C466.181 277.052 471.724 273.189 471.724 273.189C471.724 273.189 463.006 270.614 457.365 270.614C451.724 270.614 444.345 274.544 444.345 274.544Z" fill="#1C9FA8"/>
<path fill-rule="evenodd" clip-rule="evenodd" d="M464.858 279.463C464.801 279.376 464.752 279.282 464.714 279.18C463.92 277.066 451.204 254.262 449.938 250.093H464.254C465.217 253.263 469.552 273.155 470.162 277.124C472.087 283.385 476.05 303.66 476.556 305.064C477.089 306.542 474.094 308.081 473.296 306.265C472.026 303.374 469 295.377 467.653 290.493C466.39 285.915 465.362 281.796 464.858 279.463Z" fill="#784931"/>
<path fill-rule="evenodd" clip-rule="evenodd" d="M453.145 282.247C447.332 283.727 426.067 286.401 424.608 286.82C423.107 287.252 421.791 284.137 423.646 283.462C426.598 282.388 434.734 279.907 439.666 278.895C443.633 278.08 447.253 277.416 449.684 277.027C449.478 270.153 448.537 253.656 449.154 250.093H461.821C461.229 253.51 456.228 278.439 455.299 280.935C455.004 281.826 454.123 282.219 453.145 282.247Z" fill="#915B3C"/>
<path fill-rule="evenodd" clip-rule="evenodd" d="M423.995 284.836C423.797 283.705 423.348 282.398 422.204 282.494C422.157 282.498 422.114 282.503 422.074 282.51C421.415 282.627 420.188 283.073 420.188 283.073C420.323 283.844 422.613 296.919 422.613 296.919C422.613 296.919 424.48 297.144 424.417 295.956C424.355 294.768 424.334 293.979 424.334 293.979L425.801 288.068C425.975 287.367 425.538 286.661 424.834 286.505L424.8 286.497C424.8 286.497 424.113 285.509 423.995 284.836Z" fill="#E4E4E4"/>
<path fill-rule="evenodd" clip-rule="evenodd" d="M449.195 250.093C449.195 250.093 457.568 247.681 465.04 250.093C466.773 258.054 470.984 261.214 471.725 273.419C463.307 277.63 452.909 270.416 444.244 274.523C441.768 268.779 445.234 254.945 449.195 250.093Z" fill="#393939"/>
<path fill-rule="evenodd" clip-rule="evenodd" d="M481.084 264.337L476.995 255.384L473.382 258.33L478.64 264.995C479.314 268.359 479.87 269.915 480.307 269.663C480.676 269.45 480.691 269.066 480.704 268.712C480.714 268.437 480.724 268.18 480.9 268.036C481.302 267.708 482.575 268.477 483.752 269.259C484.929 270.041 484.874 269.289 484.727 268.852C483.888 267.394 482.674 265.889 481.084 264.337ZM438.997 258.771C440.2 257.651 447.635 245.071 447.635 245.071L452.45 246.955C452.45 246.955 442.449 259.753 441.755 260.504C440.852 261.479 440.998 263.461 441.098 264.804C441.113 265.012 441.127 265.204 441.136 265.376C440.27 265.423 440.069 264.883 439.856 264.314C439.616 263.671 439.362 262.99 438.121 263.077C437.642 263.11 437.171 263.187 436.711 263.262C435.122 263.52 433.662 263.757 432.423 262.12C432.227 261.861 432.174 261.149 433.035 260.942C435.18 260.426 438.409 259.319 438.997 258.771Z" fill="#915B3C"/>
<path fill-rule="evenodd" clip-rule="evenodd" d="M469.107 229.984L471.234 230.411C471.374 240.385 474.379 250.561 480.246 260.936L470.761 266.352C466.036 252.982 464.715 240.562 469.107 229.984Z" fill="#184747"/>
<path fill-rule="evenodd" clip-rule="evenodd" d="M450.782 251.883L468.55 258.754C468.55 258.754 468.139 241.241 472.167 230.669L467.114 227.792C460.301 232.988 455.91 240.931 450.782 251.883Z" fill="#DDE3E9"/>
<path fill-rule="evenodd" clip-rule="evenodd" d="M467 227.752L466.997 227.747C466.997 227.747 450.142 235.098 439.783 256.432L448.443 259.781C448.743 258.781 449.065 257.803 449.407 256.848L461.037 261.345C461.037 261.345 466.717 239.831 469.11 232.932L469.236 228.702C469.236 228.702 467.973 228.149 467.353 227.884L467.003 227.749C467.002 227.75 467.001 227.751 467 227.752Z" fill="#2F7661"/>
<path fill-rule="evenodd" clip-rule="evenodd" d="M449.374 256.94C450.853 252.778 452.693 249.044 454.635 245.772C453.367 250.055 452.122 255.318 452.614 258.193L449.374 256.94Z" fill="black" fill-opacity="0.1"/>
<path fill-rule="evenodd" clip-rule="evenodd" d="M454.694 250.729L461.462 250.26L460.437 252.95L454.694 250.729Z" fill="white" fill-opacity="0.2"/>
<g opacity="0.1">
<path fill-rule="evenodd" clip-rule="evenodd" d="M487.535 284.05C487.535 284.055 487.534 284.061 487.533 284.067C487.534 284.062 487.533 284.042 487.535 284.05Z" fill="#C5CFD6"/>
<path fill-rule="evenodd" clip-rule="evenodd" d="M487.533 284.058C487.533 284.059 487.533 284.062 487.533 284.063C487.532 284.059 487.537 284.042 487.533 284.058Z" fill="#C5CFD6"/>
<path fill-rule="evenodd" clip-rule="evenodd" d="M487.545 283.97C487.543 283.99 487.539 284.011 487.537 284.032C487.538 284.021 487.54 284.012 487.541 284.002C487.507 284.274 487.528 284.098 487.545 283.97Z" fill="#C5CFD6"/>
<path fill-rule="evenodd" clip-rule="evenodd" d="M487.538 284.032C487.537 284.042 487.535 284.052 487.534 284.062C487.521 284.122 487.538 284.032 487.538 284.032Z" fill="#C5CFD6"/>
<path fill-rule="evenodd" clip-rule="evenodd" d="M487.533 284.059C487.533 284.058 487.533 284.058 487.534 284.056C487.533 284.058 487.533 284.058 487.533 284.059Z" fill="#C5CFD6"/>
<path fill-rule="evenodd" clip-rule="evenodd" d="M487.531 284.066C487.528 284.079 487.545 284.016 487.531 284.066V284.066Z" fill="#C5CFD6"/>
<path fill-rule="evenodd" clip-rule="evenodd" d="M487.533 284.059L487.534 284.056C487.534 284.057 487.534 284.058 487.533 284.059Z" fill="#C5CFD6"/>
<rect width="89.5951" height="64.4632" rx="4" transform="matrix(0.964073 -0.265075 0.220494 0.975246 432.544 244.749)" fill="#3CA7AE"/>
<path fill-rule="evenodd" clip-rule="evenodd" d="M444.455 255.259L425.609 305.753L482.158 289.816L444.455 255.259Z" fill="black" fill-opacity="0.2"/>
<path fill-rule="evenodd" clip-rule="evenodd" d="M475.498 260.002L457.491 297.896L507.254 283.906L475.498 260.002Z" fill="black" fill-opacity="0.2"/>
<path fill-rule="evenodd" clip-rule="evenodd" d="M507.26 256.909C511.792 255.663 514.55 250.602 513.42 245.604C512.29 240.606 507.701 237.565 503.169 238.811C498.637 240.057 495.879 245.119 497.009 250.117C498.139 255.114 502.729 258.155 507.26 256.909Z" fill="white"/>
</g>
<path fill-rule="evenodd" clip-rule="evenodd" d="M210.576 153.41C211.196 150.396 211.622 143.355 213.609 141.337C214.888 140.037 216.967 145.315 217.467 146.266C219.402 149.946 220.843 153.86 222.183 157.817C224.601 164.954 224.585 172.467 223.332 180.307C222.686 184.342 221.695 188.606 219.188 192.246C218.034 193.922 216.211 195.071 215.019 196.621C213.63 198.425 214.276 197.221 214.294 199.322C214.32 202.239 215.452 205.416 216.164 208.164C219.43 220.777 243.59 283.777 250.369 294.763C250.97 295.737 249.481 296.841 248.776 295.637C245.038 289.252 225.816 241.489 220.187 225.519C214.557 209.548 209.824 195.311 209.125 189.12C208.277 181.609 208.643 171.837 209.164 164.132C209.406 160.553 209.839 156.991 210.576 153.41Z" fill="#A36633"/>
<path fill-rule="evenodd" clip-rule="evenodd" d="M260.315 221.989C263.172 216.928 270.346 219.7 267.891 224.544C266.534 227.221 264.05 227.869 262.171 227.261C261.798 228.579 261.497 229.909 261.155 231.08C260.112 234.647 259.219 238.206 258.446 241.771C256.842 249.178 255.976 256.556 254.899 263.921C253.836 271.19 252.816 278.471 252.163 285.688C251.611 291.803 250.519 299.234 252.042 304.79C248.228 293.323 248.719 280.059 250.691 267.073C252.648 254.193 255.15 239.929 261.685 227.073C259.976 226.269 258.985 224.341 260.315 221.989Z" fill="#A36633"/>
<path fill-rule="evenodd" clip-rule="evenodd" d="M168.389 236.339C170.994 235.467 177.311 238.195 180.202 238.974C183.638 239.9 186.927 241.088 190.149 242.452C197.084 245.389 203.728 248.904 209.912 252.97C219.994 259.598 229.134 267.052 237.391 275.734C242.445 281.048 246.941 286.955 250.912 293.087C251.661 294.243 257.816 302.953 255.857 304.331C254.096 305.57 250.986 297.823 250.394 296.861C243.709 286.001 235.136 276.547 225.536 268.085C223.445 266.242 221.159 263.836 218.628 262.526C216.805 261.583 218.129 261.542 215.965 261.978C214.106 262.352 212.328 263.461 210.375 263.746C206.135 264.364 201.996 263.362 198.205 262.155C190.838 259.809 184.285 256.508 179.096 251.215C176.218 248.28 173.422 245.276 171.04 241.936C170.424 241.073 166.711 236.9 168.389 236.339Z" fill="#1C9FA8"/>
<path fill-rule="evenodd" clip-rule="evenodd" d="M135.142 148.903C151.438 158.115 166.787 169.595 179.552 182.705C187.285 190.649 194.252 199.317 201.171 207.922C211.883 221.245 222.422 234.659 230.937 249.493C239.501 264.412 250.09 281.24 251.808 299.092C247.125 282.535 236.398 267.972 228.341 253.096C224.494 245.994 220.248 239.195 215.78 232.478C211.446 225.963 206.592 219.766 201.843 213.541C199.531 210.509 197.189 207.499 194.837 204.497C194.135 203.602 192.561 200.673 191.499 200.372C190.429 200.069 186.594 201.758 185.18 201.871C182.334 202.098 179.413 201.823 176.702 201.332C171.507 200.389 166.347 198.29 161.897 195.881C151.601 190.306 143.896 180.91 138.951 170.732C137.991 168.756 130.976 145.703 129.395 146.177C129.437 146.042 129.472 145.906 129.501 145.768C131.393 146.797 133.27 147.847 135.142 148.903Z" fill="#1C9FA8"/>
<path fill-rule="evenodd" clip-rule="evenodd" d="M256.495 151.473C256.546 151.219 256.834 149.489 256.417 149.813C257.265 149.152 255.822 151.872 257.666 149.687C257.027 151.202 258.256 152.062 258.887 153.298C259.913 155.306 260.527 157.513 261.081 159.719C261.956 163.207 262.458 166.785 262.442 170.476C262.406 178.518 260.036 187.518 255.597 194.924C253.405 198.58 250.638 200.913 247.479 203.753C245.484 205.547 245.825 206.695 245.593 209.317C245.113 214.777 244.669 220.197 244.554 225.636C244.417 232.13 244.36 238.588 244.49 245.051C244.928 266.821 247.197 288.398 252.937 308.904C247.41 297.974 244.652 285.139 243.056 272.745C241.892 263.715 241.654 254.536 241.679 245.308C241.686 243.073 241.895 240.089 241.305 237.942C240.891 236.438 239.441 235.558 238.363 234.319C234.163 229.497 231.16 223.178 229.627 216.882C227.937 209.94 230.509 204.911 236.836 200.393C239.15 198.74 242.352 197.166 244.153 195.005C246.116 192.65 245.466 188.734 245.799 185.816C246.694 177.978 248.417 169.995 251.14 162.331C251.894 160.209 252.807 158.134 253.859 156.1C254.523 154.817 256.243 152.75 256.495 151.473Z" fill="#2F6267"/>
<path opacity="0.6" fill-rule="evenodd" clip-rule="evenodd" d="M158.796 88.3135L135.81 111.747L158.796 135.18L181.781 111.747L158.796 88.3135Z" fill="#E9B58F"/>
<path opacity="0.6" fill-rule="evenodd" clip-rule="evenodd" d="M329.297 249L292.367 286.5L329.297 324L366.228 286.5L329.297 249Z" fill="#1C9FA8"/>
<path opacity="0.6" fill-rule="evenodd" clip-rule="evenodd" d="M217.128 48L201.401 64.1607L217.128 80.3214L232.854 64.1607L217.128 48Z" fill="#1C9FA8"/>
<path opacity="0.6" fill-rule="evenodd" clip-rule="evenodd" d="M319.933 221L304.206 237.161L319.933 253.321L335.66 237.161L319.933 221Z" fill="#E9B58F"/>
<g clip-path="url(#clip16)">
<path fill-rule="evenodd" clip-rule="evenodd" d="M343.748 15.3755C342.973 15.0393 342.195 14.7195 341.404 14.4237C340.801 14.1983 339.954 13.6854 339.293 13.8347C338.606 13.9897 338.295 14.7832 338.132 15.3678C337.267 18.4593 337.165 21.4894 338.434 24.497C340.388 29.1281 343.528 32.4138 347.772 35.1133C350.753 37.0096 354.023 37.5955 357.393 36.3498C357.699 40.2864 357.438 44.382 356.51 48.2272C356.053 50.1246 355.379 51.9031 354.527 53.6671C353.98 54.7969 353.408 55.9124 352.778 56.9991C352.504 57.4714 351.917 58.1113 351.903 58.6642C351.887 59.3133 352.634 59.7013 353.189 59.3827C353.65 59.1175 353.938 58.3282 354.203 57.8921C354.642 57.1675 355.074 56.4392 355.482 55.6967C356.143 54.495 356.777 53.2779 357.329 52.0232C358.567 49.204 359.196 46.1067 359.525 43.0628C360.156 37.2233 359.508 31.5082 356.94 26.129C355.36 22.8214 352.83 20.6605 349.722 18.7407C347.788 17.5454 345.842 16.2852 343.748 15.3755Z" fill="#89C5CC"/>
<path fill-rule="evenodd" clip-rule="evenodd" d="M346.623 40.9349C338.268 37.3052 329.656 41.5688 323.894 47.3849C321.722 49.5772 320.203 52.3608 318.589 54.9523C318.071 55.7839 317.517 57.1533 316.805 57.7854C316.547 58.0146 316.201 57.9871 316.171 58.4392C316.153 58.7129 316.259 58.9316 316.494 59.0896C316.977 59.4143 317.974 59.167 318.524 59.1377C323.093 58.8941 326.832 57.0737 330.407 54.4116C332.623 52.7617 334.894 51.0362 336.701 48.9531C337.804 47.6805 338.755 46.2481 339.586 44.7918C339.914 44.2183 340.246 43.6297 340.511 43.0246C340.774 42.4242 340.635 41.9862 340.666 41.3777C343.921 41.5375 347.195 42.6181 349.535 44.9343C351.699 47.0765 353.002 49.9662 353.129 52.9402C353.162 53.7131 353.107 54.4897 352.98 55.2509C352.896 55.7494 352.643 56.3333 352.678 56.8318C352.763 58.0406 354.152 57.8607 354.454 56.9006C355.295 54.2226 354.969 51.0259 353.886 48.4395C352.52 45.1776 349.946 42.3783 346.623 40.9349Z" fill="#89C5CC"/>
<rect width="102.314" height="192.776" rx="5.09671" transform="matrix(0.917196 0.398436 -0.406459 0.913669 420.519 -102.693)" fill="#DDE3E9"/>
<path fill-rule="evenodd" clip-rule="evenodd" d="M394.034 82.3672C398.874 84.4701 404.538 82.2656 406.683 77.4434C408.828 72.6213 406.643 67.0074 401.802 64.9045C396.961 62.8016 391.298 65.0061 389.153 69.8283C387.008 74.6504 389.193 80.2643 394.034 82.3672Z" fill="white"/>
<g clip-path="url(#clip17)">
<g clip-path="url(#clip18)">
<rect width="84.4587" height="26.7578" rx="2.54836" transform="matrix(0.917196 0.398436 -0.406459 0.913669 405.112 -46.8738)" fill="white"/>
</g>
<g clip-path="url(#clip19)">
<rect width="84.4587" height="26.7578" rx="2.54836" transform="matrix(0.917196 0.398436 -0.406459 0.913669 392.164 -17.7695)" fill="white"/>
<g clip-path="url(#clip20)">
<rect width="47.5075" height="4.01366" rx="1.91127" transform="matrix(0.917196 0.398436 -0.406459 0.913669 394.16 -8.15063)" fill="#DDE3E9"/>
<rect width="31.8886" height="4.01366" rx="1.91127" transform="matrix(0.917196 0.398436 -0.406459 0.913669 391.441 -2.03882)" fill="#AFB9C5"/>
</g>
<path fill-rule="evenodd" clip-rule="evenodd" d="M453.28 28.2284C455.54 29.2097 458.182 28.181 459.183 25.9306C460.185 23.6803 459.165 21.0605 456.906 20.0791C454.647 19.0978 452.004 20.1265 451.003 22.3769C450.002 24.6272 451.021 27.247 453.28 28.2284Z" fill="#DDE3E9"/>
<path fill-rule="evenodd" clip-rule="evenodd" d="M454.316 25.8998C455.285 26.3204 456.417 25.8795 456.846 24.9151C457.275 23.9506 456.838 22.8278 455.87 22.4073C454.902 21.9867 453.769 22.4276 453.34 23.392C452.911 24.3565 453.348 25.4792 454.316 25.8998Z" fill="#F2F2F2"/>
</g>
<g clip-path="url(#clip21)">
<rect width="84.4587" height="26.7578" rx="2.54836" transform="matrix(0.917196 0.398436 -0.406459 0.913669 379.217 11.3352)" fill="white"/>
<g clip-path="url(#clip22)">
<rect width="47.5075" height="4.01366" rx="1.91127" transform="matrix(0.917196 0.398436 -0.406459 0.913669 398.743 28.5693)" fill="#DDE3E9"/>
<rect width="31.8886" height="4.01366" rx="1.91127" transform="matrix(0.917196 0.398436 -0.406459 0.913669 396.024 34.6812)" fill="#DDE3E9"/>
</g>
<path fill-rule="evenodd" clip-rule="evenodd" d="M382.943 35.8749C386.815 37.5572 391.346 35.7936 393.062 31.9359C394.778 28.0781 393.03 23.587 389.158 21.9047C385.285 20.2224 380.754 21.986 379.038 25.8437C377.322 29.7015 379.07 34.1925 382.943 35.8749Z" fill="#C5CFD6"/>
</g>
</g>
</g>
</g>
</g>
<defs>
<clipPath id="clip0">
<rect width="78.4162" height="192.835" fill="white" transform="matrix(0.924333 -0.363026 0.320275 0.941058 815.447 116.299)"/>
</clipPath>
<clipPath id="clip1">
<rect width="60.4433" height="76.4131" fill="white" transform="matrix(0.924333 -0.363026 0.320275 0.941058 826.282 121.331)"/>
</clipPath>
<clipPath id="clip2">
<rect width="244.534" height="274.203" fill="white" transform="matrix(0.923504 -0.366443 0.317191 0.942603 562.42 120.421)"/>
</clipPath>
<clipPath id="clip3">
<rect width="244.534" height="45.7005" fill="white" transform="matrix(0.923504 -0.366443 0.317191 0.942603 562.42 120.421)"/>
</clipPath>
<clipPath id="clip4">
<rect width="216.766" height="18.2802" fill="white" transform="matrix(0.923504 -0.366443 0.317191 0.942603 570.788 131.749)"/>
</clipPath>
<clipPath id="clip5">
<rect width="244.534" height="37.9217" fill="white" transform="matrix(0.923504 -0.366443 0.317191 0.942603 579.384 170.831)"/>
</clipPath>
<clipPath id="clip6">
<rect width="216.766" height="15.1687" fill="white" transform="matrix(0.923504 -0.366443 0.317191 0.942603 587.012 179.959)"/>
</clipPath>
<clipPath id="clip7">
<rect width="244.534" height="37.9217" fill="white" transform="matrix(0.923504 -0.366443 0.317191 0.942603 593.879 213.908)"/>
</clipPath>
<clipPath id="clip8">
<rect width="216.766" height="15.1687" fill="white" transform="matrix(0.923504 -0.366443 0.317191 0.942603 601.507 223.036)"/>
</clipPath>
<clipPath id="clip9">
<rect width="244.534" height="37.9217" fill="white" transform="matrix(0.923504 -0.366443 0.317191 0.942603 637.366 343.14)"/>
</clipPath>
<clipPath id="clip10">
<rect width="216.766" height="15.1687" fill="white" transform="matrix(0.923504 -0.366443 0.317191 0.942603 644.994 352.269)"/>
</clipPath>
<clipPath id="clip11">
<rect width="244.534" height="37.9217" fill="white" transform="matrix(0.923504 -0.366443 0.317191 0.942603 622.871 300.063)"/>
</clipPath>
<clipPath id="clip12">
<rect width="216.766" height="15.1687" fill="white" transform="matrix(0.923504 -0.366443 0.317191 0.942603 630.499 309.191)"/>
</clipPath>
<clipPath id="clip13">
<rect width="244.534" height="37.9217" fill="white" transform="matrix(0.923504 -0.366443 0.317191 0.942603 608.375 256.985)"/>
</clipPath>
<clipPath id="clip14">
<rect width="216.766" height="15.1687" fill="white" transform="matrix(0.923504 -0.366443 0.317191 0.942603 616.003 266.114)"/>
</clipPath>
<clipPath id="clip15">
<rect width="214.037" height="16.912" fill="white" transform="matrix(-0.92594 -0.37767 -0.346766 0.937952 1237.62 74.5527)"/>
</clipPath>
<clipPath id="clip16">
<rect width="133.201" height="192.776" fill="white" transform="matrix(0.917196 0.398436 -0.406459 0.913669 392.188 -115)"/>
</clipPath>
<clipPath id="clip17">
<rect width="84.4587" height="129.966" fill="white" transform="matrix(0.917196 0.398436 -0.406459 0.913669 421.167 -82.9634)"/>
</clipPath>
<clipPath id="clip18">
<rect width="84.4587" height="26.7578" fill="white" transform="matrix(0.917196 0.398436 -0.406459 0.913669 405.112 -46.8738)"/>
</clipPath>
<clipPath id="clip19">
<rect width="84.4587" height="26.7578" fill="white" transform="matrix(0.917196 0.398436 -0.406459 0.913669 392.164 -17.7695)"/>
</clipPath>
<clipPath id="clip20">
<rect width="47.5075" height="10.7031" fill="white" transform="matrix(0.917196 0.398436 -0.406459 0.913669 394.16 -8.15063)"/>
</clipPath>
<clipPath id="clip21">
<rect width="84.4587" height="26.7578" fill="white" transform="matrix(0.917196 0.398436 -0.406459 0.913669 379.217 11.3352)"/>
</clipPath>
<clipPath id="clip22">
<rect width="47.5075" height="10.7031" fill="white" transform="matrix(0.917196 0.398436 -0.406459 0.913669 398.743 28.5693)"/>
</clipPath>
</defs>
</svg>
