<svg width="137" height="127" viewBox="0 0 137 127" fill="none" xmlns="http://www.w3.org/2000/svg">
<path d="M32.968 83.748H22.3325C14.4888 83.748 7.97452 89.6819 7.04392 97.5039L5.58153 110.046C5.44859 111.664 6.51214 113.283 7.97452 113.552C14.0899 114.901 20.7371 115.575 27.6502 115.575C30.1762 115.575 32.7021 115.44 34.9621 115.305V115.171L36.8234 99.7965C37.4881 94.9415 39.3493 90.4911 42.1411 86.9847C39.6152 84.9618 36.4245 83.748 32.968 83.748Z" fill="#A36633"/>
<path d="M130.284 97.504C129.353 89.682 122.839 83.748 114.995 83.748H104.36C101.036 83.748 97.8453 84.8269 95.3193 86.9847C98.1112 90.626 99.9724 94.9416 100.504 99.7967L102.232 115.306V115.441C104.625 115.576 107.018 115.71 109.544 115.71C116.457 115.71 122.972 115.036 129.22 113.687C130.815 113.283 131.879 111.799 131.613 110.181L130.284 97.504Z" fill="#A36633"/>
<path d="M27.6509 78.4887C35.5806 78.4887 42.0089 71.9678 42.0089 63.9238C42.0089 55.8798 35.5806 49.3589 27.6509 49.3589C19.7212 49.3589 13.293 55.8798 13.293 63.9238C13.293 71.9678 19.7212 78.4887 27.6509 78.4887Z" fill="#A36633"/>
<path d="M109.81 78.4887C117.74 78.4887 124.168 71.9678 124.168 63.9238C124.168 55.8798 117.74 49.3589 109.81 49.3589C101.88 49.3589 95.4521 55.8798 95.4521 63.9238C95.4521 71.9678 101.88 78.4887 109.81 78.4887Z" fill="#A36633"/>
<path d="M75.2449 83.8835H62.0834C52.6444 83.8835 44.6678 91.0312 43.4713 100.606L41.6101 116.115C41.3442 118.138 42.6736 120.026 44.5348 120.431C52.1126 122.049 60.2222 122.993 68.5977 122.993C76.9731 122.993 85.0827 122.184 92.6605 120.431C94.6547 120.026 95.8512 118.138 95.7182 116.115L93.857 100.606C92.7935 91.166 84.8168 83.8835 75.2449 83.8835Z" fill="#A36633"/>
<path d="M68.7304 77.9496C78.4956 77.9496 86.4119 69.9191 86.4119 60.013C86.4119 50.1069 78.4956 42.0764 68.7304 42.0764C58.9651 42.0764 51.0488 50.1069 51.0488 60.013C51.0488 69.9191 58.9651 77.9496 68.7304 77.9496Z" fill="#A36633"/>
<path d="M52.2462 32.3666C58.2287 32.3666 63.4135 28.9951 66.2053 24.0053H73.3843C73.7831 24.0053 74.049 23.8704 74.3149 23.6007L78.968 18.8805L83.0892 23.0612C83.621 23.6007 84.4187 23.6007 84.9504 23.0612L88.9387 18.8805L93.06 23.0612C93.5918 23.6007 94.3894 23.6007 94.9212 23.0612L100.904 17.1273C101.435 16.5879 101.435 15.7787 100.904 15.2393L94.3894 8.76597C94.1236 8.49624 93.8577 8.36138 93.4588 8.36138H66.2053C63.4135 3.37152 58.2287 0 52.2462 0C43.4719 0 36.293 7.28249 36.293 16.1833C36.293 25.219 43.4719 32.3666 52.2462 32.3666ZM46.7955 11.598C49.3215 11.598 51.3156 13.621 51.3156 16.1833C51.3156 18.7457 49.3215 20.7686 46.7955 20.7686C44.2696 20.7686 42.2754 18.7457 42.2754 16.1833C42.2754 13.621 44.2696 11.598 46.7955 11.598Z" fill="#A36633"/>
</svg>
