<svg width="107" height="128" viewBox="0 0 107 128" fill="none" xmlns="http://www.w3.org/2000/svg">
<path d="M53.4881 0.997803C52.0954 0.997803 50.9559 2.18843 50.9559 3.64364V14.227C50.9559 15.6822 52.0954 16.8728 53.4881 16.8728C54.8807 16.8728 56.0202 15.6822 56.0202 14.227V3.64364C56.0202 2.18843 54.8807 0.997803 53.4881 0.997803ZM17.6832 16.5024C17.0375 16.5024 16.3918 16.767 15.898 17.2829C14.9105 18.3148 14.9105 19.9684 15.898 21.0003L23.064 28.488C24.0516 29.5199 25.6342 29.5199 26.6217 28.488C27.6093 27.4562 27.6093 25.8025 26.6217 24.7707L19.4557 17.2829C18.9619 16.767 18.3289 16.5024 17.6832 16.5024ZM89.2929 16.5024C88.6472 16.5024 88.0015 16.767 87.5078 17.2829L80.3417 24.7707C79.3542 25.8025 79.3542 27.4562 80.3417 28.488C81.3293 29.5199 82.9119 29.5199 83.8994 28.488L91.0655 21.0003C92.053 19.9684 92.053 18.3148 91.0655 17.2829C90.5843 16.767 89.9386 16.5024 89.2929 16.5024ZM53.4881 24.8103C38.0418 24.8103 23.102 37.3251 23.102 55.0258C23.102 76.6819 37.738 82.1984 39.4092 96.2478H67.5796C69.2508 82.1984 83.8867 76.6951 83.8867 55.0258C83.8741 37.3251 68.9343 24.8103 53.4881 24.8103ZM50.6773 31.5969C52.3233 31.5175 53.7286 32.3907 53.6906 34.1237C53.7286 35.5127 52.5638 36.8092 51.2344 36.8489C41.7894 37.9998 34.4968 46.3606 34.4968 56.5603C34.4968 58.5976 34.788 60.5423 35.3324 62.3944C35.8642 63.757 35.0539 65.4768 33.7118 65.9133C32.3698 66.3367 30.7872 65.3709 30.5086 63.929C29.8249 61.5874 29.4451 59.14 29.4451 56.5735C29.4324 43.7016 38.7255 33.0521 50.6773 31.5969ZM2.84467 53.9145C1.45198 53.9145 0.3125 55.1051 0.3125 56.5603C0.3125 58.0155 1.45198 59.2061 2.84467 59.2061H12.9733C14.366 59.2061 15.5055 58.0155 15.5055 56.5603C15.5055 55.1051 14.366 53.9145 12.9733 53.9145H2.84467ZM94.0028 53.9145C92.6101 53.9145 91.4706 55.1051 91.4706 56.5603C91.4706 58.0155 92.6101 59.2061 94.0028 59.2061H104.131C105.524 59.2061 106.664 58.0155 106.664 56.5603C106.664 55.1051 105.524 53.9145 104.131 53.9145H94.0028ZM39.5611 101.539V106.831H67.415V101.539H39.5611ZM39.5611 112.123V114.769C39.5611 117.811 41.954 120.06 44.6255 120.06H48.4237V122.706C48.4237 125.643 50.6773 127.998 53.4881 127.998C56.2988 127.998 58.5524 125.643 58.5524 122.706V120.06H62.3506C65.0221 120.06 67.415 117.811 67.415 114.769V112.123H39.5611Z" fill="#A36633"/>
</svg>
