<svg width="105" height="127" viewBox="0 0 105 127" fill="none" xmlns="http://www.w3.org/2000/svg">
<g clip-path="url(#clip0)">
<path d="M105.116 74.0611L99.103 37.9664C98.8471 36.0948 97.4398 34.6243 95.7765 34.0895C94.3692 33.6885 92.9618 33.9558 91.9383 34.758C90.7868 35.5601 90.1471 36.8969 90.0192 38.3674L88.3559 59.4895C89.2515 59.8906 90.275 60.4253 91.0427 61.2274C93.8574 64.1685 94.2412 68.8474 91.6824 72.1895L81.703 85.4243C80.9353 86.4937 79.4 86.6274 78.3765 85.8253C77.353 85.0232 77.0971 83.419 77.9927 82.3495L87.9721 69.1148C88.8677 67.778 88.8677 65.9064 87.7162 64.8369C87.0765 64.1685 86.3089 63.9011 85.5412 63.9011C84.9015 63.9011 84.2618 64.1685 83.6221 64.5695L69.1648 75.6653C66.35 77.8043 64.4309 81.1464 64.0471 84.7558L61.4883 105.477H88.4839L101.278 89.4348C104.604 85.1569 106.012 79.5422 105.116 74.0611Z" fill="#A36633"/>
<path d="M88.8681 110.423H60.2092C58.6739 110.423 57.3945 111.76 57.3945 113.364V124.059C57.3945 125.663 58.6739 127 60.2092 127H88.8681C90.4034 127 91.6828 125.663 91.6828 124.059V113.364C91.5548 111.76 90.4034 110.423 88.8681 110.423Z" fill="#A36633"/>
<path d="M44.9848 105.477L42.426 84.7558C41.9142 81.1464 40.123 77.8043 37.3083 75.6653L22.851 64.5695C21.5716 63.6337 19.9083 63.7674 18.7569 64.8369C17.6054 66.0401 17.4775 67.9116 18.501 69.1148L28.4804 82.3495C29.248 83.419 29.1201 85.0232 28.0966 85.8253C27.073 86.6274 25.5377 86.4937 24.7701 85.4243L14.7907 72.1895C12.3598 68.8474 12.6157 64.1685 15.4304 61.2274C16.198 60.4253 17.0936 59.7569 18.1172 59.4895L16.5819 38.3674C16.4539 36.8969 15.8142 35.6937 14.6627 34.758C13.5113 33.9558 12.1039 33.6885 10.8245 34.0895C9.03334 34.6243 7.75392 36.0948 7.49804 37.9664L1.48481 74.0611C0.589217 79.5422 1.99657 85.1569 5.45098 89.4348L18.2451 105.477H44.9848Z" fill="#A36633"/>
<path d="M46.1356 110.423H17.4768C15.9415 110.423 14.6621 111.76 14.6621 113.364V124.059C14.6621 125.663 15.9415 127 17.4768 127H46.1356C47.6709 127 48.9503 125.663 48.9503 124.059V113.364C48.9503 111.76 47.6709 110.423 46.1356 110.423Z" fill="#A36633"/>
<path d="M64.9435 58.1525C64.9435 52.6714 60.7215 48.2599 55.4759 48.2599H50.87C48.8229 48.2599 47.0318 46.522 47.0318 44.2493C47.0318 41.9767 48.695 40.2388 50.87 40.2388H55.4759C57.5229 40.2388 59.3141 41.9767 59.3141 44.2493H64.9435C64.9435 39.0357 60.9773 34.7578 55.9876 34.4904V29.4104H50.3582V34.4904C45.3685 34.7578 41.4023 39.0357 41.4023 44.2493C41.4023 49.7304 45.6244 54.142 50.87 54.142H55.4759C57.5229 54.142 59.3141 55.8799 59.3141 58.1525C59.3141 60.4251 57.6509 62.163 55.4759 62.163H50.87C48.8229 62.163 47.0318 60.4251 47.0318 58.1525H41.4023C41.4023 63.3662 45.3685 67.6441 50.3582 67.9114V72.9914H55.9876V67.9114C60.9773 67.6441 64.9435 63.3662 64.9435 58.1525Z" fill="#A36633"/>
<path d="M53.1721 18.1811C54.7074 18.1811 55.9868 16.8442 55.9868 15.24V2.94105C55.9868 1.33684 54.7074 0 53.1721 0C51.6368 0 50.3574 1.33684 50.3574 2.94105V15.24C50.3574 16.8442 51.6368 18.1811 53.1721 18.1811Z" fill="#A36633"/>
<path d="M67.5016 21.1221C67.8855 21.2557 68.2693 21.3894 68.5252 21.3894C69.6766 21.3894 70.7002 20.721 71.084 19.5178L75.5619 8.15468C76.2016 6.68416 75.434 4.94626 74.0266 4.27784C72.6193 3.60942 70.956 4.41152 70.3163 5.88205L65.9663 17.3789C65.3266 18.8494 66.0943 20.5873 67.5016 21.1221Z" fill="#A36633"/>
<path d="M81.5757 30.4801C82.3433 30.4801 82.983 30.2127 83.6228 29.6779L91.9389 20.9885C93.0904 19.7853 93.0904 18.0474 91.9389 16.8443C90.7875 15.6411 89.1242 15.6411 87.9727 16.8443L79.6566 25.5337C78.5051 26.7369 78.5051 28.4748 79.6566 29.6779C80.1683 30.2127 80.808 30.4801 81.5757 30.4801Z" fill="#A36633"/>
<path d="M35.2607 19.5178C35.6445 20.5873 36.796 21.3894 37.8195 21.3894C38.2033 21.3894 38.5872 21.2557 38.843 21.1221C40.2504 20.4536 41.018 18.8494 40.3783 17.2452L35.9004 5.88205C35.2607 4.41152 33.5975 3.60942 32.1901 4.27784C30.7828 4.94626 30.0151 6.55047 30.6548 8.15468L35.2607 19.5178Z" fill="#A36633"/>
<path d="M22.7227 29.6778C23.2345 30.2126 24.0022 30.4799 24.7698 30.4799C25.5375 30.4799 26.1772 30.2126 26.8169 29.6778C27.9683 28.4747 27.9683 26.7368 26.8169 25.5336L18.3727 16.7105C17.2213 15.5073 15.558 15.5073 14.4066 16.7105C13.2551 17.9136 13.2551 19.6515 14.4066 20.8547L22.7227 29.6778Z" fill="#A36633"/>
</g>
<defs>
<clipPath id="clip0">
<rect width="104.899" height="127" fill="white"/>
</clipPath>
</defs>
</svg>
